<?xml version="1.0" encoding="utf-8"?>
<!-- Generator: Adobe Illustrator 16.0.0, SVG Export Plug-In . SVG Version: 6.00 Build 0)  -->
<!DOCTYPE svg PUBLIC "-//W3C//DTD SVG 1.1//EN" "http://www.w3.org/Graphics/SVG/1.1/DTD/svg11.dtd">
<svg version="1.1" xmlns="http://www.w3.org/2000/svg" xmlns:xlink="http://www.w3.org/1999/xlink" x="0px" y="0px" width="500px"
	 height="500px" viewBox="0 0 500 500" enable-background="new 0 0 500 500" xml:space="preserve">
<g id="Layer_1">
</g>
<g id="Layer_2">
	<path fill="#FFFFFF" d="M208.635,242.688H409.94v-18.872H208.635V242.688z M82.817,283.577h113.235v-59.762H82.817V283.577z
		 M126.854,258.415h25.164c3.476,0,6.29,2.814,6.29,6.29c0,3.473-2.814,6.291-6.29,6.291h-25.164c-3.477,0-6.291-2.818-6.291-6.291
		C120.562,261.229,123.377,258.415,126.854,258.415 M82.817,355.922h113.235V296.16H82.817V355.922z M126.854,330.759h25.164
		c3.476,0,6.29,2.818,6.29,6.291c0,3.476-2.814,6.291-6.29,6.291h-25.164c-3.477,0-6.291-2.815-6.291-6.291
		C120.562,333.577,123.377,330.759,126.854,330.759 M158.308,173.489h-25.164v37.745h25.164V173.489z M372.195,116.871
		c0-3.476-2.814-6.291-6.291-6.291H252.669c-3.477,0-6.29,2.815-6.29,6.291v69.199h125.816V116.871z M240.088,211.233h138.398
		c3.477,0,6.291-2.818,6.291-6.291c0-3.472-2.814-6.291-6.291-6.291H240.088c-3.478,0-6.291,2.818-6.291,6.291
		C233.797,208.415,236.61,211.233,240.088,211.233"/>
	<rect x="258.96" y="123.162" fill="#FAA21B" width="31.455" height="50.327"/>
	<path fill="#FAA21B" d="M82.817,283.577h113.235v-59.762H82.817V283.577z M152.018,270.996h-25.164
		c-3.477,0-6.291-2.818-6.291-6.291c0-3.476,2.814-6.29,6.291-6.29h25.164c3.476,0,6.29,2.814,6.29,6.29
		C158.308,268.178,155.493,270.996,152.018,270.996 M82.817,355.922h113.235V296.16H82.817V355.922z M126.854,330.759h25.164
		c3.476,0,6.29,2.818,6.29,6.291c0,3.476-2.814,6.291-6.29,6.291h-25.164c-3.477,0-6.291-2.815-6.291-6.291
		C120.562,333.577,123.377,330.759,126.854,330.759"/>
	<rect x="296.706" y="123.162" fill="#86AEDD" width="62.907" height="50.327"/>
	<rect x="133.144" y="186.07" fill="#EE6A56" width="25.164" height="25.163"/>
	<g opacity="0.102">
		<g>
			<defs>
				<rect id="SVGID_7_" x="82.817" y="223.815" width="327.123" height="91.217"/>
			</defs>
			<clipPath id="SVGID_2_">
				<use xlink:href="#SVGID_7_"  overflow="visible"/>
			</clipPath>
			<path clip-path="url(#SVGID_2_)" fill="#010101" d="M315.577,242.688h6.291v-6.291h-6.291V242.688z M391.068,242.688h6.291
				v-6.291h-6.291V242.688z M403.649,242.688h6.291v-6.291h-6.291V242.688z M328.159,242.688h6.291v-6.291h-6.291V242.688z
				 M378.486,242.688h6.291v-6.291h-6.291V242.688z M340.74,242.688h6.291v-6.291h-6.291V242.688z M365.904,242.688h6.291v-6.291
				h-6.291V242.688z M353.322,242.688h6.291v-6.291h-6.291V242.688z M359.613,223.815h-6.291v6.291h6.291V223.815z M372.195,223.815
				h-6.291v6.291h6.291V223.815z M221.216,236.396h6.291v-6.291h-6.291V236.396z M384.777,223.815h-6.291v6.291h6.291V223.815z
				 M397.359,223.815h-6.291v6.291h6.291V223.815z M347.031,223.815h-6.291v6.291h6.291V223.815z M302.997,242.688h6.29v-6.291
				h-6.29V242.688z M334.45,223.815h-6.291v6.291h6.291V223.815z M208.635,236.396h6.291v-6.291h-6.291V236.396z M214.926,242.688
				h6.29v-6.291h-6.29V242.688z M221.216,223.815h-6.29v6.291h6.29V223.815z M265.251,242.688h6.291v-6.291h-6.291V242.688z
				 M321.868,223.815h-6.291v6.291h6.291V223.815z M296.706,236.396h6.291v-6.291h-6.291V236.396z M296.706,223.815h-6.291v6.291
				h6.291V223.815z M309.287,236.396h6.29v-6.291h-6.29V236.396z M309.287,223.815h-6.29v6.291h6.29V223.815z M271.542,223.815
				h-6.291v6.291h6.291V223.815z M284.124,223.815h-6.292v6.291h6.292V223.815z M290.415,242.688h6.291v-6.291h-6.291V242.688z
				 M271.542,236.396h6.29v-6.291h-6.29V236.396z M321.868,236.396h6.291v-6.291h-6.291V236.396z M384.777,236.396h6.291v-6.291
				h-6.291V236.396z M372.195,236.396h6.291v-6.291h-6.291V236.396z M403.649,230.106h6.291v-6.291h-6.291V230.106z
				 M397.359,236.396h6.29v-6.291h-6.29V236.396z M334.45,236.396h6.29v-6.291h-6.29V236.396z M359.613,236.396h6.291v-6.291h-6.291
				V236.396z M347.031,236.396h6.291v-6.291h-6.291V236.396z M284.124,236.396h6.291v-6.291h-6.291V236.396z M246.379,223.815
				h-6.291v6.291h6.291V223.815z M233.797,236.396h6.291v-6.291h-6.291V236.396z M258.96,236.396h6.291v-6.291h-6.291V236.396z
				 M227.507,230.106h6.29v-6.291h-6.29V230.106z M258.96,223.815h-6.291v6.291h6.291V223.815z M240.088,242.688h6.291v-6.291
				h-6.291V242.688z M277.832,242.688h6.292v-6.291h-6.292V242.688z M227.507,242.688h6.29v-6.291h-6.29V242.688z M252.669,242.688
				h6.291v-6.291h-6.291V242.688z M246.379,236.396h6.29v-6.291h-6.29V236.396z M158.308,236.396h6.291v-6.291h-6.291V236.396z
				 M170.89,236.396h6.291v-6.291h-6.291V236.396z M189.762,230.106h6.291v-6.291h-6.291V230.106z M183.471,236.396h6.291v-6.291
				h-6.291V236.396z M158.308,223.815h-6.29v6.291h6.29V223.815z M170.89,223.815h-6.291v6.291h6.291V223.815z M183.471,223.815
				h-6.29v6.291h6.29V223.815z M145.726,223.815h-6.29v6.291h6.29V223.815z M133.144,223.815h-6.29v6.291h6.29V223.815z
				 M120.562,223.815h-6.29v6.291h6.29V223.815z M95.399,236.396h6.291v-6.291h-6.291V236.396z M126.854,242.688h6.29v-6.291h-6.29
				V242.688z M101.69,242.688h6.291v-6.291h-6.291V242.688z M114.272,242.688h6.29v-6.291h-6.29V242.688z M139.436,242.688h6.29
				v-6.291h-6.29V242.688z M177.181,242.688h6.29v-6.291h-6.29V242.688z M164.599,242.688h6.291v-6.291h-6.291V242.688z
				 M152.018,242.688h6.29v-6.291h-6.29V242.688z M107.981,236.396h6.291v-6.291h-6.291V236.396z M107.981,223.815h-6.291v6.291
				h6.291V223.815z M189.762,242.688h6.291v-6.291h-6.291V242.688z M120.562,236.396h6.291v-6.291h-6.291V236.396z M82.817,236.396
				h6.292v-6.291h-6.292V236.396z M89.109,242.688h6.29v-6.291h-6.29V242.688z M95.399,223.815h-6.29v6.291h6.29V223.815z
				 M133.144,236.396h6.292v-6.291h-6.292V236.396z M145.726,236.396h6.292v-6.291h-6.292V236.396z M145.726,296.16h-6.29v6.29h6.29
				V296.16z M196.053,308.741h-6.291v6.291h6.291V308.741z M133.144,308.741h6.292v-6.291h-6.292V308.741z M133.144,296.16h-6.29
				v6.29h6.29V296.16z M120.562,308.741h6.291v-6.291h-6.291V308.741z M189.762,302.45h6.291v-6.29h-6.291V302.45z M183.471,308.741
				h6.291v-6.291h-6.291V308.741z M145.726,308.741h6.292v-6.291h-6.292V308.741z M158.308,308.741h6.291v-6.291h-6.291V308.741z
				 M170.89,296.16h-6.291v6.29h6.291V296.16z M183.471,296.16h-6.29v6.29h6.29V296.16z M158.308,296.16h-6.29v6.29h6.29V296.16z
				 M170.89,308.741h6.291v-6.291h-6.291V308.741z M114.272,315.032h6.29v-6.291h-6.29V315.032z M95.399,296.16h-6.29v6.29h6.29
				V296.16z M82.817,308.741h6.292v-6.291h-6.292V308.741z M120.562,296.16h-6.29v6.29h6.29V296.16z M107.981,296.16h-6.291v6.29
				h6.291V296.16z M95.399,308.741h6.291v-6.291h-6.291V308.741z M89.109,315.032h6.29v-6.291h-6.29V315.032z M126.854,315.032h6.29
				v-6.291h-6.29V315.032z M152.018,315.032h6.29v-6.291h-6.29V315.032z M164.599,315.032h6.291v-6.291h-6.291V315.032z
				 M139.436,315.032h6.29v-6.291h-6.29V315.032z M107.981,308.741h6.291v-6.291h-6.291V308.741z M177.181,315.032h6.29v-6.291
				h-6.29V315.032z M101.69,315.032h6.291v-6.291h-6.291V315.032z"/>
		</g>
	</g>
	<g opacity="0.851">
		<g>
			<defs>
				<rect id="SVGID_9_" x="45.073" y="97.999" width="402.611" height="283.086"/>
			</defs>
			<clipPath id="SVGID_4_">
				<use xlink:href="#SVGID_9_"  overflow="visible"/>
			</clipPath>
			<path clip-path="url(#SVGID_4_)" fill="#010101" d="M126.854,343.341h25.164c3.476,0,6.29-2.815,6.29-6.291
				c0-3.473-2.814-6.291-6.29-6.291h-25.164c-3.477,0-6.291,2.818-6.291,6.291C120.562,340.525,123.377,343.341,126.854,343.341
				 M126.854,270.996h25.164c3.476,0,6.29-2.818,6.29-6.291c0-3.476-2.814-6.29-6.29-6.29h-25.164c-3.477,0-6.291,2.814-6.291,6.29
				C120.562,268.178,123.377,270.996,126.854,270.996 M441.394,211.233h-45.131c0.696-1.969,1.097-4.082,1.097-6.291
				c0-8.211-5.257-15.183-12.582-17.774v-70.297c0-10.423-8.447-18.872-18.873-18.872H252.669c-10.424,0-18.872,8.449-18.872,18.872
				v70.297c-7.325,2.591-12.581,9.562-12.581,17.774c0,2.209,0.399,4.322,1.1,6.291H170.89v-44.036c0-3.475-2.814-6.291-6.291-6.291
				h-37.745c-3.477,0-6.291,2.815-6.291,6.291v6.291c-10.426,0-18.872,8.448-18.872,18.873c0,10.424,8.446,18.872,18.872,18.872
				H51.364c-3.479,0-6.291,2.815-6.291,6.291c0,3.473,2.812,6.291,6.291,6.291h18.872v150.979c0,3.474,2.812,6.291,6.291,6.291
				c3.477,0,6.29-2.817,6.29-6.291v-6.291h113.235v6.291c0,3.474,2.813,6.291,6.291,6.291s6.291-2.817,6.291-6.291V255.27H409.94
				v119.524c0,3.474,2.813,6.291,6.291,6.291c3.477,0,6.29-2.817,6.29-6.291V223.815h18.872c3.478,0,6.291-2.818,6.291-6.291
				C447.685,214.048,444.871,211.233,441.394,211.233 M133.144,173.489h25.164v37.745h-25.164V173.489z M114.272,192.361
				c0-3.473,2.813-6.291,6.29-6.291v12.582C117.086,198.652,114.272,195.837,114.272,192.361 M196.053,355.922H82.817V296.16
				h113.235V355.922z M196.053,283.577H82.817v-59.762h113.235V283.577z M246.379,116.871c0-3.476,2.813-6.291,6.29-6.291h113.235
				c3.477,0,6.291,2.815,6.291,6.291v69.199H246.379V116.871z M240.088,198.652h138.398c3.477,0,6.291,2.818,6.291,6.291
				c0,3.473-2.814,6.291-6.291,6.291H240.088c-3.478,0-6.291-2.818-6.291-6.291C233.797,201.47,236.61,198.652,240.088,198.652
				 M409.94,242.688H208.635v-18.872H409.94V242.688z"/>
		</g>
	</g>
</g>
</svg>
