<?xml version="1.0" encoding="utf-8"?>
<!-- Generator: Adobe Illustrator 16.0.0, SVG Export Plug-In . SVG Version: 6.00 Build 0)  -->
<!DOCTYPE svg PUBLIC "-//W3C//DTD SVG 1.1//EN" "http://www.w3.org/Graphics/SVG/1.1/DTD/svg11.dtd">
<svg version="1.1" id="Layer_2" xmlns="http://www.w3.org/2000/svg" xmlns:xlink="http://www.w3.org/1999/xlink" x="0px" y="0px"
	 width="500.978px" height="337.239px" viewBox="0 0 500.978 337.239" enable-background="new 0 0 500.978 337.239"
	 xml:space="preserve">
<g>
	<g>
		<path fill="#FFFFFF" d="M0.089,43.842c0.201-0.566,0.537-0.958,1.022-1.14c0.524-0.198,1.438,0.048,2.733,0.748
			s2.428,1.502,3.263,2.402c1.181,1.271,2.461,2.905,3.845,4.712c1.383,1.807,2.158,2.951,2.334,3.431
			c0.219,0.601,1.067,1.823,2.536,3.669c1.469,1.846,2.296,2.735,2.493,2.665c0.392-0.141,0.523-1.829,0.418-5.068
			c-0.106-3.239-0.358-5.714-0.78-7.415c-0.648-2.612-0.709-4.707-0.169-6.272c0.541-1.564,1.557-2.208,2.952-1.869
			c0.737,0.18,1.405,0.803,1.978,1.822c0.574,1.019,1.461,2.765,2.659,5.236c1.197,2.472,2.632,4.933,4.293,7.384
			c0.522,0.768,1.229,1.193,1.534,1.036c0.171-0.088,0.319-0.5,0.271-0.764c-0.061-0.326-0.163-0.811-0.12-1.342
			c0.043-0.53,0.141-1.427,0.296-2.69c0.154-1.263,0.261-2.554,0.315-3.873c0.185-2.51,0.279-3.764,0.482-6.274
			c0.178-2.342,0.166-3.847-0.05-4.516c-0.216-0.668-0.069-1.601,0.45-2.795c0.311-0.717,0.467-1.076,0.781-1.793
			c0.722,0.227,1.081,0.341,1.801,0.569c0.917,0.336,1.569,0.879,1.96,1.626s0.577,1.919,0.565,3.507
			c-0.014,1.59-0.11,3.261-0.285,5.014c-0.175,1.753-0.365,4.25-0.551,7.487c-0.188,3.237-0.233,6.441-0.16,9.59
			c0.052,2.265-0.107,3.924-0.475,4.965c-0.366,1.041-1.01,1.668-1.886,1.809c-0.443,0.071-0.916-0.088-1.383-0.448
			c-0.468-0.358-1.181-1.08-2.093-2.157c-3.68-4.346-5.914-6.74-6.56-6.866c-0.174-0.034-0.335-0.008-0.446,0.052
			c-0.111,0.062-0.192,0.237-0.247,0.526c-0.054,0.289-0.075,0.669-0.065,1.139c0.009,0.471,0.044,1.104,0.101,1.894
			c0.462,6.55-0.371,10.095-2.447,10.495c-0.722,0.138-1.591-0.134-2.546-0.709c-0.702-0.424-1.979-1.738-3.788-3.955
			c-1.809-2.215-3.671-4.693-5.589-7.433c-1.1-1.581-1.652-2.37-2.76-3.946c-0.384-0.54-0.855-1.17-1.421-1.891
			c-0.566-0.719-1.101-1.382-1.603-1.99c-0.502-0.606-1.02-1.243-1.547-1.909c-0.527-0.665-0.96-1.264-1.3-1.796
			c-0.339-0.531-0.595-1.049-0.765-1.555C-0.032,44.648-0.041,44.21,0.089,43.842z"/>
		<path fill="#FFFFFF" d="M43.193,29.606c0.51-0.532,3.931-1.819,10.25-3.638c4.472-1.286,7.243-1.959,8.241-2.119
			c0.997-0.159,1.707-0.042,2.051,0.342c0.455,0.509,0.625,1.188,0.519,1.943c-0.106,0.756-0.474,1.44-1.1,2.05
			c-0.314,0.305-0.934,0.616-1.858,0.935c-0.926,0.318-2.269,0.763-4.023,1.343c-1.755,0.581-3.448,1.265-5.08,2.047
			c-1.552,0.688-2.329,1.034-3.876,1.731c0.719,2.426,1.079,3.639,1.798,6.065c2.263-0.617,3.397-0.92,5.664-1.517
			c2.526-0.633,4.142-0.975,4.843-1.036c0.701-0.062,1.259,0.103,1.601,0.487c0.455,0.508,0.698,1.036,0.736,1.489
			c0.038,0.453-0.192,0.912-0.689,1.382c-0.498,0.469-1.243,0.943-2.235,1.421s-2.31,1.015-3.955,1.622
			c-1.735,0.66-2.602,0.993-4.331,1.666c0.95,3.21,1.426,4.815,2.376,8.025c2.718-0.726,4.079-1.081,6.801-1.773
			c4.526-1.197,7.259-1.562,8.14-1.262c0.806,0.274,1.313,0.597,1.444,1.001c0.129,0.406-0.047,1.073-0.51,1.991
			c-0.357,0.71-0.959,1.244-1.814,1.587c-0.855,0.345-3.462,1.103-7.806,2.353c-3.796,1.091-6.29,1.79-7.492,2.041
			c-1.202,0.251-2.086,0.29-2.538,0.069c-0.501-0.246-1.027-1.088-1.537-2.403c-0.51-1.313-1.611-4.718-3.298-10.215
			c-1.651-5.375-2.667-8.861-3.047-10.459c-0.38-1.598-0.47-2.948-0.325-4.01C42.352,31.218,42.683,30.139,43.193,29.606z"/>
		<path fill="#FFFFFF" d="M111.424,14.51c0.447-1.073,0.833-1.771,1.167-2.071c0.333-0.299,0.96-0.536,1.882-0.705
			c1.214-0.223,2.117-0.202,2.704,0.061c0.586,0.262,0.953,0.813,1.102,1.652c0.067,0.378,0.271,0.786,0.607,1.223
			c0.335,0.438,1.042,1.525,2.115,3.261c1.073,1.738,2.298,4.032,3.672,6.855c1.22,2.508,2.378,4.726,3.447,6.641
			c1.071,1.916,1.861,3.241,2.375,3.977c0.515,0.735,0.933,1.401,1.256,1.996s0.488,1.03,0.493,1.31
			c0.004,0.281-0.094,0.697-0.293,1.246c-0.365,1.007-1.073,1.621-2.026,1.888c-0.613,0.173-1.11,0.156-1.463-0.108
			c-0.352-0.264-1.022-1.176-2.029-2.668c-1.404-2.081-2.212-3.441-2.322-4.071c-0.161-0.922-0.708-1.433-1.642-1.528
			c-0.936-0.093-2.939,0.207-5.979,0.894c-2.439,0.551-4.157,1.028-5.125,1.435s-1.688,0.94-2.163,1.599
			c-0.476,0.66-0.952,1.779-1.426,3.35c-0.795,2.637-1.56,4.406-2.305,5.3c-0.745,0.896-1.576,1.027-2.498,0.396
			c-0.728-0.499-1.053-1.333-0.969-2.505c0.083-1.171,0.591-3.273,1.556-6.304c0.521-1.727,0.785-2.591,1.319-4.317
			c0.24-0.875,0.816-2.7,1.748-5.473c0.932-2.771,1.597-4.987,2.031-6.557c0.24-0.863,0.546-1.603,0.863-2.185
			c0.316-0.581,0.573-0.988,0.764-1.221c0.192-0.231,0.274-0.429,0.243-0.597C110.473,16.992,110.778,16.062,111.424,14.51z
			 M118.611,26.697c-0.226-0.78-0.599-1.679-1.122-2.687c-0.523-1.007-1.014-1.829-1.47-2.459c-0.458-0.63-0.729-0.937-0.811-0.921
			c-0.167,0.031-0.432,0.381-0.797,1.057c-0.365,0.674-0.656,1.337-0.875,1.984c-0.489,1.471-0.732,2.206-1.214,3.677
			c-0.554,1.538-0.645,2.412-0.287,2.625c0.358,0.214,1.682,0.033,3.98-0.524c1.262-0.287,1.893-0.431,3.156-0.711
			C118.948,27.922,118.836,27.514,118.611,26.697z"/>
		<path fill="#FFFFFF" d="M137.417,6.851c2.616-0.567,5.283-0.953,7.957-1.182c2.674-0.229,4.457-0.214,5.341,0.014
			c1.013,0.261,2.129,0.913,3.32,1.97c0.765,0.678,1.272,1.284,1.528,1.811c0.254,0.528,0.449,1.364,0.584,2.505
			c0.186,1.565,0.014,2.959-0.511,4.18c-0.525,1.221-1.62,2.746-3.213,4.58c-0.913,1.05-1.399,1.735-1.466,2.022
			c-0.067,0.288,0.133,0.787,0.599,1.5c0.806,1.21,1.208,1.818,2.007,3.032c0.713,1.068,1.769,2.027,3.083,2.901
			c1.117,0.742,2.221,1.149,3.31,1.151c1.087,0.003,2.432-0.336,3.979-1.029c0.855-0.383,1.445-0.586,1.753-0.578
			c0.309,0.01,0.65,0.232,1.023,0.663c1.494,1.726,1.016,3.371-1.307,4.958c-2.265,1.548-4.691,2.109-7.294,1.608
			c-2.604-0.501-5.087-1.966-7.459-4.404c-1.666-1.711-3.262-3.291-4.771-4.578c-0.996-0.849-1.778-1.355-2.24-1.527
			c-0.462-0.171-1.116-0.152-1.961,0.055c-0.753,0.161-1.128,0.241-1.88,0.403c0.335,2.275,0.503,3.415,0.839,5.69
			c0.56,3.792,0.73,5.929,0.517,6.413c-0.215,0.484-0.961,0.821-2.24,1.016c-1.16,0.176-1.948-0.028-2.367-0.606
			c-0.672-0.928-1.403-4.627-2.323-10.888c-0.153-1.042-0.363-2.492-0.611-4.301c-1.042-7.614-1.552-12.164-1.417-13.553
			c0.143-1.479,0.781-2.477,1.869-2.937C134.547,7.535,135.671,7.227,137.417,6.851z M149.445,10.802
			c-0.632-0.518-1.285-0.809-1.871-0.881c-0.584-0.074-1.862,0.017-3.831,0.287c-2.01,0.277-3.287,0.538-3.832,0.766
			c-0.542,0.229-1.119,0.731-1.669,1.5c-1.275,1.78-1.213,3.88,0.013,6.135c0.534,0.981,1.222,1.562,2.084,1.696
			c0.861,0.133,2.245-0.161,4.118-0.778c1.902-0.627,3.334-1.237,4.196-1.887c0.862-0.651,1.487-1.517,1.877-2.597
			c0.39-1.081,0.525-1.868,0.398-2.368C150.802,12.176,150.304,11.507,149.445,10.802z"/>
		<path fill="#FFFFFF" d="M171.202,4.486c0.598-0.419,4.168-1,10.655-1.527c4.591-0.373,7.414-0.481,8.415-0.44
			c1,0.041,1.664,0.295,1.923,0.74c0.343,0.588,0.376,1.289,0.126,2.009c-0.251,0.719-0.743,1.316-1.472,1.79
			c-0.364,0.236-1.026,0.418-1.986,0.547c-0.963,0.129-2.351,0.301-4.168,0.521c-1.817,0.22-3.596,0.552-5.331,0.995
			c-1.64,0.366-2.458,0.55-4.094,0.926c0.224,2.52,0.336,3.78,0.561,6.3c2.315-0.155,3.473-0.226,5.79-0.36
			c2.574-0.119,4.208-0.13,4.902-0.053c0.693,0.079,1.202,0.351,1.459,0.794c0.343,0.588,0.475,1.15,0.424,1.603
			c-0.052,0.451-0.368,0.858-0.941,1.22c-0.575,0.36-1.388,0.676-2.443,0.947c-1.056,0.271-2.442,0.539-4.157,0.807
			c-1.812,0.302-2.717,0.455-4.526,0.77c0.297,3.334,0.444,5.001,0.741,8.335c2.778-0.169,4.167-0.249,6.944-0.388
			c4.627-0.274,7.353-0.087,8.15,0.382c0.729,0.429,1.16,0.844,1.207,1.265c0.048,0.424-0.255,1.042-0.884,1.851
			c-0.486,0.625-1.176,1.027-2.074,1.194c-0.897,0.168-3.576,0.398-8.036,0.76c-3.897,0.316-6.453,0.502-7.667,0.509
			c-1.214,0.008-2.08-0.13-2.475-0.437c-0.438-0.34-0.784-1.274-1.022-2.663c-0.24-1.389-0.64-4.943-1.206-10.664
			c-0.553-5.596-0.86-9.214-0.917-10.856c-0.057-1.642,0.12-2.983,0.466-3.995C170.073,5.897,170.604,4.907,171.202,4.486z"/>
		<path fill="#FFFFFF" d="M230.424,0.663c3.042-0.768,5.926-0.873,8.614-0.292c2.686,0.579,4.709,1.714,6.073,3.344
			c1.592,1.904,2.559,3.942,2.863,6.101c0.304,2.158-0.139,4.018-1.217,5.563c-1.032,1.48-2.336,2.583-3.933,3.217
			c-1.598,0.636-3.938,1.019-7.023,1.174c-2.124,0.117-3.185,0.181-5.306,0.316c-0.041,2.299-0.062,3.452-0.103,5.751
			c-0.108,3.834-0.343,5.986-0.702,6.456c-0.362,0.47-1.123,0.645-2.293,0.527c-0.727-0.044-1.088-0.067-1.815-0.11
			c-0.112-5.545-0.169-8.315-0.283-13.86c-0.234-9.282-0.241-14.317-0.051-15.079c0.167-0.672,0.628-1.265,1.405-1.741
			C227.432,1.553,228.693,1.099,230.424,0.663z M238.702,5.925c-1.413-0.697-2.507-1.083-3.241-1.172
			c-0.737-0.089-1.788,0.091-3.127,0.505c-1.126,0.348-1.84,0.962-2.139,1.796c-0.272,0.759-0.44,2.292-0.449,4.57
			c-0.01,2.279,0.114,3.527,0.359,3.67c0.452,0.266,2.275,0.135,5.344-0.321c3.07-0.455,4.909-0.875,5.488-1.295
			c1.423-1.028,1.918-2.345,1.46-3.907C241.941,8.211,240.708,6.912,238.702,5.925z"/>
		<path fill="#FFFFFF" d="M267.258,4.058c0.687-0.937,1.228-1.522,1.62-1.735c0.394-0.214,1.055-0.295,1.987-0.241
			c1.225,0.072,2.09,0.309,2.596,0.703c0.505,0.395,0.73,1.016,0.677,1.865c-0.022,0.383,0.074,0.828,0.294,1.332
			c0.222,0.505,0.651,1.729,1.278,3.668c0.627,1.942,1.267,4.46,1.93,7.53c0.588,2.725,1.186,5.153,1.768,7.268
			c0.585,2.114,1.033,3.59,1.357,4.426c0.323,0.836,0.57,1.582,0.743,2.236c0.172,0.655,0.227,1.117,0.165,1.39
			c-0.062,0.273-0.254,0.655-0.576,1.141c-0.591,0.893-1.423,1.322-2.406,1.356c-0.635,0.023-1.11-0.114-1.388-0.455
			c-0.278-0.34-0.714-1.382-1.335-3.071c-0.867-2.355-1.326-3.868-1.284-4.505c0.062-0.935-0.343-1.562-1.225-1.874
			c-0.88-0.312-2.891-0.495-5.988-0.547c-2.486-0.042-4.259,0.014-5.288,0.179c-1.03,0.167-1.854,0.514-2.468,1.042
			c-0.615,0.528-1.338,1.503-2.164,2.917c-1.391,2.374-2.548,3.91-3.479,4.602c-0.931,0.693-1.763,0.624-2.504-0.209
			c-0.583-0.657-0.702-1.542-0.345-2.661c0.357-1.118,1.345-3.039,2.989-5.754c0.912-1.555,1.368-2.332,2.29-3.884
			c0.439-0.792,1.426-2.427,2.979-4.9c1.554-2.471,2.719-4.467,3.508-5.889c0.436-0.783,0.907-1.429,1.352-1.919
			c0.441-0.49,0.785-0.825,1.025-1.005c0.241-0.18,0.364-0.355,0.375-0.525C265.756,6.241,266.27,5.413,267.258,4.058z
			 M271.331,17.599c-0.035-0.812-0.183-1.772-0.45-2.875s-0.55-2.016-0.843-2.736c-0.294-0.72-0.48-1.084-0.564-1.089
			c-0.168-0.009-0.508,0.27-1.021,0.839c-0.513,0.568-0.949,1.144-1.312,1.721c-0.819,1.312-1.228,1.969-2.04,3.284
			c-0.898,1.363-1.192,2.191-0.897,2.483s1.615,0.428,3.968,0.431c1.287,0.02,1.931,0.034,3.22,0.061
			C271.365,18.87,271.355,18.445,271.331,17.599z"/>
		<path fill="#FFFFFF" d="M291.624,5.994c1.877-1.078,4.094-1.708,6.521-1.915c2.424-0.206,4.72,0.112,6.865,0.949
			c2.146,0.837,3.622,2.148,4.434,3.915c0.438,0.953,0.651,1.558,0.643,1.815c-0.01,0.256-0.263,0.591-0.721,1.008
			c-0.57,0.517-1.234,0.788-1.991,0.764c-0.756-0.023-1.482-0.305-2.118-0.853c-0.768-0.66-1.875-1.291-3.319-1.809
			c-1.444-0.518-3.002-0.702-4.664-0.546c-1.664,0.156-2.888,0.848-3.614,2.057c-0.555,0.92-0.687,1.828-0.411,2.688
			s0.966,1.389,1.878,1.689c0.428,0.14,1.884,0.737,4.309,1.717c2.425,0.981,3.917,1.512,4.493,1.576
			c0.785,0.088,1.876,0.789,3.262,2.108c1.387,1.32,2.173,2.384,2.368,3.177c0.357,1.459,0.537,2.447,0.537,2.962
			c-0.002,0.515-0.18,1.202-0.533,2.058c-0.521,1.265-1.414,2.49-2.659,3.672c-1.243,1.182-2.572,2.054-3.972,2.625
			c-0.979,0.4-1.899,0.635-2.756,0.691c-0.858,0.057-2.148-0.006-3.872-0.183c-1.926-0.197-3.232-0.406-3.917-0.644
			c-0.688-0.236-1.518-0.718-2.446-1.447c-2.338-1.838-3.688-4.198-4.107-6.84c-0.15-0.941,0.126-1.764,0.882-2.426
			c1.601-1.403,3.049-1.187,4.265,0.634c1.808,2.709,2.953,4.399,3.488,4.986c0.533,0.589,1.243,0.927,2.134,1.017
			c1.414,0.144,3.086-0.238,5.028-1.139c1.943-0.9,2.973-1.788,3.073-2.677c0.064-0.548-0.438-1.371-1.516-2.455
			c-1.079-1.085-1.99-1.664-2.729-1.742c-0.981-0.105-2.749-0.776-5.324-1.991c-2.575-1.216-4.351-2.194-5.263-2.963
			c-0.889-0.747-1.636-1.703-2.25-2.825c-0.615-1.12-0.893-2.043-0.833-2.765c0.079-0.934,0.663-2.176,1.766-3.728
			C289.656,7.605,290.688,6.53,291.624,5.994z"/>
		<path fill="#FFFFFF" d="M320.257,9.217c1.927-0.994,4.173-1.524,6.607-1.624c2.436-0.098,4.718,0.319,6.825,1.251
			c2.109,0.931,3.528,2.304,4.261,4.107c0.395,0.971,0.585,1.587,0.564,1.842c-0.021,0.254-0.293,0.577-0.768,0.973
			c-0.592,0.492-1.267,0.732-2.024,0.676c-0.755-0.057-1.468-0.371-2.08-0.945c-0.74-0.696-1.817-1.374-3.238-1.955
			c-1.423-0.581-2.974-0.833-4.644-0.752c-1.671,0.081-2.922,0.72-3.703,1.896c-0.594,0.894-0.766,1.795-0.528,2.667
			s0.904,1.432,1.805,1.771c0.422,0.16,1.848,0.821,4.229,1.907c2.382,1.087,3.851,1.684,4.427,1.774
			c0.779,0.122,1.84,0.87,3.169,2.25c1.327,1.38,2.064,2.478,2.225,3.279c0.293,1.474,0.432,2.47,0.407,2.983
			c-0.023,0.515-0.229,1.195-0.618,2.033c-0.578,1.241-1.526,2.422-2.821,3.548c-1.299,1.126-2.667,1.938-4.091,2.448
			c-0.996,0.355-1.927,0.55-2.785,0.568c-0.862,0.019-2.151-0.101-3.865-0.354c-1.916-0.281-3.215-0.55-3.89-0.816
			c-0.677-0.266-1.483-0.784-2.381-1.555c-2.255-1.939-3.503-4.358-3.807-7.015c-0.108-0.949,0.205-1.754,0.991-2.383
			c1.66-1.331,3.098-1.05,4.232,0.822c1.689,2.787,2.764,4.524,3.271,5.134c0.509,0.611,1.205,0.98,2.09,1.11
			c1.408,0.207,3.097-0.1,5.079-0.915c1.985-0.814,3.052-1.655,3.192-2.539c0.087-0.546-0.384-1.387-1.41-2.517
			c-1.032-1.131-1.915-1.751-2.648-1.862c-0.979-0.149-2.719-0.896-5.24-2.224c-2.521-1.329-4.255-2.384-5.135-3.192
			c-0.853-0.785-1.561-1.774-2.123-2.922c-0.565-1.146-0.801-2.081-0.708-2.8c0.118-0.928,0.755-2.145,1.927-3.647
			C318.222,10.739,319.299,9.712,320.257,9.217z"/>
		<path fill="#FFFFFF" d="M345.103,11.372c0.364-0.369,1.133-0.454,2.305-0.246c1.169,0.207,1.856,0.538,2.055,0.985
			c0.198,0.447-0.658,5.491-2.508,15.097c-1.665,8.643-2.766,13.691-3.418,14.77c-0.478,0.79-1.252,1.139-2.088,0.991
			c-0.593-0.105-0.992-0.503-1.201-1.186c-0.183-0.593,0.495-5.716,2.021-15.372C343.797,16.755,344.737,11.74,345.103,11.372z"/>
		<path fill="#FFFFFF" d="M365.825,14.864c1.157-0.363,2.567-0.329,4.208,0.131c1.64,0.46,3.093,1.202,4.347,2.221
			c1.695,1.379,3.2,3.488,4.494,6.321c1.294,2.833,1.898,5.401,1.891,7.658c-0.015,3.396-1.108,6.639-3.302,9.69
			c-2.194,3.051-4.761,5.03-7.705,5.936c-1.068,0.329-2.026,0.474-2.869,0.441c-0.841-0.033-2.19-0.251-4.05-0.647
			c-3.361-0.716-5.957-1.785-7.794-3.237c-1.84-1.451-3.377-3.674-4.648-6.63c-0.487-1.131-0.758-2.062-0.79-2.782
			c-0.03-0.72,0.119-1.959,0.447-3.718c0.399-2.136,1.017-3.916,1.858-5.339c0.839-1.424,2.313-3.216,4.44-5.364
			c1.01-1.018,2.352-2.025,4.035-3.015c1.687-0.989,2.827-1.396,3.349-1.313C364.177,15.286,364.901,15.153,365.825,14.864z
			 M372.543,24.335c-0.806-1.428-1.436-2.384-1.9-2.834c-0.463-0.449-1.069-0.763-1.807-0.914c-2.375-0.486-4.854,0.228-7.324,2.063
			c-1.653,1.229-2.809,2.262-3.461,3.087c-0.653,0.827-1.303,2.114-1.986,3.775c-0.524,1.273-0.865,2.207-0.955,2.775
			c-0.09,0.567-0.036,1.198,0.166,1.889c0.348,1.195,0.828,2.16,1.434,2.889c0.607,0.73,1.568,1.483,2.869,2.209
			c2.514,1.404,5.053,2.045,7.54,1.955c2.483-0.088,4.311-0.921,5.402-2.499c1.393-2.014,2.105-4.329,2.125-6.856
			C374.666,29.35,373.947,26.825,372.543,24.335z"/>
		<path fill="#FFFFFF" d="M393.947,46.74c0.065-0.246-0.127-0.836-0.583-1.77c-0.454-0.934-0.637-1.587-0.54-1.958
			c0.107-0.411-0.033-1.187-0.423-2.321c-0.39-1.133-0.579-1.894-0.518-2.211c0.092-0.472-0.073-1.505-0.61-3.026
			c-0.536-1.521-0.955-2.223-1.235-2.125c-0.371,0.13-1.215,2.79-2.523,7.995c-0.591,2.354-1.066,4.158-1.422,5.408
			c-0.357,1.25-0.727,2.254-1.105,3.016c-0.378,0.761-0.742,1.217-1.095,1.371c-0.352,0.154-0.784,0.168-1.295,0.042
			c-1.022-0.252-1.6-0.699-1.733-1.345c-0.192-0.923,0.404-4.156,1.792-9.693c0.021-0.082,0.034-0.145,0.045-0.186
			c1.803-7.341,3.229-12.507,4.207-15.447c0.976-2.94,1.821-4.585,2.504-4.881c1.233-0.534,2.27-0.347,3,0.516
			c0.727,0.862,1.348,2.544,1.844,5.046c0.388,1.972,0.579,2.958,0.954,4.93c0.291,1.395,0.373,2.32,0.256,2.773
			c-0.087,0.329,0.078,1.076,0.486,2.241c0.407,1.163,0.54,1.939,0.459,2.3c-0.118,0.521,0.312,1.712,1.228,3.5
			c0.915,1.787,1.608,2.629,2.031,2.599c0.285-0.021,0.721-0.909,1.255-2.706c0.531-1.796,1.042-3.787,1.53-5.972
			c0.487-2.185,1.058-4.326,1.717-6.419c0.658-2.094,1.301-3.393,1.859-3.897c0.653-0.59,1.308-0.866,1.962-0.75
			c0.655,0.114,1.18,0.538,1.544,1.259c0.258,0.506,0.171,1.761-0.253,3.742c-0.424,1.982-1.495,6.097-3.208,12.34
			c-1.604,5.974-2.407,8.959-4.014,14.932c-0.741-0.155-1.106-0.232-1.846-0.385c-0.807-0.135-1.432-0.429-1.876-0.882
			c-0.444-0.452-1.204-1.601-2.261-3.429C394.553,48.701,393.84,47.153,393.947,46.74z"/>
		<path fill="#FFFFFF" d="M428.48,33.109c0.9-0.735,1.571-1.169,2.009-1.277c0.438-0.107,1.107-0.018,2.003,0.268
			c1.179,0.377,1.969,0.823,2.364,1.332c0.396,0.509,0.465,1.169,0.2,1.98c-0.118,0.364-0.131,0.819-0.041,1.363
			c0.091,0.545,0.203,1.838,0.336,3.876s0.135,4.64,0.021,7.778c-0.099,2.79-0.116,5.294-0.069,7.49
			c0.046,2.195,0.12,3.737,0.229,4.628c0.109,0.89,0.163,1.677,0.171,2.354c0.006,0.678-0.056,1.142-0.182,1.391
			c-0.13,0.25-0.409,0.567-0.844,0.957c-0.801,0.716-1.723,0.925-2.692,0.71c-0.627-0.138-1.062-0.391-1.251-0.791
			c-0.189-0.399-0.352-1.519-0.539-3.312c-0.263-2.5-0.341-4.081-0.141-4.687c0.292-0.89,0.051-1.6-0.732-2.124
			c-0.783-0.524-2.703-1.208-5.72-2.037c-2.419-0.666-4.161-1.056-5.208-1.155c-1.05-0.098-1.941,0.034-2.671,0.39
			c-0.732,0.358-1.681,1.12-2.84,2.281c-1.945,1.952-3.46,3.15-4.538,3.588c-1.08,0.438-1.872,0.164-2.387-0.827
			c-0.408-0.783-0.305-1.673,0.321-2.667c0.624-0.992,2.064-2.608,4.343-4.826c1.273-1.277,1.913-1.915,3.197-3.187
			c0.627-0.658,1.996-1.995,4.128-4.001c2.13-2.004,3.767-3.646,4.892-4.824c0.62-0.649,1.239-1.157,1.795-1.521
			c0.553-0.364,0.97-0.603,1.251-0.716c0.277-0.115,0.444-0.251,0.495-0.414C426.467,34.844,427.177,34.17,428.48,33.109z
			 M429.096,47.248c0.169-0.796,0.261-1.763,0.273-2.899c0.012-1.137-0.036-2.09-0.145-2.862c-0.105-0.772-0.2-1.171-0.282-1.197
			c-0.159-0.051-0.562,0.133-1.203,0.555c-0.642,0.423-1.212,0.87-1.711,1.337c-1.126,1.066-1.689,1.6-2.809,2.67
			c-1.216,1.094-1.708,1.823-1.493,2.179c0.216,0.357,1.474,0.822,3.773,1.417c1.252,0.343,1.879,0.514,3.13,0.864
			C428.817,48.485,428.91,48.074,429.096,47.248z"/>
		<path fill="#FFFFFF" d="M449.641,37.297c0.663-0.134,5.057,1.192,13.065,4.183c4.783,1.787,7.171,2.706,11.927,4.588
			c0.146,0.609,0.223,0.914,0.369,1.521c0.179,0.942,0.03,1.721-0.443,2.333c-0.475,0.614-1.18,0.927-2.093,0.922
			c-0.953-0.005-2.547-0.458-4.773-1.319c-2.229-0.861-3.612-1.132-4.135-0.83c-0.522,0.303-2.329,4.424-5.422,12.363
			c-1.854,4.763-2.78,7.144-4.633,11.909c-0.665-0.251-0.999-0.376-1.665-0.625c-0.727-0.272-1.194-0.562-1.407-0.869
			c-0.214-0.306-0.321-0.893-0.379-1.706c-0.061-0.829,0.096-1.951,0.532-3.311c0.437-1.358,1.532-4.207,3.237-8.511
			c2.234-5.646,3.434-9.075,3.53-10.136c0.108-1.163-0.441-2.128-1.528-2.671c-0.413-0.206-1.417-0.585-2.98-1.146
			c-2.603-0.935-4.142-1.718-4.619-2.25c-0.489-0.544-0.627-1.379-0.282-2.5C448.287,38.124,448.867,37.455,449.641,37.297z"/>
		<path fill="#FFFFFF" d="M481.502,50.591c0.734-0.09,4.208,1.074,10.295,3.667c4.307,1.833,6.903,3.072,7.788,3.581
			c0.883,0.51,1.363,1.047,1.39,1.564c0.035,0.684-0.262,1.318-0.823,1.836c-0.563,0.518-1.281,0.814-2.16,0.889
			c-0.44,0.037-1.12-0.114-2.047-0.455c-0.926-0.338-2.26-0.845-3.998-1.507c-1.74-0.663-3.494-1.207-5.26-1.632
			c-1.645-0.448-2.473-0.668-4.117-1.106c-0.973,2.335-1.458,3.505-2.432,5.84c2.155,0.953,3.228,1.432,5.374,2.404
			c2.376,1.108,3.855,1.87,4.442,2.266c0.588,0.396,0.918,0.877,0.945,1.391c0.035,0.68-0.109,1.246-0.364,1.62
			c-0.258,0.375-0.731,0.587-1.417,0.635c-0.687,0.049-1.568-0.059-2.644-0.315c-1.078-0.258-2.447-0.675-4.117-1.246
			c-1.771-0.586-2.658-0.876-4.432-1.448c-1.288,3.091-1.932,4.636-3.218,7.726c2.576,1.156,3.863,1.742,6.428,2.928
			c4.294,1.938,6.665,3.389,7.163,4.18c0.459,0.725,0.655,1.297,0.502,1.692c-0.155,0.397-0.715,0.802-1.659,1.22
			c-0.73,0.322-1.537,0.353-2.424,0.077c-0.888-0.275-3.412-1.339-7.596-3.12c-3.656-1.556-6.036-2.589-7.131-3.153
			c-1.093-0.565-1.812-1.096-2.023-1.553c-0.234-0.506-0.108-1.493,0.323-2.833c0.433-1.341,1.729-4.676,3.887-10.006
			c2.108-5.211,3.519-8.558,4.232-10.038c0.714-1.479,1.499-2.584,2.282-3.315C479.833,51.312,480.77,50.681,481.502,50.591z"/>
	</g>
</g>
<g>
	<path fill="#FFFFFF" d="M109.956,250.781c0.656-21.168,7.221-35.119,23.959-47.096c5.415-3.775-0.657-11.325-7.878-9.519
		c-7.22,1.806-27.403,15.754-31.67,45.62c-1.148-6.074-3.119-19.199-7.22-18.543c-4.103,0.654-2.297,8.697-1.969,12.961
		c0.328,4.268-2.955,21.826-6.4,29.21c-3.445,7.387-11.979,21.499-19.689,23.958c0,0-4.267-0.984-9.354-18.049
		c-5.088-17.066-19.364-106.006,4.511-160.158c0,0,5.416-13.292,13.046-11.815c7.631,1.477,15.753,13.292,19.446,40.121
		c3.938,19.937,6.399,22.401,11.814,20.431c5.416-1.969,9.354-17.968,3.938-40.122c-5.416-22.152-21.168-47.26-46.028-38.152
		c-24.861,9.107-39.137,56.859-42.336,77.78c-3.2,20.923-16.246,68.921-1.478,123.563c9.354,32.493,27.896,46.769,48.9,41.189
		c14.112-4.596,27.896-21.661,28.881-39.712c0,0-0.328-17.064-0.328-17.887c0-0.819,3.282,7.384,5.251,13.784
		c1.969,6.398,6.564,20.512,10.83,20.02c4.267-0.493,10.501-2.79,9.518-9.355C114.715,282.45,109.3,271.948,109.956,250.781z"/>
	<path fill="#FFFFFF" d="M159.101,290.074c-6.154,1.726-12.549,2.221-17.725-14.02c0,0-4.923-15.999-3.692-27.329
		c0,0,22.153-12.79,24.867-32.493c0,0,0-14.759-12.561-11.56c-12.548,3.197-31.999,18.702-34.207,53.415
		c-2.22,34.702,8.856,54.89,23.878,56.855c11.56-0.253,15.746-3.933,18.208-7.384c2.461-3.451,4.187-7.879,6.89-9.847
		C167.474,295.744,165.254,288.362,159.101,290.074z M150.98,217.715c0.483,6.305-12.158,19.99-12.549,20.418
		C140.409,232.219,150.485,211.321,150.98,217.715z"/>
	<path fill="#FFFFFF" d="M257.558,152.982c0.24-0.99,14.274-2.715,49.965-3.934c35.69-1.243,47.504-11.33,49.482-12.319
		c1.968-0.978,0.242-1.966,0.242-1.966c-33.727-7.626-99.194,3.944-100.425,2.714c-1.23-1.231-1.725-27.824-1.23-37.911
		c0.492-10.087,0.241-22.647-8.615-24.12c-20.923-2.221-21.659,62.928-21.659,66.205c-49.402,6.568-78.158,27.951-82.103,31.39
		c-3.934,3.45-4.163,9.098-0.23,10.455c3.934,1.37,11.066-3.438,11.318-4.542c0.241-1.116-0.978-0.748-2.335-2.094
		c-1.369-1.356,4.049-3.451,4.049-3.451c40.499-15.827,64.539-16.988,67.322-16.815c2.795,0.161,1.312,23.625,0.988,33.137
		c-0.322,9.524,1.473,29.388-0.988,33.817c-2.45,4.426-6.718,26.084-8.363,27.891c-1.644,1.794-3.451-24.293-2.634-37.576
		c0.828-13.297,0.99-14.115-2.945-16.748c-3.945-2.611-8.201,0.333-11.491,2.312c-2.795-4.439-9.845-3.944-9.845-3.944
		c-20.842,1.312-23.303,31.17-25.431,48.239c-2.128,17.07,1.806,36.268,13.124,36.922c11.329,0.656,17.886-16.241,19.853-17.713
		c2.3,18.862,13.457,18.208,13.457,18.208c10.341,0.654,15.586-6.89,20.842-15.423c8.868,50.539,29.537,67.608,35.114,69.574
		c5.58,1.967,21.017,4.589,21.659-4.266c0.656-8.868-4.923-27.893-13.778-56.775C261.745,220.096,257.318,153.959,257.558,152.982z
		 M179.206,259.975c0,0-2.957-47.262,7.545-52.186c0,0,7.062,0.818,6.89,6.889C193.48,220.752,182.484,254.557,179.206,259.975z"/>
	<path fill="#FFFFFF" d="M284.126,183.429c-7.147,2.617-19.029,12.411-5.532,17.585c4.986,1.912,17.58,1.857,21.035-7.63
		C303.078,183.896,291.279,180.808,284.126,183.429z"/>
	<path fill="#FFFFFF" d="M460.996,217.486l0.162,0.103c-0.023-0.125,0.058-0.412,0.035-0.54
		C461.077,217.198,460.95,217.221,460.996,217.486z"/>
	<path fill="#FFFFFF" d="M475.27,263.932c-0.023-0.137-0.047-0.265-0.08-0.403c-0.069-1.875-0.392-3.589-0.909-5.658
		c-0.276-0.761-0.574-1.656-0.851-2.415c-0.425-0.874-0.679-1.495-0.956-2.269c-0.551-1.515-1.345-2.861-2.057-4.495
		c-0.543-0.943-1.081-1.887-1.646-2.863c-0.909-1.554-1.887-3.164-3.049-4.947c-1.667-2.402-3.151-4.566-4.808-6.971l-0.562-0.852
		c-0.357-0.471-0.702-0.816-0.876-1.057c-0.045-0.265-0.412-0.736-1.104-1.555c-0.607-1.114-1.333-2.059-1.861-2.781
		c-0.209-0.368-0.275-0.76-0.438-0.863c-0.171-0.242-0.401-0.735-0.734-1.083c-0.185-0.24-0.415-0.733-0.462-0.999l-0.16-0.115
		l-0.047-0.252l-0.022-0.139l-0.149-0.104c-0.023-0.127-0.023-0.127-0.023-0.127c-0.127-0.668-0.219-1.186-0.391-2.106l-0.023-0.124
		c-0.046-0.266-0.081-0.393-0.104-0.53c-0.138-0.781,0.022-1.357,0.012-2.174c-0.012-1.484,0.276-2.887,0.562-4.302l-0.262,0.046
		c-0.104,0.356-0.117,0.634-0.128,0.874c0-0.058,0-0.116-0.011-0.162c-0.035-0.137-0.035-0.137-0.059-0.263
		c0.116-0.162,0.116-0.162,0.093-0.287c0.24-0.863,0.379-1.565,0.552-2.14c0.264-0.725,0.414-1.427,0.702-2.025
		c0.069-0.426,0.069-0.426,0.069-0.426c-0.036-0.126-0.036-0.126,0.057-0.416c0.229-0.17,0.45-0.482,0.632-0.931l0.116-0.149
		c0.482-1.046,0.954-1.404,1.195-1.586l-0.022-0.127l0.127-0.023c0.138-0.023,0.138-0.023,0.114-0.161l-0.139,0.034
		c0,0-0.08,0.013-0.183,0.036c0.114-0.138,0.254-0.242,0.402-0.346c0.24-0.182,0.368-0.207,0.368-0.207
		c0.126-0.021,0.104-0.161,0.104-0.161c0.138-0.023,0.529-0.093,0.656-0.114l0.136-0.023c0.128-0.023,0.254-0.046,0.416,0.056
		l0.126-0.021c0.137-0.025,0.137-0.025,0.265-0.045l0.127-0.036c0.035,0.137,0.035,0.137,0.159,0.114l0.128-0.023l0.16,0.104
		l0.151,0.103c0.137-0.021,0.137-0.021,0.137-0.021s0.023,0.126,0.149,0.103c0.288,0.093,0.598,0.3,0.781,0.542
		c0.23,0.494,0.3,0.896,0.414,1.552c0.035,0.127,0.104,0.517,0.221,1.174c0,0,0.022,0.127-0.116,0.84l-0.012,0.677l0.173-0.573
		c-0.092,0.966-0.344,1.829-0.461,2.656l0.104,0.081c-0.022,0.068-0.032,0.126-0.057,0.184c-0.149,1.379-0.69,2.84-0.724,3.393
		c0.62-1.749,1.01-3.313,1.402-4.877c0.115-0.83,0.103-1.646,0.241-2.346c0.012,0.816-0.081,1.783-0.172,2.747
		c-0.22,0.99-0.472,1.841-0.691,2.832c-0.413,1.438-0.804,3.002-1.482,4.486l0.16,0.104c0.012-0.68,0.461-1.175,0.726-1.9
		c0.171-0.575,0.334-1.149,0.528-1.586c0.219-0.99,0.472-1.853,0.714-2.714c0.056-0.413,0.115-0.828,0.207-1.116l0.022,0.127
		l0.185-0.438c-0.161,0.575-0.115,0.828-0.115,0.828l0.023,0.139c-0.127,0.02-0.104,0.147-0.243,0.861
		c-0.195,0.436-0.229,0.988-0.331,1.139c-0.059,0.414-0.14,0.701-0.093,0.967c0.021,0.125,0.021,0.125,0.021,0.125
		c0.024,0.139,0.024,0.139,0.024,0.139c-0.553,2.14-1.357,3.634-1.357,3.634c-0.357,1.024-0.346,1.83-0.219,2.485
		c0.219,0.507,0.528,0.714,0.528,0.714c4.648-1.266,7.902-3.486,9.523-7.179c1.59-3.14,1.99-6.877,1.081-11.041
		c-0.725-3.934-2.656-7.788-5.36-10.675c-2.438-2.933-5.53-4.267-8.153-3.784c-5.372,1.001-10.63,5.625-14.355,12.549
		c-0.068,0.171-0.138,0.345-0.217,0.517c0.021-0.091,0.01-0.116,0-0.208c1.725-3.161,3.563-5.668,5.475-7.785
		c1.253-1.311,2.702-2.266,4.025-3.187c1.323-0.921,2.978-1.496,4.416-1.76l0.635-0.253c0.286,0.081,0.412,0.058,0.551,0.034
		c0.519-0.103,0.908-0.171,1.196-0.092c0.839,0.126,1.688,0.368,2.427,0.644c1.471,0.668,2.749,1.656,3.979,3.197
		c1.312,1.243,2.393,2.67,3.117,4.44c0.955,1.449,1.529,3.106,2,4.912c0.071,0.392,0.22,0.506,0.22,0.506
		c0.206,0.368,0.276,0.759,0.38,1.289c0.174,0.909,0.286,1.563,0.298,2.383c0.209,1.861,0.138,3.632-0.275,5.069
		c-0.115,0.831-0.367,1.692-0.622,2.557c-0.31,0.458-0.724,1.219-1.012,1.804c-0.816,1.507-1.633,2.207-2.185,2.854l0.149,0.102
		c0.562-0.643,1.253-1.311,1.782-2.092c0.379-0.885,1.048-1.679,1.402-2.703c0.381-0.875,0.6-1.863,0.806-2.989
		c0.104-0.15,0.163-0.576,0.138-0.704l0.128-0.023c0.185-1.933,0.093-3.946-0.3-6.051c-0.346-1.828-0.987-3.876-1.749-5.773
		c-0.861-1.735-1.726-3.486-2.931-4.876c-0.543-0.726-1.048-1.3-1.704-1.864l-0.021-0.127c0,0,0.021,0.127,0.159,0.105
		c0.104-0.149-0.184-0.242-0.39-0.609l0.138-0.024l0.021,0.138c0.335,0.346,0.646,0.552,0.955,0.771
		c0.519,0.574,0.873,1.057,1.209,1.403l0.161,0.104c0.528,0.713,0.528,0.713,0.528,0.713l-0.023-0.127
		c-0.217-0.504-0.586-0.977-1.092-1.564c-0.162-0.103-0.346-0.346-0.679-0.689l-0.022-0.127l-0.149-0.104
		c-0.288-0.092-0.495-0.459-0.807-0.667c-0.481-0.459-1-1.034-1.494-1.495l-0.173-0.229c-0.668-0.38-1.173-0.633-1.622-0.816
		l0.092-0.127c0,0-0.138,0.022-0.161-0.104c-0.126,0.024-0.126,0.024-0.265,0.046c-0.023-0.126-0.149-0.104-0.275-0.081
		l-0.346-0.344l-0.702-0.138c-0.389,0.068-0.412-0.06-0.677-0.013l-0.128,0.024c-0.286-0.081-0.426-0.057-0.553-0.035l-0.575-0.161
		c-0.354-0.024-0.584-0.012-0.7,0c0.023-0.012,0.023-0.012,0.023-0.012l0.655-0.126c0.139-0.024,0.139-0.024,0.288,0.08
		c0.264-0.045,0.39-0.069,0.702,0.15c0.138-0.024,0.138-0.024,0.262-0.057c0.128-0.024,0.164,0.114,0.29,0.09
		c0.126-0.022,0.412,0.06,0.412,0.06c0.14-0.024,0.14-0.024,0.14-0.024l0.104-0.161c-0.138,0.022-0.138,0.022-0.138,0.022
		c-0.541-0.034-0.853-0.241-1.277-0.299c-0.126,0.024-0.254,0.046-0.518,0.092l-0.022-0.126c0,0,0,0-0.14,0.023l-0.126,0.023
		l-0.391,0.069l-0.022-0.126l-0.266,0.046l-0.529,0.092l-1.047,0.195c-0.126,0.024-0.264,0.046-0.391,0.081
		c-0.126,0.022-0.126,0.022-0.126,0.022c-0.24,0.173-0.24,0.173-0.379,0.195c-0.128,0.024-0.255,0.046-0.392,0.081l-0.634,0.253
		l-0.516,0.092c-0.139,0.024-0.139,0.024-0.266,0.046c0.137-0.035,0.322-0.093,0.495-0.231l0.897-0.298
		c0.265-0.045,0.506-0.23,0.758-0.276l0.266-0.045c0.137-0.022,0.263-0.046,0.391-0.069l0.896-0.312l0.416,0.07l0.793-0.15
		l0.127-0.024l0.554,0.036l-0.025-0.138l0.128-0.022c0.39-0.07,1.069-0.059,1.782,0.079c0.599,0.3,1.162,0.461,1.448,0.553
		c0.288,0.081,0.426,0.057,0.426,0.057c0.103-0.161-0.034-0.138-0.184-0.241c-0.438-0.196-0.909-0.507-1.485-0.679
		c-0.7-0.138-1.424-0.415-2.104-0.425c-0.136,0.022-0.262,0.046-0.401,0.081l-0.127,0.021c-0.149-0.103-0.287-0.08-0.552-0.034
		l-0.391,0.07l-0.517,0.104l-1.186,0.206c-0.264,0.059-0.53,0.104-0.782,0.15l-0.241,0.184c-1.414,0.391-2.899,1.209-4.106,1.979
		l-0.14,0.022c-0.205,0.312-0.574,0.518-0.688,0.667l-0.473,0.356c-0.391,0.081-0.505,0.229-0.447,0.495l-0.979,0.586l-0.667,0.806
		c-0.586,0.505-1.852,1.69-3.267,3.576c-1.094,1.426-2.117,3.244-3.036,4.901c-0.691,1.345-1.369,2.828-2.024,4.439
		c-0.621,1.747-1.037,3.174-1.427,4.738c-0.391,1.565-0.724,3.393-1.069,5.211c-0.081,1.782-0.139,3.691-0.104,5.315l-0.012,0.678
		l0.059,1.068c0.034,0.139,0.081,0.391,0.127,0.656l0.092,0.529l0.021,0.805l0.046,0.265l0.242,1.312l0.093,0.529
		c0.47,1.805,1.069,3.589,1.933,5.336c0.713,1.621,1.633,2.944,2.634,4.658c0.783,1.347,1.552,2.566,2.658,4.119
		c0.712,0.953,1.276,1.806,1.814,2.52c1.463,2.033,2.842,3.668,4.153,5.601c0.335,0.576,0.667,1.138,0.979,1.702
		c1.38,2.416,2.565,4.703,3.209,7.018l0.195,0.366c0.034,0.128,0.034,0.128,0.08,0.391c0.023,0.128,0.15,0.104,0.172,0.242
		l0.358,1.15l0.217,1.185c0,0,0.071,0.391,0.093,0.519l0.219,1.184l0.265,1.449c0.023,0.127,0.023,0.127,0.046,0.253
		c0.033,0.139,0.033,0.139,0.057,0.265c-0.01,0.68,0.127,1.461,0.174,2.405c0,1.495,0.033,3.116-0.253,4.519
		c0,0.024,0,0.047-0.012,0.071c-0.128,1.495-0.542,2.908-0.968,4.185c0.025,0.128-0.103,0.15-0.195,0.438c0,0,0,0,0.035,0.138
		c-0.138,0.021-0.114,0.149-0.114,0.149c-0.126,0.022-0.104,0.148-0.209,0.311l-0.17,0.576c0,0,0,0,0.021,0.125l-0.528,0.783
		l-0.347,0.334c-0.103,0.147-0.079,0.287-0.217,0.31c0.033,0.128-0.104,0.149-0.104,0.149c-0.104,0.161-0.104,0.161-0.185,0.449
		c-0.459,0.483-0.804,0.817-1.229,1.45c-0.345,0.333-0.897,0.977-1.243,1.31c-0.608,0.38-1.092,0.735-1.713,0.99
		c-0.139,0.021-0.115,0.159-0.241,0.184c0,0,0,0-0.138,0.022l-0.129,0.024l-0.264,0.045l-0.518,0.104
		c-0.528,0.093-0.794,0.14-1.08,0.057c-0.126,0.023-0.15-0.103-0.276-0.081c-0.186-0.24-0.345-0.345-0.494-0.447
		c-0.184-0.24-0.543-0.712-0.875-1.058c-0.115-0.656-0.529-1.404-0.759-1.898c-0.275-0.76-0.552-1.529-0.69-2.312
		c-0.206-0.506-0.333-1.104-0.461-1.736c-0.033-0.148-0.058-0.311-0.091-0.472c-0.023-0.127-0.093-0.518-0.116-0.655
		c-0.16-0.103-0.184-0.23-0.207-0.369c-0.022-0.126-0.046-0.262-0.091-0.517l-0.023-0.138l-0.172-0.908l-0.253-2.13
		c-0.059-0.263-0.128-0.654-0.173-0.918l-0.114-1.336c-0.024-0.126-0.024-0.126-0.071-0.39c0,0-0.021-0.128-0.046-0.265
		l-0.057-1.749c-0.265-2.933-0.276-5.913,0-8.812c0.035-0.942,0.047-2.035,0.162-3.195c0.033-0.347,0.08-0.714,0.138-1.071
		c0.091-0.966,0.126-1.507,0.288-2.082c0.091-0.286,0.194-0.448,0.149-0.702c0.103-0.16,0.081-0.286,0.207-0.31l-0.069-0.391
		l0.851-2.738L442.398,246c-0.128,0.023-0.276-0.081-0.438-0.184l-0.184-0.242c-0.149-0.104-0.312-0.219-0.461-0.321
		c-0.126,0.021-0.288-0.081-0.288-0.081c-0.022-0.139-0.148-0.104-0.333-0.346c-0.162-0.104-0.287-0.08-0.448-0.195l-0.127,0.023
		c-0.597-0.287-1.403-0.275-2.059-0.162c-0.264,0.057-0.53,0.104-0.633,0.254c-0.265,0.059-0.391,0.08-0.528,0.102l-0.369,0.209
		l-0.368,0.196c-0.127,0.021-0.367,0.206-0.47,0.354c-0.14,0.035-0.14,0.035-0.14,0.035c-0.103,0.148-0.229,0.174-0.229,0.174
		c-0.563,0.643-1.014,1.138-1.439,1.758c-0.621,1.059-1.24,2.13-2.092,3.372c-0.013,0.679-0.334,1.138-0.598,1.874
		c-0.172,0.563-0.334,1.14-0.484,1.84c-0.528,1.875-0.964,3.809-1.345,5.97c-11.33,4.993-21.015,9.523-25.603,10.985
		c-5.776,1.852-8.03-2.864-8.581-8.569c0.816-6.625,7.039-15.539,18.988-27.479c10.261-10.272,12.85-20.278,13.491-24.845
		c0.197-0.494,0.369-0.954,0.472-1.38c2.464-9.594-0.7-11.939-3.933-12.79c-21.922-5.809-36.428,46.02-40.867,51.69
		c-4.67,3.935-0.241-25.362,3.944-44.064c4.178-18.702,15.507-41.109,17.474-44.547c1.966-3.45,6.153-15.758-3.197-17.483
		c-9.352-1.726-19.197,14.527-19.197,14.527c-25.846,33.229-38.89,88.359-39.879,86.15c-0.99-2.219-6.89-21.658-11.57-23.144
		c-4.671-1.469-6.89-0.734-8.12,26.101c-0.323,6.913,0.298,13.377,1.391,19.163c-4.578,3.474-9.408,6.682-13.457,7.901
		c-9.249,2.806-6.798-28.873-7.131-33.473s-4.809-26.994-12.802-27.318c-7.994-0.321-11.594,7.374-12.549,10.825
		c-0.853,3.06,1.184,30.307,3.197,46.769c2.012,16.46,15.724,27.5,27.812,28.8c6.385,0.69,13.655-8.66,19.221-18.265
		c2.934,7.753,5.89,12.354,5.89,12.354c1.968,2.713,3.438,4.438,8.854,5.91c5.419,1.474,15.507-6.153,17.231-9.593
		c1.726-3.45-2.209-13.055,4.924-44.307c6.994-30.618,16.331-44.708,16.725-45.271c-0.209,0.702-7.397,23.636-9.089,41.085
		c-1.725,17.725,5.659,17.725,8.858,18.462c-4.43,26.58,10.834,30.514,18.459,31.009c3.473,0.23,15.908-3.59,29.687-8.236
		c0.21,0.944,0.52,2.049,0.841,3.142c0.346,1.15,0.586,2.461,1.048,3.461c0.366,1.29,0.931,2.141,1.413,3.267
		c0.345,1.151,0.955,2.268,1.681,3.221c0.586,0.966,1.3,1.921,2.025,2.875c1.045,1.302,1.896,2.223,2.874,3.13
		c1.115,0.874,2.196,1.633,3.415,2.347c0.139-0.023,0.162,0.115,0.29,0.093c0.159,0.103,0.308,0.206,0.493,0.448l0.862,0.24
		l0.852,0.252c0.184,0.243,0.472,0.323,0.472,0.323c0.149,0.103,0.287,0.081,0.287,0.081c0.288,0.081,0.564,0.16,0.702,0.139
		c0.15,0.114,0.15,0.114,0.15,0.114l0.469,0.321l1.257,0.172l0.987,0.221c0.701,0.148,1.381,0.148,1.91,0.057
		c0.265-0.045,0.656-0.128,0.908-0.173c0.402-0.067,0.529-0.093,0.92-0.16c0.656-0.128,1.289-0.38,1.795-0.609
		c0.759-0.275,1.208-0.761,1.713-0.99c0.841-0.563,1.669-1.264,2.83-2.287c0.816-0.69,1.483-1.495,2.369-2.6
		c1.461-1.635,2.714-3.624,4.062-5.914c1.127-1.967,2.231-4.071,3.15-6.405c0.979-2.084,1.921-4.292,2.714-6.604
		c0.771-2.45,1.3-4.716,1.691-6.958c0.127-0.828,0.208-1.117,0.287-1.404l0.081-0.288c0.104-0.159,0.081-0.286,0.035-0.552
		c0.033-0.551,0.252-0.861,0.265-1.54c0.092-0.955,0.23-1.667,0.194-2.611l0.058-0.412l0.035-0.174l0.103-0.53l0.013-0.679
		l-0.046-0.264C475.156,264.081,475.156,264.081,475.27,263.932z M462.502,210.975c-0.079,0.563-0.207,1.219-0.366,1.841
		c0.138-0.761,0.298-1.656,0.275-2.37C462.445,210.631,462.469,210.758,462.502,210.975z M461.987,207.513
		c0,0.012,0.011,0.012,0.022,0.023l0.022,0.139C462.009,207.617,461.998,207.559,461.987,207.513
		c-0.127-0.078-0.127-0.091-0.185-0.344C461.881,207.284,461.941,207.398,461.987,207.513z M454.13,215.84
		c-0.012,0.081-0.012,0.149-0.035,0.208c0.023,0.138,0.023,0.138,0.046,0.264c-0.139,0.024-0.139,0.024-0.139,0.024
		C454.049,216.163,454.105,216.004,454.13,215.84z M453.105,190.881c0.128-0.022,0.369-0.207,0.495-0.229l0.737-0.403
		c0.137-0.022,0.265-0.046,0.265-0.046l1.24-0.643l1.025-0.322l1.184-0.219l0.393-0.069l0.021,0.127l-0.414-0.058l-1.035,0.322
		c-0.252,0.058-0.391,0.081-0.518,0.104c-0.138,0.023-0.263,0.045-0.263,0.045l-0.127,0.024c-0.093,0.288-0.345,0.334-0.483,0.357
		l-1.023,0.333l-0.497,0.22l-0.112,0.161c-0.254,0.045-0.393,0.069-0.497,0.23l-0.505,0.207
		C452.967,190.904,452.967,190.904,453.105,190.881z M452.6,191.111l0.311-0.069l-0.046,0.022c-0.103,0.081-0.219,0.149-0.321,0.219
		C452.565,191.238,452.577,191.192,452.6,191.111z M452.255,191.445l0.091-0.012c-0.148,0.104-0.288,0.206-0.437,0.322
		L452.255,191.445z M446.826,196.517l0.552-0.643c0.219-0.312,0.564-0.646,0.771-0.956c0.114-0.161,0.241-0.184,0.345-0.346
		c0.114-0.15,0.241-0.172,0.346-0.333c0.138-0.022,0.114-0.15,0.114-0.15l0.574-0.516l0.116-0.15
		c0.127-0.034,0.23-0.184,0.369-0.207c0.23-0.184,0.689-0.667,0.918-0.852c0.139-0.022,0.115-0.149,0.243-0.182
		c0.126-0.024,0.219-0.151,0.437-0.197c-1.172,0.875-2.382,1.91-3.543,3.209c-0.494,0.53-0.989,1.081-1.473,1.667L446.826,196.517z
		 M444.628,199.566c-0.126,0.217-0.254,0.449-0.368,0.679c-0.045,0.057-0.103,0.114-0.16,0.172
		C444.272,200.13,444.456,199.841,444.628,199.566z M442.949,205.638c-0.022-0.138-0.022-0.138-0.022-0.138
		c0.104-0.15,0.322-0.46,0.379-0.886c0.06-0.068,0.139-0.159,0.219-0.252C443.351,204.765,443.145,205.179,442.949,205.638z
		 M465.321,241.629c0.186,0.24,0.356,0.482,0.564,0.851c-0.391-0.483-0.748-0.966-1.083-1.426
		C464.964,241.261,465.137,241.456,465.321,241.629z M464.483,240.605c-0.416-0.609-0.785-1.186-1.164-1.727
		C463.757,239.385,464.102,240.019,464.483,240.605z M419.521,204.673c4.68,0.735-10.825,21.657-16.241,25.845
		C403.28,230.518,414.838,203.938,419.521,204.673z M432.758,287.774c-0.023-0.138-0.046-0.264-0.069-0.39
		c-0.012-0.046-0.021-0.104-0.021-0.162c-0.621-1.795-1.196-3.75-1.714-5.935c0.01-0.012,0.033-0.012,0.046-0.023
		c0.426,1.761,0.838,3.335,1.323,4.831c0.172,0.322,0.275,0.758,0.345,1.127c0.067,0.229,0.148,0.449,0.217,0.654
		C432.861,287.811,432.816,287.765,432.758,287.774z M432.965,288.144c0-0.035-0.012-0.069-0.021-0.116
		c0.033,0.104,0.068,0.209,0.103,0.3C433.023,288.258,433,288.2,432.965,288.144z M433.496,289.536
		c-0.047-0.127-0.093-0.253-0.14-0.381c0.036,0.093,0.069,0.173,0.116,0.254c0.207,0.367,0.402,0.736,0.633,1.229l0.046,0.23
		C433.92,290.434,433.701,289.995,433.496,289.536z M434.586,291.778c0.149,0.104,0.186,0.217,0.209,0.356
		C434.726,292.021,434.656,291.893,434.586,291.778z M436.75,295.446c-0.426-0.874-1.149-1.828-1.759-2.933
		c0-0.021-0.012-0.046-0.012-0.057c-0.058-0.104-0.116-0.195-0.174-0.298c0.128,0.183,0.162,0.216,0.174,0.298
		c0.298,0.517,0.621,1.023,0.966,1.506c0.553,1.024,1.241,2.026,1.898,2.888C437.474,296.391,437.105,295.918,436.75,295.446z
		 M442.27,301.06c-0.321-0.195-0.631-0.402-0.931-0.632c-0.979-0.725-1.853-1.599-2.635-2.496c-0.252-0.311-0.528-0.644-0.805-1.013
		c0.356,0.427,0.726,0.841,1.116,1.22c0.69,0.828,1.517,1.621,2.323,2.289c0.53,0.357,0.978,0.621,1.392,0.828
		C442.593,301.197,442.444,301.141,442.27,301.06z M444.698,302.511l-0.012-0.081c-0.104-0.059-0.219-0.186-0.321-0.254
		c0.138-0.034,0.161,0.104,0.287,0.081l0.034,0.173c0.047,0.034,0.093,0.056,0.128,0.056L444.698,302.511z M459.191,300.564
		c-0.116,0.151-0.288,0.323-0.528,0.461l-0.104,0.148l-0.093,0.014c-0.298,0.252-0.597,0.481-0.897,0.678
		c-0.424,0.438-0.966,0.771-1.414,0.979c-0.24,0.172-0.368,0.205-0.507,0.229l-0.126,0.022c-0.103,0.151-0.242,0.173-0.242,0.173
		s-0.022-0.126,0.116-0.149c0.748-0.333,1.461-0.735,2.173-1.253c0.046-0.034,0.093-0.08,0.139-0.126
		c0.24-0.173,0.483-0.356,0.588-0.519l0.171-0.033c0.071-0.047,0.127-0.104,0.197-0.162
		C458.834,300.888,459.006,300.738,459.191,300.564c0.069-0.092,0.127-0.159,0.16-0.218c0.242-0.173,0.485-0.378,0.726-0.608
		C459.777,300.036,459.477,300.313,459.191,300.564z M461.86,297.806c-0.519,0.633-1.083,1.264-1.635,1.794
		C460.753,299.069,461.26,298.403,461.86,297.806c0.113-0.139,0.23-0.276,0.333-0.414c0,0,0,0,0.138-0.034
		C462.169,297.495,462.009,297.644,461.86,297.806z"/>
</g>
</svg>
