<?xml version="1.0" encoding="utf-8"?>
<!-- Generator: Adobe Illustrator 16.0.0, SVG Export Plug-In . SVG Version: 6.00 Build 0)  -->
<!DOCTYPE svg PUBLIC "-//W3C//DTD SVG 1.1//EN" "http://www.w3.org/Graphics/SVG/1.1/DTD/svg11.dtd">
<svg version="1.1" xmlns="http://www.w3.org/2000/svg" xmlns:xlink="http://www.w3.org/1999/xlink" x="0px" y="0px" width="500px"
	 height="500px" viewBox="0 0 500 500" enable-background="new 0 0 500 500" xml:space="preserve">
<g id="Layer_1">
	<path fill="#FFFFFF" d="M135.82,167.824l29.63,55.956l-0.02,0.011c0.374,0.715,0.514,1.56,0.289,2.404
		c-0.475,1.774-2.293,2.833-4.064,2.357c-0.928-0.252-1.642-0.887-2.056-1.684l-0.02,0.014l-23.759-44.864v4.315l26.723,46.525
		h139.032V80.361H135.82V167.824z M135.82,312.42v-13.262h35.479l-14.749-25.682l-1.19,0.692c-0.736,0.425-1.635,0.57-2.521,0.333
		c-0.883-0.238-1.588-0.815-2.012-1.553l-15.007-26.126v145.159h88.799l-45.703-79.562H135.82z M248.53,391.981h53.045V312.42
		h-98.747L248.53,391.981z M176.885,257.826c0.427,0.739,0.569,1.642,0.33,2.529c-0.235,0.894-0.832,1.561-1.57,1.98l0.025,0.046
		l-1.189,0.688l20.729,36.088h106.365v-53.041H170.16L176.885,257.826z M334.727,80.361h-19.891v152.495h33.15V93.622
		C347.986,86.299,342.049,80.361,334.727,80.361 M314.836,391.981h19.891c7.322,0,13.26-5.938,13.26-13.261V312.42h-33.15V391.981z
		 M314.836,299.158h33.15v-53.041h-33.15V299.158z"/>
	<g opacity="0.102">
		<g>
			<defs>
				<rect id="SVGID_1_" x="135.82" y="80.361" width="212.167" height="251.949"/>
			</defs>
			<clipPath id="SVGID_2_">
				<use xlink:href="#SVGID_1_"  overflow="visible"/>
			</clipPath>
			<path clip-path="url(#SVGID_2_)" fill="#010101" d="M341.356,325.68h6.63v-6.63h-6.63V325.68z M294.946,319.05h6.629v-6.63
				h-6.629V319.05z M275.055,325.68h6.631v-6.63h-6.631V325.68z M314.836,325.68h6.629v-6.63h-6.629V325.68z M288.315,325.68h6.631
				v-6.63h-6.631V325.68z M334.727,332.311h6.63v-6.631h-6.63V332.311z M261.795,325.68h6.63v-6.63h-6.63V325.68z M321.465,332.311
				h6.631v-6.631h-6.631V332.311z M347.986,113.512h-6.63v6.631h6.63V113.512z M347.986,126.773h-6.63v6.63h6.63V126.773z
				 M328.096,325.68h6.631v-6.63h-6.631V325.68z M248.533,312.42h-6.631v6.63h6.631V312.42z M288.315,312.42h-6.63v6.63h6.63V312.42
				z M261.795,312.42h-6.631v6.63h6.631V312.42z M347.986,140.034h-6.63v6.63h6.63V140.034z M275.055,312.42h-6.63v6.63h6.63V312.42
				z M341.356,312.42h-6.63v6.63h6.63V312.42z M248.533,325.68h6.631v-6.63h-6.631V325.68z M328.096,312.42h-6.631v6.63h6.631
				V312.42z M168.971,325.68h6.63v-6.63h-6.63V325.68z M155.711,312.42h-6.63v6.63h6.63V312.42z M155.711,325.68h6.63v-6.63h-6.63
				V325.68z M168.971,312.42h-6.63v6.63h6.63V312.42z M182.232,325.68h2.396l-2.396-4.174V325.68z M177.013,312.42h-1.412v6.63
				h5.219L177.013,312.42z M135.82,319.05h6.631v-6.63h-6.631V319.05z M142.451,325.68h6.63v-6.63h-6.63V325.68z M235.273,325.68
				h6.629v-6.63h-6.629V325.68z M175.601,332.311h6.631v-6.631h-6.631V332.311z M301.575,325.68h-6.629v6.631h6.629V325.68z
				 M149.081,332.311h6.63v-6.631h-6.63V332.311z M162.341,332.311h6.63v-6.631h-6.63V332.311z M208.752,325.68h6.63v-6.63h-6.63
				V325.68z M208.752,326.049v-0.369h-0.212L208.752,326.049z M202.123,312.42v2.084l2.609,4.546h4.021v-6.63H202.123z
				 M222.013,312.42h-6.63v6.63h6.63V312.42z M222.013,325.68h6.63v-6.63h-6.63V325.68z M235.273,312.42h-6.63v6.63h6.63V312.42z
				 M255.164,332.311h6.631v-6.631h-6.631V332.311z M268.425,332.311h6.63v-6.631h-6.63V332.311z M281.686,332.311h6.63v-6.631
				h-6.63V332.311z M241.902,332.311h6.631v-6.631h-6.631V332.311z M228.643,332.311h6.63v-6.631h-6.63V332.311z M215.383,332.311
				h6.63v-6.631h-6.63V332.311z M135.82,332.311h6.631v-6.631h-6.631V332.311z M328.096,146.664h-6.631v6.63h6.631V146.664z
				 M328.096,133.404h-6.631v6.63h6.631V133.404z M328.096,120.144h-6.631v6.63h6.631V120.144z M328.096,159.924h-6.631v6.63h6.631
				V159.924z M328.096,106.882h-6.631v6.63h6.631V106.882z M328.096,186.445h-6.631v6.63h6.631V186.445z M328.096,173.184h-6.631
				v6.631h6.631V173.184z M328.096,93.622h-6.631v6.63h6.631V93.622z M328.096,120.144h6.631v-6.631h-6.631V120.144z
				 M328.096,133.404h6.631v-6.63h-6.631V133.404z M328.096,106.882h6.631v-6.63h-6.631V106.882z M334.727,100.252h6.63v-6.63h-6.63
				V100.252z M334.727,86.992h-6.631v6.63h6.631V86.992z M334.727,126.773h6.63v-6.63h-6.63V126.773z M334.727,140.034h6.63v-6.63
				h-6.63V140.034z M328.096,146.664h6.631v-6.63h-6.631V146.664z M334.727,153.294h6.63v-6.63h-6.63V153.294z M334.727,113.512
				h6.63v-6.63h-6.63V113.512z M341.356,106.882h6.63v-6.63h-6.63V106.882z M347.986,153.294h-6.63v6.629h6.63V153.294z
				 M328.096,226.227h6.631v-6.63h-6.631V226.227z M334.727,219.597h6.63v-6.63h-6.63V219.597z M334.727,179.815h6.63v-6.631h-6.63
				V179.815z M328.096,212.966h-6.631v6.63h6.631V212.966z M328.096,199.705h-6.631v6.63h6.631V199.705z M334.727,206.335h6.63
				v-6.63h-6.63V206.335z M334.727,193.075h6.63v-6.63h-6.63V193.075z M334.727,166.554h6.63v-6.63h-6.63V166.554z M314.836,199.705
				h6.629v-6.63h-6.629V199.705z M314.836,212.966h6.629v-6.631h-6.629V212.966z M314.836,226.227h6.629v-6.63h-6.629V226.227z
				 M314.836,159.924h6.629v-6.629h-6.629V159.924z M314.836,186.445h6.629v-6.63h-6.629V186.445z M314.836,173.184h6.629v-6.63
				h-6.629V173.184z M321.465,232.856h6.631v-6.63h-6.631V232.856z M347.986,179.815h-6.63v6.63h6.63V179.815z M347.986,193.075
				h-6.63v6.63h6.63V193.075z M334.727,232.856h6.63v-6.63h-6.63V232.856z M347.986,166.554h-6.63v6.63h6.63V166.554z
				 M347.986,206.335h-6.63v6.631h6.63V206.335z M347.986,219.597h-6.63v6.63h6.63V219.597z M328.096,80.361h-6.631v6.63h6.631
				V80.361z M328.096,212.966h6.631v-6.631h-6.631V212.966z M341.356,82.202c-1.955-1.142-4.203-1.841-6.63-1.841v6.63h6.63V82.202z
				 M347.986,93.622c0-2.427-0.699-4.675-1.84-6.63h-4.79v6.63H347.986z M328.096,199.705h6.631v-6.63h-6.631V199.705z
				 M328.096,186.445h6.631v-6.63h-6.631V186.445z M328.096,173.184h6.631v-6.63h-6.631V173.184z M314.836,93.622h6.629v-6.63
				h-6.629V93.622z M314.836,120.144h6.629v-6.631h-6.629V120.144z M314.836,133.404h6.629v-6.63h-6.629V133.404z M314.836,106.882
				h6.629v-6.63h-6.629V106.882z M314.836,146.664h6.629v-6.63h-6.629V146.664z M328.096,159.924h6.631v-6.629h-6.631V159.924z"/>
		</g>
	</g>
	<path fill="#FAA21B" d="M314.838,299.158h33.151v-53.041h-33.151V299.158z M155.357,274.169c-0.736,0.425-1.631,0.57-2.517,0.333
		c-0.884-0.238-1.591-0.815-2.016-1.553l-15.003-26.126v52.335H171.3l-14.752-25.682L155.357,274.169z M176.887,257.826
		c0.423,0.739,0.566,1.642,0.33,2.529c-0.238,0.894-0.832,1.561-1.57,1.98l0.026,0.046l-1.19,0.688l20.729,36.088h106.362v-53.041
		H170.159L176.887,257.826z"/>
	<g opacity="0.149">
		<g>
			<defs>
				<rect id="SVGID_3_" x="168.971" y="140.034" width="99.454" height="33.15"/>
			</defs>
			<clipPath id="SVGID_4_">
				<use xlink:href="#SVGID_3_"  overflow="visible"/>
			</clipPath>
			<path clip-path="url(#SVGID_4_)" fill="#010101" d="M228.643,140.034h-59.671v6.63h59.671V140.034z M168.971,159.924h99.454
				v-6.629h-99.454V159.924z M168.971,173.184h86.193v-6.63h-86.193V173.184z"/>
		</g>
	</g>
	<g opacity="0.851">
		<g>
			<defs>
				<rect id="SVGID_5_" x="89.396" y="67.101" width="271.853" height="354.75"/>
			</defs>
			<clipPath id="SVGID_6_">
				<use xlink:href="#SVGID_5_"  overflow="visible"/>
			</clipPath>
			<path clip-path="url(#SVGID_6_)" fill="#010101" d="M334.727,67.101H129.189c-3.663,0-6.63,2.967-6.63,6.63v89.518l-6.659-11.596
				c-0.426-0.738-1.132-1.312-2.014-1.551c-0.883-0.239-1.782-0.094-2.519,0.333l-20.312,11.789
				c-0.736,0.427-1.309,1.136-1.549,2.024c-0.234,0.889-0.092,1.791,0.333,2.529l32.72,56.96v174.875c0,3.659,2.967,6.63,6.63,6.63
				h103.044l2.406,4.189c0.223,0.385,0.531,0.719,0.892,0.99l-0.005,0.008l14.304,10.761l0.018-0.027
				c0.328,0.25,0.689,0.461,1.11,0.577c1.771,0.477,3.589-0.58,4.063-2.356c0.113-0.427,0.127-0.85,0.075-1.256l0.014-0.008
				l-0.006-0.058c0-0.004,0-0.004-0.003-0.004l-1.52-12.816h81.145c14.646,0,26.521-11.875,26.521-26.521V93.622
				C361.248,78.976,349.372,67.101,334.727,67.101 M135.82,391.981V246.823l15.007,26.126c0.424,0.737,1.128,1.314,2.012,1.553
				c0.885,0.237,1.784,0.092,2.521-0.333l1.19-0.692l14.749,25.682H135.82v13.262h43.096l45.703,79.562H135.82z M301.575,391.981
				H248.53l-45.702-79.562h98.747V391.981z M301.575,299.158H195.21l-20.729-36.088l1.189-0.688l-0.025-0.046
				c0.738-0.42,1.334-1.087,1.57-1.98c0.239-0.888,0.097-1.79-0.33-2.529l-6.725-11.708h131.415V299.158z M301.575,232.856H162.543
				l-26.723-46.525v-4.315l23.759,44.864l0.02-0.01c0.414,0.793,1.128,1.428,2.056,1.68c1.771,0.479,3.59-0.583,4.064-2.357
				c0.225-0.841,0.085-1.688-0.289-2.404l0.02-0.01l-29.63-55.957V80.361h165.755V232.856z M347.986,378.721
				c0,7.322-5.938,13.261-13.26,13.261h-19.891V312.42h33.15V378.721z M347.986,299.158h-33.15v-53.041h33.15V299.158z
				 M347.986,232.856h-33.15V80.361h19.891c7.322,0,13.26,5.938,13.26,13.261V232.856z"/>
		</g>
	</g>
</g>
<g id="Layer_2">
</g>
</svg>
