<?xml version="1.0" encoding="utf-8"?>
<!-- Generator: Adobe Illustrator 16.0.0, SVG Export Plug-In . SVG Version: 6.00 Build 0)  -->
<!DOCTYPE svg PUBLIC "-//W3C//DTD SVG 1.1//EN" "http://www.w3.org/Graphics/SVG/1.1/DTD/svg11.dtd">
<svg version="1.1" xmlns="http://www.w3.org/2000/svg" xmlns:xlink="http://www.w3.org/1999/xlink" x="0px" y="0px" width="500px"
	 height="500px" viewBox="0 0 500 500" enable-background="new 0 0 500 500" xml:space="preserve">
<g id="Layer_1">
</g>
<g id="Layer_2">
	<path fill="#FFFFFF" d="M369.311,208.527v-40.981H111.71v158.073c0,6.467,5.242,11.709,11.708,11.709h187.347V231.946
		c0-12.933,10.485-23.419,23.418-23.419H369.311z M369.311,132.418c0-6.466-5.244-11.709-11.709-11.709H123.418
		c-6.466,0-11.708,5.243-11.708,11.709v23.418h257.601V132.418z M322.473,384.165c0,6.466,5.244,11.708,11.71,11.708h70.255
		c6.467,0,11.71-5.242,11.71-11.708v-17.564h-93.675V384.165z M404.438,220.236h-70.255c-6.466,0-11.71,5.244-11.71,11.71v17.563
		h93.675v-17.563C416.147,225.48,410.904,220.236,404.438,220.236 M322.473,354.893h93.675v-93.674h-93.675V354.893z"/>
	<path fill="#FAA21B" d="M369.311,372.455c-4.852,0-8.782,3.932-8.782,8.782c0,4.852,3.931,8.782,8.782,8.782
		c4.851,0,8.781-3.931,8.781-8.782C378.092,376.387,374.161,372.455,369.311,372.455"/>
	<path fill="#FAA21B" d="M123.418,261.219h111.237v-81.964H123.418V261.219z M334.183,302.201h70.255v-29.273h-70.255V302.201z"/>
	<path fill="#F7D54A" d="M357.602,208.527v-29.272H246.364v81.964h64.4v-29.272c0-12.933,10.485-23.419,23.418-23.419H357.602z
		 M334.183,343.183h70.255V313.91h-70.255V343.183z"/>
	<rect x="123.418" y="272.928" fill="#86AEDD" width="187.347" height="52.691"/>
	<g opacity="0.149">
		<g>
			<defs>
				<rect id="SVGID_11_" x="123.418" y="132.418" width="260.529" height="105.382"/>
			</defs>
			<clipPath id="SVGID_2_">
				<use xlink:href="#SVGID_11_"  overflow="visible"/>
			</clipPath>
			<path clip-path="url(#SVGID_2_)" fill="#010101" d="M357.602,231.946c-1.615,0-2.929,1.312-2.929,2.927
				c0,1.615,1.313,2.927,2.929,2.927c1.614,0,2.927-1.312,2.927-2.927C360.528,233.258,359.216,231.946,357.602,231.946
				 M381.019,231.946h-14.636c-1.615,0-2.928,1.312-2.928,2.927c0,1.615,1.312,2.927,2.928,2.927h14.636
				c1.615,0,2.929-1.312,2.929-2.927C383.947,233.258,382.634,231.946,381.019,231.946 M129.272,132.418
				c-3.235,0-5.854,2.619-5.854,5.855s2.619,5.854,5.854,5.854c3.236,0,5.855-2.619,5.855-5.854S132.509,132.418,129.272,132.418
				 M146.836,132.418c-3.235,0-5.854,2.619-5.854,5.855s2.618,5.854,5.854,5.854c3.237,0,5.854-2.619,5.854-5.854
				S150.073,132.418,146.836,132.418 M164.4,132.418c-3.236,0-5.854,2.619-5.854,5.855s2.618,5.854,5.854,5.854
				c3.235,0,5.854-2.619,5.854-5.854S167.636,132.418,164.4,132.418"/>
		</g>
	</g>
	<g opacity="0.102">
		<g>
			<defs>
				<rect id="SVGID_13_" x="123.418" y="179.255" width="228.329" height="163.928"/>
			</defs>
			<clipPath id="SVGID_4_">
				<use xlink:href="#SVGID_13_"  overflow="visible"/>
			</clipPath>
			<path clip-path="url(#SVGID_4_)" fill="#010101" d="M123.418,237.8h5.854v-5.854h-5.854V237.8z M129.272,231.946h5.855v-5.855
				h-5.855V231.946z M135.128,226.091h5.854v-5.855h-5.854V226.091z M123.418,226.091h5.854v-5.855h-5.854V226.091z
				 M140.982,243.655h-5.854v5.854h5.854V243.655z M140.982,255.364h-5.854v5.854h5.854V255.364z M140.982,231.946h-5.854v5.854
				h5.854V231.946z M129.272,255.364h5.855v-5.854h-5.855V255.364z M123.418,249.51h5.854v-5.854h-5.854V249.51z M129.272,243.655
				h5.855V237.8h-5.855V243.655z M123.418,261.219h5.854v-5.854h-5.854V261.219z M135.128,190.964h5.854v-5.854h-5.854V190.964z
				 M129.272,185.109h5.855v-5.854h-5.855V185.109z M129.272,196.818h-5.854v5.855h5.854V196.818z M129.272,208.527h-5.854v5.855
				h5.854V208.527z M140.982,208.527h-5.854v5.855h5.854V208.527z M140.982,196.818h-5.854v5.855h5.854V196.818z M129.272,208.527
				h5.855v-5.854h-5.855V208.527z M129.272,185.109h-5.854v5.854h5.854V185.109z M129.272,220.236h5.855v-5.854h-5.855V220.236z
				 M129.272,196.818h5.855v-5.854h-5.855V196.818z M246.364,261.219h5.854v-5.854h-5.854V261.219z M263.928,231.946h-5.854v5.854
				h5.854V231.946z M263.928,255.364h-5.854v5.854h5.854V255.364z M263.928,243.655h-5.854v5.854h5.854V243.655z M252.219,255.364
				h5.854v-5.854h-5.854V255.364z M246.364,249.51h5.854v-5.854h-5.854V249.51z M246.364,226.091h5.854v-5.855h-5.854V226.091z
				 M258.073,226.091h5.854v-5.855h-5.854V226.091z M252.219,231.946h5.854v-5.855h-5.854V231.946z M246.364,237.8h5.854v-5.854
				h-5.854V237.8z M252.219,243.655h5.854V237.8h-5.854V243.655z M252.219,185.109h-5.854v5.854h5.854V185.109z M252.219,196.818
				h-5.854v5.855h5.854V196.818z M252.219,208.527h-5.854v5.855h5.854V208.527z M263.928,208.527h-5.854v5.855h5.854V208.527z
				 M263.928,196.818h-5.854v5.855h5.854V196.818z M258.073,190.964h5.854v-5.854h-5.854V190.964z M252.219,208.527h5.854v-5.854
				h-5.854V208.527z M252.219,196.818h5.854v-5.854h-5.854V196.818z M252.219,185.109h5.854v-5.854h-5.854V185.109z
				 M252.219,220.236h5.854v-5.854h-5.854V220.236z M123.418,319.765h5.854v-5.854h-5.854V319.765z M129.272,325.619h5.855v-5.854
				h-5.855V325.619z M135.128,319.765h5.854v-5.854h-5.854V319.765z M140.982,302.201h-5.854v5.854h5.854V302.201z M129.272,302.201
				h5.855v-5.854h-5.855V302.201z M140.982,290.492h-5.854v5.854h5.854V290.492z M129.272,290.492h-5.854v5.854h5.854V290.492z
				 M129.272,302.201h-5.854v5.854h5.854V302.201z M129.272,290.492h5.855v-5.855h-5.855V290.492z M129.272,278.782h-5.854v5.854
				h5.854V278.782z M129.272,313.91h5.855v-5.855h-5.855V313.91z M129.272,278.782h5.855v-5.854h-5.855V278.782z M135.128,284.637
				h5.854v-5.854h-5.854V284.637z M340.037,302.201h5.855v-5.854h-5.855V302.201z M334.183,296.347h5.854v-5.854h-5.854V296.347z
				 M334.183,284.637h5.854v-5.854h-5.854V284.637z M351.747,290.492h-5.854v5.854h5.854V290.492z M345.893,272.928h-5.855v5.854
				h5.855V272.928z M340.037,290.492h5.855v-5.855h-5.855V290.492z M351.747,278.782h-5.854v5.854h5.854V278.782z M351.747,331.474
				h-5.854v5.854h5.854V331.474z M340.037,331.474h5.855v-5.854h-5.855V331.474z M340.037,343.183h5.855v-5.854h-5.855V343.183z
				 M334.183,337.328h5.854v-5.854h-5.854V337.328z M345.893,325.619h5.854v-5.854h-5.854V325.619z M345.893,313.91h-5.855v5.854
				h5.855V313.91z M334.183,325.619h5.854v-5.854h-5.854V325.619z"/>
		</g>
	</g>
	<g opacity="0.851">
		<g>
			<defs>
				<rect id="SVGID_15_" x="100" y="109" width="327.855" height="298.583"/>
			</defs>
			<clipPath id="SVGID_6_">
				<use xlink:href="#SVGID_15_"  overflow="visible"/>
			</clipPath>
			<path clip-path="url(#SVGID_6_)" fill="#010101" d="M404.438,208.527h-23.419v-76.109c0-12.933-10.484-23.418-23.417-23.418
				H123.418C110.485,109,100,119.485,100,132.418v193.201c0,12.933,10.485,23.418,23.418,23.418h187.347v35.128
				c0,12.933,10.485,23.418,23.418,23.418h70.255c12.933,0,23.418-10.485,23.418-23.418V231.946
				C427.855,219.014,417.37,208.527,404.438,208.527 M111.71,132.418c0-6.466,5.242-11.709,11.708-11.709h234.184
				c6.465,0,11.709,5.243,11.709,11.709v23.418H111.71V132.418z M310.765,231.946v105.382H123.418
				c-6.466,0-11.708-5.242-11.708-11.709V167.546h257.601v40.981h-35.128C321.25,208.527,310.765,219.014,310.765,231.946
				 M416.147,384.165c0,6.466-5.243,11.708-11.71,11.708h-70.255c-6.466,0-11.71-5.242-11.71-11.708v-17.564h93.675V384.165z
				 M416.147,354.893h-93.675v-93.674h93.675V354.893z M416.147,249.51h-93.675v-17.563c0-6.466,5.244-11.71,11.71-11.71h70.255
				c6.467,0,11.71,5.244,11.71,11.71V249.51z"/>
		</g>
	</g>
</g>
</svg>
