<?xml version="1.0" encoding="utf-8"?>
<!-- Generator: Adobe Illustrator 16.0.0, SVG Export Plug-In . SVG Version: 6.00 Build 0)  -->
<!DOCTYPE svg PUBLIC "-//W3C//DTD SVG 1.1//EN" "http://www.w3.org/Graphics/SVG/1.1/DTD/svg11.dtd">
<svg version="1.1" id="Layer_1" xmlns="http://www.w3.org/2000/svg" xmlns:xlink="http://www.w3.org/1999/xlink" x="0px" y="0px"
	 width="138.319px" height="46.68px" viewBox="0 0 138.319 46.68" enable-background="new 0 0 138.319 46.68" xml:space="preserve">
<g>
	<path fill="#FFFFFF" d="M22.751,9.388c1.6,0.079,3.153,0.196,4.659,0.353c1.506,0.157,2.969,0.313,4.388,0.47
		c1.42,0.157,2.784,0.298,4.094,0.424c1.309,0.125,2.568,0.188,3.776,0.188c0.345,0,0.675-0.074,0.988-0.223s0.589-0.349,0.823-0.6
		c0.236-0.251,0.424-0.525,0.565-0.824c0.141-0.297,0.212-0.604,0.212-0.917c0-0.502-0.153-0.956-0.459-1.364
		c-0.306-0.408-0.836-0.69-1.588-0.848c-3.247-0.58-6.365-0.979-9.353-1.2c-2.988-0.219-5.847-0.33-8.576-0.33
		c-2.008,0-3.953,0.047-5.835,0.142c-1.882,0.094-3.647,0.267-5.293,0.518c-1.647,0.251-3.157,0.6-4.529,1.047
		S4.074,7.239,3.094,7.929c-0.98,0.69-1.742,1.526-2.283,2.505C0.271,11.416,0,12.564,0,13.882c0.031,0.564,0.188,1.067,0.47,1.506
		c0.236,0.376,0.612,0.722,1.129,1.035c0.518,0.313,1.248,0.47,2.188,0.47c0.941,0,1.667-0.153,2.176-0.458
		c0.51-0.306,0.883-0.643,1.118-1.012c0.235-0.368,0.373-0.71,0.411-1.023c0.039-0.313,0.059-0.486,0.059-0.518
		c0-0.596,0.153-1.113,0.459-1.553c0.306-0.439,0.721-0.815,1.247-1.129c0.525-0.313,1.137-0.572,1.835-0.776
		c0.697-0.203,1.451-0.372,2.258-0.505c0.808-0.133,1.639-0.239,2.494-0.318c0.855-0.078,1.698-0.149,2.529-0.212
		c-0.957,2.981-1.847,5.686-2.67,8.117c-0.824,2.432-1.588,4.655-2.294,6.671c-0.706,2.016-1.349,3.862-1.929,5.541
		c-0.581,1.678-1.098,3.267-1.552,4.764c-0.455,1.498-0.852,2.937-1.188,4.317c-0.337,1.38-0.608,2.784-0.812,4.211
		c-0.095,0.361-0.142,0.69-0.142,0.989c0,0.94,0.29,1.624,0.871,2.046c0.58,0.423,1.317,0.635,2.211,0.635
		c0.298,0,0.62-0.09,0.965-0.271c0.345-0.181,0.679-0.435,1-0.765c0.321-0.329,0.612-0.718,0.87-1.165
		c0.258-0.446,0.451-0.937,0.577-1.47c0.297-1.16,0.678-2.549,1.141-4.165c0.462-1.615,0.96-3.376,1.494-5.282
		c0.533-1.905,1.086-3.905,1.659-6c0.572-2.094,1.121-4.195,1.647-6.305c0.525-2.11,1.007-4.177,1.447-6.2
		C22.108,13.035,22.47,11.145,22.751,9.388z"/>
	<path fill="#FFFFFF" d="M138.312,30.861c-0.146-1.028-1.664-1.517-2.349-1.077c-0.616,0.396-3.036,2.047-3.519,2.377
		c-0.343,0.174-0.7,0.34-1.073,0.496c-0.753,0.313-1.482,0.47-2.188,0.47c-0.251,0-0.491-0.047-0.718-0.142
		c-0.227-0.094-0.431-0.254-0.612-0.481c-0.18-0.228-0.326-0.53-0.435-0.906c-0.11-0.376-0.165-0.847-0.165-1.412
		c0-0.33,0.039-0.741,0.117-1.235c0.079-0.494,0.165-1.004,0.259-1.53s0.18-1.027,0.258-1.505c0.079-0.479,0.118-0.851,0.118-1.118
		c0-0.345-0.063-0.655-0.188-0.929s-0.294-0.506-0.505-0.694c-0.212-0.188-0.459-0.333-0.742-0.435
		c-0.282-0.102-0.573-0.153-0.87-0.153c-0.863,0-1.624,0.231-2.283,0.694c-0.659,0.462-1.247,1.031-1.764,1.705
		c-0.518,0.675-0.973,1.4-1.365,2.176c-0.392,0.777-0.745,1.479-1.058,2.106h-0.259c-0.031-0.8-0.047-1.612-0.047-2.435
		c0-0.824,0-1.525,0-2.106c0-0.486-0.012-0.871-0.035-1.153c-0.023-0.282-0.091-0.498-0.2-0.647
		c-0.11-0.149-0.278-0.243-0.505-0.282c-0.228-0.039-0.545-0.059-0.953-0.059c-0.362,0-0.663,0.02-0.906,0.059
		s-0.447,0.118-0.612,0.236c-0.164,0.117-0.31,0.278-0.435,0.481c-0.126,0.204-0.251,0.479-0.376,0.824
		c-0.204,0.518-0.409,1.177-0.612,1.977c-0.204,0.8-0.408,1.679-0.612,2.635c-0.204,0.957-0.397,1.965-0.577,3.023
		c-0.108,0.632-0.19,1.244-0.281,1.861l-0.083-0.179c-0.627,0.628-1.239,1.173-1.835,1.636c-0.596,0.462-1.188,0.881-1.776,1.259
		c-0.588,0.376-1.172,0.721-1.752,1.034c-0.581,0.314-1.152,0.636-1.718,0.965c0.471-0.721,0.851-1.419,1.141-2.094
		c0.291-0.674,0.518-1.354,0.683-2.036c0.165-0.682,0.278-1.38,0.341-2.094c0.062-0.713,0.094-1.471,0.094-2.271
		c0-0.957-0.134-1.875-0.4-2.753c-0.267-0.879-0.651-1.655-1.153-2.33c-0.502-0.674-1.114-1.215-1.835-1.623
		c-0.721-0.408-1.545-0.612-2.47-0.612c-0.722,0-1.447,0.333-2.176,1c-0.729,0.667-1.533,1.549-2.412,2.647l-0.376-0.259
		c1.098-1.333,2.2-2.753,3.306-4.259c1.105-1.506,2.105-3.047,2.999-4.623c0.895-1.577,1.62-3.157,2.176-4.741
		s0.836-3.122,0.836-4.611c0-1.067-0.063-2.071-0.188-3.012c-0.126-0.94-0.385-1.76-0.777-2.458c-0.392-0.697-0.949-1.25-1.67-1.659
		C103.05,0.204,102.093,0,100.901,0c-1.067,0-2.059,0.431-2.977,1.294c-0.917,0.862-1.765,2.008-2.541,3.435
		c-0.776,1.428-1.482,3.055-2.117,4.883c-0.636,1.827-1.208,3.709-1.718,5.646c-0.51,1.937-0.953,3.851-1.329,5.741
		c-0.377,1.89-0.69,3.604-0.941,5.141c-0.376,2.306-0.674,4.396-0.894,6.271c-0.22,1.875-0.392,3.501-0.518,4.882
		c-0.027,0.312-0.045,0.587-0.069,0.886c-0.294,0.224-0.59,0.442-0.896,0.62c-0.377,0.219-0.746,0.4-1.106,0.542
		c-0.361,0.141-0.706,0.212-1.035,0.212c-0.314,0-0.581-0.267-0.8-0.801c-0.22-0.533-0.33-1.224-0.33-2.07
		c0-1.082,0.054-2.106,0.165-3.07c0.109-0.965,0.235-1.917,0.377-2.859c0.141-0.941,0.266-1.897,0.376-2.87
		c0.109-0.973,0.165-2,0.165-3.083c0-0.706-0.255-1.25-0.765-1.635c-0.51-0.385-1.133-0.577-1.871-0.577
		c-0.658,0-1.216,0.215-1.67,0.647c-0.455,0.431-0.91,0.961-1.365,1.588c-0.47,0.644-0.977,1.388-1.517,2.235
		c-0.542,0.847-1.052,1.655-1.529,2.423c-0.479,0.769-0.883,1.423-1.212,1.965s-0.51,0.835-0.541,0.882l-0.259-0.282
		c0-0.031,0.008-0.094,0.024-0.189c0.015-0.094,0.062-0.321,0.141-0.682c0.11-0.518,0.228-1.023,0.353-1.517
		c0.125-0.494,0.247-1,0.365-1.518c0.118-0.518,0.216-1.051,0.294-1.6c0.079-0.549,0.118-1.129,0.118-1.741
		c0-0.706-0.235-1.25-0.706-1.635c-0.471-0.385-1.036-0.577-1.694-0.577c-0.706,0-1.314,0.212-1.824,0.635
		c-0.509,0.424-0.992,0.957-1.447,1.6c-0.47,0.644-0.964,1.384-1.482,2.223c-0.518,0.84-1,1.644-1.447,2.412
		c-0.447,0.769-0.824,1.428-1.129,1.977c-0.306,0.549-0.475,0.847-0.506,0.894l-0.258-0.282c0.157-0.989,0.306-1.945,0.446-2.871
		c0.063-0.393,0.122-0.796,0.177-1.212c0.055-0.416,0.106-0.819,0.153-1.211c0.047-0.393,0.083-0.761,0.106-1.106
		c0.023-0.345,0.035-0.651,0.035-0.917c0-0.486-0.016-0.871-0.047-1.153s-0.129-0.498-0.293-0.647
		c-0.166-0.149-0.416-0.243-0.753-0.282s-0.804-0.059-1.4-0.059c-0.392,0-0.713,0.027-0.964,0.083
		c-0.25,0.055-0.467,0.165-0.646,0.329c-0.181,0.166-0.341,0.397-0.483,0.694c-0.141,0.298-0.291,0.698-0.446,1.2
		c-0.158,0.486-0.33,1.114-0.518,1.882c-0.188,0.769-0.373,1.616-0.553,2.542c-0.181,0.925-0.353,1.893-0.518,2.905
		c-0.165,1.012-0.311,2.004-0.435,2.977c-0.017,0.129-0.024,0.241-0.041,0.369c-0.315,0.261-0.637,0.523-0.996,0.796
		c-0.879,0.667-1.812,1.282-2.8,1.848c-0.989,0.564-2.004,1.035-3.047,1.412c-1.043,0.376-2.035,0.564-2.976,0.564
		c-0.298,0-0.577-0.032-0.835-0.094c-0.259-0.063-0.506-0.172-0.741-0.33c-0.236-0.156-0.467-0.376-0.694-0.659
		c-0.228-0.282-0.459-0.635-0.694-1.059c1.365-0.376,2.631-0.901,3.8-1.576c1.168-0.675,2.176-1.443,3.023-2.306
		c0.848-0.863,1.51-1.78,1.988-2.753c0.478-0.973,0.717-1.945,0.717-2.917c0-0.894-0.157-1.702-0.47-2.423
		c-0.314-0.722-0.75-1.337-1.306-1.848c-0.557-0.509-1.211-0.905-1.964-1.188c-0.752-0.283-1.568-0.424-2.447-0.424
		c-1.082,0-2.066,0.192-2.953,0.577c-0.886,0.384-1.686,0.902-2.399,1.552c-0.714,0.652-1.337,1.404-1.871,2.259
		c-0.534,0.855-0.977,1.752-1.33,2.694c-0.353,0.941-0.616,1.902-0.788,2.882s-0.259,1.909-0.259,2.788
		c0,0.201,0.033,0.392,0.042,0.589c-0.173,0.137-0.328,0.27-0.513,0.41c-0.878,0.667-1.812,1.282-2.799,1.848
		c-0.989,0.564-2.004,1.035-3.047,1.412c-1.043,0.376-2.035,0.564-2.977,0.564c-0.298,0-0.576-0.032-0.835-0.094
		c-0.259-0.063-0.506-0.172-0.741-0.33c-0.236-0.156-0.467-0.376-0.694-0.659c-0.228-0.282-0.459-0.635-0.694-1.059
		c1.365-0.376,2.631-0.901,3.8-1.576c1.168-0.675,2.176-1.443,3.023-2.306c0.847-0.863,1.51-1.78,1.988-2.753
		c0.478-0.973,0.717-1.945,0.717-2.917c0-0.894-0.157-1.702-0.47-2.423c-0.314-0.722-0.75-1.337-1.306-1.848
		c-0.557-0.509-1.211-0.905-1.964-1.188c-0.752-0.283-1.569-0.424-2.447-0.424c-1.082,0-2.066,0.192-2.953,0.577
		c-0.886,0.384-1.686,0.902-2.399,1.552c-0.714,0.652-1.338,1.404-1.871,2.259c-0.534,0.855-0.977,1.752-1.33,2.694
		c-0.353,0.941-0.615,1.902-0.788,2.882c-0.173,0.98-0.259,1.909-0.259,2.788c0,1.302,0.185,2.545,0.553,3.729
		s0.921,2.227,1.659,3.129c0.737,0.901,1.659,1.62,2.764,2.152c1.106,0.533,2.396,0.8,3.871,0.8c0.94,0,1.871-0.105,2.788-0.317
		c0.917-0.211,1.803-0.494,2.658-0.847c0.855-0.353,1.671-0.756,2.447-1.212c0.777-0.454,1.502-0.917,2.177-1.388
		c0.288-0.203,0.558-0.442,0.839-0.656c0.278,0.524,0.601,1.014,0.972,1.468c0.737,0.901,1.659,1.62,2.764,2.152
		c1.107,0.533,2.396,0.8,3.871,0.8c0.94,0,1.871-0.105,2.788-0.317c0.918-0.211,1.803-0.494,2.658-0.847
		c0.855-0.353,1.671-0.756,2.447-1.212c0.711-0.416,1.367-0.84,1.992-1.27c0.016,0.182,0.011,0.375,0.032,0.553
		c0.07,0.588,0.212,1.114,0.424,1.576c0.212,0.463,0.514,0.832,0.906,1.106c0.392,0.274,0.909,0.411,1.552,0.411
		c0.501,0,0.96-0.114,1.376-0.341c0.415-0.227,0.78-0.662,1.094-1.306c1.082-2.18,1.964-3.996,2.646-5.446s1.244-2.631,1.683-3.542
		c0.439-0.909,0.78-1.6,1.023-2.071c0.243-0.47,0.459-0.823,0.648-1.058h0.353c-0.251,1.443-0.463,2.792-0.636,4.047
		c-0.079,0.533-0.157,1.07-0.234,1.612c-0.079,0.541-0.149,1.055-0.212,1.541c-0.063,0.486-0.11,0.917-0.142,1.294
		c-0.031,0.376-0.046,0.667-0.046,0.87c0,0.486,0.026,0.989,0.082,1.506c0.055,0.517,0.165,0.992,0.33,1.423
		c0.165,0.431,0.396,0.785,0.694,1.059c0.297,0.274,0.697,0.411,1.2,0.411c0.659,0,1.239-0.114,1.741-0.341s0.957-0.671,1.364-1.33
		l4.776-12.163h0.354c-0.126,1.128-0.224,2.247-0.294,3.352c-0.07,1.106-0.105,2.153-0.105,3.141c0,1.051,0.05,2.023,0.153,2.918
		c0.102,0.894,0.27,1.67,0.505,2.329c0.236,0.659,0.544,1.172,0.929,1.541s0.859,0.553,1.424,0.553c1.145,0,2.173-0.153,3.082-0.458
		c0.91-0.306,1.745-0.698,2.506-1.176c0.542-0.341,1.04-0.743,1.542-1.14c0.682,0.353,1.375,0.688,2.093,0.987
		c1.067,0.455,2.255,0.866,3.565,1.235c1.309,0.369,2.631,0.553,3.964,0.553h0.588c0.597-0.235,1.153-0.478,1.671-0.729
		c0.455-0.219,0.914-0.462,1.376-0.729c0.463-0.266,0.827-0.533,1.094-0.8c1.098-0.251,2.137-0.533,3.118-0.847
		s1.922-0.686,2.823-1.118c0.902-0.432,1.78-0.937,2.635-1.518c0.083-0.056,0.167-0.125,0.25-0.184
		c-0.016,0.356-0.027,0.697-0.027,1.008c0,0.627,0.035,1.235,0.106,1.823c0.07,0.588,0.212,1.114,0.424,1.576
		c0.211,0.463,0.513,0.832,0.905,1.106c0.392,0.274,0.909,0.411,1.553,0.411c0.282,0,0.541-0.05,0.776-0.153
		c0.236-0.102,0.455-0.278,0.659-0.529c0.204-0.25,0.403-0.576,0.6-0.977c0.196-0.4,0.404-0.906,0.624-1.518l4.211-11.741h0.376
		c0.125,0.989,0.291,1.964,0.494,2.93c0.204,0.964,0.518,1.835,0.941,2.611s0.996,1.404,1.717,1.882
		c0.721,0.479,1.671,0.718,2.847,0.718c0.659,0,1.306-0.098,1.941-0.294c0.635-0.196,1.247-0.439,1.835-0.729
		c0.588-0.29,1.141-0.6,1.659-0.929c0.518-0.33,0.98-0.627,1.389-0.894l0.001-0.029C136.691,34.696,138.452,31.839,138.312,30.861z
		 M26.81,32.869c0.031-0.485,0.098-0.988,0.2-1.505c0.102-0.518,0.251-1.031,0.447-1.541c0.196-0.509,0.455-0.964,0.777-1.364
		c0.321-0.401,0.721-0.726,1.2-0.977c0.478-0.251,1.055-0.377,1.729-0.377c0.377,0,0.694,0.228,0.953,0.683
		c0.259,0.455,0.388,1.035,0.388,1.741c0,0.502-0.196,1.02-0.588,1.553c-0.393,0.534-0.875,1.028-1.447,1.482
		c-0.573,0.456-1.192,0.828-1.859,1.118c-0.667,0.291-1.283,0.436-1.847,0.436C26.763,33.771,26.779,33.356,26.81,32.869z
		 M45.327,32.869c0.031-0.485,0.098-0.988,0.2-1.505c0.102-0.518,0.251-1.031,0.447-1.541c0.196-0.509,0.455-0.964,0.777-1.364
		c0.321-0.401,0.721-0.726,1.2-0.977c0.478-0.251,1.055-0.377,1.729-0.377c0.377,0,0.694,0.228,0.953,0.683
		c0.259,0.455,0.388,1.035,0.388,1.741c0,0.502-0.196,1.02-0.588,1.553c-0.392,0.534-0.875,1.028-1.447,1.482
		c-0.573,0.456-1.192,0.828-1.859,1.118c-0.667,0.291-1.283,0.436-1.847,0.436C45.28,33.771,45.295,33.356,45.327,32.869z
		 M94.737,22.081c0.157-0.839,0.341-1.764,0.553-2.776c0.212-1.012,0.448-2.083,0.706-3.212s0.537-2.239,0.835-3.33
		c0.298-1.09,0.604-2.133,0.918-3.129C98.062,8.639,98.384,7.761,98.713,7c0.329-0.76,0.662-1.364,1-1.812
		c0.337-0.447,0.663-0.671,0.977-0.671c0.267,0,0.479,0.086,0.635,0.259s0.278,0.369,0.365,0.588
		c0.086,0.22,0.141,0.432,0.165,0.636c0.024,0.204,0.035,0.337,0.035,0.4c-0.079,1.113-0.254,2.208-0.529,3.282
		c-0.274,1.074-0.619,2.133-1.035,3.176c-0.416,1.043-0.879,2.062-1.388,3.058c-0.51,0.997-1.031,1.969-1.564,2.918
		c-0.534,0.949-1.063,1.862-1.588,2.741c-0.525,0.878-1,1.726-1.423,2.541C94.455,23.599,94.58,22.921,94.737,22.081z
		 M102.525,32.857c-0.079,0.714-0.197,1.435-0.353,2.165c-0.158,0.73-0.362,1.432-0.612,2.105c-0.252,0.675-0.55,1.275-0.895,1.8
		c-0.345,0.526-0.737,0.945-1.176,1.259s-0.925,0.471-1.459,0.471c-0.455,0-0.933-0.039-1.435-0.118
		c-0.502-0.079-0.981-0.165-1.435-0.259c-0.518-0.109-1.036-0.242-1.553-0.4c0.047-0.548,0.102-1.137,0.165-1.764
		c0.062-0.549,0.141-1.181,0.235-1.894s0.212-1.494,0.354-2.342c0.172-1.05,0.439-1.948,0.8-2.693
		c0.36-0.745,0.776-1.356,1.247-1.835c0.471-0.479,0.98-0.832,1.529-1.059c0.549-0.228,1.098-0.341,1.647-0.341
		c0.612,0,1.118,0.083,1.518,0.247s0.713,0.381,0.94,0.647c0.228,0.267,0.385,0.577,0.471,0.93c0.086,0.353,0.129,0.726,0.129,1.117
		C102.643,31.489,102.603,32.144,102.525,32.857z"/>
</g>
</svg>
