<?xml version="1.0" encoding="utf-8"?>
<!-- Generator: Adobe Illustrator 16.0.0, SVG Export Plug-In . SVG Version: 6.00 Build 0)  -->
<!DOCTYPE svg PUBLIC "-//W3C//DTD SVG 1.1//EN" "http://www.w3.org/Graphics/SVG/1.1/DTD/svg11.dtd">
<svg version="1.1" id="Layer_1" xmlns="http://www.w3.org/2000/svg" xmlns:xlink="http://www.w3.org/1999/xlink" x="0px" y="0px"
	 width="100px" height="100px" viewBox="0 0 100 100" enable-background="new 0 0 100 100" xml:space="preserve">
<g>
	<circle fill="#E9EBEE" cx="42.553" cy="46.542" r="42.155"/>
</g>
<g>
	<g>
		<path fill="#3B434F" d="M71.484,67.883c-3.819,16.311-22.896,9.814-29.405,7.067v-0.018c-6.538,2.681-25.681,8.981-29.329-7.38
			c0,0,6.695,0.106,4.796-20.907c0,0-7.036-41.646,24.88-38.002v0.068c31.953-3.307,24.48,38.231,24.48,38.231
			C64.787,67.92,71.484,67.883,71.484,67.883"/>
	</g>
	<g>
		<path fill="#FFFFFF" d="M15.536,87.453c0,0-1.125-16.479,14.386-17.937l6.952,0.037l0.017-3.202c0,0,4.879,2.126,9.84,0.285
			l0.141,2.97l8.123,0.042c0,0,13.907,0.619,13.182,18.234L15.536,87.453z"/>
	</g>
	<g>
		<path fill="#3B434F" d="M68.05,88.384l-52.081-0.274l-1.01-0.004l0.274-4.306c0.537-8.408,7.196-14.791,14.779-14.751l5.213,0.026
			c-0.34,0.278-0.589,0.567-0.769,0.855l-3.989-0.021c-7.309-0.038-13.727,6.106-14.244,14.198l-0.191,2.987l51.885,0.271
			l-0.081-2.987c-0.433-8.098-6.786-14.31-14.094-14.347l-3.993-0.021c-0.151-0.29-0.369-0.58-0.669-0.864l5.08,0.026
			c7.582,0.04,14.174,6.493,14.624,14.905l0.229,4.309L68.05,88.384z M47.533,70l-0.273-0.003l0.005-0.858l0.303,0.002
			C47.548,69.363,47.536,69.646,47.533,70 M36.552,69.082l0.325,0.003l-0.005,0.858l-0.281-0.001
			C36.59,69.576,36.574,69.298,36.552,69.082"/>
	</g>
	<g>
		<path fill="#3B434F" d="M44.468,81.075c0.303,0.002,0.546,0.246,0.544,0.549c-0.001,0.302-0.247,0.545-0.549,0.544
			c-0.303-0.003-0.546-0.248-0.544-0.549C43.92,81.317,44.166,81.072,44.468,81.075"/>
	</g>
	<g>
		<path fill="#3B434F" d="M44.45,84.667c0.301,0.001,0.545,0.248,0.544,0.549c-0.002,0.304-0.248,0.546-0.55,0.545
			c-0.302-0.002-0.546-0.247-0.544-0.551C43.901,84.909,44.147,84.665,44.45,84.667"/>
	</g>
	<g>
		<path fill="#3B434F" d="M50.833,73.765l-4.015,5.915c-1.066-3.362-4.207-2.13-4.207-2.13l-0.052,9.919
			c-0.001,0.26-0.248,0.468-0.549,0.467c-0.302-0.002-0.545-0.214-0.545-0.473l0.053-9.919c-0.025-0.011-3.128-1.252-4.224,2.087
			l-3.947-5.956c0,0-1.519-3.921,3.15-5.607l0.009-1.796l0.881,0.004l-0.03,5.653c0.108,0.974,0.764,3.749,4.712,4.681
			c3.962-0.889,4.647-3.658,4.766-4.632l0.029-5.651l0.883,0.005l-0.01,1.796C52.395,69.861,50.833,73.765,50.833,73.765
			 M37.277,74.221c-0.211-0.242-0.514-0.841-0.514-0.841s-0.289-0.979-0.286-1.406l0.01-1.981c-0.061-0.895-0.229-0.911-0.229-0.911
			c-3.486,1.694-1.974,4.363-1.974,4.363l2.863,4.546c1.137-1.905,2.349-1.551,2.349-1.551
			C38.428,75.889,37.73,75.037,37.277,74.221 M47.967,69.143c0,0-0.167,0.014-0.238,0.908l-0.01,1.98
			c-0.002,0.429-0.302,1.404-0.302,1.404s-0.31,0.595-0.523,0.835c-0.462,0.812-1.169,1.657-2.245,2.195
			c0,0,1.217-0.341,2.335,1.574l2.914-4.513C49.897,73.527,51.439,70.874,47.967,69.143"/>
	</g>
	<g>
		<path fill="#FFFFFF" d="M42.422,17.018c9.716,0.051,17.337,9.172,17.03,20.078L59.126,48.69
			c-0.288,10.277-7.881,18.361-16.966,18.314c-9.084-0.05-16.593-8.213-16.773-18.492l-0.205-11.597
			C24.989,26.006,32.706,16.967,42.422,17.018"/>
	</g>
	<g>
		<path fill="#3B434F" d="M60.236,36.741l-0.343,12.064c-0.301,10.695-8.257,19.106-17.777,19.057s-17.388-8.545-17.578-19.241
			l-0.214-12.067C24.123,25.2,32.208,15.792,42.389,15.846C52.569,15.899,60.557,25.39,60.236,36.741 M42.344,17.095
			c-9.583-0.05-17.195,8.919-17.005,19.745l0.201,11.506c0.178,10.199,7.583,18.297,16.544,18.346
			c8.96,0.046,16.451-7.976,16.737-18.171l0.32-11.505C59.443,26.194,51.927,17.146,42.344,17.095"/>
	</g>
	<g>
		<path fill="#3B434F" d="M33.675,39.231c0.862,0.005,1.558,0.708,1.553,1.57c-0.005,0.862-0.707,1.559-1.57,1.555
			c-0.863-0.005-1.559-0.708-1.554-1.571C32.109,39.923,32.812,39.228,33.675,39.231"/>
	</g>
	<g>
		<path fill="#3B434F" d="M51.014,37.595c0.863,0.005,1.558,0.707,1.554,1.569c-0.004,0.863-0.708,1.559-1.57,1.554
			c-0.863-0.003-1.559-0.707-1.555-1.569C49.448,38.286,50.15,37.59,51.014,37.595"/>
	</g>
	<g>
		<path fill="#F5F3EF" d="M33.566,45.012c1.51,0.008,2.734,0.101,2.724,1.811c-0.009,1.763-1.234,1.789-2.743,1.781
			c-1.509-0.007-2.731-0.336-2.725-1.811C30.833,45.07,32.056,45.003,33.566,45.012"/>
	</g>
	<g>
		<path fill="#F5F3EF" d="M51.687,45.105c1.509,0.01,2.731,0.101,2.725,1.812c-0.011,1.764-1.233,1.79-2.744,1.782
			c-1.509-0.009-2.731-0.336-2.724-1.812C48.952,45.165,50.176,45.099,51.687,45.105"/>
	</g>
	<g>
		
			<rect x="59.011" y="29.844" transform="matrix(-1 -0.0048 0.0048 -1 121.1393 67.7866)" fill="#3B434F" width="3.279" height="7.811"/>
	</g>
	<g>
		<path fill="#3B444F" d="M23.018,36.736c0,0,3.485-6.625,10.082-5.532c0,0,0.253,1.514,1.664,3.148c0,0,1.574-3.755,6.373-4.789
			c3.812-0.821,7.443-3.838,7.443-3.838s0.53,6.034,7.94,7.753c0,0,6.495,0.837,6.043-2.756
			c-0.452-3.595-3.979-19.247-21.264-16.973c-17.287,2.276-21.376,8.529-18.433,22.829"/>
	</g>
	<g>
		<path fill="#F7FBFB" d="M24.113,38.312c-0.001,0-0.191-0.153-0.548-0.269c-0.179-0.057-0.401-0.104-0.655-0.116
			c-0.062-0.005-0.128-0.005-0.194-0.004c-0.067,0.003-0.136,0.007-0.205,0.013c-0.139,0.016-0.282,0.04-0.426,0.082
			c-0.577,0.162-1.168,0.562-1.518,1.393c-0.176,0.415-0.292,0.938-0.327,1.592c-0.008,0.164-0.012,0.335-0.009,0.516
			c0.002,0.182,0.01,0.37,0.023,0.568c0.028,0.396,0.08,0.829,0.158,1.299c-0.002-0.001-0.082,1.423,0.418,3.06
			c0.47,1.601,1.607,3.57,3.725,4.143C24.333,46.526,24.347,42.391,24.113,38.312"/>
	</g>
	<g>
		<path fill="#3B434F" d="M24.537,38.477c0,0-3.687-1.163-3.578,2.635c0,0,0.522,5.509,0.758,6.018c0,0,1.434,3.213,3.827,3.367
			c2.339,0.151,0,0,0,0l0.024,1.033c0,0-4.205-0.562-4.993-5.413l-0.618-4.409c0,0-0.467-5.832,4.355-4.324c4.698,1.469,0,0,0,0
			L24.537,38.477"/>
	</g>
	<g>
		<path fill="#3B434F" d="M23.277,46.121c0,0-0.207,0.153-0.384,0.153c-0.177-0.001-0.381-0.157-0.381-0.157l-0.36-3.843
			c0,0,0.535-1.89,2.762-0.878l0.047,1.099c0,0-1.954-0.705-1.918,0.16C23.076,43.486,23.277,46.121,23.277,46.121"/>
	</g>
	<g>
		<path fill="#F7FBFB" d="M60.359,38.511c0.002,0,0.192-0.15,0.553-0.261c0.18-0.056,0.404-0.101,0.659-0.111
			c0.062-0.002,0.128-0.002,0.194,0c0.067,0.002,0.137,0.008,0.206,0.016c0.139,0.015,0.282,0.042,0.427,0.084
			c0.579,0.169,1.168,0.575,1.51,1.408c0.174,0.416,0.284,0.938,0.312,1.594c0.006,0.164,0.009,0.336,0.004,0.517
			c-0.004,0.18-0.015,0.368-0.03,0.565c-0.032,0.396-0.089,0.827-0.173,1.297c0.002,0,0.068,1.423-0.451,3.054
			c-0.487,1.594-1.652,3.551-3.785,4.101C60.052,46.718,60.081,42.584,60.359,38.511"/>
	</g>
	<g>
		<path fill="#3B434F" d="M59.931,38.671c0,0,3.716-1.123,3.565,2.67c0,0-0.58,5.5-0.823,6.005c0,0-1.474,3.197-3.878,3.326
			c-2.352,0.126,0,0,0,0l-0.035,1.032c0,0,4.229-0.518,5.07-5.358l0.667-4.397c0,0,0.53-5.823-4.328-4.368c-4.735,1.419,0,0,0,0
			L59.931,38.671"/>
	</g>
	<g>
		<path fill="#3B434F" d="M61.116,46.322c0,0,0.206,0.158,0.384,0.158c0.179,0,0.385-0.154,0.385-0.154l0.402-3.836
			c0,0-0.518-1.893-2.765-0.906l-0.058,1.098c0,0,1.969-0.684,1.925,0.18C61.346,43.693,61.116,46.322,61.116,46.322"/>
	</g>
	<g>
		<path fill="#3B434F" d="M43.676,45.923l0.273,0.002c0.562,0.771,0.785,1.952,1.078,2.975c0.091,0.315-0.001,0.868-0.083,1.093
			c-0.301,0.816-1.231,0.797-1.999,1.16c-0.206,0.097-0.36,0.268-0.626,0.31c-0.173-0.154-0.382-0.186-0.466-0.433
			c-0.209-0.291,0.063-0.471,0.276-0.584c0.387-0.205,1.578-0.402,1.722-0.772c0.178-0.2,0.063-0.803,0.006-1.015
			c-0.149-0.544-0.219-0.996-0.422-1.486c-0.135-0.326-0.372-0.669-0.229-1.056C43.324,46.065,43.579,46.011,43.676,45.923"/>
	</g>
</g>
<g>
	<path fill="#3B434F" d="M55.731,39.062c-0.296,0-0.561-0.205-0.626-0.505c-0.189-0.876-1.691-2.139-2.599-2.731
		c-1.009-0.626-1.969-0.76-2.856-0.399c-0.651,0.266-1.025,0.701-1.028,0.706c-0.225,0.271-0.628,0.311-0.902,0.086
		c-0.272-0.225-0.311-0.629-0.086-0.902c0.058-0.069,0.591-0.691,1.534-1.076c0.885-0.361,2.304-0.565,4.02,0.502l0.013,0.008
		c0.284,0.186,2.793,1.865,3.156,3.535c0.074,0.347-0.146,0.687-0.489,0.763C55.821,39.057,55.776,39.062,55.731,39.062z"/>
</g>
<g>
	<path fill="#3B434F" d="M29.296,39.254c-0.235,0-0.46-0.131-0.573-0.354c-0.158-0.316-0.03-0.702,0.287-0.859
		c0.085-0.043,2.114-1.053,3.715-1.544c2.249-0.688,4.373-0.638,4.461-0.636c0.354,0.01,0.632,0.306,0.623,0.658
		c-0.01,0.354-0.305,0.63-0.657,0.622c-0.027-0.001-2.015-0.045-4.052,0.58c-1.5,0.46-3.498,1.455-3.518,1.466
		C29.489,39.231,29.392,39.254,29.296,39.254z"/>
</g>
<g>
	<ellipse fill="#3B434F" cx="38.462" cy="58.384" rx="3.184" ry="2.696"/>
</g>
<g>
	<path fill="#3B434F" d="M38.577,62.617c-0.177,0-0.32-0.145-0.32-0.32c0-0.177,0.143-0.32,0.319-0.32
		c0.026,0,1.809-0.026,3.098-1.373c0.122-0.128,0.325-0.133,0.452-0.011c0.128,0.123,0.133,0.325,0.011,0.453
		C40.651,62.599,38.661,62.617,38.577,62.617z"/>
</g>
<g>
	<g>
		<path fill="#CCE6FF" d="M33.449,58.105l0.127,0.143l0.02,0.029l-0.01,0.027l-0.015,0.018l-0.03,0.028l-0.087,0.07l-0.031,0.028
			l-0.116,0.123l-0.166,0.138l-0.034,0.032l-0.116,0.123l-0.032,0.033l-0.12,0.118l-0.036,0.031l-0.129,0.108l-0.035,0.029
			l-0.123,0.116l-0.034,0.036l-0.048,0.054l-0.034,0.037l-0.031,0.029l-0.028,0.01l-0.028-0.021l-0.084-0.078l-0.019-0.022
			l-0.01-0.027l-0.022-0.159l-0.01-0.048l-0.031-0.157l-0.011-0.046l-0.022-0.159l-0.012-0.046l-0.034-0.158l-0.011-0.047
			l-0.029-0.16l-0.012-0.047l-0.032-0.202l-0.02-0.164l-0.032-0.206l-0.022-0.023l-0.033,0.015l-0.126,0.104l-0.033,0.033
			l-0.117,0.113l-0.033,0.03l-0.113,0.119l-0.077,0.075l-0.074,0.062l-0.032,0.014l-0.032-0.018l-0.016-0.018l-0.037-0.034
			l-0.07-0.068l-0.032-0.035l-0.126-0.123l-0.01-0.031l0.025-0.028l0.256-0.259l0.034-0.031l0.118-0.108l0.034-0.032l0.111-0.109
			l0.034-0.032l0.122-0.104l0.142-0.15l0.033-0.031l0.158-0.134l0.111-0.109l0.031-0.022l0.033,0.014l0.014,0.014l0.037,0.035
			l0.015,0.021l0.02,0.024l0.005,0.031l0.027,0.16l0.031,0.201l0.011,0.046l0.023,0.158l0.011,0.046l0.039,0.156l0.007,0.043
			l0.022,0.16l0.007,0.045l0.042,0.201l0.03,0.158l0.009,0.044l0.027,0.159l0.012,0.029l0.02,0.009l0.029-0.016l0.038-0.032
			l0.036-0.034l0.201-0.219l0.034-0.032l0.132-0.118l0.034-0.031l0.076-0.085l0.032-0.028l0.019-0.015l0.029-0.012l0.029,0.02
			L33.449,58.105z"/>
		<path fill="#0084FF" d="M32.314,59.648l-0.11-0.086l-0.133-0.132l-0.026-0.073l-0.033-0.215l-0.043-0.213l-0.021-0.151
			l-0.009-0.036l-0.049-0.215l-0.04-0.211l-0.032-0.202l-0.017-0.134l-0.128,0.125l-0.115,0.122l-0.085,0.079l-0.092,0.078
			l-0.124,0.053l-0.124-0.066l-0.172-0.173l-0.151-0.148l-0.048-0.156l0.091-0.102l0.293-0.294l0.152-0.14l0.151-0.147l0.115-0.098
			l0.184-0.188l0.152-0.13l0.128-0.122l0.102-0.071l0.146,0.057l0.119,0.132l0.025,0.033l0.083,0.481l0.022,0.15l0.051,0.207
			l0.036,0.245l0.067,0.33l0.143-0.15l0.162-0.145l0.081-0.089l0.082-0.069l0.125-0.049l0.116,0.073l0.177,0.188l0.145,0.163
			l0.067,0.1l-0.052,0.129l-0.043,0.051l-0.039,0.036l-0.105,0.09l-0.127,0.132l-0.189,0.159l-0.148,0.158l-0.13,0.125l-0.196,0.167
			l-0.145,0.142l-0.089,0.098l-0.056,0.054L32.314,59.648z M32.285,58.877l0.011,0.047l0.041,0.214l0.015,0.108l0.056-0.061
			l0.166-0.153l0.159-0.135l0.141-0.142l0.166-0.168l0.159-0.132l0.157-0.16l0.028-0.024l-0.053-0.06l-0.083-0.085l-0.039,0.042
			l-0.033,0.033l-0.163,0.146l-0.205,0.222l-0.093,0.083l-0.113,0.062l-0.152-0.066l-0.042-0.106l-0.038-0.213l-0.032-0.161
			l-0.05-0.252l-0.029-0.197l-0.051-0.21l-0.021-0.151l-0.012-0.051l-0.046-0.288l-0.018,0.018l-0.181,0.156l-0.152,0.159
			l-0.149,0.131l-0.146,0.142l-0.152,0.141l-0.177,0.179l0.115,0.115l0.063-0.061l0.148-0.152l0.158-0.154l0.142-0.115l0.156-0.072
			l0.135,0.142l0.04,0.257l0.021,0.168l0.03,0.191l0.012,0.049l0.038,0.196l0.049,0.22L32.285,58.877z"/>
	</g>
</g>
<g>
	<g>
		<path fill="#CCE6FF" d="M30.583,56.978l0.129,0.233l0.018,0.045l-0.022,0.032l-0.026,0.021l-0.049,0.028l-0.138,0.069l-0.052,0.03
			l-0.194,0.13l-0.268,0.136l-0.054,0.033l-0.195,0.132l-0.053,0.035l-0.199,0.123l-0.057,0.029l-0.207,0.109l-0.058,0.029
			l-0.2,0.12l-0.057,0.038l-0.083,0.059l-0.057,0.039l-0.052,0.032l-0.04,0.003l-0.032-0.037l-0.09-0.134l-0.021-0.035l-0.004-0.039
			l0.018-0.223l0.002-0.066l0.007-0.225l-0.001-0.064l0.018-0.223l-0.001-0.064l0.001-0.227l-0.001-0.064l0.01-0.228l-0.002-0.064
			l0.019-0.283l0.023-0.229l0.021-0.289l-0.023-0.038l-0.05,0.012l-0.202,0.102l-0.055,0.032l-0.192,0.12l-0.055,0.032l-0.188,0.126
			l-0.127,0.076l-0.118,0.062l-0.047,0.009l-0.039-0.034l-0.016-0.027l-0.038-0.057l-0.074-0.116l-0.033-0.055l-0.133-0.207
			l-0.003-0.045l0.043-0.031l0.424-0.271l0.055-0.033l0.193-0.111l0.055-0.032l0.185-0.115l0.056-0.033l0.197-0.104l0.237-0.16
			l0.056-0.033l0.254-0.133l0.184-0.115l0.05-0.02l0.04,0.027l0.015,0.025l0.039,0.057l0.015,0.033l0.019,0.04l-0.002,0.044
			l-0.013,0.223l-0.019,0.284l0.002,0.064l-0.019,0.222l0.001,0.065l0.005,0.222l-0.004,0.063l-0.018,0.222l-0.005,0.063
			l-0.003,0.283l-0.007,0.226l0,0.062l-0.013,0.223l0.006,0.044l0.026,0.019l0.044-0.014l0.061-0.031l0.059-0.034l0.339-0.236
			l0.055-0.032l0.215-0.119l0.055-0.033l0.129-0.091l0.052-0.032l0.03-0.012l0.043-0.008l0.034,0.036L30.583,56.978z"/>
		<path fill="#0084FF" d="M28.604,58.654l-0.098-0.118l-0.131-0.205l-0.011-0.089l0.021-0.297l0.006-0.221l-0.001-0.069l0.018-0.221
			l-0.001-0.058l0.001-0.229l-0.001-0.066l0.01-0.227l0-0.067l0.018-0.291l0.029-0.303l-0.024,0.011l-0.049,0.03l-0.244,0.15
			l-0.191,0.128l-0.136,0.081l-0.139,0.072l-0.146,0.028l-0.116-0.102l-0.028-0.046l-0.036-0.053l-0.264-0.416l-0.014-0.176
			l0.123-0.087l0.484-0.307l0.248-0.145l0.247-0.15l0.189-0.101l0.238-0.159l0.063-0.038l0.25-0.13l0.203-0.123l0.13-0.055
			l0.14,0.098l0.029,0.05l0.05,0.077l0.05,0.107l-0.016,0.308l-0.019,0.278l0.002,0.066l-0.019,0.222l0.007,0.286l-0.005,0.069
			l-0.022,0.281l-0.003,0.279l-0.01,0.313l0.282-0.196l0.055-0.032l0.266-0.149l0.134-0.093l0.07-0.04l0.048-0.023l0.145-0.022
			l0.106,0.107l0.179,0.302l0.142,0.255l0.048,0.126l-0.085,0.124l-0.061,0.046l-0.06,0.035l-0.133,0.064l-0.043,0.024l-0.208,0.138
			l-0.262,0.134l-0.047,0.027l-0.249,0.168l-0.209,0.13l-0.318,0.166l-0.191,0.114l-0.2,0.14l-0.082,0.048L28.604,58.654z
			 M28.685,58.229l0.037,0.056l0.154-0.108l0.21-0.125l0.315-0.165l0.241-0.151l0.203-0.137l0.065-0.039l0.258-0.13l0.193-0.13
			l0.063-0.036l0.104-0.052l-0.085-0.155l-0.12-0.2l-0.118,0.082l-0.055,0.033l-0.265,0.15l-0.344,0.237l-0.066,0.038l-0.076,0.041
			l-0.134,0.037l-0.141-0.104l-0.02-0.124l0.014-0.296l0.007-0.227l0.004-0.29l0.026-0.342l-0.007-0.288l0.019-0.222l-0.002-0.063
			l0.032-0.515l-0.006-0.012l-0.12,0.073l-0.297,0.159l-0.249,0.168l-0.193,0.101l-0.052,0.031l-0.24,0.148l-0.247,0.143
			l-0.348,0.222l0.185,0.292l0.037-0.019l0.121-0.071l0.191-0.129l0.055-0.031l0.258-0.159l0.219-0.111l0.183-0.039l0.107,0.18
			l-0.023,0.339l-0.023,0.234l-0.018,0.271l0.001,0.062l-0.01,0.228l0.001,0.06l-0.001,0.23l0.001,0.068l-0.018,0.223l0.001,0.062
			l-0.01,0.303L28.685,58.229z"/>
	</g>
</g>
<g>
	<g>
		<path fill="#CCE6FF" d="M27.328,54.107l0.215,0.386l0.029,0.076l-0.038,0.055l-0.043,0.032l-0.081,0.049l-0.229,0.112
			l-0.086,0.052l-0.323,0.217l-0.443,0.224l-0.091,0.055l-0.323,0.217l-0.089,0.062l-0.329,0.203l-0.096,0.05l-0.343,0.181
			l-0.096,0.05l-0.334,0.199l-0.093,0.062l-0.137,0.098l-0.094,0.064l-0.086,0.052l-0.066,0.007l-0.053-0.062l-0.148-0.222
			l-0.035-0.059l-0.008-0.065l0.03-0.368l0.003-0.111l0.011-0.373l-0.001-0.107l0.029-0.369l-0.002-0.107l0.002-0.376l-0.002-0.106
			l0.017-0.377l-0.001-0.106l0.03-0.473l0.038-0.381l0.033-0.479l-0.038-0.063l-0.083,0.019l-0.334,0.168l-0.093,0.056l-0.318,0.198
			l-0.092,0.055l-0.312,0.208l-0.212,0.127l-0.197,0.102l-0.076,0.015l-0.064-0.055l-0.027-0.046l-0.065-0.095l-0.122-0.191
			l-0.055-0.093l-0.221-0.344l-0.005-0.073l0.072-0.051l0.704-0.451l0.093-0.056l0.32-0.182l0.091-0.056l0.307-0.19l0.092-0.056
			l0.327-0.17l0.394-0.267l0.091-0.056l0.422-0.22l0.307-0.191l0.081-0.033l0.066,0.046l0.024,0.041l0.064,0.094l0.025,0.056
			l0.033,0.067l-0.004,0.071l-0.021,0.37l-0.03,0.471l0.002,0.108l-0.029,0.367l0.002,0.108l0.008,0.369l-0.007,0.104l-0.029,0.368
			l-0.008,0.105l-0.006,0.472l-0.012,0.373L25.16,54.17l-0.02,0.371l0.012,0.069l0.041,0.032l0.074-0.021l0.1-0.053l0.099-0.059
			l0.562-0.389l0.091-0.055l0.357-0.199l0.092-0.054l0.213-0.15l0.087-0.053l0.05-0.021l0.071-0.012l0.058,0.059L27.328,54.107z"/>
		<path fill="#0084FF" d="M24.086,56.778l-0.119-0.143l-0.152-0.229l-0.052-0.088l-0.014-0.114l0.03-0.38l0.016-0.477l-0.002-0.112
			l0.03-0.367l-0.003-0.101l0.003-0.379L23.82,54.28l0.018-0.378l-0.002-0.108l0.031-0.479l0.039-0.386l0.021-0.304l-0.208,0.104
			l-0.087,0.054l-0.406,0.25l-0.316,0.21l-0.221,0.132l-0.217,0.112l-0.176,0.035l-0.142-0.123l-0.039-0.064l-0.061-0.09
			l-0.422-0.665l-0.017-0.206l0.152-0.107l0.705-0.451l0.096-0.056l0.413-0.239l0.406-0.249l0.319-0.167l0.395-0.266l0.1-0.06
			l0.417-0.219l0.326-0.199l0.162-0.066l0.166,0.115l0.04,0.065l0.074,0.113l0.073,0.157l-0.026,0.483L25.4,51.695l0.003,0.108
			l-0.03,0.369l0.011,0.474l-0.007,0.114l-0.037,0.469l-0.006,0.468l-0.014,0.48l-0.013,0.241l0.071-0.044l0.566-0.392l0.092-0.056
			l0.443-0.249l0.219-0.153l0.104-0.061l0.068-0.03l0.174-0.028l0.129,0.131l0.291,0.488l0.226,0.41l0.062,0.154l-0.101,0.146
			l-0.077,0.059l-0.093,0.055l-0.224,0.109l-0.076,0.046l-0.336,0.224l-0.438,0.222L26.326,55.5l-0.414,0.277l-0.341,0.211
			l-0.095,0.049l-0.436,0.229l-0.325,0.194l-0.33,0.228l-0.114,0.068L24.086,56.778z M24.088,56.238l0.121,0.184l0.01-0.007
			l0.329-0.228l0.342-0.204l0.096-0.049l0.433-0.228l0.321-0.2l0.086-0.058l0.332-0.222l0.101-0.061l0.434-0.22l0.322-0.217
			l0.097-0.057l0.223-0.109l0.048-0.029l-0.195-0.35l-0.254-0.427l-0.064,0.038L26.65,53.95l-0.092,0.055l-0.444,0.25l-0.566,0.393
			l-0.105,0.062l-0.117,0.062l-0.164,0.046l-0.157-0.114l-0.024-0.153L25,54.165l0.001-0.1l0.011-0.376l0.006-0.478l0.008-0.105
			l0.036-0.466l-0.011-0.478l0.03-0.369l-0.002-0.107l0.032-0.476l0.022-0.399l-0.035-0.076l-0.047-0.069l-0.282,0.176l-0.418,0.219
			l-0.084,0.049l-0.406,0.273l-0.322,0.17l-0.088,0.053l-0.399,0.244l-0.411,0.238l-0.669,0.429l0.172,0.268l0.057,0.097l0.12,0.188
			l0.068,0.102l0.148-0.076l0.205-0.122l0.315-0.211l0.092-0.056l0.42-0.258l0.354-0.178l0.215-0.047l0.122,0.205l-0.037,0.529
			l-0.037,0.385l-0.031,0.46l0.001,0.105l-0.017,0.377l0.003,0.103l-0.003,0.379l0.002,0.112l-0.03,0.368l0.003,0.104l-0.017,0.496
			l-0.027,0.352l0.001,0.017L24.088,56.238z"/>
	</g>
</g>
<g>
	<g>
		<path fill="#CCE6FF" d="M24.603,48.147l0.226,0.784l0.022,0.148l-0.09,0.082l-0.09,0.041l-0.165,0.054l-0.459,0.107l-0.177,0.057
			l-0.671,0.257l-0.889,0.218l-0.188,0.062l-0.672,0.254l-0.184,0.072l-0.678,0.231l-0.193,0.049L19.7,50.747l-0.191,0.049
			l-0.683,0.22l-0.195,0.076l-0.287,0.117l-0.197,0.077l-0.176,0.057l-0.122-0.015l-0.068-0.133l-0.175-0.462l-0.037-0.119
			l0.013-0.12l0.207-0.65l0.054-0.199l0.174-0.665l0.042-0.196l0.206-0.65l0.041-0.195l0.16-0.674l0.042-0.194l0.188-0.672
			l0.041-0.194l0.251-0.834l0.227-0.67l0.259-0.849l-0.042-0.129l-0.156-0.003l-0.675,0.164l-0.188,0.061l-0.656,0.225l-0.188,0.061
			l-0.647,0.245l-0.436,0.142l-0.396,0.102l-0.144-0.006l-0.092-0.127l-0.03-0.094l-0.076-0.197l-0.14-0.396l-0.062-0.188
			l-0.253-0.71l0.021-0.137l0.15-0.061l1.456-0.52l0.188-0.061l0.651-0.197l0.189-0.06l0.631-0.216l0.189-0.06l0.658-0.173
			l0.821-0.316l0.188-0.061l0.851-0.222l0.631-0.216l0.161-0.025l0.101,0.11l0.026,0.083l0.075,0.195l0.023,0.11l0.03,0.134
			l-0.037,0.128l-0.191,0.659l-0.252,0.833l-0.041,0.194l-0.207,0.652l-0.041,0.194l-0.137,0.667l-0.057,0.187l-0.207,0.651
			l-0.057,0.187l-0.209,0.845l-0.175,0.667l-0.045,0.184l-0.19,0.659l-0.01,0.133l0.061,0.071l0.142-0.007l0.204-0.053l0.2-0.063
			l1.174-0.468l0.188-0.061l0.725-0.208l0.188-0.061l0.448-0.182l0.177-0.059l0.097-0.018l0.133,0.009l0.081,0.13L24.603,48.147z"/>
		<path fill="#0084FF" d="M18,51.636L17.663,51.6l-0.153-0.302l-0.179-0.477l-0.057-0.177l0.022-0.21l0.213-0.672l0.053-0.192
			l0.172-0.658l0.048-0.215l0.201-0.638l0.04-0.188l0.16-0.67l0.044-0.21l0.185-0.662l0.045-0.209l0.254-0.843l0.225-0.667
			l0.17-0.555l-0.429,0.104l-0.179,0.058l-0.65,0.222L17.662,44.5l-0.655,0.248l-0.453,0.146l-0.435,0.111l-0.326-0.01l-0.203-0.278
			l-0.042-0.131l-0.077-0.196l-0.143-0.404l-0.059-0.184l-0.276-0.773l0.056-0.371l0.313-0.127l1.464-0.522l0.188-0.061l0.841-0.257
			l0.625-0.214l0.208-0.066l0.644-0.169l0.821-0.314l0.204-0.066l0.84-0.218l0.645-0.221l0.339-0.054l0.248,0.271l0.043,0.135
			l0.081,0.21l0.072,0.334l-0.057,0.199l-0.192,0.659l-0.248,0.824l-0.046,0.21l-0.202,0.638l-0.182,0.871l-0.056,0.188l-0.262,0.83
			l-0.206,0.839l-0.224,0.861l-0.127,0.438l0.16-0.052l1.183-0.471l0.197-0.062l0.72-0.207l0.174-0.056l0.458-0.186l0.21-0.064
			l0.135-0.026l0.319,0.021l0.176,0.286l0.323,1.007l0.234,0.822l0.045,0.301l-0.239,0.214l-0.161,0.073l-0.188,0.06l-0.448,0.105
			l-0.157,0.05l-0.698,0.263l-0.88,0.219l-0.172,0.055l-0.858,0.329l-0.701,0.236l-0.192,0.05l-0.877,0.229l-0.666,0.214
			l-0.188,0.073l-0.282,0.115l-0.217,0.085L18,51.636z M17.877,50.639l0.146,0.385l0.027-0.009l0.188-0.073l0.283-0.116l0.216-0.084
			l0.701-0.224l0.193-0.049l0.874-0.229l0.662-0.226l0.178-0.07l0.688-0.261l0.208-0.064l0.873-0.217l0.669-0.255l0.198-0.062
			l0.448-0.104l0.106-0.035l-0.206-0.712l-0.285-0.888l-0.139,0.045l-0.458,0.185l-0.198,0.063l-0.722,0.206L22.353,47.9
			l-1.184,0.471l-0.215,0.068l-0.233,0.062l-0.311,0.013l-0.23-0.267l0.019-0.282l0.198-0.682l0.043-0.178l0.176-0.672l0.211-0.855
			l0.057-0.188l0.259-0.825l0.183-0.876l0.202-0.639l0.045-0.205l0.251-0.833l0.207-0.712l-0.033-0.152l-0.058-0.15l-0.588,0.2
			l-0.842,0.219l-0.173,0.057l-0.844,0.321l-0.65,0.17l-0.18,0.058l-0.627,0.215l-0.194,0.062l-0.655,0.198l-0.178,0.058
			l-1.395,0.498l0.205,0.568l0.06,0.185l0.137,0.387l0.084,0.224l0.304-0.078l0.42-0.136l0.655-0.247l0.188-0.062l0.651-0.222
			l0.213-0.067l0.708-0.174l0.402,0.006l0.131,0.413l-0.288,0.942l-0.225,0.666l-0.246,0.817l-0.043,0.201l-0.186,0.662
			l-0.041,0.193l-0.159,0.67l-0.047,0.219l-0.202,0.638l-0.042,0.194l-0.232,0.879l-0.198,0.622l-0.002,0.032L17.877,50.639z"/>
	</g>
</g>
<g>
	<g>
		<path fill="#CCE6FF" d="M21.719,37.759l0.096,1.029l-0.007,0.189l-0.133,0.082l-0.122,0.029l-0.219,0.028l-0.598,0.025
			l-0.233,0.03l-0.896,0.16l-1.161,0.063l-0.249,0.03l-0.896,0.159l-0.247,0.048l-0.901,0.127l-0.251,0.016l-0.908,0.064
			l-0.25,0.016l-0.903,0.112l-0.262,0.049l-0.385,0.079l-0.263,0.048l-0.233,0.03l-0.148-0.046l-0.054-0.183l-0.108-0.618
			l-0.02-0.155l0.044-0.149l0.411-0.762l0.114-0.233l0.376-0.79l0.097-0.232l0.411-0.764l0.097-0.233l0.359-0.801l0.097-0.233
			l0.391-0.793l0.097-0.23l0.51-0.982l0.441-0.781l0.524-0.996l-0.021-0.171l-0.195-0.04l-0.879,0.046l-0.249,0.031l-0.869,0.123
			l-0.249,0.032l-0.866,0.153l-0.575,0.072l-0.517,0.033l-0.179-0.04l-0.085-0.18l-0.016-0.125l-0.049-0.263l-0.08-0.526
			l-0.031-0.25l-0.149-0.944l0.059-0.166l0.201-0.04l1.936-0.303l0.249-0.032l0.857-0.091l0.25-0.03l0.837-0.119l0.249-0.031
			l0.861-0.06l1.098-0.201l0.248-0.03l1.113-0.074l0.838-0.12l0.207,0.005l0.098,0.161l0.015,0.11l0.048,0.263l0.002,0.142
			l0.005,0.173l-0.075,0.152l-0.394,0.774l-0.51,0.98l-0.097,0.232l-0.411,0.763l-0.098,0.232l-0.328,0.799l-0.115,0.221
			l-0.411,0.761l-0.115,0.22l-0.458,1.005l-0.376,0.79l-0.099,0.218l-0.394,0.775l-0.043,0.164l0.061,0.103l0.177,0.025l0.267-0.019
			l0.264-0.032l1.573-0.307l0.249-0.029l0.952-0.088l0.25-0.031l0.601-0.12l0.234-0.029h0.126l0.164,0.042l0.068,0.181
			L21.719,37.759z"/>
		<path fill="#0084FF" d="M12.674,40.468l-0.355-0.11l-0.107-0.361l-0.109-0.633l-0.028-0.216l0.071-0.234l0.421-0.78l0.111-0.23
			l0.372-0.782l0.107-0.251l0.404-0.75l0.095-0.227l0.356-0.799l0.105-0.247l0.387-0.785l0.104-0.246l0.514-0.988l0.439-0.776
			l0.407-0.773l-0.699,0.035l-0.239,0.031l-0.865,0.124l-0.246,0.03l-0.872,0.154l-0.593,0.073l-0.56,0.035l-0.355-0.08
			l-0.165-0.349l-0.02-0.16l-0.049-0.265l-0.082-0.534l-0.031-0.243l-0.16-1.013l0.136-0.389l0.374-0.076l1.945-0.303l0.249-0.033
			l0.863-0.091l0.245-0.03l0.832-0.118l0.271-0.033l0.846-0.059l1.097-0.2l0.264-0.032l1.102-0.074l0.852-0.121l0.387,0.011
			l0.213,0.347l0.02,0.163l0.051,0.278l0.01,0.407l-0.108,0.216l-0.394,0.777l-0.506,0.971l-0.104,0.248l-0.405,0.75l-0.091,0.22
			l-0.338,0.82l-0.115,0.221l-0.523,0.975l-0.455,0.997l-0.379,0.795l-0.103,0.223l-0.324,0.641l0.108-0.007l0.247-0.03l1.583-0.307
			l0.257-0.032l0.949-0.087l0.234-0.03l0.61-0.122l0.269-0.029h0.164l0.342,0.088l0.135,0.353l0.164,1.32l0.099,1.047l-0.014,0.364
			l-0.302,0.185l-0.198,0.047l-0.242,0.029l-0.586,0.026l-0.214,0.026l-0.923,0.162l-1.151,0.063l-0.231,0.029l-1.146,0.205
			l-0.923,0.131l-0.25,0.016l-1.15,0.079l-0.884,0.111L13.633,40.3l-0.38,0.077l-0.284,0.054L12.674,40.468z M12.673,39.286
			l0.104,0.589l0.111-0.015l0.253-0.047l0.381-0.078l0.284-0.054l0.922-0.113l0.251-0.014l1.146-0.081l0.883-0.125l0.24-0.046
			l0.915-0.162l0.269-0.032l1.143-0.064l0.895-0.158l0.255-0.03l0.586-0.025l0.216-0.031v-0.003l-0.095-1.006l-0.155-1.243H21.22
			l-0.207,0.026l-0.611,0.121l-0.258,0.032l-0.948,0.088l-0.235,0.027l-1.583,0.308l-0.281,0.034l-0.297,0.02l-0.345-0.049
			l-0.19-0.327l0.081-0.308l0.405-0.799l0.097-0.212l0.377-0.794l0.464-1.015l0.115-0.22l0.412-0.763l0.107-0.205l0.433-1.047
			l0.404-0.752l0.102-0.241l0.511-0.98l0.434-0.856l-0.004-0.224l-0.05-0.277h-0.013l-0.836,0.117l-1.104,0.075l-0.233,0.029
			l-1.121,0.201l-0.854,0.061l-0.24,0.03l-0.833,0.118l-0.254,0.031l-0.862,0.093l-0.239,0.028l-1.932,0.304l0.131,0.829
			l0.031,0.246l0.08,0.518l0.05,0.276l0.01,0.079l0.007,0.01l0.468-0.029l0.56-0.07l0.873-0.154l0.249-0.031l0.865-0.123
			l0.274-0.033l0.915-0.048l0.435,0.088l0.058,0.466l-0.57,1.085l-0.437,0.775l-0.503,0.967l-0.101,0.237l-0.387,0.784l-0.097,0.231
			l-0.357,0.798l-0.108,0.257l-0.404,0.75l-0.098,0.231l-0.496,1.038l-0.397,0.736l-0.019,0.062L12.673,39.286z"/>
	</g>
</g>
<g>
	<line fill="#FFFFFF" x1="44.786" y1="98.91" x2="34.672" y2="87.517"/>
	
		<rect x="32.112" y="92.571" transform="matrix(0.6639 0.7478 -0.7478 0.6639 83.0604 1.6186)" fill="#3B434F" width="15.234" height="1.281"/>
</g>
<g>
	<g>
		<path fill="#FFFFFF" d="M93.51,97.812c-0.061,0.855-0.854,1.549-1.771,1.549H45.814c-0.918,0-1.612-0.693-1.551-1.549l2.166-30.25
			c0.061-0.854,0.854-1.549,1.771-1.549h45.924c0.918,0,1.612,0.694,1.551,1.549L93.51,97.812z"/>
		<path fill="#3B434F" d="M91.738,100H45.814c-0.636,0-1.236-0.252-1.647-0.694c-0.391-0.419-0.583-0.966-0.542-1.54l2.165-30.25
			c0.085-1.182,1.167-2.143,2.411-2.143h45.924c0.636,0,1.236,0.254,1.647,0.696c0.391,0.419,0.582,0.965,0.542,1.539l-2.165,30.249
			C94.063,99.039,92.982,100,91.738,100z M48.2,66.652c-0.577,0-1.096,0.439-1.133,0.956l-2.165,30.249
			c-0.02,0.275,0.1,0.467,0.202,0.575c0.172,0.187,0.425,0.288,0.71,0.288h45.924c0.578,0,1.097-0.438,1.133-0.955l2.165-30.25
			c0.021-0.274-0.099-0.464-0.202-0.575c-0.172-0.186-0.424-0.288-0.71-0.288H48.2z"/>
	</g>
	<g>
		<path fill="#3B434F" d="M74.905,85.522c-0.15,1.934-1.835,3.498-3.771,3.498c-1.945,0-3.408-1.577-3.27-3.521
			c0.141-1.944,1.829-3.52,3.774-3.52c0.688,0,1.313,0.197,1.83,0.537c-0.503,0.307-0.854,0.808-0.895,1.37
			c-0.067,0.938,0.745,1.695,1.811,1.695C74.563,85.583,74.738,85.562,74.905,85.522z"/>
	</g>
	<g>
		<path fill="#3B434F" d="M71.263,79.364c0.424,0.533,0.525,1.229,0.341,1.866c-0.656,0.049-1.305-0.202-1.729-0.733
			c-0.423-0.532-0.526-1.227-0.34-1.866C70.19,78.583,70.84,78.833,71.263,79.364z"/>
	</g>
</g>
</svg>
