<?xml version="1.0" encoding="utf-8"?>
<!-- Generator: Adobe Illustrator 16.0.0, SVG Export Plug-In . SVG Version: 6.00 Build 0)  -->
<!DOCTYPE svg PUBLIC "-//W3C//DTD SVG 1.1//EN" "http://www.w3.org/Graphics/SVG/1.1/DTD/svg11.dtd">
<svg version="1.1" id="Layer_1" xmlns="http://www.w3.org/2000/svg" xmlns:xlink="http://www.w3.org/1999/xlink" x="0px" y="0px"
	 width="100px" height="100px" viewBox="0 0 100 100" enable-background="new 0 0 100 100" xml:space="preserve">
<g>
	<circle fill="#E9EBEE" cx="43.461" cy="44.666" r="42.835"/>
</g>
<g>
	<g>
		<path fill="#FFFFFF" d="M16.623,87.446c0,0-2.262-17.448,15.178-19.024h4.187c0,0,1.371-0.887,2.335-0.887V65.04
			c0,0,5.226,2.605,10.628,0.081v2.254c0,0,0.23-0.432,2.577,1.128h6.28c0,0,13.354,1.646,13.354,18.943H16.623z"/>
	</g>
	<g>
		<path fill="#3B434F" d="M70.646,87.747H16.953h-1.042l0.26-4.44c0.507-8.671,7.338-15.287,15.156-15.287h5.375
			c-0.348,0.288-0.604,0.588-0.789,0.886h-4.112c-7.534,0-14.118,6.368-14.607,14.715l-0.181,3.08h53.49l-0.101-3.08
			c-0.488-8.347-7.072-14.715-14.606-14.715h-4.115c-0.16-0.296-0.383-0.595-0.694-0.886h5.237c7.815,0,14.646,6.616,15.155,15.287
			l0.259,4.44H70.646z M49.394,68.905h-0.281V68.02h0.313C49.407,68.249,49.394,68.54,49.394,68.905 M38.068,68.02h0.335v0.886
			h-0.289C38.11,68.529,38.092,68.239,38.068,68.02"/>
	</g>
	<g>
		<path fill="#3B434F" d="M46.294,80.339c0.312,0,0.563,0.252,0.563,0.564c0,0.311-0.251,0.563-0.563,0.563
			c-0.312,0-0.564-0.253-0.564-0.563C45.73,80.591,45.982,80.339,46.294,80.339"/>
	</g>
	<g>
		<path fill="#3B434F" d="M46.294,84.042c0.312,0,0.563,0.253,0.563,0.564s-0.251,0.563-0.563,0.563
			c-0.312,0-0.564-0.252-0.564-0.563S45.982,84.042,46.294,84.042"/>
	</g>
	<g>
		<path fill="#3B434F" d="M52.815,72.77l-4.104,6.12c-1.119-3.462-4.349-2.174-4.349-2.174v10.227c0,0.266-0.252,0.481-0.563,0.481
			c-0.311,0-0.563-0.216-0.563-0.481V76.715c-0.027-0.01-3.23-1.274-4.344,2.175l-4.102-6.12c0,0-1.586-4.034,3.217-5.797v-1.852
			h0.909v5.827c0.117,1.004,0.808,3.863,4.883,4.801c4.08-0.938,4.772-3.797,4.889-4.801v-5.827h0.909v1.852
			C54.404,68.735,52.815,72.77,52.815,72.77 M38.844,73.312c-0.218-0.248-0.534-0.863-0.534-0.863s-0.303-1.009-0.303-1.449v-2.043
			c-0.068-0.921-0.242-0.937-0.242-0.937c-3.583,1.765-2.01,4.51-2.01,4.51l2.977,4.669c1.161-1.969,2.413-1.61,2.413-1.61
			C40.039,75.025,39.315,74.152,38.844,73.312 M49.837,68.02c0,0-0.173,0.016-0.242,0.937v2.043c0,0.44-0.303,1.449-0.303,1.449
			s-0.316,0.615-0.536,0.863c-0.472,0.841-1.197,1.714-2.302,2.276c0,0,1.253-0.358,2.415,1.61l2.981-4.669
			C51.852,72.529,53.426,69.784,49.837,68.02"/>
	</g>
	<g>
		<path fill="#FFFFFF" d="M43.814,16.226c10.059,0,17.738,5.655,17.738,19.192l-0.438,11.693c-2.68,15.013-9.414,18.56-17.3,18.56
			c-7.885,0-14.927-3.694-17.298-18.56l-0.438-11.693C26.078,21.94,33.757,16.226,43.814,16.226"/>
	</g>
	<g>
		<path fill="#3B434F" d="M61.938,46.931c-2.811,15.647-9.872,19.343-18.14,19.343c-8.268,0-15.653-3.851-18.14-19.343
			l-0.459-12.188c0-14.046,8.053-20.003,18.599-20.003c10.546,0,18.6,5.896,18.6,20.003L61.938,46.931z M43.798,15.787
			c-9.86,0-17.389,5.713-17.389,19.191l0.43,11.69c2.325,14.863,9.23,18.558,16.959,18.558c7.73,0,14.333-3.547,16.959-18.558
			l0.43-11.69C61.188,21.442,53.658,15.787,43.798,15.787"/>
	</g>
	<g>
		<path fill="#FFFFFF" d="M25.268,36.363c-0.002,0-0.198-0.155-0.566-0.271c-0.185-0.058-0.414-0.106-0.676-0.118
			c-0.065-0.003-0.132-0.003-0.201-0.002c-0.069,0.003-0.139,0.007-0.211,0.015c-0.143,0.016-0.291,0.043-0.439,0.085
			c-0.595,0.172-1.202,0.587-1.557,1.445c-0.179,0.428-0.297,0.967-0.329,1.642c-0.007,0.169-0.01,0.348-0.007,0.533
			c0.004,0.186,0.014,0.381,0.029,0.584c0.03,0.409,0.086,0.854,0.169,1.341c-0.002-0.001-0.077,1.465,0.447,3.151
			c0.493,1.646,1.677,3.671,3.862,4.25C25.539,44.832,25.531,40.568,25.268,36.363"/>
	</g>
	<g>
		<path fill="#3B434F" d="M25.517,36.532c0,0-3.808-1.18-3.673,2.735c0,0,0.566,5.676,0.813,6.199c0,0,1.495,3.304,3.963,3.451
			c2.412,0.143,0,0,0,0l0.03,1.065c0,0-4.338-0.557-5.175-5.555l-0.662-4.542c0,0-0.514-6.01,4.466-4.48c4.852,1.487,0,0,0,0
			L25.517,36.532"/>
	</g>
	<g>
		<path fill="#3B434F" d="M24.26,44.419c0,0-0.213,0.161-0.396,0.161c-0.184,0-0.394-0.161-0.394-0.161l-0.393-3.96
			c0,0,0.542-1.95,2.843-0.919l0.055,1.132c0,0-2.019-0.716-1.977,0.175C24.038,41.705,24.26,44.419,24.26,44.419"/>
	</g>
	<g>
		<path fill="#3B434F" d="M62.007,36.542c0,0,3.824-1.18,3.688,2.732c0,0-0.568,5.672-0.815,6.195c0,0-1.502,3.303-3.981,3.448
			c-2.423,0.144,0,0,0,0l-0.03,1.065c0,0,4.357-0.557,5.199-5.551l0.663-4.539c0,0,0.517-6.005-4.486-4.479c-4.872,1.488,0,0,0,0
			L62.007,36.542"/>
	</g>
	<g>
		<path fill="#3B434F" d="M63.269,44.422c0,0,0.214,0.162,0.397,0.162c0.185,0,0.396-0.162,0.396-0.162l0.396-3.957
			c0,0-0.545-1.949-2.856-0.918l-0.055,1.132c0,0,2.026-0.717,1.986,0.174C63.49,41.711,63.269,44.422,63.269,44.422"/>
	</g>
	<g>
		<path fill="#FFFFFF" d="M61.98,36.37c0.001,0,0.197-0.156,0.566-0.273c0.187-0.059,0.415-0.106,0.676-0.118
			c0.066-0.003,0.133-0.003,0.201-0.001c0.069,0.001,0.14,0.006,0.212,0.015c0.142,0.015,0.29,0.042,0.439,0.085
			c0.595,0.172,1.203,0.59,1.56,1.45c0.178,0.432,0.297,0.974,0.328,1.651c0.008,0.17,0.009,0.348,0.007,0.535
			c-0.003,0.187-0.014,0.383-0.028,0.587c-0.03,0.411-0.086,0.858-0.169,1.345c0.002,0,0.076,1.475-0.449,3.167
			c-0.492,1.655-1.679,3.688-3.865,4.271C61.709,44.877,61.716,40.594,61.98,36.37"/>
	</g>
	<g>
		<path fill="#3B434F" d="M62.089,36.542c0,0,3.824-1.18,3.69,2.732c0,0-0.57,5.672-0.817,6.195c0,0-1.501,3.303-3.979,3.448
			c-2.423,0.144,0,0,0,0l-0.03,1.065c0,0,4.355-0.557,5.198-5.551l0.664-4.539c0,0,0.515-6.005-4.487-4.479c-4.873,1.488,0,0,0,0
			L62.089,36.542"/>
	</g>
	<g>
		<path fill="#3B434F" d="M63.353,44.422h0.792l0.396-3.957c0,0-0.545-1.949-2.856-0.918l-0.054,1.132c0,0,2.028-0.717,1.985,0.175
			C63.575,41.711,63.353,44.422,63.353,44.422"/>
	</g>
	<g>
		<path fill="#3B434F" d="M45.288,44.105h0.283c0.582,0.79,0.818,2.007,1.126,3.06c0.095,0.325,0.002,0.896-0.08,1.128
			c-0.305,0.843-1.265,0.828-2.054,1.207c-0.212,0.103-0.369,0.276-0.644,0.321c-0.179-0.156-0.395-0.188-0.483-0.442
			c-0.217-0.299,0.062-0.486,0.283-0.604c0.396-0.212,1.624-0.422,1.771-0.805c0.182-0.207,0.061-0.827,0-1.047
			c-0.156-0.559-0.231-1.025-0.442-1.528c-0.141-0.337-0.389-0.688-0.242-1.088C44.926,44.254,45.188,44.194,45.288,44.105"/>
	</g>
	<g>
		<path fill="#EDF1F1" d="M53.541,43.22c1.111,0,2.014,0.9,2.014,2.013c0,1.111-0.902,2.014-2.014,2.014
			c-1.11,0-2.013-0.902-2.013-2.014C51.528,44.12,52.431,43.22,53.541,43.22"/>
	</g>
	<g>
		<path fill="#EDF1F1" d="M34.056,43.22c1.111,0,2.013,0.9,2.013,2.013c0,1.111-0.902,2.014-2.013,2.014
			c-1.111,0-2.013-0.902-2.013-2.014C32.042,44.12,32.944,43.22,34.056,43.22"/>
	</g>
	<g>
		<path fill="#C1BFBD" d="M26.746,33.553c0,0,5.301-2.688,4.715-11.932c0,0,8.481,9.292,28.924,6.46l0.967,8.697
			c0,0,12.017-22.27-9.5-27.378c-21.061-4.998-21.303,8.19-21.303,8.19s-6.458-0.966-6.997,5.32c-0.54,6.286,1.405,12.9,1.405,12.9
			l1.611,1.288L26.746,33.553z"/>
	</g>
	<g>
		<path fill="#3B434F" d="M61.189,37.744l-1.206-9.099c-20.444,2.48-27.958-5.815-27.958-5.815
			c-0.305,9.243-4.797,10.965-4.797,10.965l-0.338,3.707l-2.255-1.288c0,0-2.147-7.014-1.647-13.303
			c0.54-6.781,7.078-5.804,7.078-5.804S30.841,3.55,51.852,8.757C74.779,14.438,61.189,37.744,61.189,37.744 M51.689,9.884
			c-21.118-4.742-20.694,8.455-20.694,8.455s-6.342-1.714-6.881,4.572c-0.54,6.286,1.245,12.497,1.245,12.497l0.725,0.565
			l0.098-2.743c0,0,5.311-1.825,4.716-12.816c0,0,7.58,9.93,29.971,7.104l0.805,7.247C61.673,34.765,71.464,14.324,51.689,9.884"/>
	</g>
</g>
<g>
	<path fill="#3B434F" d="M35.44,41.513c-0.573,0-1.146-0.091-1.706-0.273c-1.388-0.453-2.515-1.422-3.174-2.724
		c-0.6-1.183-0.703-2.527-0.29-3.787c0.412-1.261,1.291-2.285,2.474-2.884c2.221-1.127,4.941-0.235,6.068,1.984
		c0.495,0.979,0.58,2.093,0.239,3.135c-0.34,1.043-1.068,1.892-2.045,2.388c-0.893,0.451-1.908,0.529-2.857,0.219
		c-0.951-0.311-1.723-0.974-2.175-1.865c-0.846-1.668-0.201-3.577,1.499-4.439c0.756-0.382,1.513-0.478,2.189-0.277
		c0.695,0.207,1.264,0.713,1.645,1.465c0.436,0.859,0.481,1.842,0.116,2.562c-0.277,0.546-0.774,0.905-1.4,1.009
		c-0.525,0.086-1.898-0.007-2.557-0.854c-0.298-0.384-0.556-1.063-0.09-2.128c0.188-0.429,0.811-0.866,1.442-0.834
		c0.375,0.019,1.058,0.219,1.429,1.36c0.072,0.222-0.05,0.461-0.271,0.532c-0.223,0.072-0.461-0.049-0.534-0.271
		c-0.112-0.346-0.319-0.76-0.666-0.778c-0.305-0.015-0.587,0.241-0.626,0.329c-0.24,0.549-0.246,0.977-0.018,1.27
		c0.376,0.482,1.339,0.607,1.751,0.54c0.362-0.062,0.627-0.247,0.782-0.557c0.243-0.478,0.197-1.183-0.114-1.799
		c-0.273-0.538-0.664-0.896-1.13-1.036c-0.466-0.139-1.007-0.062-1.565,0.222c-1.292,0.655-1.766,2.043-1.128,3.303
		c0.35,0.689,0.948,1.202,1.684,1.443c0.735,0.24,1.521,0.181,2.21-0.17c0.777-0.394,1.355-1.066,1.627-1.896
		c0.27-0.827,0.202-1.712-0.191-2.489c-0.914-1.804-3.127-2.528-4.931-1.614c-0.981,0.498-1.71,1.347-2.053,2.393
		c-0.342,1.047-0.257,2.162,0.241,3.143c0.558,1.102,1.51,1.919,2.683,2.303c1.172,0.384,2.424,0.288,3.526-0.27
		c0.207-0.106,0.462-0.023,0.567,0.186s0.023,0.462-0.186,0.568C37.127,41.313,36.287,41.513,35.44,41.513z"/>
</g>
<g>
	<path fill="#3B434F" d="M53.222,41.578c-0.561,0-1.123-0.09-1.672-0.269c-1.36-0.445-2.466-1.394-3.113-2.67
		c-0.588-1.16-0.689-2.48-0.284-3.716c0.404-1.236,1.265-2.241,2.426-2.829c1.055-0.534,2.255-0.626,3.379-0.26
		c1.124,0.369,2.038,1.152,2.571,2.208c0.488,0.959,0.571,2.053,0.237,3.075c-0.335,1.024-1.049,1.855-2.009,2.342
		c-0.876,0.444-1.87,0.52-2.803,0.216c-0.933-0.306-1.691-0.957-2.135-1.831c-0.404-0.797-0.475-1.682-0.195-2.49
		c0.275-0.799,0.866-1.462,1.666-1.866c1.535-0.779,3.013-0.32,3.766,1.164c0.376,0.744,0.384,1.643,0.022,2.345
		c-0.321,0.625-0.879,1.025-1.572,1.131c-0.168,0.023-1.647,0.219-2.304-0.652c-0.383-0.508-0.372-1.207,0.029-2.083l0.008-0.018
		c0.127-0.28,0.394-0.863,0.991-1.031c0.413-0.119,0.879-0.007,1.387,0.332c0.871,0.581,0.542,1.361,0.056,2.118
		c-0.126,0.196-0.388,0.254-0.585,0.128c-0.196-0.126-0.252-0.388-0.127-0.585c0.295-0.457,0.355-0.669,0.355-0.768
		c0-0.032,0-0.078-0.168-0.191c-0.201-0.133-0.482-0.28-0.688-0.222c-0.22,0.062-0.366,0.381-0.454,0.571L52,35.745
		c-0.18,0.393-0.347,0.924-0.122,1.222c0.271,0.36,1.065,0.391,1.501,0.324c0.535-0.081,0.811-0.414,0.948-0.681
		c0.24-0.467,0.231-1.07-0.025-1.575c-0.267-0.525-0.646-0.875-1.101-1.01c-0.455-0.135-0.983-0.061-1.528,0.216
		c-0.603,0.306-1.045,0.798-1.249,1.388c-0.203,0.592-0.15,1.242,0.15,1.833c0.341,0.675,0.926,1.175,1.642,1.41
		c0.719,0.234,1.484,0.175,2.158-0.165c0.76-0.385,1.323-1.043,1.588-1.852c0.264-0.808,0.197-1.671-0.187-2.432
		c-0.433-0.853-1.172-1.487-2.081-1.785c-0.909-0.297-1.881-0.223-2.734,0.21c-0.959,0.486-1.671,1.316-2.006,2.337
		c-0.333,1.022-0.25,2.112,0.237,3.071c0.544,1.076,1.475,1.874,2.621,2.249c1.146,0.374,2.369,0.281,3.444-0.264
		c0.208-0.105,0.463-0.022,0.569,0.187c0.104,0.207,0.021,0.462-0.187,0.567C54.877,41.383,54.053,41.578,53.222,41.578z"/>
</g>
<g>
	<path fill="#3B434F" d="M48.331,57.845c0,1.681-1.722,1.091-3.77,1.091s-4.62,0.647-4.62-1.033s2.085-3.731,4.134-3.731
		S48.331,56.165,48.331,57.845z"/>
</g>
<g>
	<polygon fill="#FFC55F" points="20.295,17.955 20.822,19.604 22.471,20.131 20.822,20.657 20.295,22.307 19.77,20.657 
		18.12,20.131 19.77,19.604 	"/>
	<path fill="#FF9F06" d="M20.295,22.403c-0.042,0-0.08-0.027-0.092-0.067l-0.511-1.602l-1.602-0.511
		c-0.041-0.013-0.068-0.05-0.068-0.093s0.027-0.081,0.068-0.093l1.602-0.512l0.511-1.601c0.013-0.041,0.05-0.069,0.092-0.069l0,0
		c0.043,0,0.081,0.028,0.093,0.069l0.512,1.601l1.601,0.512c0.041,0.012,0.068,0.05,0.068,0.093s-0.027,0.08-0.068,0.093
		L20.9,20.734l-0.512,1.602C20.376,22.376,20.338,22.403,20.295,22.403z M18.441,20.131l1.358,0.433
		c0.03,0.011,0.053,0.033,0.063,0.064l0.433,1.357l0.434-1.357c0.01-0.031,0.033-0.054,0.064-0.064l1.357-0.433l-1.357-0.435
		c-0.031-0.009-0.054-0.033-0.064-0.062l-0.434-1.358l-0.433,1.358c-0.01,0.029-0.033,0.054-0.063,0.062L18.441,20.131z"/>
</g>
<g>
	<polygon fill="#FFC55F" points="29.042,12.575 29.32,13.448 30.193,13.727 29.32,14.004 29.042,14.877 28.763,14.004 
		27.891,13.727 28.763,13.448 	"/>
	<path fill="#FF9F06" d="M29.042,14.974c-0.042,0-0.08-0.026-0.093-0.066l-0.263-0.824l-0.825-0.265
		c-0.041-0.014-0.067-0.051-0.067-0.092c0-0.042,0.027-0.081,0.067-0.094l0.825-0.264l0.263-0.823
		c0.013-0.041,0.05-0.069,0.093-0.069l0,0c0.042,0,0.081,0.028,0.093,0.069l0.264,0.823l0.825,0.264
		c0.041,0.013,0.068,0.052,0.068,0.094c0,0.041-0.028,0.078-0.068,0.092l-0.825,0.265l-0.264,0.824
		C29.122,14.947,29.084,14.974,29.042,14.974z M28.211,13.727l0.581,0.185c0.03,0.011,0.054,0.033,0.063,0.064l0.186,0.581
		l0.186-0.581c0.009-0.031,0.033-0.054,0.063-0.064l0.582-0.185l-0.582-0.186c-0.03-0.01-0.054-0.035-0.063-0.064l-0.186-0.581
		l-0.186,0.581c-0.01,0.029-0.033,0.055-0.063,0.064L28.211,13.727z"/>
</g>
<g>
	<polygon fill="#FFC55F" points="32.703,15.082 33.013,16.053 33.984,16.362 33.013,16.673 32.703,17.645 32.393,16.673 
		31.421,16.362 32.393,16.053 	"/>
	<path fill="#FF9F06" d="M32.703,17.741c-0.042,0-0.08-0.026-0.093-0.067l-0.295-0.924l-0.923-0.295
		c-0.041-0.013-0.068-0.051-0.068-0.093c0-0.043,0.027-0.08,0.068-0.093l0.923-0.294l0.295-0.925
		c0.014-0.039,0.051-0.067,0.093-0.067l0,0c0.042,0,0.08,0.028,0.093,0.067l0.295,0.925l0.923,0.294
		c0.041,0.013,0.068,0.05,0.068,0.093c0,0.042-0.027,0.08-0.068,0.093L33.09,16.75l-0.295,0.924
		C32.783,17.715,32.745,17.741,32.703,17.741z M31.741,16.362l0.681,0.218c0.03,0.01,0.053,0.033,0.063,0.063l0.217,0.679
		l0.217-0.679c0.009-0.03,0.033-0.054,0.063-0.063l0.68-0.218l-0.68-0.217c-0.03-0.011-0.054-0.033-0.063-0.063l-0.217-0.681
		l-0.217,0.681c-0.01,0.03-0.033,0.053-0.063,0.063L31.741,16.362z"/>
</g>
<g>
	<polygon fill="#FFC55F" points="53.45,14.951 53.777,15.972 54.798,16.297 53.777,16.624 53.45,17.645 53.126,16.624 
		52.104,16.297 53.126,15.972 	"/>
	<path fill="#FF9F06" d="M53.45,17.741c-0.042,0-0.079-0.026-0.093-0.067l-0.31-0.973l-0.974-0.311
		c-0.04-0.013-0.066-0.051-0.066-0.094c0-0.042,0.026-0.079,0.066-0.093l0.974-0.31l0.31-0.974c0.014-0.04,0.051-0.067,0.093-0.067
		c0.043,0,0.081,0.027,0.094,0.067l0.311,0.974l0.973,0.31c0.041,0.014,0.068,0.051,0.068,0.093c0,0.043-0.027,0.081-0.068,0.094
		l-0.973,0.311l-0.311,0.973C53.531,17.715,53.493,17.741,53.45,17.741z M52.425,16.297l0.73,0.234
		c0.029,0.009,0.054,0.033,0.062,0.062l0.232,0.729l0.234-0.729c0.009-0.029,0.033-0.054,0.063-0.062l0.729-0.234l-0.729-0.232
		c-0.03-0.009-0.055-0.033-0.063-0.063l-0.234-0.729l-0.232,0.729c-0.009,0.03-0.033,0.055-0.062,0.063L52.425,16.297z"/>
</g>
<g>
	<polygon fill="#FFC55F" points="62.491,12.575 62.771,13.448 63.645,13.727 62.771,14.004 62.491,14.877 62.214,14.004 
		61.341,13.727 62.214,13.448 	"/>
	<path fill="#FF9F06" d="M62.491,14.974c-0.041,0-0.079-0.026-0.093-0.066l-0.263-0.824l-0.824-0.265
		c-0.041-0.014-0.068-0.051-0.068-0.092c0-0.042,0.027-0.081,0.068-0.094l0.824-0.264l0.263-0.823
		c0.014-0.041,0.052-0.069,0.093-0.069l0,0c0.043,0,0.081,0.028,0.094,0.069l0.264,0.823l0.825,0.264
		c0.04,0.013,0.067,0.052,0.067,0.094c0,0.041-0.027,0.078-0.067,0.092l-0.825,0.265l-0.264,0.824
		C62.572,14.947,62.534,14.974,62.491,14.974z M61.661,13.727l0.582,0.185c0.03,0.011,0.055,0.033,0.063,0.064l0.185,0.581
		l0.187-0.581c0.011-0.031,0.034-0.054,0.063-0.064l0.582-0.185l-0.582-0.186c-0.029-0.01-0.053-0.035-0.063-0.064l-0.187-0.581
		l-0.185,0.581c-0.009,0.029-0.033,0.055-0.063,0.064L61.661,13.727z"/>
</g>
<g>
	<polygon fill="#FFC55F" points="65.953,17.955 66.479,19.604 68.129,20.131 66.479,20.657 65.953,22.307 65.428,20.657 
		63.777,20.131 65.428,19.604 	"/>
	<path fill="#FF9F06" d="M65.953,22.403c-0.042,0-0.079-0.027-0.093-0.067l-0.51-1.602l-1.603-0.511
		c-0.04-0.013-0.067-0.05-0.067-0.093s0.027-0.081,0.067-0.093l1.603-0.512l0.51-1.601c0.014-0.041,0.051-0.069,0.093-0.069
		c0.043,0,0.08,0.028,0.093,0.069l0.512,1.601l1.601,0.512c0.041,0.012,0.069,0.05,0.069,0.093s-0.028,0.08-0.069,0.093
		l-1.601,0.511l-0.512,1.602C66.033,22.376,65.996,22.403,65.953,22.403z M64.099,20.131l1.357,0.433
		c0.031,0.011,0.055,0.033,0.064,0.064l0.433,1.357l0.434-1.357c0.011-0.031,0.034-0.054,0.063-0.064l1.358-0.433l-1.358-0.435
		c-0.029-0.009-0.053-0.033-0.063-0.062l-0.434-1.358l-0.433,1.358c-0.01,0.029-0.033,0.054-0.064,0.062L64.099,20.131z"/>
</g>
<g>
	<polygon fill="#FFC55F" points="43.435,10.021 44.609,13.703 48.292,14.879 44.609,16.056 43.435,19.737 42.258,16.056 
		38.575,14.879 42.258,13.703 	"/>
	<path fill="#FF9F06" d="M43.435,19.835c-0.042,0-0.081-0.028-0.093-0.068l-1.161-3.634l-3.635-1.161
		c-0.041-0.013-0.069-0.051-0.069-0.093c0-0.043,0.028-0.08,0.069-0.094l3.635-1.159l1.161-3.636c0.012-0.04,0.05-0.068,0.093-0.068
		l0,0c0.042,0,0.08,0.028,0.093,0.068l1.159,3.636l3.637,1.159c0.04,0.014,0.066,0.051,0.066,0.094c0,0.042-0.027,0.08-0.066,0.093
		l-3.637,1.161l-1.159,3.634C43.514,19.807,43.477,19.835,43.435,19.835z M38.897,14.879l3.39,1.082
		c0.031,0.011,0.055,0.033,0.064,0.063l1.084,3.392l1.081-3.392c0.011-0.03,0.035-0.053,0.064-0.063l3.393-1.082l-3.393-1.083
		c-0.029-0.01-0.053-0.033-0.064-0.063l-1.081-3.392l-1.084,3.392c-0.009,0.03-0.033,0.054-0.064,0.063L38.897,14.879z"/>
</g>
<g>
	<line fill="#FFFFFF" x1="43.779" y1="98.893" x2="33.501" y2="87.313"/>
	
		<rect x="30.899" y="92.452" transform="matrix(0.6638 0.7479 -0.7479 0.6638 82.6178 2.3991)" fill="#3B434F" width="15.481" height="1.301"/>
</g>
<g>
	<g>
		<path fill="#FFFFFF" d="M93.289,97.776c-0.062,0.869-0.867,1.574-1.8,1.574H44.823c-0.933,0-1.638-0.705-1.577-1.574l2.201-30.739
			c0.062-0.868,0.869-1.572,1.8-1.572h46.666c0.933,0,1.638,0.704,1.575,1.572L93.289,97.776z"/>
		<path fill="#3B434F" d="M91.489,100H44.823c-0.646,0-1.255-0.257-1.674-0.705c-0.397-0.427-0.592-0.983-0.551-1.565l2.2-30.738
			c0.086-1.201,1.185-2.178,2.45-2.178h46.666c0.646,0,1.257,0.257,1.675,0.707c0.396,0.427,0.592,0.981,0.551,1.563l-2.2,30.739
			C93.853,99.023,92.754,100,91.489,100z M47.247,66.114c-0.586,0-1.113,0.443-1.15,0.97l-2.201,30.739
			c-0.02,0.28,0.101,0.473,0.206,0.584c0.175,0.188,0.43,0.292,0.721,0.292h46.667c0.585,0,1.114-0.443,1.151-0.97l2.2-30.738
			c0.02-0.279-0.1-0.474-0.205-0.585c-0.175-0.188-0.432-0.292-0.723-0.292H47.247z"/>
	</g>
	<g>
		<path fill="#3B434F" d="M74.383,85.288c-0.151,1.966-1.862,3.555-3.831,3.555c-1.975,0-3.461-1.602-3.32-3.577
			c0.141-1.977,1.856-3.577,3.834-3.577c0.698,0,1.336,0.2,1.86,0.546c-0.514,0.313-0.867,0.82-0.91,1.394
			c-0.066,0.951,0.758,1.723,1.842,1.723C74.038,85.351,74.215,85.329,74.383,85.288z"/>
	</g>
	<g>
		<path fill="#3B434F" d="M70.683,79.031c0.43,0.541,0.534,1.248,0.345,1.896c-0.665,0.05-1.324-0.204-1.754-0.745
			c-0.43-0.54-0.536-1.247-0.346-1.896C69.593,78.237,70.252,78.491,70.683,79.031z"/>
	</g>
</g>
</svg>
