<?xml version="1.0" encoding="utf-8"?>
<!-- Generator: Adobe Illustrator 16.0.0, SVG Export Plug-In . SVG Version: 6.00 Build 0)  -->
<!DOCTYPE svg PUBLIC "-//W3C//DTD SVG 1.1//EN" "http://www.w3.org/Graphics/SVG/1.1/DTD/svg11.dtd">
<svg version="1.1" xmlns="http://www.w3.org/2000/svg" xmlns:xlink="http://www.w3.org/1999/xlink" x="0px" y="0px" width="35px"
	 height="35px" viewBox="0 0 35 35" enable-background="new 0 0 35 35" xml:space="preserve">
<g id="Layer_1">
	<path fill="#3B444F" d="M21.167,19.488c0,0-3.145-3.791,0.231,0.174c3.376,3.964,6.076,1.562,6.076,1.562V7.74
		c0-5.71-3.53-5.903-3.53-5.903l1.101-0.289c-4.373-1.807-5.873,1.354-6.223,2.331c-0.061,0.17-0.086,0.273-0.086,0.273
		s-0.312,1.421,0.26,1.967"/>
	<path fill="#3B444F" d="M16.711,5.136c4.011,0,7.263,3.252,7.263,7.263v1.505c0,4.012-3.252,7.263-7.263,7.263
		c-4.012,0-7.263-3.251-7.263-7.263v-1.505C9.448,8.388,12.699,5.136,16.711,5.136"/>
	<path fill="#FFFFFF" d="M7.046,32.758c0,0-0.449-6.103,5.295-6.673h2.575v-1.186c0,0,1.812,0.778,3.646,0.087l0.058,1.099h3.01
		c0,0,5.153,0.203,4.919,6.731L7.046,32.758z"/>
	<path fill="#3B434F" d="M26.504,33.001H7.208H6.833l0.093-1.596c0.183-3.115,2.637-5.494,5.447-5.494h1.931
		c-0.125,0.104-0.217,0.212-0.283,0.318h-1.479c-2.707,0-5.073,2.29-5.249,5.289L7.23,32.625h19.222l-0.035-1.106
		c-0.177-2.999-2.542-5.289-5.25-5.289h-1.479c-0.057-0.105-0.138-0.214-0.25-0.318h1.882c2.81,0,5.265,2.379,5.446,5.494
		l0.094,1.596H26.504z M18.866,26.229h-0.102v-0.318h0.113C18.871,25.995,18.866,26.099,18.866,26.229 M14.796,25.911h0.121v0.318
		h-0.104C14.811,26.096,14.805,25.991,14.796,25.911"/>
	<path fill="#3B434F" d="M17.752,30.339c0.112,0,0.203,0.091,0.203,0.202c0,0.112-0.091,0.203-0.203,0.203
		c-0.111,0-0.202-0.091-0.202-0.203C17.55,30.43,17.641,30.339,17.752,30.339"/>
	<path fill="#3B434F" d="M17.752,31.67c0.112,0,0.203,0.091,0.203,0.202c0,0.112-0.091,0.203-0.203,0.203
		c-0.111,0-0.202-0.091-0.202-0.203C17.55,31.761,17.641,31.67,17.752,31.67"/>
	<path fill="#3B434F" d="M20.097,27.619l-1.477,2.199c-0.401-1.244-1.562-0.781-1.562-0.781v3.675c0,0.096-0.091,0.174-0.203,0.174
		c-0.112,0-0.203-0.078-0.203-0.174v-3.675c-0.009-0.004-1.161-0.458-1.561,0.781l-1.474-2.199c0,0-0.57-1.449,1.156-2.084V24.87
		h0.326v2.094c0.042,0.36,0.291,1.389,1.755,1.726c1.466-0.337,1.715-1.365,1.756-1.726V24.87h0.328v0.665
		C20.667,26.17,20.097,27.619,20.097,27.619 M15.075,27.814c-0.078-0.09-0.192-0.311-0.192-0.311s-0.108-0.363-0.108-0.521v-0.734
		c-0.024-0.33-0.087-0.337-0.087-0.337c-1.289,0.635-0.723,1.621-0.723,1.621l1.07,1.679c0.417-0.708,0.868-0.579,0.868-0.579
		C15.504,28.43,15.244,28.116,15.075,27.814 M19.025,25.911c0,0-0.062,0.007-0.086,0.337v0.734c0,0.158-0.109,0.521-0.109,0.521
		s-0.113,0.221-0.192,0.311c-0.169,0.302-0.431,0.615-0.827,0.817c0,0,0.449-0.129,0.868,0.579l1.07-1.679
		C19.749,27.532,20.315,26.546,19.025,25.911"/>
	<path fill="#FFFFFF" d="M16.87,6.611c3.6,0,6.44,3.363,6.348,7.406l-0.098,4.296c-0.087,3.807-2.885,6.817-6.25,6.817
		c-3.366,0-6.164-3.011-6.251-6.817l-0.098-4.296C10.429,9.975,13.271,6.611,16.87,6.611"/>
	<path fill="#3B434F" d="M23.508,13.885l-0.104,4.47c-0.09,3.963-3.021,7.094-6.549,7.094c-3.526,0-6.458-3.131-6.549-7.094
		l-0.103-4.47c-0.097-4.206,2.88-7.708,6.652-7.708C20.627,6.177,23.605,9.679,23.508,13.885 M16.841,6.64
		c-3.55,0-6.353,3.339-6.261,7.349l0.097,4.262c0.085,3.778,2.845,6.765,6.165,6.765s6.079-2.986,6.165-6.765l0.097-4.262
		C23.193,9.979,20.391,6.64,16.841,6.64"/>
	<rect x="15.929" y="22.497" fill="#3B434F" width="1.852" height="0.29"/>
	<path fill="#FFFFFF" d="M10.196,14.536c0,0-0.071-0.056-0.203-0.098C9.926,14.418,9.844,14.4,9.75,14.396
		c-0.023-0.002-0.047-0.002-0.072-0.001s-0.05,0.002-0.076,0.005c-0.051,0.006-0.104,0.015-0.158,0.031
		c-0.214,0.062-0.432,0.21-0.56,0.519c-0.064,0.153-0.106,0.348-0.118,0.59c-0.003,0.062-0.003,0.125-0.002,0.191
		c0.001,0.067,0.005,0.137,0.01,0.21c0.011,0.147,0.031,0.308,0.061,0.481c0,0-0.028,0.527,0.16,1.133
		c0.178,0.592,0.603,1.319,1.389,1.527C10.293,17.579,10.291,16.046,10.196,14.536"/>
	<path fill="#3B434F" d="M10.285,14.597c0,0-1.368-0.425-1.32,0.982c0,0,0.204,2.04,0.292,2.228c0,0,0.538,1.188,1.425,1.241
		c0.867,0.052,0,0,0,0l0.011,0.383c0,0-1.559-0.201-1.86-1.997l-0.237-1.632c0,0-0.185-2.159,1.605-1.609c1.744,0.534,0,0,0,0
		L10.285,14.597"/>
	<path fill="#3B434F" d="M9.834,17.431c0,0-0.077,0.058-0.143,0.058s-0.142-0.058-0.142-0.058l-0.141-1.423
		c0,0,0.195-0.701,1.021-0.33l0.02,0.406c0,0-0.725-0.258-0.71,0.062C9.753,16.455,9.834,17.431,9.834,17.431"/>
	<path fill="#FFFFFF" d="M23.557,14.539c0.001,0,0.071-0.056,0.205-0.098c0.066-0.021,0.148-0.037,0.244-0.042
		c0.022-0.002,0.047-0.002,0.072-0.001c0.024,0.001,0.05,0.002,0.076,0.006c0.051,0.006,0.104,0.015,0.158,0.03
		c0.214,0.062,0.433,0.211,0.562,0.519c0.063,0.153,0.106,0.348,0.117,0.59c0.003,0.061,0.004,0.124,0.003,0.191
		c-0.002,0.066-0.005,0.137-0.01,0.21c-0.012,0.146-0.032,0.307-0.062,0.481c0-0.001,0.028,0.525-0.162,1.131
		c-0.177,0.592-0.604,1.319-1.394,1.527C23.46,17.58,23.462,16.049,23.557,14.539"/>
	<path fill="#3B434F" d="M23.398,14.6c0,0,1.375-0.424,1.326,0.981c0,0-0.205,2.04-0.294,2.227c0,0-0.539,1.188-1.431,1.24
		c-0.87,0.052,0,0,0,0l-0.011,0.383c0,0,1.566-0.2,1.869-1.995l0.238-1.631c0,0,0.185-2.158-1.612-1.61c-1.752,0.534,0,0,0,0
		L23.398,14.6"/>
	<path fill="#3B434F" d="M23.852,17.432c0,0,0.078,0.058,0.144,0.058c0.066,0,0.143-0.058,0.143-0.058l0.142-1.421
		c0,0-0.196-0.701-1.026-0.331l-0.02,0.406c0,0,0.729-0.257,0.714,0.063C23.933,16.458,23.852,17.432,23.852,17.432"/>
	<path fill="#3B434F" d="M17.391,17.317h0.102c0.209,0.285,0.295,0.722,0.404,1.101c0.035,0.117,0.002,0.321-0.028,0.405
		c-0.109,0.303-0.454,0.297-0.737,0.434c-0.076,0.036-0.134,0.1-0.232,0.116c-0.064-0.057-0.142-0.069-0.174-0.159
		c-0.078-0.108,0.022-0.176,0.102-0.218c0.142-0.076,0.583-0.152,0.636-0.289c0.064-0.075,0.021-0.299,0-0.376
		c-0.057-0.201-0.083-0.369-0.158-0.551c-0.051-0.12-0.141-0.246-0.088-0.391C17.261,17.371,17.355,17.351,17.391,17.317"/>
	<path fill="#3B434F" d="M13.383,15.089h0.405c0.224,0,0.405,0.183,0.405,0.405c0,0.225-0.182,0.405-0.405,0.405h-0.405
		c-0.223,0-0.405-0.181-0.405-0.405C12.978,15.271,13.16,15.089,13.383,15.089"/>
	<path fill="#3B434F" d="M19.98,15.089h0.405c0.224,0,0.405,0.183,0.405,0.405c0,0.225-0.182,0.405-0.405,0.405H19.98
		c-0.224,0-0.405-0.181-0.405-0.405C19.575,15.271,19.757,15.089,19.98,15.089"/>
	<path fill="#EDF1F1" d="M20.357,17c0.398,0,0.724,0.323,0.724,0.723s-0.325,0.724-0.724,0.724c-0.4,0-0.725-0.324-0.725-0.724
		S19.957,17,20.357,17"/>
	<path fill="#EDF1F1" d="M13.354,17c0.399,0,0.724,0.323,0.724,0.723s-0.324,0.724-0.724,0.724s-0.724-0.324-0.724-0.724
		S12.955,17,13.354,17"/>
	<path fill="#3B434F" d="M18.416,13.81l0.166,0.213l0.105,0.132c0,0,1.841-1.016,3.118,0.156l0.138,0.067c0,0-0.315-1.7-3.072-0.705
		C18.727,13.711,18.574,13.757,18.416,13.81"/>
	<path fill="#3B434F" d="M15.227,13.812l-0.167,0.212l-0.104,0.132c0,0-1.842-1.015-3.12,0.155L11.7,14.378
		c0,0,0.316-1.697,3.072-0.704C14.917,13.713,15.069,13.759,15.227,13.812"/>
	<path fill="#3B434F" d="M16.855,10.039V3.632c0.02,0,0.038-0.001,0.058-0.001c4.059,0,7.349,3.291,7.349,7.35v2.362
		c-0.001,0.083-0.001,0.163,0,0.242C24.263,13.585,17.438,11.739,16.855,10.039 M9.448,13.585c0.001-0.079,0.001-0.159,0-0.242
		V10.98c0-4.059,3.291-7.35,7.35-7.35c0.019,0,0.038,0.001,0.058,0.001v6.407C16.273,11.739,9.448,13.585,9.448,13.585"/>
	<g>
		<path fill="#D81620" d="M22.37,30.232C22.363,30.229,22.368,30.221,22.37,30.232L22.37,30.232z"/>
		<path fill="#D81620" d="M21.489,28.679c0,0,0.001,0.003,0,0.005c-0.006,0-0.011-0.001-0.018,0.001L21.489,28.679z"/>
		<path fill="#D81620" d="M21.465,28.72c0.027,0.008,0.025-0.025,0.024-0.036c0.042,0.001,0.057,0.017,0.057,0.047
			C21.515,28.753,21.495,28.713,21.465,28.72z"/>
		<path fill="#D81620" d="M19.827,25.908l-0.006,0.015C19.822,25.918,19.823,25.913,19.827,25.908z"/>
		<path fill="#D81620" d="M26.436,32.048c0.001-0.005-0.001-0.01-0.001-0.016C26.441,32.037,26.439,32.043,26.436,32.048z"/>
		<path fill="#D81620" d="M20.119,26.323l-0.036,0.034C20.096,26.341,20.107,26.33,20.119,26.323z"/>
		<g>
			<path fill="#D81620" d="M21.769,30.431c0,0.003,0,0.004-0.002,0.005c0.013,0.021,0.025,0.038,0.035,0.053L21.769,30.431z"/>
			<path fill="#D81620" d="M21.022,30.901c-0.003-0.001-0.006-0.001-0.008-0.002C21.024,30.909,21.034,30.921,21.022,30.901z"/>
			<path fill="#D81620" d="M26.448,25.297c0,0,0,0.003-0.001,0.005c0.005,0.001,0.01,0.001,0.016,0.003L26.448,25.297z"/>
			<path fill="#D81620" d="M26.447,25.302c-0.035-0.006-0.052,0.006-0.057,0.033c0.025,0.023,0.048-0.009,0.073,0.002
				C26.438,25.34,26.444,25.311,26.447,25.302z"/>
			<path fill="#D81620" d="M20.399,31.403c-0.012-0.014-0.022-0.022-0.033-0.028h-0.002L20.399,31.403z"/>
			<path fill="#D81620" d="M16.809,33.417l-0.005-0.031c-0.005,0.007-0.007,0.015-0.006,0.021L16.809,33.417z"/>
			<path fill="#D81620" d="M19.407,31.946c0.003,0.005,0.005,0.011,0.01,0.016c0.026,0.001,0.066-0.028,0.112-0.071l-0.043-0.051
				L19.407,31.946z"/>
			<path fill="#D81620" d="M28.243,22.58l-0.358-0.225c0,0-0.117-0.013-0.231-0.025c-0.119-0.016-0.237-0.033-0.237-0.033
				s-0.138,0.137-0.278,0.273c-0.135,0.142-0.271,0.28-0.271,0.28l-0.592,0.289c0,0-0.282,0.254-0.56,0.513
				c-0.273,0.262-0.548,0.522-0.548,0.522l0.012,0.165c-0.387,0.033-0.479,0.481-0.836,0.579l0.081,0.089
				c-0.063,0.066-0.11,0.009-0.142,0.009c-0.542,0.528-1.012,1.149-1.578,1.569c-0.335-0.334-0.581-0.799-0.886-1.207
				c-0.021-0.003-0.058,0.029-0.093-0.021l0.062-0.05c-0.223-0.1-0.237-0.402-0.486-0.465l0.024-0.107c0,0-0.151-0.199-0.306-0.398
				c-0.153-0.198-0.313-0.394-0.313-0.394l-0.356-0.25c0,0-0.075-0.105-0.149-0.212c-0.076-0.104-0.153-0.209-0.153-0.209
				s-0.079-0.001-0.158-0.002c-0.076-0.004-0.155-0.007-0.155-0.007l-0.258,0.109c0,0-0.019,0.082-0.039,0.163
				c-0.022,0.085-0.045,0.171-0.045,0.171c0.002-0.008,0.007-0.013,0.007-0.013c0.103,0.06,0.065,0.202,0.172,0.251l-0.007,0.006
				c0.077-0.054,0.044,0.201,0.127,0.176c0.075,0.042,0.03,0.143,0.048,0.197c-0.015-0.016,0.084-0.029,0.077,0.043
				c0.006,0.017-0.055,0.133,0.006,0.147c0.062,0.015,0.078,0.102,0.117,0.152l-0.03,0.008c0.169,0.188,0.251,0.479,0.442,0.608
				c0.058-0.101-0.059,0.121,0.01,0.009l0.058,0.062c-0.005,0.007-0.01,0.011-0.015,0.014c0.002,0.06-0.09,0.188,0.04,0.163
				c0.081-0.054,0.013,0.089,0.067,0.011c-0.007,0.291,0.27,0.226,0.258,0.538l0.005-0.021l0.043,0.038l-0.079,0.035
				c0.073-0.013,0.033,0.136,0.097,0.084l0.001-0.012c0.062-0.051,0.068,0.02,0.108,0.029c-0.034,0.021-0.048,0.022-0.054,0.019
				c0.002,0.008,0.002,0.023-0.006,0.061c0.139,0.028,0.104,0.194,0.229,0.195l-0.033,0.064c0.139,0.037,0.051,0.294,0.243,0.282
				c0.068,0.163,0.097,0.278,0.156,0.446c0.061,0.062,0.107,0.191,0.231,0.16c0.019,0.01,0.027,0.022,0.038,0.034
				c-0.005,0.005-0.01,0.011-0.016,0.015l-0.003-0.016l-0.064,0.099c-0.011-0.004-0.022-0.016-0.026-0.024
				c-0.014,0.172-0.238,0.237-0.384,0.316l-0.004-0.016c-0.677,0.639-1.129,1.419-1.893,1.956c-0.43,0.167-0.598,0.717-1.044,0.958
				c-0.137-0.018-0.76,0.769-0.788,0.864l0.163,0.01c-0.22,0.307-0.418,0.339-0.574,0.635l-0.006-0.03
				c-0.044,0.014,0.093,0.223-0.449,0.342l-0.007-0.008c-0.011,0.014,0.003,0.029-0.038,0.03l0.101-0.008
				c-0.018,0.057-0.018,0.129-0.062,0.181c-0.019,0-0.036-0.013-0.046-0.024c0,0-0.027,0.032-0.054,0.065
				c-0.026,0.031-0.052,0.061-0.052,0.061l-0.076-0.019c-0.013,0.062,0.083,0.159-0.056,0.185c0.089,0.048-0.012,0.084,0.026,0.113
				c-0.012-0.007-0.032-0.012-0.049-0.017c-0.02,0.023-0.067,0.078-0.079,0.102c-0.016,0.027-0.029,0.063-0.03,0.092
				c0,0,0.014,0.003,0.037,0.008c0.025,0.004,0.056,0.016,0.104,0.019c0.098-0.002,0.22,0.003,0.284,0.016
				c-0.107,0.048-0.017,0.028,0.02,0.04l-0.007-0.023c0.067-0.026,0.104,0.022,0.143,0.015c-0.003-0.004-0.007-0.009-0.012-0.014
				l0.002,0.011c-0.01-0.007-0.013-0.013-0.014-0.021c-0.007-0.011-0.011-0.021,0.006-0.03l0,0.009
				c0.018-0.024,0.064-0.05,0.083-0.059l0.034,0.039c-0.021-0.108,0.373-0.104,0.434-0.144c0.103,0.009,0.114-0.114,0.206-0.145
				c0.121-0.075,0.109,0.019,0.197,0.012c0.095-0.029-0.059-0.04-0.032-0.065l0.136-0.007c-0.043,0.045,0.006,0.048,0.029,0.059
				c0.078-0.052,0.266-0.061,0.209-0.169c0.136-0.036,0.168,0,0.214-0.028c-0.028-0.006-0.069,0.002-0.087-0.017
				c0.075,0.01,0.012-0.024-0.013-0.021c0.021-0.089,0.458-0.086,0.379-0.196l0.017,0.019c-0.055-0.089-0.143-0.144-0.141-0.22
				l0.059,0.011l0.01-0.066c0.05,0.001,0.056,0.032,0.063,0.043c0.034-0.094,0.165-0.131,0.255-0.188l-0.278-0.14
				c0.11-0.011,0.324-0.016,0.272-0.096l0.108,0.036c0.262,0.021,0.037-0.142,0.129-0.146l0.142,0.02l-0.069,0.058
				c0.105-0.02,0.156-0.017,0.259-0.01l-0.001-0.003c-0.007-0.001-0.013-0.003-0.018-0.007l0.008-0.009
				c-0.03-0.048-0.021-0.106,0.029-0.145c0.078-0.047,0.074-0.154,0.262-0.162l-0.052-0.107l0.127-0.021l0.062,0.066
				c-0.083,0.066-0.206,0.223-0.307,0.313l0.027,0.031c0.06-0.052,0.102-0.142,0.147-0.169c0.031-0.004,0.147,0.023,0.153,0.1
				l-0.025-0.098c0.195-0.184,0.193-0.189,0.475-0.294l-0.049-0.02c0.021-0.058,0.045-0.112,0.108-0.066
				c0.138-0.1,0.308-0.172,0.473-0.154l-0.06-0.099c0.03-0.02,0.189,0.071,0.092-0.056l0.021-0.087
				c0.043-0.026,0.02-0.093,0.105-0.084h0.001c0.005,0.002,0.01,0.003,0.017,0.004l-0.008-0.008
				c0.116-0.035-0.071-0.072,0.067-0.108c0.086,0.032-0.068-0.136-0.005-0.158l0.16,0.08c0.147-0.006,0.047-0.14,0.162-0.248
				c0.099-0.009,0.227,0.07,0.276,0.196c-0.055-0.158-0.047-0.095-0.029-0.21c0.055,0.036,0.057,0.052,0.081,0.105
				c0.112-0.001-0.002-0.074,0.047-0.113c-0.07-0.099-0.187-0.25-0.177-0.27l-0.044-0.011c0.003-0.091,0.035-0.161,0.134-0.169
				l0.039,0.044l0.038-0.076l0.056,0.051l0.07-0.097l-0.026-0.003c0.012-0.027,0.059-0.107,0.124-0.113l0.028,0.033
				c0.199-0.002,0.162-0.212,0.275-0.338l0.046,0.078c0.104,0.024-0.083-0.108-0.003-0.125l0.077,0.076
				c-0.057-0.144,0.078-0.03,0.147-0.021l-0.115-0.089l0.079-0.033c0.096-0.026,0.163,0.094,0.207,0.156l-0.036-0.122l0.097,0.083
				c-0.072-0.136,0.048-0.014,0.047-0.121c0.038,0.029,0.043,0.062,0.076,0.06l-0.035-0.215l0.002,0.11l-0.123-0.141
				c-0.043-0.155,0.09-0.059,0.094-0.134l0.012,0.066c0.033-0.096,0.092-0.042,0.157-0.049c-0.036-0.013-0.089-0.034-0.08-0.077
				c0.013-0.025,0.057,0.038,0.089,0.034c-0.046-0.052-0.062-0.103-0.057-0.137l0.013,0.038l0.031-0.026
				c0.062,0.016,0.076,0.066,0.068,0.126l-0.029,0.002c0.005,0.014-0.087,0.101-0.144,0.159c0.027,0.03-0.055,0.065,0.018,0.078
				c0.022-0.033,0.026-0.043,0.064-0.06c-0.001,0.077,0.012,0.035-0.04,0.133c0.046-0.077,0.138-0.116,0.2-0.1
				c0.065,0.083-0.015,0.16,0.082,0.179l0.112-0.035c0.04,0.021-0.079,0.115-0.021,0.103c0.089,0.038-0.039,0.043,0.034,0.079
				l-0.006,0.003c0.004,0,0.008,0.001,0.012,0c0.058,0.002,0.035,0.044,0.06,0.065l0.005,0.06c-0.076,0.072,0.036,0.03,0.055,0.046
				l-0.05,0.058c0.111,0.006,0.214,0.07,0.294,0.15c0.046-0.024,0.056,0.016,0.064,0.055l-0.035,0.007
				c0.174,0.098,0.172,0.103,0.28,0.243l-0.025,0.062c0.011-0.051,0.09-0.056,0.11-0.05c0.027,0.022,0.044,0.086,0.079,0.126
				l0.021-0.018c-0.056-0.07-0.121-0.187-0.168-0.236l0.048-0.038l0.081,0.027l-0.046,0.064c0.123,0.024,0.108,0.095,0.156,0.133
				c0.027,0.031,0.028,0.069,0.004,0.098l0.003,0.008c-0.003,0.002-0.007,0.002-0.011,0.001l-0.002,0.003
				c0.067,0.007,0.101,0.011,0.168,0.033l-0.039-0.045l0.096,0.001c0.059,0.014-0.105,0.098,0.069,0.111l0.073-0.015
				c-0.042,0.049,0.098,0.073,0.169,0.092l-0.197,0.062c0.054,0.046,0.135,0.085,0.147,0.148c0.007-0.005,0.014-0.025,0.047-0.02
				v0.044l0.039-0.001c-0.007,0.05-0.07,0.077-0.115,0.13l0.013-0.012c-0.062,0.064,0.223,0.107,0.228,0.169
				c-0.016-0.007-0.062,0.01-0.011,0.012c-0.013,0.01-0.039,0.001-0.058,0.001c0.026,0.023,0.052,0.004,0.137,0.041
				c-0.047,0.064,0.073,0.091,0.119,0.132c0.017-0.003,0.05-0.002,0.025-0.034l0.088,0.018c0.015,0.02-0.086,0.012-0.027,0.039
				c0.058,0.014,0.059-0.048,0.13,0.014c0.058,0.029,0.054,0.111,0.119,0.115c0.037,0.034,0.296,0.07,0.271,0.139l0.026-0.022
				c0.011,0.01,0.039,0.029,0.048,0.048l0.001-0.004c0.012,0.007,0.007,0.013,0.001,0.018c-0.001,0.006-0.003,0.011-0.01,0.013
				l0.001-0.006c-0.003,0.003-0.007,0.005-0.009,0.008c0.023,0.009,0.054-0.019,0.096,0.004l-0.007,0.016
				c0.024-0.004,0.081,0.018,0.016-0.024c0.044-0.002,0.125,0.007,0.188,0.02c0.032,0.003,0.054-0.002,0.07-0.001
				c0.016-0.002,0.024-0.002,0.024-0.002c0.003-0.02-0.002-0.044-0.009-0.062c-0.006-0.018-0.031-0.058-0.042-0.075
				c-0.012,0.001-0.025,0.003-0.033,0.006c0.027-0.016-0.034-0.05,0.027-0.072c-0.087-0.03-0.014-0.085-0.016-0.127l-0.052,0.006
				c0,0-0.015-0.022-0.028-0.047c-0.014-0.023-0.029-0.047-0.029-0.047c-0.008,0.006-0.02,0.014-0.031,0.011
				c-0.024-0.039-0.017-0.086-0.022-0.125l0.065,0.018c-0.027-0.007-0.018-0.016-0.023-0.025l-0.004,0.005
				c-0.343-0.135-0.231-0.257-0.26-0.271l-0.005,0.021c-0.072-0.211-0.199-0.252-0.311-0.475l0.106,0.01
				c-0.009-0.065-0.334-0.645-0.426-0.647c-0.267-0.204-0.319-0.582-0.584-0.736c-0.266-0.256-0.448-0.557-0.634-0.861
				c0.016-0.009,0.023-0.021,0.043-0.028c0.177,0.078,0.276-0.104,0.382-0.184c0.128-0.235,0.197-0.4,0.339-0.628
				c0.283,0.063,0.213-0.343,0.429-0.364l-0.036-0.103c0.186,0.028,0.173-0.229,0.386-0.237c-0.002-0.058,0.003-0.082,0.006-0.091
				c-0.008,0.003-0.027-0.002-0.073-0.043c0.062-0.003,0.087-0.106,0.167-0.017v0.018c0.08,0.09,0.055-0.139,0.162-0.103
				l-0.108-0.07l0.073-0.047l0.001,0.034c0.057-0.47,0.453-0.309,0.512-0.741c0.062,0.128-0.004-0.102,0.103,0
				c0.188,0.064,0.083-0.149,0.097-0.235c-0.006-0.006-0.011-0.013-0.015-0.023l0.097-0.08c0.078,0.185-0.045-0.172,0.018-0.014
				c0.316-0.145,0.508-0.559,0.802-0.8L27.251,24.4c0.068-0.068,0.113-0.193,0.209-0.201c0.094-0.007,0.031-0.192,0.045-0.219
				c0.006-0.108,0.152-0.065,0.124-0.045c0.041-0.078-0.004-0.237,0.118-0.283c0.116,0.058,0.128-0.329,0.229-0.233L27.97,23.41
				c0.167-0.047,0.147-0.27,0.314-0.334c0,0,0.005,0.01,0.008,0.02c0,0-0.014-0.132-0.028-0.263
				C28.254,22.706,28.243,22.58,28.243,22.58z"/>
			<path fill="#D81620" d="M16.608,32.775l0.001-0.003C16.587,32.745,16.591,32.758,16.608,32.775z"/>
			<polygon fill="#D81620" points="18.861,32.24 18.855,32.243 18.918,32.273 			"/>
			<path fill="#D81620" d="M17.891,33.076c-0.018,0.013-0.031,0.026-0.033,0.044C17.912,33.093,17.908,33.083,17.891,33.076z"/>
			<path fill="#D81620" d="M16.326,33.131c-0.022,0.016-0.003,0.025,0.021,0.033c0.019-0.021,0.031-0.035,0.031-0.035
				C16.362,33.132,16.341,33.127,16.326,33.131z"/>
		</g>
	</g>
	
		<line fill="none" stroke="#3B434F" stroke-width="0.5" stroke-linecap="round" stroke-miterlimit="10" x1="14.396" y1="21.517" x2="19.472" y2="21.517"/>
</g>
<g id="Layer_2" display="none">
</g>
</svg>
