<?xml version="1.0" encoding="utf-8"?>
<!-- Generator: Adobe Illustrator 16.0.0, SVG Export Plug-In . SVG Version: 6.00 Build 0)  -->
<!DOCTYPE svg PUBLIC "-//W3C//DTD SVG 1.1//EN" "http://www.w3.org/Graphics/SVG/1.1/DTD/svg11.dtd">
<svg version="1.1" xmlns="http://www.w3.org/2000/svg" xmlns:xlink="http://www.w3.org/1999/xlink" x="0px" y="0px" width="35px"
	 height="35px" viewBox="0 0 35 35" enable-background="new 0 0 35 35" xml:space="preserve">
<g id="Layer_1">
	<g>
		<path fill="#FFFFFF" d="M6.062,33.299c0,0-0.796-6.983,6.065-7.762h2.936v-1.354c0,0,2.066,0.887,4.157,0.099l0.065,1.255h3.432
			c0,0,5.976,0.596,5.614,7.762H6.062z"/>
		<path fill="#3B434F" d="M28.383,33.498L28.383,33.498H6.384H5.957l0.106-1.819c0.208-3.553,3.007-6.263,6.209-6.263h2.438v0.363
			h-2.243c-3.086,0-5.784,2.608-5.984,6.028l-0.074,1.261h21.915l-0.04-1.261c-0.2-3.42-2.897-6.028-5.984-6.028h-3.003v-0.363
			h3.178c3.203,0,6.002,2.71,6.21,6.263l0.106,1.819H28.383z"/>
		<path fill="#3B434F" d="M17.02,29.507c-1.768,0-3.2-1.434-3.2-3.2c0-0.31,0.045-0.608,0.127-0.891h0.005h0.34h0.584v0.363H14.2
			c-0.033,0.17-0.05,0.347-0.05,0.527c0,1.585,1.285,2.87,2.87,2.87c1.586,0,2.87-1.285,2.87-2.87c0-0.181-0.017-0.357-0.049-0.527
			h-0.677v-0.363h0.585h0.339h0.005c0.082,0.282,0.128,0.581,0.128,0.891C20.221,28.073,18.786,29.507,17.02,29.507"/>
		<path fill="#3B434F" d="M15.14,24.108v2.035c0,1.055,0.856,1.912,1.914,1.912c1.056,0,1.914-0.857,1.914-1.912V24.15
			c0.111-0.033,0.221-0.07,0.329-0.11v2.116c0,1.249-1.012,2.262-2.259,2.262c-1.249,0-2.26-1.013-2.26-2.262v-2.179
			C14.896,24.024,15.018,24.068,15.14,24.108"/>
		<path fill="#FFFFFF" d="M17.136,3.411c4.104,0,7.344,3.836,7.237,8.443l-0.11,4.897c-0.1,4.341-3.289,7.773-7.127,7.773
			c-3.837,0-7.027-3.433-7.126-7.773l-0.112-4.897C9.792,7.247,13.031,3.411,17.136,3.411"/>
		<path fill="#3B434F" d="M24.704,11.703l-0.118,5.096c-0.104,4.519-3.445,8.089-7.467,8.089c-4.021,0-7.363-3.57-7.467-8.089
			l-0.117-5.096c-0.11-4.795,3.284-8.787,7.584-8.787C21.419,2.916,24.813,6.908,24.704,11.703 M17.103,3.444
			c-4.047,0-7.243,3.805-7.139,8.377l0.11,4.859c0.098,4.308,3.244,7.713,7.029,7.713s6.93-3.405,7.028-7.713l0.111-4.859
			C24.345,7.249,21.151,3.444,17.103,3.444"/>
		<path fill="#3B434F" d="M16.327,21.919h1.583c0.073,0,0.133,0.059,0.133,0.131c0,0.074-0.06,0.134-0.133,0.134h-1.583
			c-0.073,0-0.132-0.06-0.132-0.134C16.195,21.978,16.254,21.919,16.327,21.919"/>
		<path fill="#FFFFFF" d="M9.526,12.445c0,0-0.081-0.063-0.232-0.11c-0.075-0.024-0.169-0.045-0.276-0.049
			c-0.027-0.001-0.055-0.001-0.083-0.001c-0.028,0.001-0.057,0.003-0.086,0.006c-0.059,0.007-0.119,0.019-0.18,0.035
			c-0.244,0.07-0.492,0.24-0.639,0.592c-0.073,0.176-0.121,0.396-0.134,0.674c-0.003,0.068-0.004,0.141-0.002,0.217
			c0.001,0.077,0.005,0.156,0.011,0.241c0.013,0.166,0.036,0.349,0.07,0.548c0-0.001-0.032,0.601,0.183,1.291
			c0.202,0.676,0.688,1.505,1.583,1.741C9.637,15.916,9.634,14.168,9.526,12.445"/>
		<path fill="#3B434F" d="M9.629,12.515c0,0-1.56-0.483-1.505,1.121c0,0,0.231,2.326,0.333,2.539c0,0,0.612,1.354,1.624,1.414
			c0.989,0.06,0,0,0,0l0.012,0.438c0,0-1.778-0.229-2.12-2.276l-0.271-1.86c0,0-0.21-2.463,1.83-1.836c1.988,0.609,0,0,0,0
			L9.629,12.515"/>
		<path fill="#3B434F" d="M9.114,15.746c0,0-0.087,0.066-0.162,0.066S8.79,15.746,8.79,15.746l-0.161-1.623
			c0,0,0.222-0.799,1.165-0.377l0.022,0.464c0,0-0.828-0.293-0.81,0.072C9.023,14.635,9.114,15.746,9.114,15.746"/>
		<path fill="#FFFFFF" d="M24.682,12.449c0.001,0,0.082-0.063,0.233-0.111c0.076-0.023,0.172-0.043,0.277-0.048
			c0.028-0.001,0.055-0.001,0.084,0c0.027,0,0.058,0.002,0.087,0.005c0.058,0.007,0.119,0.018,0.18,0.036
			c0.244,0.069,0.495,0.239,0.642,0.59c0.073,0.177,0.121,0.397,0.135,0.674c0.003,0.069,0.004,0.141,0.002,0.218
			c0,0.076-0.005,0.155-0.011,0.239c-0.013,0.167-0.036,0.35-0.07,0.548c0,0,0.032,0.602-0.184,1.29
			c-0.203,0.676-0.689,1.504-1.589,1.74C24.571,15.917,24.574,14.172,24.682,12.449"/>
		<path fill="#3B434F" d="M24.579,12.52c0,0,1.566-0.483,1.512,1.118c0,0-0.232,2.325-0.336,2.538c0,0-0.613,1.354-1.63,1.413
			c-0.992,0.06,0,0,0,0l-0.012,0.438c0,0,1.786-0.228,2.129-2.274l0.273-1.859c0,0,0.211-2.462-1.839-1.835c-1.997,0.608,0,0,0,0
			L24.579,12.52"/>
		<path fill="#3B434F" d="M25.097,15.748c0,0,0.088,0.066,0.163,0.066c0.074,0,0.161-0.066,0.161-0.066l0.163-1.622
			c0,0-0.226-0.798-1.171-0.376l-0.022,0.464c0,0,0.83-0.293,0.814,0.072C25.188,14.637,25.097,15.748,25.097,15.748"/>
		<path fill="#3B434F" d="M17.729,15.618h0.115c0.239,0.324,0.336,0.822,0.462,1.253c0.039,0.134,0.001,0.367-0.032,0.462
			c-0.126,0.347-0.519,0.34-0.841,0.495c-0.088,0.042-0.152,0.113-0.265,0.132c-0.072-0.064-0.161-0.078-0.197-0.182
			c-0.089-0.123,0.025-0.199,0.115-0.247c0.163-0.087,0.666-0.174,0.726-0.329c0.074-0.086,0.025-0.341,0-0.431
			c-0.063-0.229-0.094-0.419-0.181-0.626c-0.058-0.137-0.159-0.281-0.1-0.445C17.581,15.68,17.688,15.654,17.729,15.618"/>
		<path fill="#3B434F" d="M12.929,13.288h1.188c0.164,0,0.297,0.16,0.297,0.356c0,0.197-0.133,0.357-0.297,0.357h-1.188
			c-0.164,0-0.296-0.16-0.296-0.357C12.633,13.448,12.765,13.288,12.929,13.288"/>
		<path fill="#3B434F" d="M20.188,13.209h1.188c0.163,0,0.297,0.159,0.297,0.357c0,0.196-0.134,0.354-0.297,0.354h-1.188
			c-0.165,0-0.298-0.158-0.298-0.354C19.89,13.368,20.022,13.209,20.188,13.209"/>
		<path fill="#EDF1F1" d="M21.11,15.255c0.455,0,0.825,0.369,0.825,0.825c0,0.454-0.37,0.824-0.825,0.824
			c-0.454,0-0.823-0.37-0.823-0.824C20.287,15.624,20.656,15.255,21.11,15.255"/>
		<path fill="#EDF1F1" d="M13.127,15.255c0.456,0,0.825,0.369,0.825,0.825c0,0.454-0.369,0.824-0.825,0.824s-0.825-0.37-0.825-0.824
			C12.302,15.624,12.671,15.255,13.127,15.255"/>
		<path fill="#3B434F" d="M23.717,12.219v2.442c0,0.597-0.582,1.528-1.53,1.579c-0.139-0.005-2.957,0.005-2.957,0.005
			c-1.265,0-1.516-1.518-1.516-1.518v-1.65h-1.188v1.65c0,0-0.25,1.518-1.518,1.518c0,0-2.816-0.01-2.956-0.005
			c-0.949-0.051-1.53-0.982-1.53-1.579v-2.442H9.465V11.56h6.137c0,0,0.923,0.149,0.923,0.792h1.188
			c0-0.643,0.923-0.792,0.923-0.792h6.136v0.659H23.717z M15.866,12.55c0-0.235-0.264-0.265-0.264-0.265h-4.421v2.31
			c0,0.721,0.99,0.99,0.99,0.99h2.706c0.931,0,0.99-0.99,0.99-0.99V12.55z M23.058,12.285h-4.421c0,0-0.265,0.029-0.265,0.265v2.045
			c0,0,0.06,0.99,0.991,0.99h2.704c0,0,0.99-0.27,0.99-0.99V12.285z M22.134,16.245c0.018-0.001,0.035-0.002,0.053-0.005
			C22.201,16.241,22.187,16.243,22.134,16.245 M12.051,16.24c0.017,0.003,0.035,0.004,0.053,0.005
			C12.051,16.243,12.036,16.241,12.051,16.24"/>
		<path fill="#C1BFBD" d="M9.942,12.142c0,0-0.295-3.143,1.635-4.806c0,0,4.588,4.511,10.82,0c0,0,2.24,2.24,2.046,4.687
			c0,0,3.777-4.332,0.858-5.147c0,0-0.72,0.209-0.99-0.857c-0.27-1.067-0.772-4.515-7.587-4.619
			c-6.814-0.104-6.334,4.091-6.334,4.091C10.411,5.503,6.604,7.354,9.942,12.142"/>
		<path fill="#3B434F" d="M24.477,12.384c-0.08-2.713-2.08-4.749-2.08-4.749c-6.231,4.316-10.787,0-10.787,0
			C10.15,8.751,9.96,12.352,9.96,12.352c-3.765-4.805,0.219-6.915,0.198-6.928c0,0-0.381-4.373,6.434-4.256
			c7.097,0.122,7.615,3.539,7.917,4.751c0.241,0.966,1.088,0.791,1.088,0.791C28.629,7.888,24.477,12.384,24.477,12.384
			 M25.201,7.073c0,0-0.807,0.211-1.121-1.056c-0.265-1.068-0.542-4.284-7.357-4.388c-6.814-0.105-6.137,4.024-6.137,4.024
			c0.022,0.014-3.424,1.65-0.89,5.708c0,0-0.083-2.66,1.847-4.322c0,0,4.44,4.689,10.92,0.033c0,0,2.053,1.955,2.21,4.354
			C24.674,11.428,27.702,7.621,25.201,7.073"/>
	</g>
	<g>
		<path fill="#D81620" d="M22.37,30.94C22.363,30.938,22.368,30.929,22.37,30.94L22.37,30.94z"/>
		<path fill="#D81620" d="M21.489,29.387c0,0,0.001,0.003,0,0.005c-0.006,0-0.011-0.001-0.018,0.001L21.489,29.387z"/>
		<path fill="#D81620" d="M21.465,29.428c0.027,0.008,0.025-0.025,0.024-0.036c0.042,0.001,0.057,0.017,0.057,0.047
			C21.515,29.461,21.495,29.421,21.465,29.428z"/>
		<path fill="#D81620" d="M19.827,26.616l-0.006,0.015C19.822,26.626,19.823,26.621,19.827,26.616z"/>
		<path fill="#D81620" d="M26.436,32.756c0.001-0.005-0.001-0.01-0.001-0.016C26.441,32.745,26.439,32.751,26.436,32.756z"/>
		<path fill="#D81620" d="M20.119,27.031l-0.036,0.034C20.096,27.049,20.107,27.038,20.119,27.031z"/>
		<g>
			<path fill="#D81620" d="M21.769,31.139c0,0.003,0,0.004-0.002,0.005c0.013,0.021,0.025,0.038,0.035,0.053L21.769,31.139z"/>
			<path fill="#D81620" d="M21.022,31.609c-0.003-0.001-0.006-0.001-0.008-0.002C21.024,31.617,21.034,31.629,21.022,31.609z"/>
			<path fill="#D81620" d="M26.448,26.005c0,0,0,0.003-0.001,0.005c0.005,0.001,0.01,0.001,0.016,0.003L26.448,26.005z"/>
			<path fill="#D81620" d="M26.447,26.01c-0.035-0.006-0.052,0.006-0.057,0.033c0.025,0.023,0.048-0.009,0.073,0.002
				C26.438,26.048,26.444,26.019,26.447,26.01z"/>
			<path fill="#D81620" d="M20.399,32.111c-0.012-0.014-0.022-0.022-0.033-0.028h-0.002L20.399,32.111z"/>
			<path fill="#D81620" d="M16.809,34.125l-0.005-0.031c-0.005,0.007-0.007,0.015-0.006,0.021L16.809,34.125z"/>
			<path fill="#D81620" d="M19.407,32.654c0.003,0.005,0.005,0.011,0.01,0.016c0.026,0.001,0.066-0.028,0.112-0.071l-0.043-0.051
				L19.407,32.654z"/>
			<path fill="#D81620" d="M28.243,23.288l-0.358-0.225c0,0-0.117-0.013-0.231-0.025c-0.119-0.016-0.237-0.033-0.237-0.033
				s-0.138,0.137-0.278,0.273c-0.135,0.142-0.271,0.28-0.271,0.28l-0.592,0.289c0,0-0.282,0.254-0.56,0.513
				c-0.273,0.262-0.548,0.522-0.548,0.522l0.012,0.165c-0.387,0.033-0.479,0.481-0.836,0.579l0.081,0.089
				c-0.063,0.066-0.11,0.009-0.142,0.009c-0.542,0.528-1.012,1.149-1.578,1.569c-0.335-0.334-0.581-0.799-0.886-1.207
				c-0.021-0.003-0.058,0.029-0.093-0.021l0.062-0.05c-0.223-0.1-0.237-0.402-0.486-0.465l0.024-0.107c0,0-0.151-0.199-0.306-0.398
				c-0.153-0.198-0.313-0.394-0.313-0.394l-0.356-0.25c0,0-0.075-0.105-0.149-0.212c-0.076-0.104-0.153-0.209-0.153-0.209
				s-0.079-0.001-0.158-0.002c-0.076-0.004-0.155-0.007-0.155-0.007l-0.258,0.109c0,0-0.019,0.082-0.039,0.163
				c-0.022,0.085-0.045,0.171-0.045,0.171c0.002-0.008,0.007-0.013,0.007-0.013c0.103,0.06,0.065,0.202,0.172,0.251l-0.007,0.006
				c0.077-0.054,0.044,0.201,0.127,0.176c0.075,0.042,0.03,0.143,0.048,0.197c-0.015-0.016,0.084-0.029,0.077,0.043
				c0.006,0.017-0.055,0.133,0.006,0.147c0.062,0.015,0.078,0.102,0.117,0.152l-0.03,0.008c0.169,0.188,0.251,0.479,0.442,0.608
				c0.058-0.101-0.059,0.121,0.01,0.009l0.058,0.062c-0.005,0.007-0.01,0.011-0.015,0.014c0.002,0.06-0.09,0.188,0.04,0.163
				c0.081-0.054,0.013,0.089,0.067,0.011c-0.007,0.291,0.27,0.226,0.258,0.538l0.005-0.021l0.043,0.038l-0.079,0.035
				c0.073-0.013,0.033,0.136,0.097,0.084l0.001-0.012c0.062-0.051,0.068,0.02,0.108,0.029c-0.034,0.021-0.048,0.022-0.054,0.019
				c0.002,0.008,0.002,0.023-0.006,0.061c0.139,0.028,0.104,0.194,0.229,0.195l-0.033,0.064c0.139,0.037,0.051,0.294,0.243,0.282
				c0.068,0.163,0.097,0.278,0.156,0.446c0.061,0.062,0.107,0.191,0.231,0.16c0.019,0.01,0.027,0.022,0.038,0.034
				c-0.005,0.005-0.01,0.011-0.016,0.015l-0.003-0.016l-0.064,0.099c-0.011-0.004-0.022-0.016-0.026-0.024
				c-0.014,0.172-0.238,0.237-0.384,0.316l-0.004-0.016c-0.677,0.639-1.129,1.419-1.893,1.956c-0.43,0.167-0.598,0.717-1.044,0.958
				c-0.137-0.018-0.759,0.769-0.788,0.864l0.163,0.01c-0.219,0.307-0.417,0.339-0.573,0.635l-0.006-0.03
				c-0.044,0.014,0.092,0.223-0.45,0.342l-0.007-0.008c-0.011,0.014,0.003,0.029-0.038,0.03l0.101-0.008
				c-0.018,0.057-0.018,0.129-0.062,0.181c-0.019,0-0.036-0.013-0.046-0.024c0,0-0.027,0.032-0.054,0.065
				c-0.026,0.031-0.052,0.061-0.052,0.061l-0.076-0.019c-0.013,0.062,0.083,0.159-0.056,0.185c0.089,0.048-0.012,0.084,0.026,0.113
				c-0.012-0.007-0.032-0.012-0.049-0.017c-0.02,0.023-0.067,0.078-0.079,0.102c-0.016,0.027-0.029,0.063-0.03,0.092
				c0,0,0.014,0.003,0.037,0.008c0.025,0.004,0.056,0.016,0.104,0.019c0.098-0.002,0.22,0.003,0.284,0.016
				c-0.107,0.048-0.017,0.028,0.02,0.04l-0.007-0.023c0.067-0.026,0.104,0.022,0.143,0.015c-0.003-0.004-0.007-0.009-0.012-0.014
				l0.002,0.011c-0.01-0.007-0.013-0.013-0.014-0.021c-0.007-0.011-0.011-0.021,0.006-0.03l0,0.009
				c0.018-0.024,0.064-0.05,0.083-0.059l0.034,0.039c-0.021-0.108,0.373-0.104,0.434-0.144c0.102,0.009,0.114-0.114,0.206-0.145
				c0.122-0.075,0.109,0.019,0.197,0.012c0.095-0.029-0.058-0.04-0.032-0.065l0.136-0.007c-0.044,0.045,0.005,0.048,0.029,0.059
				c0.078-0.052,0.266-0.061,0.209-0.169c0.136-0.036,0.168,0,0.214-0.028c-0.028-0.006-0.069,0.002-0.087-0.017
				c0.075,0.01,0.012-0.024-0.013-0.021c0.021-0.089,0.458-0.086,0.379-0.196l0.017,0.019c-0.055-0.089-0.143-0.144-0.141-0.22
				l0.059,0.011l0.01-0.066c0.05,0.001,0.056,0.032,0.063,0.043c0.034-0.094,0.165-0.131,0.255-0.188l-0.278-0.14
				c0.11-0.011,0.324-0.016,0.272-0.096l0.108,0.036c0.262,0.021,0.037-0.142,0.129-0.146l0.142,0.02l-0.069,0.058
				c0.105-0.02,0.156-0.017,0.259-0.01l-0.001-0.003c-0.007-0.001-0.013-0.003-0.018-0.007l0.008-0.009
				c-0.03-0.048-0.021-0.106,0.029-0.145c0.078-0.047,0.074-0.154,0.262-0.162l-0.052-0.107l0.127-0.021l0.062,0.066
				c-0.083,0.066-0.206,0.223-0.307,0.313l0.027,0.031c0.06-0.052,0.102-0.142,0.147-0.169c0.031-0.004,0.147,0.023,0.153,0.1
				l-0.025-0.098c0.195-0.184,0.193-0.189,0.475-0.294l-0.049-0.02c0.021-0.058,0.045-0.112,0.108-0.066
				c0.138-0.1,0.308-0.172,0.473-0.154l-0.06-0.099c0.03-0.02,0.189,0.071,0.092-0.056l0.021-0.087
				c0.043-0.026,0.02-0.093,0.105-0.084h0.001c0.005,0.002,0.01,0.003,0.017,0.004L21.007,31.6c0.116-0.035-0.071-0.072,0.067-0.108
				c0.086,0.032-0.068-0.136-0.005-0.158l0.16,0.08c0.147-0.006,0.047-0.14,0.162-0.248c0.099-0.009,0.227,0.07,0.276,0.196
				c-0.055-0.158-0.047-0.095-0.029-0.21c0.055,0.036,0.057,0.052,0.081,0.105c0.112-0.001-0.002-0.074,0.047-0.113
				c-0.07-0.099-0.187-0.25-0.177-0.27l-0.044-0.011c0.003-0.091,0.035-0.161,0.134-0.169l0.039,0.044l0.038-0.076l0.056,0.051
				l0.07-0.097l-0.026-0.003c0.012-0.027,0.059-0.107,0.124-0.113l0.028,0.033c0.199-0.002,0.162-0.212,0.275-0.338l0.046,0.078
				c0.104,0.024-0.083-0.108-0.003-0.125l0.077,0.076c-0.057-0.144,0.078-0.03,0.147-0.021l-0.115-0.089l0.079-0.033
				c0.096-0.026,0.163,0.094,0.207,0.156l-0.036-0.122l0.097,0.083c-0.072-0.136,0.048-0.014,0.047-0.121
				c0.038,0.029,0.043,0.062,0.076,0.06l-0.035-0.215l0.002,0.11l-0.123-0.141c-0.043-0.155,0.09-0.059,0.094-0.134l0.012,0.066
				c0.033-0.096,0.092-0.042,0.157-0.049c-0.036-0.013-0.089-0.034-0.08-0.077c0.013-0.025,0.057,0.038,0.089,0.034
				c-0.046-0.052-0.062-0.103-0.057-0.137l0.013,0.038l0.031-0.026c0.062,0.016,0.076,0.066,0.068,0.126l-0.029,0.002
				c0.005,0.014-0.087,0.101-0.144,0.159c0.027,0.03-0.055,0.065,0.018,0.078c0.022-0.033,0.026-0.043,0.064-0.06
				c-0.001,0.077,0.012,0.035-0.04,0.133c0.046-0.077,0.138-0.116,0.2-0.1c0.065,0.083-0.015,0.16,0.082,0.179l0.112-0.035
				c0.04,0.021-0.079,0.115-0.021,0.103c0.089,0.038-0.039,0.043,0.034,0.079l-0.006,0.003c0.004,0,0.008,0.001,0.012,0
				c0.058,0.002,0.035,0.044,0.06,0.065l0.005,0.06c-0.076,0.072,0.036,0.03,0.055,0.046l-0.05,0.058
				c0.111,0.006,0.214,0.07,0.294,0.15c0.046-0.024,0.056,0.016,0.064,0.055l-0.035,0.007c0.174,0.098,0.172,0.103,0.28,0.243
				l-0.025,0.062c0.011-0.051,0.09-0.056,0.11-0.05c0.027,0.022,0.044,0.086,0.079,0.126l0.021-0.018
				c-0.056-0.07-0.121-0.187-0.168-0.236l0.048-0.038l0.081,0.027l-0.046,0.064c0.123,0.024,0.108,0.095,0.156,0.133
				c0.027,0.031,0.028,0.069,0.004,0.098l0.003,0.008c-0.003,0.002-0.007,0.002-0.011,0.001l-0.002,0.003
				c0.067,0.007,0.101,0.011,0.168,0.033l-0.039-0.045l0.096,0.001c0.059,0.014-0.105,0.098,0.069,0.111l0.073-0.015
				c-0.042,0.049,0.098,0.073,0.169,0.092l-0.197,0.062c0.054,0.046,0.135,0.085,0.147,0.148c0.007-0.005,0.014-0.025,0.047-0.02
				v0.044l0.039-0.001c-0.007,0.05-0.07,0.077-0.115,0.13l0.013-0.012c-0.062,0.064,0.223,0.107,0.228,0.169
				c-0.016-0.007-0.062,0.01-0.011,0.012c-0.013,0.01-0.039,0.001-0.058,0.001c0.026,0.023,0.052,0.004,0.137,0.041
				c-0.047,0.064,0.073,0.091,0.119,0.132c0.017-0.003,0.05-0.002,0.025-0.034l0.088,0.018c0.015,0.02-0.086,0.012-0.027,0.039
				c0.058,0.014,0.059-0.048,0.13,0.014c0.058,0.029,0.054,0.111,0.119,0.115c0.037,0.034,0.296,0.07,0.271,0.139l0.026-0.022
				c0.011,0.01,0.039,0.029,0.048,0.048l0.001-0.004c0.012,0.007,0.007,0.013,0.001,0.018c-0.001,0.006-0.003,0.011-0.01,0.013
				l0.001-0.006c-0.003,0.003-0.007,0.005-0.009,0.008c0.023,0.009,0.054-0.019,0.096,0.004l-0.007,0.016
				c0.024-0.004,0.081,0.018,0.016-0.024c0.044-0.002,0.125,0.007,0.188,0.02c0.032,0.003,0.054-0.002,0.07-0.001
				c0.016-0.002,0.024-0.002,0.024-0.002c0.003-0.02-0.002-0.044-0.009-0.062c-0.006-0.018-0.031-0.058-0.042-0.075
				c-0.012,0.001-0.025,0.003-0.033,0.006c0.027-0.016-0.034-0.05,0.027-0.072c-0.087-0.03-0.014-0.085-0.016-0.127l-0.052,0.006
				c0,0-0.015-0.022-0.028-0.047c-0.014-0.023-0.029-0.047-0.029-0.047c-0.008,0.006-0.02,0.014-0.031,0.011
				c-0.024-0.039-0.017-0.086-0.022-0.125l0.065,0.018c-0.027-0.007-0.018-0.016-0.023-0.025l-0.004,0.005
				c-0.343-0.135-0.231-0.257-0.26-0.271l-0.005,0.021c-0.072-0.211-0.199-0.252-0.311-0.475l0.106,0.01
				c-0.009-0.065-0.334-0.645-0.426-0.647c-0.267-0.204-0.319-0.582-0.584-0.736c-0.266-0.256-0.448-0.557-0.634-0.861
				c0.016-0.009,0.023-0.021,0.043-0.028c0.177,0.078,0.276-0.104,0.382-0.184c0.128-0.235,0.197-0.4,0.339-0.628
				c0.283,0.063,0.213-0.343,0.429-0.364l-0.036-0.103c0.186,0.028,0.173-0.229,0.386-0.237c-0.002-0.058,0.003-0.082,0.006-0.091
				c-0.008,0.003-0.027-0.002-0.073-0.043c0.062-0.003,0.087-0.106,0.167-0.017v0.018c0.08,0.09,0.055-0.139,0.162-0.103
				l-0.108-0.07l0.073-0.047l0.001,0.034c0.057-0.47,0.453-0.309,0.512-0.741c0.062,0.128-0.004-0.102,0.103,0
				c0.188,0.064,0.083-0.149,0.097-0.235c-0.006-0.006-0.011-0.013-0.015-0.023l0.097-0.08c0.078,0.185-0.045-0.172,0.018-0.014
				c0.316-0.145,0.508-0.559,0.802-0.8l-0.041-0.018c0.068-0.068,0.113-0.193,0.209-0.201c0.094-0.007,0.031-0.192,0.045-0.219
				c0.006-0.108,0.152-0.065,0.124-0.045c0.041-0.078-0.004-0.237,0.118-0.283c0.116,0.058,0.128-0.329,0.229-0.233l-0.007-0.009
				c0.167-0.047,0.147-0.27,0.314-0.334c0,0,0.005,0.01,0.008,0.02c0,0-0.014-0.132-0.028-0.263
				C28.254,23.414,28.243,23.288,28.243,23.288z"/>
			<path fill="#D81620" d="M16.608,33.483l0.001-0.003C16.587,33.453,16.591,33.466,16.608,33.483z"/>
			<polygon fill="#D81620" points="18.861,32.948 18.855,32.951 18.918,32.981 			"/>
			<path fill="#D81620" d="M17.891,33.784c-0.018,0.013-0.032,0.026-0.034,0.044C17.912,33.801,17.908,33.791,17.891,33.784z"/>
			<path fill="#D81620" d="M16.326,33.839c-0.022,0.016-0.003,0.025,0.021,0.033c0.019-0.021,0.031-0.035,0.031-0.035
				C16.362,33.84,16.341,33.835,16.326,33.839z"/>
		</g>
	</g>
	
		<line fill="none" stroke="#3B434F" stroke-width="0.5" stroke-linecap="round" stroke-miterlimit="10" x1="14.739" y1="20.766" x2="19.815" y2="20.766"/>
</g>
<g id="Layer_2" display="none">
</g>
</svg>
