<?xml version="1.0" encoding="utf-8"?>
<!-- Generator: Adobe Illustrator 16.0.0, SVG Export Plug-In . SVG Version: 6.00 Build 0)  -->
<!DOCTYPE svg PUBLIC "-//W3C//DTD SVG 1.1//EN" "http://www.w3.org/Graphics/SVG/1.1/DTD/svg11.dtd">
<svg version="1.1" xmlns="http://www.w3.org/2000/svg" xmlns:xlink="http://www.w3.org/1999/xlink" x="0px" y="0px" width="35px"
	 height="35px" viewBox="0 0 35 35" enable-background="new 0 0 35 35" xml:space="preserve">
<g id="Layer_1">
	<path fill="#FFFFFF" d="M6.268,33.467c0,0-0.791-6.989,6.029-7.769h2.918v-1.355c0,0,2.053,0.889,4.132,0.1l0.066,1.256h3.409
		c0,0,5.94,0.596,5.58,7.769H6.268z"/>
	<path fill="#3B434F" d="M28.346,33.591L28.346,33.591H6.479H6.055l0.105-1.823c0.207-3.555,2.989-6.269,6.173-6.269h2.422v0.365
		h-2.229c-3.069,0-5.75,2.61-5.949,6.033l-0.073,1.264h21.784l-0.041-1.264c-0.199-3.423-2.88-6.033-5.947-6.033h-2.985v-0.365
		h3.158c3.184,0,5.965,2.714,6.171,6.269l0.106,1.823H28.346z"/>
	<path fill="#3B434F" d="M15.543,24.19v2.037c0,1.059,0.852,1.915,1.902,1.915c1.05,0,1.901-0.856,1.901-1.915v-1.993
		c0.11-0.034,0.22-0.071,0.328-0.111v2.12c0,1.247-1.007,2.263-2.248,2.263c-1.239,0-2.244-1.016-2.244-2.263v-2.183
		C15.301,24.106,15.421,24.152,15.543,24.19"/>
	<path fill="#3B434F" d="M15.166,28.108c0.118,0,0.214,0.097,0.214,0.216v3.235c0,0.118-0.096,0.214-0.214,0.214
		c-0.118,0-0.212-0.096-0.212-0.214v-3.235C14.953,28.205,15.048,28.108,15.166,28.108"/>
	<path fill="#3B434F" d="M19.642,28.075c0.127,0,0.229,0.105,0.229,0.231v2.015c0,0.128-0.103,0.232-0.229,0.232
		s-0.229-0.104-0.229-0.232v-2.015C19.413,28.181,19.515,28.075,19.642,28.075"/>
	<path fill="#3B434F" d="M15.166,31.544c0.063,0,0.116,0.05,0.116,0.114v0.826c0,0.064-0.053,0.114-0.116,0.114
		c-0.062,0-0.114-0.05-0.114-0.114v-0.826C15.051,31.594,15.103,31.544,15.166,31.544"/>
	<path fill="#3B434F" d="M19.658,30.321c0.064,0,0.115,0.051,0.115,0.114v0.827c0,0.063-0.051,0.115-0.115,0.115
		c-0.062,0-0.114-0.052-0.114-0.115v-0.827C19.544,30.372,19.596,30.321,19.658,30.321"/>
	<path fill="#F5F3EF" d="M13.936,23.378l-2.077,0.479c0,0-2.543,0.581-0.852,2.309c1.692,1.726,6.044,2.03,6.044,2.03
		s-1.151-0.547-1.64-1.321l-0.164-2.774L13.936,23.378z"/>
	<path fill="#3B434F" d="M17.117,28.36c-0.128,0.164-3.752,0.054-6.263-2.146c-1.817-1.59,0.918-2.509,0.918-2.509l2-0.463
		l1.737,0.893l0.132,2.674C16.373,27.965,17.325,28.097,17.117,28.36 M15.313,26.942l-0.197-2.808l-1.049-0.594l-2,0.494
		c0,0-2.423,0.501-0.885,1.949c1.659,1.562,4.728,1.982,5.05,1.947C16.564,27.897,16.045,28.097,15.313,26.942"/>
	<path fill="#F5F3EF" d="M20.952,23.456l2.078,0.482c0,0,2.545,0.58,0.852,2.313c-1.692,1.729-6.047,2.037-6.047,2.037
		s1.151-0.55,1.64-1.324l0.165-2.782L20.952,23.456z"/>
	<path fill="#3B434F" d="M17.769,28.421c0.128,0.165,3.754,0.052,6.267-2.153c1.818-1.596-0.919-2.517-0.919-2.517l-2.002-0.463
		l-1.739,0.895l-0.131,2.682C18.514,28.023,17.561,28.155,17.769,28.421 M19.573,26.998l0.197-2.815l1.05-0.598l2.001,0.496
		c0,0,2.424,0.503,0.887,1.955c-1.661,1.567-4.731,1.987-5.053,1.953C18.32,27.955,18.842,28.155,19.573,26.998"/>
	<path fill="#FFFFFF" d="M17.582,3.474c4.08,0,7.3,3.838,7.195,8.451l-0.111,4.903c-0.1,4.345-3.27,7.781-7.084,7.781
		c-3.814,0-6.984-3.436-7.083-7.781l-0.111-4.903C10.283,7.312,13.503,3.474,17.582,3.474"/>
	<path fill="#3B434F" d="M25.104,11.773l-0.116,5.102c-0.104,4.524-3.426,8.097-7.421,8.097c-3.998,0-7.319-3.573-7.423-8.097
		l-0.117-5.102c-0.109-4.799,3.264-8.795,7.54-8.795C21.841,2.978,25.214,6.974,25.104,11.773 M17.549,3.506
		c-4.023,0-7.199,3.809-7.095,8.386l0.11,4.864c0.097,4.312,3.224,7.721,6.985,7.721c3.763,0,6.888-3.409,6.986-7.721l0.111-4.864
		C24.749,7.315,21.573,3.506,17.549,3.506"/>
	<g opacity="0.0588" enable-background="new    ">
		<g>
			<defs>
				<rect id="SVGID_1_" x="10.013" y="12.621" width="14.888" height="12.416"/>
			</defs>
			<clipPath id="SVGID_2_">
				<use xlink:href="#SVGID_1_"  overflow="visible"/>
			</clipPath>
			<path clip-path="url(#SVGID_2_)" fill="#3B434F" d="M24.9,12.621l-0.329,5.415c0,0-1.455,6.252-7.082,6.993v0.008
				c-0.011-0.002-0.021-0.002-0.033-0.004c-0.011,0.002-0.022,0.002-0.033,0.004v-0.008c-5.626-0.741-7.083-6.993-7.083-6.993
				l-0.328-5.415c1.46,6.526,2.689,6.935,2.689,6.935c-0.249-1.98,1.771-1.784,1.771-1.784c1.231,0.21,2.21,0.31,2.984,0.348
				c0.772-0.038,1.754-0.138,2.983-0.348c0,0,2.021-0.197,1.772,1.784C22.212,19.556,23.44,19.147,24.9,12.621 M21.253,20.227
				c-0.095-1.163-0.791-1.064-0.791-1.064c-1.24,0.367-2.213,0.569-2.973,0.675v-0.01c-0.755-0.101-1.721-0.304-2.951-0.669
				c0,0-0.692-0.097-0.788,1.058c0,0-0.278,1.157,0.656,1.65l1.181,1.256c0,0,0.806,0.258,0.787-0.727c0,0-0.082-0.733,0.394-0.857
				h0.721v0.021h0.727c0.479,0.126,0.396,0.866,0.396,0.866c-0.02,0.991,0.794,0.731,0.794,0.731l1.188-1.265
				C21.534,21.395,21.253,20.227,21.253,20.227"/>
		</g>
	</g>
	<rect x="16.517" y="21.604" fill="#3B434F" width="2.099" height="0.329"/>
	<path fill="#FFFFFF" d="M10.019,12.517c0,0-0.08-0.064-0.23-0.111c-0.075-0.023-0.169-0.044-0.275-0.048
		c-0.027-0.001-0.054-0.002-0.082-0.001s-0.057,0.003-0.085,0.005c-0.059,0.007-0.119,0.019-0.179,0.036
		c-0.242,0.07-0.489,0.241-0.634,0.592c-0.073,0.176-0.121,0.397-0.134,0.674c-0.003,0.069-0.004,0.142-0.003,0.218
		c0.001,0.076,0.006,0.157,0.012,0.24c0.012,0.168,0.035,0.35,0.069,0.549c-0.001,0-0.032,0.602,0.182,1.293
		c0.2,0.675,0.683,1.505,1.573,1.744C10.129,15.99,10.126,14.241,10.019,12.517"/>
	<path fill="#3B434F" d="M10.121,12.586c0,0-1.55-0.484-1.497,1.122c0,0,0.231,2.328,0.332,2.542c0,0,0.609,1.355,1.613,1.415
		c0.982,0.06,0,0,0,0l0.013,0.438c0,0-1.767-0.229-2.107-2.278l-0.27-1.862c0,0-0.209-2.465,1.819-1.838c1.976,0.611,0,0,0,0
		L10.121,12.586"/>
	<path fill="#3B434F" d="M9.609,15.82c0,0-0.087,0.066-0.162,0.066s-0.16-0.066-0.16-0.066l-0.161-1.624
		c0,0,0.221-0.799,1.158-0.376l0.022,0.464c0,0-0.822-0.293-0.805,0.072C9.519,14.708,9.609,15.82,9.609,15.82"/>
	<path fill="#FFFFFF" d="M25.084,12.521c0.001,0,0.08-0.063,0.23-0.111c0.077-0.024,0.171-0.043,0.276-0.048
		c0.028-0.001,0.055-0.001,0.082,0c0.029,0,0.058,0.002,0.087,0.005c0.058,0.006,0.119,0.018,0.179,0.035
		c0.244,0.07,0.491,0.24,0.638,0.592c0.073,0.176,0.122,0.397,0.135,0.673c0.003,0.069,0.003,0.142,0.002,0.218
		c0,0.076-0.005,0.157-0.011,0.24c-0.014,0.167-0.035,0.349-0.068,0.548c0,0,0.03,0.601-0.185,1.292
		c-0.201,0.675-0.686,1.505-1.579,1.742C24.972,15.992,24.976,14.244,25.084,12.521"/>
	<path fill="#3B434F" d="M24.981,12.59c0,0,1.558-0.484,1.502,1.121c0,0-0.232,2.326-0.331,2.541c0,0-0.612,1.354-1.622,1.414
		c-0.987,0.06,0,0,0,0l-0.013,0.438c0,0,1.774-0.229,2.118-2.277l0.27-1.861c0,0,0.21-2.463-1.826-1.836c-1.985,0.61,0,0,0,0
		L24.981,12.59"/>
	<path fill="#3B434F" d="M25.496,15.822c0,0,0.086,0.066,0.161,0.066s0.16-0.066,0.16-0.066l0.162-1.622
		c0,0-0.222-0.799-1.163-0.377l-0.021,0.464c0,0,0.825-0.293,0.807,0.071C25.586,14.71,25.496,15.822,25.496,15.822"/>
	<path fill="#3B434F" d="M18.173,15.692h0.114c0.237,0.325,0.334,0.824,0.46,1.255c0.038,0.134,0.002,0.368-0.034,0.462
		c-0.124,0.346-0.514,0.34-0.835,0.495c-0.086,0.042-0.15,0.115-0.262,0.132c-0.072-0.065-0.161-0.077-0.197-0.182
		c-0.089-0.123,0.026-0.199,0.114-0.247c0.162-0.088,0.662-0.174,0.723-0.331c0.073-0.085,0.023-0.34,0-0.429
		c-0.063-0.229-0.094-0.42-0.181-0.627c-0.058-0.137-0.158-0.283-0.099-0.446C18.025,15.753,18.133,15.729,18.173,15.692"/>
	<path fill="#3B434F" d="M13.402,13.36h1.18c0.164,0,0.295,0.16,0.295,0.356s-0.132,0.357-0.295,0.357h-1.18
		c-0.163,0-0.295-0.16-0.295-0.357S13.239,13.36,13.402,13.36"/>
	<path fill="#3B434F" d="M20.616,13.281h1.18c0.163,0,0.295,0.16,0.295,0.357c0,0.197-0.132,0.357-0.295,0.357h-1.18
		c-0.165,0-0.296-0.16-0.296-0.357C20.32,13.441,20.451,13.281,20.616,13.281"/>
	<g opacity="0.1216" enable-background="new    ">
		<g>
			<defs>
				<rect id="SVGID_3_" x="12.779" y="15.329" width="2.295" height="1.519"/>
			</defs>
			<clipPath id="SVGID_4_">
				<use xlink:href="#SVGID_3_"  overflow="visible"/>
			</clipPath>
			<path clip-path="url(#SVGID_4_)" d="M13.926,15.329c0.633,0,1.147,0.036,1.147,0.759c0,0.746-0.514,0.76-1.147,0.76
				c-0.634,0-1.147-0.136-1.147-0.76C12.779,15.36,13.292,15.329,13.926,15.329"/>
		</g>
	</g>
	<g opacity="0.1216" enable-background="new    ">
		<g>
			<defs>
				<rect id="SVGID_5_" x="20.386" y="15.329" width="2.296" height="1.519"/>
			</defs>
			<clipPath id="SVGID_6_">
				<use xlink:href="#SVGID_5_"  overflow="visible"/>
			</clipPath>
			<path clip-path="url(#SVGID_6_)" d="M21.535,15.329c0.632,0,1.146,0.036,1.146,0.759c0,0.746-0.515,0.76-1.146,0.76
				c-0.636,0-1.149-0.136-1.149-0.76C20.386,15.36,20.899,15.329,21.535,15.329"/>
		</g>
	</g>
	<path fill="#3B444F" d="M24.709,12.174c-0.045,0.381-0.083,0.848-0.165,1.266c-0.246,1.249-1.312,2.404-3.13,2.536
		c-1.817,0.132-3.366-0.79-3.456-2.059c-0.016-0.215-0.057-0.457-0.09-0.691c-0.256-0.144-0.521-0.144-0.795,0
		c-0.033,0.24-0.075,0.488-0.09,0.708c-0.092,1.273-1.644,2.198-3.469,2.065c-1.824-0.132-2.893-1.292-3.139-2.544
		c-0.082-0.418-0.122-0.888-0.166-1.27l-0.269-0.02l0.038-0.526l0.065,0.005l1.659,0.12l1.401,0.102l1.403,0.102l2.186,0.158
		c0.151,0.019,0.25,0.084,0.315,0.182c0.313,0.138,0.618,0.139,0.914,0.001c0.064-0.103,0.166-0.173,0.322-0.193l2.178-0.158
		l1.399-0.101l1.396-0.101l1.652-0.12l0.067-0.004l0.036,0.525L24.709,12.174z M16.107,12.743l-4.283-0.311
		c-0.561-0.048-0.759,0.586-0.794,1.069c-0.073,1.019,1.055,1.931,2.518,2.037c1.463,0.105,2.708-0.634,2.781-1.653
		C16.363,13.403,16.521,13.104,16.107,12.743 M23.893,13.487c-0.036-0.481-0.233-1.114-0.793-1.065l-4.27,0.309
		c-0.412,0.36-0.255,0.657-0.22,1.138c0.072,1.016,1.313,1.753,2.771,1.647C22.841,15.411,23.964,14.502,23.893,13.487"/>
	<path fill="#9EA0A4" d="M10.245,12.225c0,0,0.253-3.978,2.691-5.746c0,0,3.52,2.411,9.056,0c0,0,2.449,1.123,2.822,5.746h0.132
		c0,0,0.7-5.294-1.116-7.397c0,0-0.447-1.61-2.822-2.773l-0.852,0.528c0,0-0.574-0.707-2.102-1.586c0,0-1.129,0.507-1.706,1.388
		L15.43,1.79c0,0-1.284,0.592-2.034,1.651l-1.378,0.198l-0.723,1.321c0,0-1.723,1.398-1.181,7.133L10.245,12.225z"/>
	<path fill="#3B434F" d="M25.209,12.225l-0.624-0.033c-0.373-4.623-2.593-5.449-2.593-5.449c-5.536,2.411-9.056-0.033-9.056-0.033
		c-2.129,1.829-2.461,5.547-2.461,5.547l-0.558-0.165C9.375,6.357,11.099,4.86,11.099,4.86l0.788-1.453l1.444-0.198
		c0.75-1.06,2.133-1.716,2.133-1.716l0.856,0.561c0.576-0.881,1.771-1.321,1.771-1.321c1.526,0.879,2.098,1.552,2.098,1.552
		l0.886-0.495c2.374,1.164,3.019,3.005,3.019,3.005C25.91,6.896,25.209,12.225,25.209,12.225 M23.665,4.926
		c0,0-0.282-1.445-2.656-2.608l-0.885,0.528c0,0-0.571-0.706-2.1-1.585c0,0-1.03,0.54-1.606,1.42l-0.983-0.627
		c0,0-1.184,0.559-1.935,1.618L12.188,3.87l-0.689,1.254c0,0-1.43,1.1-1.278,5.548l0.033-0.034c0,0,0.455-2.764,2.683-4.458
		c0,0,3.617,2.478,9.154,0.066c0,0,2.045,0.969,2.755,4.426C24.846,10.673,25.267,7.117,23.665,4.926"/>
	<g opacity="0.2" enable-background="new    ">
		<g>
			<defs>
				<rect id="SVGID_7_" x="14.816" y="2.474" width="4.21" height="5.105"/>
			</defs>
			<clipPath id="SVGID_8_">
				<use xlink:href="#SVGID_7_"  overflow="visible"/>
			</clipPath>
			<path clip-path="url(#SVGID_8_)" fill="#3B434F" d="M17.654,2.483c0.048,0.036,0.024,0.069,0.014,0.115
				c-0.016,0.067-0.035,0.134-0.045,0.201c-0.016,0.102-0.03,0.205-0.034,0.305c-0.004,0.084-0.002,0.169,0,0.252
				c0,0.049,0.007,0.096,0.008,0.146c0.001,0.019,0.007,0.038,0.007,0.059l0.004,0.016c0.001,0.025,0.007,0.049,0.007,0.073
				c0.005,0.022,0.008,0.045,0.013,0.067c0.006,0.035,0.008,0.072,0.019,0.107c0.001,0.009,0.003,0.018,0.004,0.026
				c0.008,0.027,0.011,0.056,0.02,0.083l0.001,0.016c0.013,0.04,0.019,0.081,0.03,0.121c0.021,0.063,0.039,0.128,0.06,0.191
				c0.015,0.042,0.028,0.087,0.042,0.129c0.028,0.076,0.058,0.149,0.088,0.225c0.018,0.045,0.042,0.088,0.061,0.133
				c0.053,0.128,0.124,0.255,0.187,0.38c0.022,0.041,0.045,0.079,0.069,0.118c0.015,0.025,0.03,0.054,0.044,0.081
				c0.009,0.014,0.018,0.025,0.025,0.039c0.019,0.031,0.038,0.063,0.057,0.095c0.017,0.028,0.034,0.052,0.054,0.079
				c0.018,0.03,0.038,0.064,0.058,0.094c0.036,0.053,0.071,0.102,0.105,0.154c0.035,0.053,0.075,0.101,0.114,0.152
				c0.072,0.103,0.158,0.201,0.235,0.303c0.024,0.03,0.053,0.057,0.076,0.087c0.012,0.015,0.031,0.027,0.039,0.043
				c0.004,0.006,0.005,0.016,0.007,0.023c0.003,0.011,0.003,0.025,0.003,0.038c0,0.02,0.001,0.039-0.002,0.06
				c-0.004,0.021-0.016,0.044-0.026,0.066c-0.006,0.016-0.023,0.031-0.032,0.04c-0.009,0.007-0.013,0.014-0.021,0.021
				c-0.022,0.017-0.047,0.031-0.07,0.039c-0.025,0.007-0.058-0.016-0.077-0.039c-0.035-0.042-0.079-0.08-0.111-0.122
				c-0.007-0.01-0.015-0.013-0.021-0.022c-0.039-0.049-0.086-0.094-0.124-0.142c-0.008-0.011-0.018-0.017-0.025-0.027
				c-0.029-0.039-0.064-0.073-0.094-0.112c-0.074-0.098-0.155-0.193-0.223-0.292c-0.016-0.023-0.031-0.042-0.048-0.065
				c-0.108-0.164-0.218-0.325-0.306-0.492c-0.023-0.044-0.049-0.084-0.07-0.128c-0.06-0.125-0.118-0.25-0.17-0.377
				c-0.008-0.016-0.012-0.036-0.018-0.052c-0.029-0.076-0.055-0.15-0.081-0.227c-0.027-0.076-0.04-0.157-0.065-0.233
				c-0.006-0.016-0.007-0.034-0.012-0.051c-0.001-0.006-0.002-0.012-0.002-0.018c-0.006-0.018-0.006-0.038-0.013-0.055
				c-0.012-0.042-0.016-0.088-0.024-0.132c-0.005-0.041-0.015-0.083-0.017-0.124c-0.001-0.008-0.003-0.015-0.005-0.023
				c0-0.027-0.007-0.054-0.007-0.081c-0.002-0.047-0.009-0.093-0.01-0.14c-0.001-0.058-0.003-0.116-0.003-0.174
				s0.004-0.115,0.008-0.173c0.01-0.159,0.038-0.319,0.076-0.483c0.015-0.06,0.037-0.118,0.056-0.178
				c0.012-0.041,0.033-0.081,0.048-0.121c0.003-0.011,0.009-0.017,0.011-0.028c0.011-0.022,0.022-0.05,0.042-0.066
				c0.01-0.006,0.032-0.01,0.043-0.006C17.642,2.477,17.647,2.483,17.654,2.483 M16.114,3.622c0.035,0.025,0.033,0.062,0.034,0.094
				c0.001,0.032,0.009,0.065,0.011,0.098l0.011,0.068c0,0.018,0.005,0.036,0.007,0.054c0.003,0.019,0.005,0.037,0.011,0.055
				c0.004,0.021,0.007,0.041,0.01,0.061c0.005,0.019,0.006,0.037,0.011,0.055c0.017,0.055,0.024,0.113,0.041,0.167
				c0.019,0.058,0.032,0.118,0.052,0.175c0.026,0.075,0.052,0.151,0.08,0.225c0.014,0.039,0.032,0.074,0.048,0.112
				c0.011,0.029,0.023,0.061,0.036,0.089c0.057,0.118,0.114,0.236,0.175,0.354c0.05,0.093,0.108,0.182,0.161,0.273
				c0.017,0.029,0.036,0.053,0.054,0.08c0.041,0.062,0.085,0.127,0.127,0.191c0.04,0.06,0.087,0.116,0.13,0.174
				c0.007,0.01,0.014,0.015,0.021,0.024c0.022,0.031,0.05,0.06,0.074,0.091c0.01,0.016,0.026,0.026,0.035,0.042
				c0.024,0.035,0.039,0.1,0.028,0.141c-0.019,0.07-0.086,0.118-0.138,0.136c-0.016,0.005-0.041,0.016-0.057,0.01
				c-0.026-0.008-0.043-0.032-0.059-0.051c-0.02-0.025-0.044-0.044-0.063-0.069c-0.035-0.047-0.077-0.088-0.114-0.136
				c-0.074-0.098-0.151-0.194-0.217-0.294c-0.156-0.233-0.283-0.468-0.383-0.709c-0.041-0.1-0.074-0.203-0.108-0.305
				c-0.012-0.037-0.018-0.075-0.029-0.112c-0.017-0.049-0.022-0.101-0.039-0.15l-0.002-0.02c-0.002-0.011-0.006-0.021-0.007-0.033
				c-0.001-0.009-0.003-0.019-0.005-0.028c-0.006-0.019-0.006-0.038-0.01-0.056c-0.003-0.019-0.008-0.037-0.008-0.056l-0.007-0.036
				c-0.002-0.05-0.013-0.099-0.015-0.148c0-0.011-0.002-0.025-0.003-0.036C16.005,4.103,16,4.056,16,4.007
				c0-0.054,0-0.109,0.003-0.164c0.001-0.021,0.004-0.041,0.006-0.063c0.001-0.023,0.005-0.046,0.008-0.07
				c0.001-0.015,0.001-0.032,0.006-0.047c0.004-0.015,0.019-0.038,0.033-0.044c0.01-0.004,0.027-0.009,0.038-0.005
				C16.104,3.616,16.108,3.622,16.114,3.622 M14.938,3.868c0.04,0.029,0.029,0.066,0.029,0.101c0,0.058,0.005,0.114,0.006,0.171
				c0.002,0.045,0.013,0.091,0.014,0.136c0.002,0.015,0.005,0.029,0.008,0.043c0,0.025,0.006,0.058,0.014,0.082l0.002,0.018
				c0.001,0.014,0.004,0.028,0.009,0.041c0,0.008,0.001,0.016,0.002,0.023c0.01,0.032,0.014,0.067,0.024,0.099
				c0.024,0.077,0.043,0.156,0.07,0.232c0.058,0.166,0.138,0.327,0.223,0.489c0.026,0.053,0.062,0.102,0.089,0.155
				c0.012,0.022,0.028,0.04,0.041,0.062c0.037,0.059,0.078,0.119,0.117,0.177c0.054,0.081,0.121,0.155,0.178,0.236
				c0.021,0.028,0.046,0.053,0.066,0.08c0.018,0.024,0.041,0.042,0.059,0.066c0.038,0.048,0.083,0.092,0.123,0.14
				c0.022,0.027,0.049,0.049,0.071,0.075c0.024,0.03,0.056,0.053,0.08,0.082c0.006,0.005,0.012,0.01,0.019,0.016
				c0.024,0.029,0.059,0.055,0.084,0.084c0.011,0.012,0.024,0.019,0.035,0.031c0.035,0.041,0.085,0.074,0.122,0.115
				c0.01,0.013,0.024,0.021,0.033,0.03c0.004,0.003,0.008,0.006,0.013,0.009c0.013,0.014,0.032,0.026,0.044,0.041
				c0.004,0.003,0.009,0.006,0.013,0.009c0.021,0.024,0.053,0.043,0.074,0.065c0.006,0.004,0.011,0.008,0.017,0.013
				c0.028,0.03,0.069,0.052,0.098,0.082c0.011,0.009,0.024,0.018,0.037,0.028c0.005,0.006,0.02,0.012,0.025,0.02
				c0.019,0.021,0.051,0.037,0.07,0.057c0.012,0.011,0.032,0.019,0.042,0.03c0.008,0.01,0.025,0.016,0.033,0.025
				c0.025,0.018,0.05,0.037,0.076,0.055c0.061,0.044,0.122,0.085,0.181,0.126c0.028,0.02,0.062,0.035,0.079,0.06
				c0.01,0.014,0.014,0.034,0.019,0.049c0.011,0.034,0.016,0.075,0.005,0.113c-0.001,0.011-0.007,0.019-0.012,0.031
				c-0.007,0.02-0.017,0.049-0.038,0.066c-0.013,0.012-0.027,0.027-0.042,0.038c-0.023,0.016-0.047,0.007-0.075-0.004
				c-0.008-0.006-0.017-0.012-0.027-0.018c-0.041-0.018-0.08-0.057-0.123-0.076c-0.008-0.004-0.017-0.012-0.022-0.015
				c-0.015-0.009-0.029-0.019-0.043-0.029c-0.017-0.007-0.029-0.023-0.046-0.031c-0.016-0.006-0.031-0.019-0.045-0.028
				c-0.005-0.004-0.011-0.008-0.016-0.012c-0.015-0.006-0.03-0.02-0.044-0.028l-0.057-0.042c-0.021-0.009-0.043-0.029-0.062-0.043
				c-0.017-0.012-0.039-0.024-0.051-0.038l-0.033-0.024C16.522,7.167,16.5,7.15,16.479,7.132c-0.011-0.007-0.022-0.016-0.033-0.024
				c-0.016-0.018-0.044-0.032-0.061-0.049c-0.007-0.006-0.016-0.011-0.023-0.017c-0.012-0.013-0.032-0.024-0.043-0.037
				C16.312,7,16.306,6.996,16.299,6.992c-0.009-0.011-0.025-0.021-0.035-0.031c-0.004-0.004-0.009-0.007-0.016-0.011
				c-0.03-0.034-0.075-0.061-0.105-0.094c-0.009-0.008-0.018-0.016-0.028-0.023c-0.04-0.044-0.092-0.079-0.129-0.122
				c-0.01-0.013-0.021-0.018-0.032-0.029c-0.034-0.041-0.079-0.077-0.112-0.117c-0.006-0.006-0.011-0.008-0.017-0.015
				c-0.016-0.018-0.036-0.039-0.051-0.058c-0.006-0.009-0.015-0.013-0.022-0.022c-0.053-0.067-0.114-0.127-0.166-0.194
				c-0.09-0.119-0.186-0.235-0.257-0.358c-0.016-0.028-0.035-0.051-0.05-0.079c-0.029-0.049-0.059-0.098-0.084-0.148
				c-0.041-0.078-0.08-0.157-0.117-0.237c-0.026-0.055-0.047-0.115-0.068-0.172c-0.018-0.046-0.035-0.092-0.051-0.138
				c-0.016-0.046-0.027-0.093-0.042-0.14c-0.016-0.047-0.022-0.097-0.037-0.145c-0.006-0.018-0.005-0.041-0.01-0.059
				c-0.014-0.044-0.017-0.091-0.025-0.137c-0.032-0.193-0.035-0.392-0.022-0.593c0.004-0.047,0.013-0.091,0.021-0.139
				c0.003-0.021,0.011-0.049,0.035-0.065c0.007-0.004,0.031-0.009,0.04-0.006C14.926,3.862,14.932,3.869,14.938,3.868"/>
		</g>
	</g>
	
		<line fill="none" stroke="#3B434F" stroke-width="0.5" stroke-linecap="round" stroke-miterlimit="10" x1="15.052" y1="20.516" x2="20.128" y2="20.516"/>
	<g>
		<path fill="#D81620" d="M22.37,30.774C22.363,30.771,22.368,30.763,22.37,30.774L22.37,30.774z"/>
		<path fill="#D81620" d="M21.489,29.221c0,0,0.001,0.003,0,0.005c-0.006,0-0.011-0.001-0.018,0.001L21.489,29.221z"/>
		<path fill="#D81620" d="M21.465,29.262c0.027,0.008,0.025-0.025,0.024-0.036c0.042,0.001,0.057,0.017,0.057,0.047
			C21.515,29.295,21.495,29.255,21.465,29.262z"/>
		<path fill="#D81620" d="M19.827,26.45l-0.006,0.015C19.822,26.46,19.823,26.455,19.827,26.45z"/>
		<path fill="#D81620" d="M26.436,32.59c0.001-0.005-0.001-0.01-0.001-0.016C26.441,32.579,26.439,32.585,26.436,32.59z"/>
		<path fill="#D81620" d="M20.119,26.865l-0.036,0.034C20.096,26.883,20.107,26.872,20.119,26.865z"/>
		<g>
			<path fill="#D81620" d="M21.769,30.973c0,0.003,0,0.004-0.002,0.005c0.013,0.021,0.025,0.038,0.035,0.053L21.769,30.973z"/>
			<path fill="#D81620" d="M21.022,31.443c-0.003-0.001-0.006-0.001-0.008-0.002C21.024,31.451,21.034,31.463,21.022,31.443z"/>
			<path fill="#D81620" d="M26.448,25.839c0,0,0,0.003-0.001,0.005c0.005,0.001,0.01,0.001,0.016,0.003L26.448,25.839z"/>
			<path fill="#D81620" d="M26.447,25.844c-0.035-0.006-0.052,0.006-0.057,0.033c0.025,0.023,0.048-0.009,0.073,0.002
				C26.438,25.882,26.444,25.853,26.447,25.844z"/>
			<path fill="#D81620" d="M20.399,31.945c-0.012-0.014-0.022-0.022-0.033-0.028h-0.002L20.399,31.945z"/>
			<path fill="#D81620" d="M16.809,33.959l-0.005-0.031c-0.005,0.007-0.007,0.015-0.006,0.021L16.809,33.959z"/>
			<path fill="#D81620" d="M19.407,32.488c0.003,0.005,0.005,0.011,0.01,0.016c0.026,0.001,0.066-0.028,0.112-0.071l-0.043-0.051
				L19.407,32.488z"/>
			<path fill="#D81620" d="M28.243,23.122l-0.358-0.225c0,0-0.117-0.013-0.231-0.025c-0.119-0.016-0.237-0.033-0.237-0.033
				s-0.138,0.137-0.278,0.273c-0.135,0.142-0.271,0.28-0.271,0.28l-0.592,0.289c0,0-0.282,0.254-0.56,0.513
				c-0.273,0.262-0.548,0.522-0.548,0.522l0.012,0.165c-0.387,0.033-0.479,0.481-0.836,0.579l0.081,0.089
				c-0.063,0.066-0.11,0.009-0.142,0.009c-0.542,0.528-1.012,1.149-1.578,1.569c-0.335-0.334-0.581-0.799-0.886-1.207
				c-0.021-0.003-0.058,0.029-0.093-0.021l0.062-0.05c-0.223-0.1-0.237-0.402-0.486-0.465l0.024-0.107c0,0-0.151-0.199-0.306-0.398
				c-0.153-0.198-0.313-0.394-0.313-0.394l-0.356-0.25c0,0-0.075-0.105-0.149-0.212c-0.076-0.104-0.153-0.209-0.153-0.209
				s-0.079-0.001-0.158-0.002c-0.076-0.004-0.155-0.007-0.155-0.007l-0.258,0.109c0,0-0.019,0.082-0.039,0.163
				c-0.022,0.085-0.045,0.171-0.045,0.171c0.002-0.008,0.007-0.013,0.007-0.013c0.103,0.06,0.065,0.202,0.172,0.251l-0.007,0.006
				c0.077-0.054,0.044,0.201,0.127,0.176c0.075,0.042,0.03,0.143,0.048,0.197c-0.015-0.016,0.084-0.029,0.077,0.043
				c0.006,0.017-0.055,0.133,0.006,0.147c0.062,0.015,0.078,0.102,0.117,0.152l-0.03,0.008c0.169,0.188,0.251,0.479,0.442,0.608
				c0.058-0.101-0.059,0.121,0.01,0.009l0.058,0.062c-0.005,0.007-0.01,0.011-0.015,0.014c0.002,0.06-0.09,0.188,0.04,0.163
				c0.081-0.054,0.013,0.089,0.067,0.011c-0.007,0.291,0.27,0.226,0.258,0.538l0.005-0.021l0.043,0.038l-0.079,0.035
				c0.073-0.013,0.033,0.136,0.097,0.084l0.001-0.012c0.062-0.051,0.068,0.02,0.108,0.029c-0.034,0.021-0.048,0.022-0.054,0.019
				c0.002,0.008,0.002,0.023-0.006,0.061c0.139,0.028,0.104,0.194,0.229,0.195l-0.033,0.064c0.139,0.037,0.051,0.294,0.243,0.282
				c0.068,0.163,0.097,0.278,0.156,0.446c0.061,0.062,0.107,0.191,0.231,0.16c0.019,0.01,0.027,0.022,0.038,0.034
				c-0.005,0.005-0.01,0.011-0.016,0.015l-0.003-0.016l-0.064,0.099c-0.011-0.004-0.022-0.016-0.026-0.024
				c-0.014,0.172-0.238,0.237-0.384,0.316l-0.004-0.016c-0.677,0.639-1.129,1.419-1.893,1.956c-0.43,0.167-0.598,0.717-1.044,0.958
				c-0.137-0.018-0.759,0.769-0.788,0.864l0.163,0.01c-0.219,0.307-0.417,0.339-0.573,0.635l-0.006-0.03
				c-0.044,0.014,0.092,0.223-0.45,0.342l-0.007-0.008c-0.011,0.014,0.003,0.029-0.038,0.03l0.101-0.008
				c-0.018,0.057-0.018,0.129-0.062,0.181c-0.019,0-0.036-0.013-0.046-0.024c0,0-0.027,0.032-0.054,0.065
				c-0.026,0.031-0.052,0.061-0.052,0.061l-0.076-0.019c-0.013,0.062,0.083,0.159-0.056,0.185c0.089,0.048-0.012,0.084,0.026,0.113
				c-0.012-0.007-0.032-0.012-0.049-0.017c-0.02,0.023-0.067,0.078-0.079,0.102c-0.016,0.027-0.029,0.063-0.03,0.092
				c0,0,0.014,0.003,0.037,0.008c0.025,0.004,0.056,0.016,0.104,0.019c0.098-0.002,0.22,0.003,0.284,0.016
				c-0.107,0.048-0.017,0.028,0.02,0.04l-0.007-0.023c0.067-0.026,0.104,0.022,0.143,0.015c-0.003-0.004-0.007-0.009-0.012-0.014
				l0.002,0.011c-0.01-0.007-0.013-0.013-0.014-0.021c-0.007-0.011-0.011-0.021,0.006-0.03l0,0.009
				c0.018-0.024,0.064-0.05,0.083-0.059l0.034,0.039c-0.021-0.108,0.373-0.104,0.434-0.144c0.102,0.009,0.114-0.114,0.206-0.145
				c0.122-0.075,0.109,0.019,0.197,0.012c0.095-0.029-0.058-0.04-0.032-0.065l0.136-0.007c-0.044,0.045,0.005,0.048,0.029,0.059
				c0.078-0.052,0.266-0.061,0.209-0.169c0.136-0.036,0.168,0,0.214-0.028c-0.028-0.006-0.069,0.002-0.087-0.017
				c0.075,0.01,0.012-0.024-0.013-0.021c0.021-0.089,0.458-0.086,0.379-0.196l0.017,0.019c-0.055-0.089-0.143-0.144-0.141-0.22
				l0.059,0.011l0.01-0.066c0.05,0.001,0.056,0.032,0.063,0.043c0.034-0.094,0.165-0.131,0.255-0.188l-0.278-0.14
				c0.11-0.011,0.324-0.016,0.272-0.096l0.108,0.036c0.262,0.021,0.037-0.142,0.129-0.146l0.142,0.02l-0.069,0.058
				c0.105-0.02,0.156-0.017,0.259-0.01l-0.001-0.003c-0.007-0.001-0.013-0.003-0.018-0.007l0.008-0.009
				c-0.03-0.048-0.021-0.106,0.029-0.145c0.078-0.047,0.074-0.154,0.262-0.162l-0.052-0.107l0.127-0.021l0.062,0.066
				c-0.083,0.066-0.206,0.223-0.307,0.313l0.027,0.031c0.06-0.052,0.102-0.142,0.147-0.169c0.031-0.004,0.147,0.023,0.153,0.1
				l-0.025-0.098c0.195-0.184,0.193-0.189,0.475-0.294l-0.049-0.02c0.021-0.058,0.045-0.112,0.108-0.066
				c0.138-0.1,0.308-0.172,0.473-0.154l-0.06-0.099c0.03-0.02,0.189,0.071,0.092-0.056l0.021-0.087
				c0.043-0.026,0.02-0.093,0.105-0.084h0.001c0.005,0.002,0.01,0.003,0.017,0.004l-0.008-0.008
				c0.116-0.035-0.071-0.072,0.067-0.108c0.086,0.032-0.068-0.136-0.005-0.158l0.16,0.08c0.147-0.006,0.047-0.14,0.162-0.248
				c0.099-0.009,0.227,0.07,0.276,0.196c-0.055-0.158-0.047-0.095-0.029-0.21c0.055,0.036,0.057,0.052,0.081,0.105
				c0.112-0.001-0.002-0.074,0.047-0.113c-0.07-0.099-0.187-0.25-0.177-0.27l-0.044-0.011c0.003-0.091,0.035-0.161,0.134-0.169
				l0.039,0.044l0.038-0.076l0.056,0.051l0.07-0.097l-0.026-0.003c0.012-0.027,0.059-0.107,0.124-0.113l0.028,0.033
				c0.199-0.002,0.162-0.212,0.275-0.338l0.046,0.078c0.104,0.024-0.083-0.108-0.003-0.125l0.077,0.076
				c-0.057-0.144,0.078-0.03,0.147-0.021l-0.115-0.089l0.079-0.033c0.096-0.026,0.163,0.094,0.207,0.156l-0.036-0.122l0.097,0.083
				c-0.072-0.136,0.048-0.014,0.047-0.121c0.038,0.029,0.043,0.062,0.076,0.06l-0.035-0.215l0.002,0.11l-0.123-0.141
				c-0.043-0.155,0.09-0.059,0.094-0.134l0.012,0.066c0.033-0.096,0.092-0.042,0.157-0.049c-0.036-0.013-0.089-0.034-0.08-0.077
				c0.013-0.025,0.057,0.038,0.089,0.034c-0.046-0.052-0.062-0.103-0.057-0.137l0.013,0.038l0.031-0.026
				c0.062,0.016,0.076,0.066,0.068,0.126l-0.029,0.002c0.005,0.014-0.087,0.101-0.144,0.159c0.027,0.03-0.055,0.065,0.018,0.078
				c0.022-0.033,0.026-0.043,0.064-0.06c-0.001,0.077,0.012,0.035-0.04,0.133c0.046-0.077,0.138-0.116,0.2-0.1
				c0.065,0.083-0.015,0.16,0.082,0.179l0.112-0.035c0.04,0.021-0.079,0.115-0.021,0.103c0.089,0.038-0.039,0.043,0.034,0.079
				l-0.006,0.003c0.004,0,0.008,0.001,0.012,0c0.058,0.002,0.035,0.044,0.06,0.065l0.005,0.06c-0.076,0.072,0.036,0.03,0.055,0.046
				l-0.05,0.058c0.111,0.006,0.214,0.07,0.294,0.15c0.046-0.024,0.056,0.016,0.064,0.055l-0.035,0.007
				c0.174,0.098,0.172,0.103,0.28,0.243l-0.025,0.062c0.011-0.051,0.09-0.056,0.11-0.05c0.027,0.022,0.044,0.086,0.079,0.126
				l0.021-0.018c-0.056-0.07-0.121-0.187-0.168-0.236l0.048-0.038l0.081,0.027l-0.046,0.064c0.123,0.024,0.108,0.095,0.156,0.133
				c0.027,0.031,0.028,0.069,0.004,0.098l0.003,0.008c-0.003,0.002-0.007,0.002-0.011,0.001l-0.002,0.003
				c0.067,0.007,0.101,0.011,0.168,0.033l-0.039-0.045l0.096,0.001c0.059,0.014-0.105,0.098,0.069,0.111l0.073-0.015
				c-0.042,0.049,0.098,0.073,0.169,0.092l-0.197,0.062c0.054,0.046,0.135,0.085,0.147,0.148c0.007-0.005,0.014-0.025,0.047-0.02
				v0.044l0.039-0.001c-0.007,0.05-0.07,0.077-0.115,0.13l0.013-0.012c-0.062,0.064,0.223,0.107,0.228,0.169
				c-0.016-0.007-0.062,0.01-0.011,0.012c-0.013,0.01-0.039,0.001-0.058,0.001c0.026,0.023,0.052,0.004,0.137,0.041
				c-0.047,0.064,0.073,0.091,0.119,0.132c0.017-0.003,0.05-0.002,0.025-0.034l0.088,0.018c0.015,0.02-0.086,0.012-0.027,0.039
				c0.058,0.014,0.059-0.048,0.13,0.014c0.058,0.029,0.054,0.111,0.119,0.115c0.037,0.034,0.296,0.07,0.271,0.139l0.026-0.022
				c0.011,0.01,0.039,0.029,0.048,0.048l0.001-0.004c0.012,0.007,0.007,0.013,0.001,0.018c-0.001,0.006-0.003,0.011-0.01,0.013
				l0.001-0.006c-0.003,0.003-0.007,0.005-0.009,0.008c0.023,0.009,0.054-0.019,0.096,0.004l-0.007,0.016
				c0.024-0.004,0.081,0.018,0.016-0.024c0.044-0.002,0.125,0.007,0.188,0.02c0.032,0.003,0.054-0.002,0.07-0.001
				c0.016-0.002,0.024-0.002,0.024-0.002c0.003-0.02-0.002-0.044-0.009-0.062c-0.006-0.018-0.031-0.058-0.042-0.075
				c-0.012,0.001-0.025,0.003-0.033,0.006c0.027-0.016-0.034-0.05,0.027-0.072c-0.087-0.03-0.014-0.085-0.016-0.127l-0.052,0.006
				c0,0-0.015-0.022-0.028-0.047c-0.014-0.023-0.029-0.047-0.029-0.047c-0.008,0.006-0.02,0.014-0.031,0.011
				c-0.024-0.039-0.017-0.086-0.022-0.125l0.065,0.018c-0.027-0.007-0.018-0.016-0.023-0.025l-0.004,0.005
				c-0.343-0.135-0.231-0.257-0.26-0.271l-0.005,0.021c-0.072-0.211-0.199-0.252-0.311-0.475l0.106,0.01
				c-0.009-0.065-0.334-0.645-0.426-0.647c-0.267-0.204-0.319-0.582-0.584-0.736c-0.266-0.256-0.448-0.557-0.634-0.861
				c0.016-0.009,0.023-0.021,0.043-0.028c0.177,0.078,0.276-0.104,0.382-0.184c0.128-0.235,0.197-0.4,0.339-0.628
				c0.283,0.063,0.213-0.343,0.429-0.364l-0.036-0.103c0.186,0.028,0.173-0.229,0.386-0.237c-0.002-0.058,0.003-0.082,0.006-0.091
				c-0.008,0.003-0.027-0.002-0.073-0.043c0.062-0.003,0.087-0.106,0.167-0.017v0.018c0.08,0.09,0.055-0.139,0.162-0.103
				l-0.108-0.07l0.073-0.047l0.001,0.034c0.057-0.47,0.453-0.309,0.512-0.741c0.062,0.128-0.004-0.102,0.103,0
				c0.188,0.064,0.083-0.149,0.097-0.235c-0.006-0.006-0.011-0.013-0.015-0.023l0.097-0.08c0.078,0.185-0.045-0.172,0.018-0.014
				c0.316-0.145,0.508-0.559,0.802-0.8l-0.041-0.018c0.068-0.068,0.113-0.193,0.209-0.201c0.094-0.007,0.031-0.192,0.045-0.219
				c0.006-0.108,0.152-0.065,0.124-0.045c0.041-0.078-0.004-0.237,0.118-0.283c0.116,0.058,0.128-0.329,0.229-0.233l-0.007-0.009
				c0.167-0.047,0.147-0.27,0.314-0.334c0,0,0.005,0.01,0.008,0.02c0,0-0.014-0.132-0.028-0.263
				C28.254,23.248,28.243,23.122,28.243,23.122z"/>
			<path fill="#D81620" d="M16.608,33.317l0.001-0.003C16.587,33.287,16.591,33.3,16.608,33.317z"/>
			<polygon fill="#D81620" points="18.861,32.782 18.855,32.785 18.918,32.815 			"/>
			<path fill="#D81620" d="M17.891,33.618c-0.018,0.013-0.032,0.026-0.034,0.044C17.912,33.635,17.908,33.625,17.891,33.618z"/>
			<path fill="#D81620" d="M16.326,33.673c-0.022,0.016-0.003,0.025,0.021,0.033c0.019-0.021,0.031-0.035,0.031-0.035
				C16.362,33.674,16.341,33.669,16.326,33.673z"/>
		</g>
	</g>
</g>
<g id="Layer_2" display="none">
</g>
</svg>
