<?xml version="1.0" encoding="utf-8"?>
<!-- Generator: Adobe Illustrator 16.0.0, SVG Export Plug-In . SVG Version: 6.00 Build 0)  -->
<!DOCTYPE svg PUBLIC "-//W3C//DTD SVG 1.1//EN" "http://www.w3.org/Graphics/SVG/1.1/DTD/svg11.dtd">
<svg version="1.1" id="Layer_1" xmlns="http://www.w3.org/2000/svg" xmlns:xlink="http://www.w3.org/1999/xlink" x="0px" y="0px"
	 width="132.844px" height="44.344px" viewBox="0 0 132.844 44.344" enable-background="new 0 0 132.844 44.344"
	 xml:space="preserve">
<g>
	<path fill="#FFFFFF" d="M21.613,8.918c1.52,0.075,2.995,0.187,4.425,0.335c1.431,0.149,2.819,0.298,4.168,0.447
		s2.645,0.283,3.89,0.402c1.243,0.119,2.439,0.179,3.587,0.179c0.327,0,0.641-0.071,0.938-0.212s0.559-0.332,0.782-0.57
		S39.806,9,39.941,8.717c0.134-0.283,0.201-0.574,0.201-0.872c0-0.477-0.146-0.909-0.437-1.296c-0.29-0.388-0.793-0.656-1.509-0.805
		c-3.084-0.551-6.046-0.931-8.884-1.14c-2.839-0.208-5.554-0.313-8.147-0.313c-1.907,0-3.755,0.045-5.543,0.134
		s-3.464,0.253-5.029,0.492C9.03,5.156,7.595,5.487,6.292,5.912S3.87,6.876,2.939,7.532s-1.654,1.449-2.168,2.38S0,11.935,0,13.187
		c0.03,0.536,0.179,1.013,0.447,1.43c0.223,0.357,0.581,0.686,1.073,0.983c0.492,0.299,1.185,0.447,2.079,0.447
		s1.583-0.146,2.067-0.436c0.484-0.291,0.838-0.611,1.062-0.961s0.354-0.674,0.391-0.972c0.037-0.298,0.056-0.462,0.056-0.492
		c0-0.566,0.146-1.058,0.436-1.476c0.291-0.417,0.685-0.774,1.185-1.073c0.499-0.298,1.08-0.543,1.743-0.737
		c0.663-0.193,1.378-0.354,2.146-0.48c0.767-0.126,1.557-0.227,2.369-0.302c0.812-0.075,1.613-0.142,2.403-0.201
		c-0.909,2.831-1.755,5.401-2.537,7.711s-1.509,4.422-2.179,6.336c-0.67,1.915-1.282,3.67-1.833,5.264
		c-0.552,1.595-1.043,3.104-1.475,4.526C9,34.178,8.624,35.545,8.303,36.856c-0.32,1.311-0.578,2.645-0.771,4
		c-0.089,0.344-0.134,0.656-0.134,0.939c0,0.894,0.276,1.542,0.827,1.944c0.551,0.402,1.251,0.604,2.101,0.604
		c0.283,0,0.588-0.086,0.916-0.257c0.328-0.172,0.645-0.414,0.95-0.727c0.305-0.313,0.581-0.682,0.827-1.106
		c0.246-0.425,0.428-0.891,0.548-1.397c0.283-1.103,0.644-2.421,1.084-3.956c0.439-1.534,0.913-3.207,1.419-5.018
		c0.506-1.811,1.031-3.71,1.576-5.699c0.543-1.989,1.065-3.985,1.564-5.99c0.499-2.004,0.957-3.967,1.375-5.889
		C21.002,12.382,21.345,10.587,21.613,8.918z"/>
	<path fill="#FFFFFF" d="M131.657,26.697c-1.021-0.25-2.125,0.771-2.125,0.771c-0.306,0.34-1.691,1.457-2.197,1.862
		c-0.34,0.243-0.684,0.473-1.031,0.687c-0.596,0.373-1.252,0.708-1.967,1.006c-0.715,0.299-1.408,0.447-2.078,0.447
		c-0.238,0-0.467-0.045-0.682-0.134c-0.217-0.09-0.41-0.242-0.582-0.459c-0.172-0.216-0.309-0.503-0.414-0.86
		c-0.104-0.357-0.156-0.805-0.156-1.341c0-0.312,0.037-0.704,0.113-1.174c0.074-0.469,0.156-0.953,0.244-1.452
		c0.09-0.499,0.172-0.976,0.246-1.431c0.074-0.454,0.113-0.809,0.113-1.062c0-0.328-0.061-0.622-0.18-0.883s-0.279-0.48-0.48-0.659
		s-0.436-0.316-0.703-0.414c-0.27-0.097-0.545-0.146-0.828-0.146c-0.82,0-1.543,0.221-2.168,0.66s-1.184,0.979-1.676,1.62
		s-0.924,1.33-1.297,2.067s-0.707,1.404-1.006,2h-0.246c-0.029-0.76-0.045-1.53-0.045-2.312s0-1.449,0-2.001
		c0-0.462-0.01-0.827-0.033-1.095c-0.021-0.269-0.086-0.473-0.189-0.615c-0.105-0.142-0.266-0.23-0.48-0.268
		c-0.217-0.037-0.518-0.057-0.906-0.057c-0.342,0-0.629,0.02-0.859,0.057c-0.232,0.037-0.426,0.111-0.582,0.224
		c-0.156,0.111-0.293,0.265-0.412,0.458c-0.121,0.193-0.24,0.454-0.357,0.782c-0.195,0.491-0.389,1.117-0.582,1.877
		s-0.387,1.595-0.582,2.504c-0.193,0.908-0.375,1.866-0.547,2.872c-0.103,0.601-0.181,1.18-0.267,1.767l-0.079-0.169
		c-0.596,0.596-1.178,1.114-1.744,1.554s-1.127,0.838-1.688,1.195c-0.559,0.357-1.113,0.686-1.664,0.983
		c-0.551,0.299-1.096,0.604-1.631,0.917c0.445-0.686,0.807-1.349,1.084-1.989c0.275-0.641,0.49-1.285,0.646-1.934
		c0.158-0.648,0.266-1.312,0.324-1.989c0.061-0.678,0.09-1.397,0.09-2.157c0-0.908-0.127-1.78-0.379-2.614
		c-0.254-0.835-0.619-1.572-1.096-2.213s-1.059-1.155-1.744-1.542c-0.686-0.388-1.467-0.582-2.346-0.582
		c-0.686,0-1.375,0.317-2.068,0.95c-0.693,0.634-1.457,1.472-2.291,2.515l-0.357-0.246c1.043-1.266,2.09-2.615,3.141-4.045
		c1.051-1.431,2-2.895,2.85-4.393c0.85-1.497,1.539-2.998,2.068-4.503c0.527-1.505,0.793-2.965,0.793-4.38
		c0-1.013-0.061-1.967-0.18-2.861s-0.365-1.672-0.736-2.335c-0.373-0.663-0.902-1.188-1.588-1.576C97.435,0.194,96.526,0,95.394,0
		c-1.014,0-1.955,0.41-2.828,1.229c-0.871,0.82-1.676,1.908-2.414,3.263c-0.736,1.356-1.406,2.902-2.01,4.638
		s-1.148,3.524-1.633,5.364c-0.484,1.841-0.904,3.658-1.262,5.454c-0.357,1.795-0.656,3.423-0.895,4.883
		c-0.357,2.19-0.641,4.177-0.85,5.957s-0.373,3.326-0.492,4.638c-0.025,0.289-0.048,0.567-0.069,0.846
		c-0.279,0.211-0.559,0.417-0.847,0.585c-0.357,0.208-0.707,0.38-1.051,0.514c-0.342,0.134-0.67,0.201-0.982,0.201
		c-0.299,0-0.553-0.253-0.76-0.76c-0.209-0.507-0.314-1.162-0.314-1.967c0-1.028,0.053-2.001,0.156-2.917
		c0.105-0.916,0.225-1.821,0.359-2.716c0.133-0.894,0.252-1.803,0.357-2.727c0.104-0.924,0.156-1.899,0.156-2.928
		c0-0.671-0.242-1.188-0.727-1.554s-1.076-0.548-1.777-0.548c-0.625,0-1.154,0.205-1.586,0.615c-0.434,0.41-0.865,0.913-1.297,1.509
		c-0.447,0.611-0.928,1.318-1.441,2.123c-0.514,0.805-0.999,1.572-1.454,2.302c-0.454,0.73-0.838,1.353-1.15,1.866
		c-0.313,0.515-0.484,0.794-0.515,0.839l-0.246-0.269c0-0.029,0.008-0.09,0.022-0.179c0.015-0.09,0.06-0.306,0.135-0.648
		c0.104-0.491,0.216-0.972,0.335-1.441s0.234-0.95,0.347-1.441c0.111-0.492,0.204-0.998,0.279-1.521
		c0.074-0.521,0.111-1.072,0.111-1.653c0-0.671-0.224-1.188-0.67-1.554c-0.447-0.365-0.983-0.548-1.609-0.548
		c-0.671,0-1.248,0.201-1.732,0.604s-0.942,0.909-1.375,1.521c-0.446,0.611-0.916,1.314-1.407,2.112
		c-0.492,0.797-0.95,1.561-1.375,2.29c-0.425,0.73-0.782,1.356-1.073,1.878c-0.29,0.521-0.45,0.805-0.48,0.85l-0.245-0.269
		c0.148-0.938,0.29-1.848,0.424-2.727c0.06-0.372,0.115-0.756,0.168-1.151c0.052-0.395,0.101-0.778,0.146-1.151
		c0.045-0.372,0.078-0.722,0.101-1.05s0.033-0.618,0.033-0.872c0-0.462-0.015-0.827-0.045-1.095
		c-0.029-0.269-0.122-0.473-0.279-0.615c-0.156-0.142-0.395-0.23-0.715-0.268s-0.764-0.057-1.33-0.057
		c-0.372,0-0.678,0.026-0.916,0.079c-0.238,0.052-0.443,0.156-0.615,0.312c-0.171,0.156-0.323,0.376-0.458,0.659
		c-0.134,0.283-0.275,0.663-0.425,1.14c-0.148,0.463-0.312,1.059-0.491,1.788c-0.179,0.73-0.354,1.535-0.525,2.414
		c-0.172,0.88-0.335,1.8-0.491,2.761c-0.157,0.961-0.295,1.903-0.414,2.827c-0.016,0.121-0.027,0.234-0.042,0.354
		c-0.297,0.247-0.601,0.495-0.941,0.753c-0.835,0.634-1.721,1.218-2.659,1.754c-0.939,0.537-1.904,0.983-2.895,1.342
		c-0.991,0.357-1.934,0.536-2.827,0.536c-0.283,0-0.548-0.029-0.794-0.09c-0.246-0.059-0.48-0.163-0.704-0.312
		c-0.224-0.148-0.443-0.357-0.659-0.626c-0.216-0.268-0.436-0.604-0.659-1.006c1.296-0.357,2.499-0.856,3.609-1.497
		s2.067-1.371,2.872-2.19s1.434-1.691,1.889-2.615c0.454-0.924,0.682-1.848,0.682-2.771c0-0.85-0.149-1.616-0.447-2.302
		s-0.712-1.271-1.24-1.755c-0.529-0.484-1.151-0.86-1.866-1.129c-0.715-0.268-1.49-0.402-2.324-0.402
		c-1.028,0-1.964,0.183-2.806,0.548s-1.602,0.857-2.279,1.476c-0.679,0.618-1.271,1.333-1.777,2.146
		c-0.506,0.812-0.927,1.665-1.263,2.559c-0.335,0.895-0.585,1.808-0.748,2.738c-0.164,0.932-0.246,1.814-0.246,2.648
		c0,0.194,0.012,0.385,0.021,0.576c-0.158,0.125-0.299,0.246-0.468,0.374c-0.835,0.634-1.721,1.218-2.659,1.754
		c-0.939,0.537-1.904,0.983-2.895,1.342c-0.991,0.357-1.934,0.536-2.827,0.536c-0.283,0-0.548-0.029-0.794-0.09
		c-0.246-0.059-0.48-0.163-0.704-0.312c-0.224-0.148-0.443-0.357-0.659-0.626c-0.216-0.268-0.436-0.604-0.659-1.006
		c1.296-0.357,2.499-0.856,3.609-1.497s2.067-1.371,2.872-2.19s1.434-1.691,1.889-2.615c0.454-0.924,0.682-1.848,0.682-2.771
		c0-0.85-0.149-1.616-0.447-2.302s-0.712-1.271-1.24-1.755c-0.529-0.484-1.151-0.86-1.866-1.129
		c-0.715-0.268-1.49-0.402-2.324-0.402c-1.028,0-1.964,0.183-2.806,0.548s-1.602,0.857-2.279,1.476
		c-0.678,0.618-1.271,1.333-1.777,2.146c-0.507,0.812-0.928,1.665-1.263,2.559c-0.335,0.895-0.585,1.808-0.749,2.738
		c-0.164,0.932-0.246,1.814-0.246,2.648c0,1.237,0.175,2.418,0.525,3.543s0.875,2.115,1.576,2.973
		c0.7,0.856,1.576,1.538,2.626,2.045c1.05,0.507,2.276,0.76,3.676,0.76c0.895,0,1.777-0.101,2.648-0.302
		c0.872-0.201,1.714-0.47,2.526-0.805c0.812-0.335,1.587-0.719,2.324-1.151c0.737-0.432,1.427-0.871,2.067-1.318
		c0.273-0.193,0.542-0.397,0.809-0.602c0.261,0.49,0.564,0.948,0.912,1.373c0.7,0.856,1.576,1.538,2.626,2.045
		c1.051,0.507,2.276,0.76,3.677,0.76c0.895,0,1.777-0.101,2.648-0.302c0.872-0.201,1.714-0.47,2.526-0.805
		c0.812-0.335,1.587-0.719,2.324-1.151c0.672-0.394,1.3-0.795,1.892-1.201c0.014,0.171,0.01,0.352,0.03,0.52
		c0.067,0.56,0.201,1.059,0.402,1.498s0.488,0.79,0.86,1.05c0.372,0.262,0.864,0.392,1.476,0.392c0.477,0,0.912-0.108,1.308-0.324
		c0.395-0.216,0.741-0.629,1.039-1.24c1.028-2.071,1.866-3.796,2.515-5.174c0.647-1.379,1.181-2.5,1.598-3.364
		s0.741-1.52,0.973-1.967c0.23-0.447,0.436-0.782,0.614-1.006h0.335c-0.238,1.371-0.439,2.652-0.604,3.845
		c-0.074,0.507-0.148,1.017-0.223,1.53c-0.075,0.515-0.143,1.003-0.201,1.465c-0.061,0.462-0.104,0.871-0.135,1.229
		c-0.029,0.358-0.044,0.634-0.044,0.827c0,0.462,0.025,0.938,0.078,1.431c0.052,0.491,0.156,0.942,0.312,1.353
		c0.156,0.409,0.376,0.745,0.659,1.005c0.283,0.262,0.663,0.392,1.14,0.392c0.626,0,1.178-0.108,1.654-0.324
		s0.909-0.637,1.297-1.263l4.537-11.556h0.336c-0.119,1.073-0.213,2.135-0.279,3.186c-0.068,1.051-0.102,2.045-0.102,2.983
		c0,0.999,0.049,1.923,0.146,2.771c0.096,0.85,0.256,1.587,0.48,2.213c0.223,0.626,0.518,1.114,0.883,1.464
		c0.363,0.351,0.814,0.525,1.352,0.525c1.088,0,2.062-0.146,2.928-0.436c0.863-0.291,1.658-0.663,2.381-1.118
		c0.519-0.325,1.011-0.688,1.491-1.067c0.638,0.329,1.289,0.642,1.962,0.923c1.014,0.432,2.143,0.823,3.387,1.173
		c1.244,0.351,2.498,0.525,3.766,0.525h0.559c0.566-0.224,1.096-0.454,1.586-0.692c0.434-0.209,0.869-0.439,1.309-0.693
		c0.439-0.253,0.785-0.507,1.039-0.76c1.043-0.238,2.029-0.507,2.961-0.805s1.826-0.651,2.682-1.062
		c0.857-0.41,1.691-0.891,2.504-1.441c0.079-0.054,0.158-0.119,0.237-0.175c-0.015,0.338-0.024,0.662-0.024,0.957
		c0,0.596,0.033,1.173,0.1,1.731c0.066,0.56,0.201,1.059,0.402,1.498s0.488,0.79,0.861,1.05c0.371,0.262,0.863,0.392,1.475,0.392
		c0.268,0,0.514-0.048,0.736-0.146c0.225-0.097,0.434-0.264,0.627-0.503c0.193-0.238,0.383-0.547,0.57-0.928
		c0.186-0.38,0.383-0.86,0.592-1.441l4-11.152h0.357c0.119,0.938,0.277,1.866,0.471,2.782s0.492,1.743,0.893,2.481
		c0.402,0.737,0.947,1.333,1.633,1.787c0.686,0.455,1.586,0.683,2.705,0.683c0.625,0,1.24-0.094,1.844-0.28
		c0.604-0.186,1.184-0.417,1.742-0.692s1.084-0.57,1.576-0.883c0.467-0.297,0.882-0.563,1.253-0.808
		c0.002-0.001,0.003-0.001,0.005-0.002c3.417-1.875,4.755-4.177,4.755-4.177C133.302,27.135,131.657,26.697,131.657,26.697z
		 M25.011,31.224c0.03-0.462,0.093-0.938,0.19-1.431c0.097-0.491,0.238-0.979,0.425-1.464c0.186-0.483,0.432-0.916,0.737-1.296
		c0.305-0.38,0.685-0.689,1.14-0.928c0.454-0.238,1.002-0.357,1.643-0.357c0.357,0,0.659,0.216,0.905,0.647
		c0.246,0.433,0.369,0.984,0.369,1.654c0,0.478-0.187,0.969-0.559,1.476c-0.373,0.507-0.831,0.976-1.375,1.408
		c-0.544,0.432-1.133,0.786-1.766,1.062c-0.634,0.275-1.218,0.413-1.754,0.413C24.967,32.081,24.981,31.686,25.011,31.224z
		 M42.601,31.224c0.03-0.462,0.093-0.938,0.19-1.431c0.097-0.491,0.238-0.979,0.425-1.464c0.186-0.483,0.432-0.916,0.737-1.296
		c0.305-0.38,0.685-0.689,1.14-0.928c0.454-0.238,1.002-0.357,1.643-0.357c0.357,0,0.659,0.216,0.905,0.647
		c0.246,0.433,0.369,0.984,0.369,1.654c0,0.478-0.187,0.969-0.559,1.476c-0.373,0.507-0.831,0.976-1.375,1.408
		c-0.544,0.432-1.133,0.786-1.766,1.062c-0.634,0.275-1.218,0.413-1.755,0.413C42.556,32.081,42.571,31.686,42.601,31.224z
		 M89.538,20.976c0.148-0.797,0.324-1.676,0.525-2.637s0.424-1.979,0.67-3.051c0.246-1.073,0.51-2.127,0.793-3.163
		c0.283-1.035,0.574-2.026,0.873-2.973c0.297-0.946,0.604-1.78,0.916-2.503s0.629-1.296,0.949-1.721s0.629-0.637,0.928-0.637
		c0.254,0,0.455,0.083,0.604,0.246c0.148,0.164,0.264,0.35,0.346,0.559c0.082,0.209,0.135,0.41,0.156,0.604
		c0.023,0.194,0.035,0.321,0.035,0.38c-0.076,1.059-0.242,2.098-0.504,3.118c-0.26,1.021-0.588,2.026-0.982,3.017
		c-0.396,0.991-0.836,1.959-1.32,2.906s-0.979,1.87-1.486,2.771c-0.506,0.901-1.008,1.77-1.508,2.604
		c-0.5,0.835-0.949,1.64-1.352,2.414C89.269,22.418,89.388,21.773,89.538,20.976z M96.937,31.213
		c-0.076,0.678-0.188,1.363-0.336,2.056c-0.148,0.693-0.344,1.36-0.582,2.001s-0.521,1.21-0.848,1.709
		c-0.328,0.5-0.701,0.898-1.119,1.196c-0.416,0.298-0.879,0.447-1.385,0.447c-0.432,0-0.887-0.037-1.363-0.112
		c-0.477-0.074-0.932-0.156-1.363-0.245c-0.492-0.104-0.984-0.231-1.477-0.381c0.045-0.521,0.098-1.08,0.158-1.676
		c0.059-0.521,0.133-1.121,0.223-1.8c0.09-0.678,0.201-1.419,0.336-2.224c0.164-0.998,0.416-1.851,0.76-2.559
		c0.342-0.708,0.736-1.289,1.184-1.744c0.447-0.454,0.932-0.789,1.453-1.005s1.043-0.324,1.564-0.324
		c0.582,0,1.062,0.078,1.441,0.234c0.381,0.156,0.678,0.361,0.895,0.614c0.215,0.254,0.365,0.548,0.447,0.883
		c0.082,0.336,0.123,0.689,0.123,1.062C97.048,29.913,97.011,30.535,96.937,31.213z"/>
</g>
</svg>
