<?xml version="1.0" encoding="utf-8"?>
<!-- Generator: Adobe Illustrator 16.0.0, SVG Export Plug-In . SVG Version: 6.00 Build 0)  -->
<!DOCTYPE svg PUBLIC "-//W3C//DTD SVG 1.1//EN" "http://www.w3.org/Graphics/SVG/1.1/DTD/svg11.dtd">
<svg version="1.1" id="Layer_1" xmlns="http://www.w3.org/2000/svg" xmlns:xlink="http://www.w3.org/1999/xlink" x="0px" y="0px"
	 width="100px" height="100px" viewBox="0 0 100 100" enable-background="new 0 0 100 100" xml:space="preserve">
<g>
	<circle fill="#E9EBEE" cx="40.872" cy="45.838" r="40.872"/>
</g>
<g>
	<g>
		<path fill="#FFFFFF" d="M17.859,87.688c0,0-2.118-18.561,16.122-20.631h7.805V63.46c0,0,5.49,2.358,11.048,0.264l0.176,3.333
			h9.119c0,0,15.883,1.585,14.922,20.631H17.859z"/>
	</g>
	<g>
		<path fill="#3B434F" d="M76.899,88.015L76.899,88.015H18.423H17.29l0.282-4.837c0.553-9.442,7.993-16.648,16.506-16.648h7.708
			v0.964h-7.191c-8.205,0-15.375,6.937-15.908,16.026l-0.196,3.354h58.255l-0.109-3.354c-0.532-9.09-7.703-16.026-15.908-16.026
			h-7.279v-0.964h7.744c8.514,0,15.952,7.206,16.506,16.648l0.283,4.837H76.899z"/>
	</g>
	<g>
		<path fill="#3B434F" d="M42.399,63.055v5.408c0,2.808,2.277,5.082,5.085,5.082c2.809,0,5.086-2.274,5.086-5.082v-5.297
			c0.295-0.09,0.589-0.187,0.878-0.293V68.5c0,3.319-2.689,6.01-6.007,6.01c-3.317,0-6.007-2.69-6.007-6.01v-5.793
			C41.752,62.832,42.074,62.948,42.399,63.055"/>
	</g>
	<g>
		<path fill="#3B434F" d="M63.223,78.129l-2.483,5.181c-0.127,0.262-0.439,0.373-0.702,0.247s-0.372-0.44-0.246-0.702l2.397-5.004
			l-1.874-3.246c-0.145-0.252-0.06-0.573,0.193-0.72c0.251-0.145,0.572-0.059,0.719,0.193l2.017,3.493
			C63.347,77.752,63.332,77.967,63.223,78.129"/>
	</g>
	<g>
		<path fill="#3B434F" d="M31.704,78.134l2.498,5.196c0.126,0.264,0.443,0.375,0.706,0.248c0.263-0.126,0.375-0.44,0.248-0.704
			l-2.412-5.02l1.885-3.256c0.146-0.252,0.059-0.575-0.194-0.721c-0.252-0.146-0.577-0.059-0.723,0.192l-2.028,3.504
			C31.58,77.756,31.595,77.972,31.704,78.134"/>
	</g>
	<g>
		<rect x="41.434" y="66.354" fill="#3B434F" width="0.966" height="21.309"/>
	</g>
	<g>
		<rect x="52.57" y="66.529" fill="#3B434F" width="0.966" height="21.31"/>
	</g>
	<g>
		<polygon fill="#3B434F" points="44.989,76.795 47.455,74.123 50.127,76.795 48.688,78.234 50.949,87.482 43.96,87.482 
			46.427,78.234 		"/>
	</g>
	<g>
		<path fill="#3B434F" d="M50.477,87.624l-2.486-9.275l0.518-0.156l0.341-0.364l2.629,9.812L50.477,87.624z M43.465,87.515
			l2.595-9.641l0.167,0.144l0.526,0.35l0.174,0.019l-2.461,9.146L43.465,87.515z"/>
	</g>
	<g>
		<path fill="#3B434F" d="M53.445,79.423l-0.683,0.683l-2.653-2.653c-0.512,0.813-1.417,1.354-2.449,1.354
			c-1.075,0-2.01-0.587-2.509-1.455l-2.77,2.77l-0.684-0.683l5.455-5.455l0.427-0.396l0.426,0.396L53.445,79.423z M45.689,76.815
			c0.349,0.712,1.081,1.202,1.927,1.202c0.828,0,1.545-0.47,1.903-1.156l-1.938-1.938L45.689,76.815z"/>
	</g>
	<g>
		<path fill="#FFFFFF" d="M47.66,8.013c10.908,0,19.519,10.194,19.239,22.443l-0.298,13.018
			c-0.264,11.54-8.741,20.661-18.941,20.661c-10.201,0-18.679-9.121-18.943-20.661L28.42,30.457
			C28.14,18.208,36.75,8.013,47.66,8.013"/>
	</g>
	<g>
		<path fill="#3B434F" d="M67.82,30.079L67.51,43.626c-0.277,12.009-9.161,21.501-19.849,21.501
			c-10.688,0-19.571-9.492-19.848-21.501L27.5,30.079c-0.292-12.747,8.73-23.355,20.16-23.355S68.114,17.333,67.82,30.079
			 M47.616,8.127c-10.759,0-19.252,10.115-18.975,22.268l0.292,12.917c0.261,11.45,8.622,20.5,18.683,20.5
			c10.062,0,18.424-9.05,18.684-20.5l0.294-12.917C66.869,18.242,58.376,8.127,47.616,8.127"/>
	</g>
	<g>
		<path fill="#FFFFFF" d="M27.479,32.054c-0.002,0-0.215-0.17-0.617-0.296c-0.201-0.064-0.451-0.116-0.735-0.128
			c-0.071-0.003-0.145-0.004-0.219-0.002c-0.074,0.002-0.15,0.008-0.229,0.016c-0.156,0.017-0.316,0.046-0.479,0.093
			c-0.648,0.187-1.308,0.639-1.696,1.573c-0.195,0.467-0.323,1.055-0.358,1.79c-0.008,0.184-0.011,0.377-0.006,0.58
			c0.002,0.203,0.013,0.415,0.03,0.637c0.033,0.445,0.094,0.93,0.185,1.458c-0.001,0-0.084,1.597,0.486,3.433
			c0.538,1.795,1.828,3.999,4.207,4.629C27.773,41.277,27.765,36.633,27.479,32.054"/>
	</g>
	<g>
		<path fill="#3B434F" d="M27.75,32.238c0,0-4.146-1.285-4,2.979c0,0,0.618,6.182,0.885,6.751c0,0,1.629,3.599,4.317,3.759
			c2.627,0.156,0,0,0,0l0.032,1.16c0,0-4.724-0.606-5.636-6.05l-0.72-4.945c0,0-0.56-6.545,4.864-4.881c5.285,1.621,0,0,0,0
			L27.75,32.238"/>
	</g>
	<g>
		<path fill="#3B434F" d="M26.382,40.827c0,0-0.231,0.175-0.431,0.175s-0.43-0.175-0.43-0.175l-0.427-4.312
			c0,0,0.59-2.124,3.096-1.001l0.059,1.233c0,0-2.197-0.779-2.152,0.191C26.14,37.872,26.382,40.827,26.382,40.827"/>
	</g>
	<g>
		<path fill="#FFFFFF" d="M67.764,32.064c0.002,0,0.216-0.169,0.621-0.296c0.201-0.063,0.451-0.115,0.737-0.128
			c0.071-0.003,0.146-0.004,0.22-0.001c0.076,0.001,0.152,0.007,0.231,0.016c0.155,0.016,0.317,0.046,0.479,0.092
			c0.649,0.186,1.313,0.639,1.703,1.572c0.196,0.467,0.326,1.054,0.359,1.788c0.009,0.183,0.012,0.376,0.007,0.579
			c-0.004,0.203-0.013,0.415-0.031,0.637c-0.033,0.444-0.094,0.929-0.185,1.457c0.002-0.001,0.085,1.596-0.488,3.43
			c-0.54,1.793-1.835,3.997-4.226,4.626C67.468,41.281,67.477,36.64,67.764,32.064"/>
	</g>
	<g>
		<path fill="#3B434F" d="M67.489,32.248c0,0,4.166-1.284,4.02,2.977c0,0-0.62,6.177-0.89,6.747c0,0-1.636,3.596-4.335,3.756
			c-2.639,0.156,0,0,0,0l-0.033,1.159c0,0,4.745-0.605,5.661-6.045l0.723-4.943c0,0,0.562-6.54-4.885-4.877c-5.308,1.62,0,0,0,0
			L67.489,32.248"/>
	</g>
	<g>
		<path fill="#3B434F" d="M68.865,40.831c0,0,0.232,0.176,0.433,0.176c0.201,0,0.431-0.176,0.431-0.176l0.43-4.31
			c0,0-0.592-2.122-3.109-1.001l-0.06,1.232c0,0,2.208-0.779,2.162,0.191C69.107,37.877,68.865,40.831,68.865,40.831"/>
	</g>
	<g>
		<path fill="#C1BFBD" d="M67.101,32.154c0,0,8.096-21.24-16.832-26.079c0,0-5.217-0.283-9.293-5.14c0,0-2.911,3.991-1.227,7.043
			c0,0-2.143,1.869-7.891,0.38c0,0-0.87,1.858-0.175,3.997c0,0-7.229,3.126-3.783,17.108c0.032,0.134,0.066,0.269,0.101,0.405
			c0,0,3.093-12.365,5.26-12.564c0,0,11.677,6.705,21.566-0.57c0,0,4.884,6.515,10.871,6.853
			C65.698,23.588,66.782,27.79,67.101,32.154"/>
	</g>
	<g>
		<path fill="#3B434F" d="M67.654,32.33c-0.243,0.66-1.053,0.438-1.053,0.438c-0.319-4.365-1.315-8.594-1.315-8.594
			c-6.066-0.765-10.61-6.577-10.61-6.577c-9.831,6.757-21.397,0.263-21.397,0.263c-2.322,1.925-4.648,12.101-4.648,12.101
			c-0.034-0.136-1.194,0.134-1.228,0c-3.444-13.981,3.596-17.889,3.596-17.889c-0.694-2.14,0.439-4.384,0.439-4.384
			c5.748,1.488,7.541,0.175,7.541,0.175c-1.519-3.806,1.841-7.717,1.841-7.717c4.075,4.857,9.647,5.349,9.647,5.349
			C73.393,10.09,69.279,27.919,67.654,32.33 M49.94,6.636c0,0-4.692-0.255-8.857-4.647c0,0-2.386,3.174-0.702,6.226
			c0,0-2.408,2.366-8.155,0.877c0,0-0.455,1.19,0,3.419c0,0-6.445,3.328-4.21,14.645c0.028,0.135-0.034-0.049,0,0.087
			c0,0,2.697-10.442,5.175-10.523c0,0,12.097,6.849,21.834-0.79c0,0,5.149,6.853,11.137,7.191c0,0,0.52,1.469,1.14,5.788
			C67.303,28.91,72.555,10.946,49.94,6.636"/>
	</g>
	<g opacity="0.2" enable-background="new    ">
		<g>
			<defs>
				<rect id="SVGID_1_" x="38.628" y="5.672" width="27.886" height="15.344"/>
			</defs>
			<clipPath id="SVGID_2_">
				<use xlink:href="#SVGID_1_"  overflow="visible"/>
			</clipPath>
			<g clip-path="url(#SVGID_2_)">
				<path fill="#3B434F" d="M42.541,5.671c0.162,0.003,0.162,0.113,0.208,0.227c0.07,0.17,0.132,0.343,0.214,0.505
					c0.123,0.245,0.249,0.488,0.396,0.711c0.123,0.188,0.256,0.367,0.389,0.547c0.077,0.103,0.169,0.195,0.246,0.297
					C44.024,8,44.064,8.033,44.097,8.075c0.01,0.01,0.022,0.02,0.032,0.029c0.04,0.052,0.09,0.093,0.129,0.146
					c0.044,0.042,0.087,0.084,0.131,0.125c0.066,0.067,0.129,0.143,0.206,0.201c0.016,0.018,0.032,0.035,0.048,0.052
					c0.062,0.046,0.111,0.103,0.172,0.148l0.029,0.032c0.088,0.066,0.165,0.148,0.252,0.214c0.143,0.107,0.278,0.22,0.425,0.323
					c0.097,0.069,0.194,0.145,0.292,0.213c0.174,0.123,0.358,0.233,0.536,0.349c0.11,0.071,0.226,0.125,0.339,0.194
					c0.314,0.194,0.659,0.36,0.997,0.53c0.11,0.055,0.218,0.1,0.331,0.149c0.071,0.032,0.149,0.069,0.22,0.104
					c0.04,0.019,0.076,0.028,0.116,0.045c0.087,0.037,0.181,0.077,0.266,0.116c0.081,0.036,0.158,0.06,0.24,0.091
					c0.089,0.034,0.184,0.076,0.272,0.11c0.156,0.059,0.312,0.11,0.467,0.168c0.16,0.061,0.319,0.1,0.483,0.155
					c0.316,0.107,0.653,0.186,0.981,0.285c0.099,0.03,0.202,0.044,0.299,0.072c0.048,0.014,0.11,0.011,0.151,0.032
					c0.018,0.008,0.037,0.027,0.053,0.039c0.025,0.02,0.045,0.052,0.064,0.078c0.03,0.042,0.063,0.083,0.088,0.132
					c0.025,0.052,0.031,0.123,0.045,0.182c0.012,0.047-0.004,0.106-0.013,0.139c-0.007,0.028-0.005,0.047-0.013,0.075
					c-0.02,0.071-0.053,0.141-0.094,0.194c-0.044,0.055-0.148,0.056-0.228,0.036c-0.139-0.037-0.291-0.052-0.427-0.091
					c-0.029-0.008-0.054-0.005-0.081-0.013c-0.158-0.045-0.331-0.072-0.487-0.116c-0.035-0.01-0.064-0.009-0.1-0.02
					c-0.123-0.037-0.252-0.059-0.376-0.097c-0.314-0.096-0.634-0.176-0.934-0.285c-0.069-0.025-0.134-0.039-0.203-0.064
					c-0.491-0.186-0.979-0.363-1.427-0.588c-0.117-0.06-0.234-0.106-0.35-0.168c-0.326-0.176-0.644-0.358-0.953-0.55
					c-0.041-0.025-0.08-0.058-0.12-0.084c-0.179-0.12-0.352-0.241-0.524-0.366c-0.175-0.125-0.331-0.276-0.503-0.404
					c-0.036-0.027-0.066-0.063-0.104-0.091c-0.01-0.012-0.021-0.023-0.031-0.036c-0.041-0.03-0.072-0.071-0.11-0.1
					c-0.095-0.071-0.174-0.164-0.257-0.246c-0.078-0.078-0.162-0.154-0.23-0.243c-0.015-0.014-0.029-0.028-0.044-0.042
					c-0.044-0.057-0.1-0.104-0.143-0.162c-0.076-0.099-0.163-0.188-0.237-0.288c-0.092-0.124-0.187-0.246-0.276-0.373
					c-0.088-0.125-0.166-0.256-0.249-0.388c-0.226-0.357-0.409-0.747-0.58-1.161c-0.062-0.15-0.104-0.311-0.156-0.469
					c-0.036-0.109-0.052-0.226-0.084-0.337c-0.007-0.029-0.005-0.052-0.013-0.081c-0.017-0.063-0.035-0.142-0.012-0.207
					c0.01-0.029,0.052-0.07,0.081-0.081C42.506,5.677,42.526,5.683,42.541,5.671 M40.95,10.523c0.114,0,0.167,0.085,0.217,0.152
					c0.052,0.069,0.123,0.125,0.176,0.194c0.042,0.043,0.085,0.086,0.129,0.129c0.029,0.039,0.066,0.069,0.1,0.104
					c0.035,0.036,0.067,0.073,0.107,0.104c0.039,0.039,0.079,0.078,0.117,0.117c0.04,0.03,0.071,0.07,0.111,0.1
					c0.121,0.091,0.224,0.206,0.345,0.297c0.129,0.097,0.251,0.205,0.383,0.298c0.173,0.121,0.344,0.245,0.521,0.362
					c0.091,0.06,0.183,0.11,0.276,0.168c0.071,0.045,0.144,0.096,0.217,0.136c0.304,0.168,0.611,0.334,0.927,0.492
					c0.249,0.125,0.514,0.228,0.771,0.344c0.08,0.035,0.158,0.059,0.24,0.09c0.186,0.07,0.381,0.142,0.57,0.213
					c0.18,0.067,0.37,0.113,0.552,0.174c0.029,0.01,0.055,0.009,0.084,0.02c0.094,0.034,0.201,0.055,0.298,0.084
					c0.048,0.015,0.099,0.015,0.146,0.032c0.105,0.039,0.237,0.158,0.275,0.262c0.067,0.182-0.006,0.389-0.091,0.508
					c-0.024,0.036-0.062,0.095-0.106,0.11c-0.07,0.023-0.144-0.001-0.208-0.02c-0.082-0.023-0.162-0.027-0.243-0.051
					c-0.15-0.045-0.306-0.07-0.456-0.117c-0.316-0.097-0.63-0.184-0.931-0.297c-0.694-0.264-1.336-0.572-1.925-0.938
					c-0.245-0.152-0.477-0.324-0.706-0.492c-0.083-0.06-0.156-0.134-0.238-0.194c-0.11-0.082-0.204-0.182-0.314-0.265
					c-0.012-0.013-0.023-0.026-0.035-0.039c-0.022-0.02-0.047-0.037-0.068-0.059c-0.018-0.018-0.035-0.036-0.052-0.054
					c-0.042-0.031-0.074-0.071-0.11-0.107c-0.035-0.035-0.073-0.067-0.103-0.107c-0.024-0.022-0.047-0.045-0.072-0.068
					c-0.079-0.105-0.18-0.191-0.259-0.298c-0.019-0.025-0.045-0.046-0.064-0.071c-0.076-0.102-0.16-0.197-0.234-0.301
					c-0.083-0.118-0.169-0.236-0.246-0.359c-0.03-0.048-0.053-0.097-0.084-0.145c-0.034-0.053-0.061-0.108-0.091-0.166
					c-0.019-0.034-0.045-0.071-0.059-0.11s-0.017-0.113,0.003-0.148c0.015-0.024,0.047-0.062,0.076-0.071
					C40.914,10.529,40.935,10.535,40.95,10.523 M38.771,12.885c0.13,0.001,0.164,0.098,0.218,0.175
					c0.087,0.124,0.188,0.238,0.278,0.359c0.074,0.096,0.167,0.176,0.241,0.271c0.027,0.027,0.056,0.054,0.084,0.081
					c0.04,0.054,0.101,0.115,0.154,0.156c0.012,0.012,0.023,0.023,0.033,0.035c0.027,0.027,0.054,0.052,0.084,0.074
					c0.014,0.015,0.027,0.03,0.042,0.045c0.072,0.055,0.131,0.125,0.203,0.178c0.172,0.128,0.336,0.267,0.512,0.392
					c0.383,0.269,0.805,0.493,1.238,0.711c0.142,0.071,0.292,0.124,0.434,0.194c0.061,0.029,0.122,0.044,0.185,0.07
					c0.17,0.073,0.353,0.135,0.528,0.201c0.244,0.091,0.502,0.148,0.753,0.233c0.087,0.03,0.18,0.043,0.266,0.071
					c0.075,0.025,0.152,0.03,0.229,0.052c0.154,0.044,0.325,0.069,0.483,0.109c0.092,0.024,0.185,0.029,0.271,0.052
					c0.099,0.025,0.202,0.028,0.298,0.051c0.023,0.002,0.043,0.005,0.065,0.006c0.099,0.025,0.214,0.028,0.314,0.052
					c0.043,0.01,0.081,0.003,0.124,0.013c0.141,0.032,0.301,0.026,0.444,0.058c0.041,0.009,0.083,0.005,0.12,0.013h0.039
					c0.049,0.011,0.112,0.008,0.163,0.02h0.042c0.082,0.018,0.18,0.007,0.262,0.025h0.055c0.105,0.023,0.231,0.003,0.337,0.026
					c0.042,0.001,0.082,0.002,0.122,0.003c0.024,0.005,0.061-0.002,0.089,0.003c0.072,0.016,0.166,0.002,0.24,0.013
					c0.043,0.007,0.097-0.005,0.135,0.003c0.036,0.007,0.08-0.003,0.11,0.003h0.253c0.199,0,0.395-0.005,0.587-0.007
					c0.091,0,0.19-0.021,0.266,0.007c0.042,0.015,0.082,0.052,0.117,0.077c0.077,0.057,0.15,0.137,0.187,0.233
					c0.011,0.029,0.01,0.055,0.019,0.087c0.015,0.052,0.037,0.134,0.02,0.204c-0.011,0.046-0.016,0.101-0.032,0.146
					c-0.025,0.069-0.091,0.089-0.168,0.106l-0.084,0.003c-0.12,0.026-0.266,0.003-0.386,0.029c-0.024,0.005-0.055-0.001-0.075,0.003
					c-0.044,0.001-0.09,0.002-0.136,0.003c-0.043,0.009-0.099-0.004-0.148,0.006c-0.042,0.009-0.092,0.007-0.139,0.007h-0.052
					c-0.041,0.008-0.096,0.006-0.139,0.006h-0.188c-0.059,0.013-0.14,0.003-0.204,0.003c-0.054,0-0.121,0.007-0.169-0.003h-0.11
					c-0.077,0-0.152,0-0.224-0.006h-0.11c-0.063-0.013-0.146,0-0.208-0.013H46.77c-0.045-0.011-0.106-0.003-0.152-0.014h-0.065
					c-0.034-0.007-0.084-0.005-0.12-0.013h-0.051c-0.12-0.026-0.258-0.013-0.375-0.039l-0.098-0.007
					c-0.153-0.035-0.321-0.029-0.47-0.064c-0.04-0.009-0.074-0.003-0.113-0.013c-0.137-0.033-0.29-0.043-0.425-0.077
					c-0.022-0.006-0.036,0-0.058-0.007c-0.064-0.017-0.138-0.027-0.202-0.045c-0.029-0.008-0.051-0.004-0.081-0.013
					c-0.218-0.063-0.446-0.096-0.661-0.162c-0.381-0.117-0.766-0.222-1.111-0.375c-0.079-0.034-0.156-0.055-0.233-0.09
					c-0.137-0.063-0.278-0.12-0.413-0.188c-0.21-0.106-0.416-0.217-0.618-0.33c-0.144-0.079-0.282-0.176-0.416-0.265
					c-0.11-0.073-0.217-0.145-0.324-0.22c-0.105-0.075-0.204-0.16-0.309-0.236c-0.105-0.078-0.196-0.176-0.301-0.256
					c-0.04-0.03-0.074-0.08-0.113-0.11c-0.098-0.074-0.179-0.172-0.266-0.259c-0.369-0.368-0.682-0.792-0.962-1.249
					c-0.065-0.105-0.112-0.216-0.168-0.33c-0.025-0.053-0.053-0.123-0.026-0.194c0.008-0.023,0.055-0.069,0.078-0.078
					C38.736,12.891,38.758,12.896,38.771,12.885 M60.219,16.074c0.118,0.001,0.154,0.08,0.204,0.149
					c0.05,0.068,0.105,0.132,0.156,0.201c0.106,0.145,0.242,0.268,0.35,0.411c0.038,0.049,0.091,0.088,0.13,0.139
					c0.014,0.014,0.03,0.028,0.045,0.042c0.053,0.069,0.123,0.125,0.185,0.187c0.053,0.053,0.106,0.106,0.159,0.159
					c0.083,0.063,0.15,0.151,0.232,0.214c0.048,0.035,0.087,0.081,0.134,0.116c0.152,0.115,0.292,0.249,0.446,0.362
					c0.233,0.171,0.468,0.343,0.711,0.504c0.365,0.242,0.753,0.46,1.147,0.673c0.222,0.121,0.457,0.223,0.686,0.336
					c0.082,0.04,0.167,0.07,0.247,0.11c0.029,0.015,0.058,0.018,0.087,0.032c0.127,0.062,0.269,0.11,0.399,0.168
					c0.033,0.015,0.062,0.019,0.097,0.032c0.127,0.048,0.263,0.098,0.393,0.146c0.073,0.027,0.16,0.037,0.227,0.074
					c0.169,0.093,0.323,0.292,0.236,0.557c-0.031,0.094-0.083,0.167-0.136,0.239c-0.037,0.05-0.082,0.07-0.148,0.09
					c-0.018,0.005-0.09-0.021-0.104-0.025c-0.09-0.032-0.18-0.048-0.27-0.078c-0.464-0.154-0.91-0.318-1.338-0.505
					c-0.693-0.303-1.313-0.688-1.898-1.1c-0.17-0.119-0.324-0.261-0.49-0.385c-0.049-0.037-0.09-0.083-0.139-0.12
					c-0.011-0.01-0.021-0.021-0.029-0.032c-0.066-0.05-0.119-0.113-0.185-0.162c-0.029-0.03-0.059-0.061-0.088-0.091
					c-0.033-0.024-0.058-0.055-0.088-0.084c-0.028-0.029-0.059-0.055-0.085-0.087c-0.02-0.02-0.04-0.04-0.061-0.059
					c-0.036-0.037-0.075-0.078-0.106-0.12c-0.02-0.019-0.04-0.039-0.059-0.058c-0.042-0.055-0.096-0.101-0.137-0.155
					c-0.106-0.142-0.223-0.274-0.327-0.421c-0.094-0.131-0.195-0.262-0.282-0.401c-0.111-0.178-0.211-0.36-0.31-0.55
					c-0.045-0.083-0.093-0.188-0.124-0.279c-0.014-0.04-0.019-0.112,0.003-0.148c0.015-0.024,0.047-0.061,0.074-0.071
					C60.183,16.08,60.204,16.085,60.219,16.074"/>
			</g>
		</g>
	</g>
	<g>
		<path fill="#3B434F" d="M49.283,40.485h0.307c0.635,0.861,0.893,2.186,1.228,3.332c0.103,0.355,0.003,0.977-0.088,1.228
			c-0.333,0.919-1.376,0.903-2.236,1.315c-0.23,0.111-0.402,0.302-0.701,0.351c-0.195-0.171-0.431-0.205-0.526-0.481
			c-0.238-0.327,0.068-0.53,0.306-0.658c0.434-0.232,1.77-0.46,1.93-0.877c0.198-0.226,0.065-0.902,0-1.14
			c-0.17-0.608-0.252-1.117-0.482-1.667c-0.153-0.364-0.423-0.749-0.264-1.183C48.889,40.647,49.175,40.583,49.283,40.485"/>
	</g>
	<g>
		<path fill="#F5F3EF" d="M58.271,39.521c1.211,0,2.191,0.982,2.191,2.192c0,1.211-0.98,2.192-2.191,2.192s-2.193-0.981-2.193-2.192
			C56.078,40.502,57.061,39.521,58.271,39.521"/>
	</g>
	<g>
		<path fill="#F4F3EF" d="M37.05,39.521c1.211,0,2.193,0.982,2.193,2.192c0,1.211-0.982,2.192-2.193,2.192s-2.192-0.981-2.192-2.192
			C34.857,40.502,35.839,39.521,37.05,39.521"/>
	</g>
</g>
<g>
	<path fill="#3B434F" d="M57.802,37.036c-0.401,0-0.791-0.056-1.165-0.167c-2.081-0.62-2.896-2.734-2.931-2.823
		c-0.09-0.242,0.031-0.51,0.272-0.6c0.239-0.09,0.508,0.031,0.599,0.271l0,0c0.007,0.018,0.696,1.779,2.333,2.262
		c1.268,0.374,2.797-0.086,4.549-1.369c0.207-0.152,0.498-0.107,0.65,0.101c0.151,0.208,0.106,0.499-0.102,0.651
		C60.487,36.476,59.077,37.036,57.802,37.036z"/>
</g>
<g>
	<path fill="#3B434F" d="M62.61,32.309c-0.058,0-0.115-0.008-0.174-0.025l-8.451-2.465c-0.329-0.096-0.518-0.441-0.422-0.77
		c0.097-0.33,0.441-0.518,0.77-0.422l8.452,2.465c0.329,0.096,0.519,0.441,0.422,0.77C63.127,32.133,62.88,32.309,62.61,32.309z"/>
</g>
<g>
	<path fill="#3B434F" d="M37.429,37.036c-1.275,0-2.684-0.56-4.207-1.674c-0.207-0.152-0.252-0.443-0.1-0.651
		c0.151-0.208,0.443-0.253,0.65-0.101c1.751,1.283,3.281,1.743,4.549,1.369c1.637-0.483,2.326-2.245,2.333-2.262
		c0.091-0.24,0.36-0.361,0.599-0.27c0.24,0.091,0.361,0.358,0.271,0.599c-0.034,0.089-0.85,2.203-2.931,2.823
		C38.22,36.98,37.831,37.036,37.429,37.036z"/>
</g>
<g>
	<path fill="#3B434F" d="M32.62,32.309c-0.27,0-0.517-0.176-0.596-0.447c-0.097-0.329,0.093-0.674,0.422-0.77l8.452-2.465
		c0.33-0.096,0.674,0.093,0.77,0.422c0.095,0.329-0.093,0.673-0.422,0.77l-8.451,2.465C32.737,32.301,32.678,32.309,32.62,32.309z"
		/>
</g>
<g>
	<path fill="#3B434F" d="M55.093,55.824c0,2.725-3.192,1.45-7.132,1.45c-3.939,0-7.133,1.492-7.133-1.233
		c0-2.725,3.194-6.167,7.133-6.167C51.9,49.875,55.093,53.099,55.093,55.824z"/>
</g>
<g>
	<g>
		<path fill="#1D9631" d="M48.117,52.633c-1.643,0.096-4.748,0.554-4.914,4.384c-0.072,1.658-0.305,5.554,0,7.371
			c0.075,0.445,0.332,0.962,1.528,0.962c0,0,1.594-0.265,1.594-1.127c0,0.696-0.106,1.877,0,2.489
			c0.097,0.564,0.398,1.129,1.992,1.129c0,0,1.892-0.082,1.892-1.261c0-0.449,0-1.794,0-1.794s0.332,1.262,1.711,1.262
			c0.48,0,1.493-0.149,1.493-2.208c0-0.747,0.183-5.289,0-7.039C53.237,55.125,52.525,52.377,48.117,52.633z"/>
	</g>
	<g>
		<path fill="#51CE6F" d="M47.764,52.045c-1.643,0.097-4.748,0.554-4.914,4.384c-0.072,1.658-0.304,5.553,0,7.371
			c0.075,0.445,0.332,0.963,1.527,0.963c0,0,1.594-0.267,1.594-1.129c0,0.696-0.105,1.877,0,2.49
			c0.098,0.563,0.398,1.129,1.993,1.129c0,0,1.893-0.083,1.893-1.262c0-0.448,0-1.794,0-1.794s0.332,1.263,1.71,1.263
			c0.482,0,1.494-0.149,1.494-2.208c0-0.748,0.184-5.289,0-7.04C52.885,54.536,52.174,51.789,47.764,52.045z"/>
	</g>
	<g>
		<circle fill="#1D9631" cx="45.572" cy="54.998" r="1.236"/>
	</g>
	<g>
		<circle fill="#1D9631" cx="51.149" cy="58.891" r="0.618"/>
	</g>
	<g>
		<circle fill="#1D9631" cx="48.718" cy="59.95" r="0.618"/>
	</g>
	<g>
		<circle fill="#1D9631" cx="50.365" cy="53.048" r="0.617"/>
	</g>
	<g>
		<circle fill="#1D9631" cx="47.532" cy="65.038" r="0.441"/>
	</g>
	<g>
		<circle fill="#1D9631" cx="50.474" cy="61.979" r="0.441"/>
	</g>
	<g>
		<circle fill="#1D9631" cx="45.121" cy="63.018" r="0.441"/>
	</g>
	<g>
		<circle fill="#1D9631" cx="45.434" cy="59.018" r="0.441"/>
	</g>
</g>
<g>
	<line fill="#FFFFFF" x1="46.143" y1="98.696" x2="36.338" y2="87.648"/>
	
		<rect x="33.855" y="92.551" transform="matrix(0.6639 0.7478 -0.7478 0.6639 83.5396 0.4753)" fill="#3B434F" width="14.772" height="1.241"/>
</g>
<g>
	<g>
		<path fill="#FFFFFF" d="M93.385,97.631c-0.059,0.83-0.829,1.502-1.718,1.502H47.139c-0.888,0-1.562-0.672-1.502-1.502l2.1-29.329
			c0.059-0.829,0.829-1.502,1.718-1.502H93.98c0.89,0,1.563,0.673,1.504,1.502L93.385,97.631z"/>
		<path fill="#3B434F" d="M91.667,99.754H47.139c-0.615,0-1.198-0.246-1.597-0.674c-0.378-0.406-0.565-0.937-0.525-1.493l2.1-29.329
			c0.082-1.146,1.13-2.078,2.337-2.078H93.98c0.616,0,1.198,0.246,1.598,0.675c0.378,0.406,0.565,0.937,0.525,1.491l-2.099,29.329
			C93.922,98.821,92.874,99.754,91.667,99.754z M49.454,67.421c-0.56,0-1.063,0.424-1.099,0.925l-2.1,29.329
			c-0.019,0.269,0.096,0.452,0.196,0.559c0.167,0.181,0.412,0.279,0.688,0.279h44.528c0.56,0,1.063-0.424,1.099-0.926l2.1-29.329
			c0.019-0.268-0.097-0.451-0.196-0.558c-0.167-0.18-0.412-0.279-0.688-0.279H49.454z"/>
	</g>
	<g>
		<path fill="#3B434F" d="M75.347,85.717c-0.146,1.875-1.777,3.391-3.656,3.391c-1.885,0-3.304-1.528-3.169-3.414
			c0.135-1.884,1.772-3.413,3.657-3.413c0.667,0,1.274,0.191,1.777,0.522c-0.49,0.298-0.83,0.782-0.869,1.329
			c-0.063,0.907,0.723,1.644,1.756,1.644C75.017,85.775,75.185,85.754,75.347,85.717z"/>
	</g>
	<g>
		<path fill="#3B434F" d="M71.814,79.745c0.41,0.517,0.511,1.189,0.331,1.81c-0.637,0.046-1.266-0.196-1.676-0.712
			c-0.411-0.515-0.51-1.189-0.33-1.81C70.775,78.987,71.403,79.23,71.814,79.745z"/>
	</g>
</g>
</svg>
