<?xml version="1.0" encoding="utf-8"?>
<!-- Generator: Adobe Illustrator 16.0.0, SVG Export Plug-In . SVG Version: 6.00 Build 0)  -->
<!DOCTYPE svg PUBLIC "-//W3C//DTD SVG 1.1//EN" "http://www.w3.org/Graphics/SVG/1.1/DTD/svg11.dtd">
<svg version="1.1" xmlns="http://www.w3.org/2000/svg" xmlns:xlink="http://www.w3.org/1999/xlink" x="0px" y="0px"
	 width="32.625px" height="6.021px" viewBox="0 0 32.625 6.021" enable-background="new 0 0 32.625 6.021" xml:space="preserve">
<g id="Apparel">
	<g>
		<path fill-rule="evenodd" clip-rule="evenodd" d="M-66.663,18.063c-0.126,0.169-0.252,0.338-0.38,0.505
			c-0.311,0.41-0.772,0.447-1.139,0.082c-0.974-0.969-1.947-1.942-2.917-2.916c-0.3-0.303-0.329-0.683-0.062-0.999
			c0.893-1.063,1.77-2.141,2.695-3.176c1.332-1.491,3.012-2.349,5-2.594c0.268-0.033,0.539-0.051,0.808-0.063
			c0.395-0.02,0.56,0.066,0.808,0.405c0.369-0.249,0.739-0.497,1.11-0.747c0.111-0.075,0.215-0.17,0.338-0.224
			c0.349-0.153,0.449-0.412,0.41-0.779c-0.031-0.302-0.01-0.611-0.005-0.917c0.008-0.432,0.293-0.724,0.719-0.745
			c0.509-0.025,0.883-0.399,0.885-0.885c0-0.478-0.385-0.872-0.863-0.881c-0.503-0.011-0.886,0.35-0.918,0.868
			c-0.033,0.533-0.491,0.855-0.959,0.674c-0.27-0.103-0.444-0.351-0.45-0.641c-0.028-1.208,0.906-2.22,2.154-2.333
			c1.125-0.102,2.224,0.754,2.418,1.882c0.19,1.106-0.354,2.113-1.393,2.56c-0.114,0.05-0.143,0.111-0.162,0.232
			c-0.088,0.506,0.097,0.83,0.553,1.074c0.443,0.238,0.844,0.555,1.263,0.837c0.011,0.008,0.025,0.008,0.058,0.018
			c0.193-0.368,0.53-0.405,0.908-0.388c2.467,0.114,4.468,1.146,6.039,3.04c0.746,0.898,1.504,1.787,2.259,2.678
			c0.373,0.44,0.362,0.763-0.048,1.171c-0.936,0.938-1.872,1.875-2.811,2.81c-0.423,0.423-0.864,0.388-1.223-0.094
			c-0.113-0.151-0.225-0.304-0.384-0.44c0,0.082,0,0.163,0,0.246c0,2.971,0,5.941,0,8.91c0,0.669-0.244,0.913-0.915,0.913
			c-4.28,0-8.561,0-12.841,0c-0.664,0-0.914-0.25-0.915-0.917c0-2.978,0-5.955,0-8.932c0-0.075,0-0.149,0-0.224
			C-66.637,18.071-66.65,18.067-66.663,18.063z M-63.153,10.382c-0.082,0-0.155-0.009-0.223,0.001
			c-1.353,0.195-2.566,0.715-3.557,1.66c-0.569,0.543-1.062,1.168-1.582,1.764c-0.387,0.443-0.76,0.898-1.125,1.332
			c0.651,0.656,1.287,1.296,1.932,1.947c0.396-0.532,0.793-1.068,1.193-1.603c0.226-0.303,0.521-0.408,0.838-0.304
			c0.3,0.098,0.479,0.366,0.489,0.728c0.003,0.071,0.001,0.142,0.001,0.214c0,3.44,0,6.88,0,10.321c0,0.089,0,0.179,0,0.266
			c3.956,0,7.876,0,11.817,0c0-0.105,0-0.197,0-0.289c0-3.49,0-6.98,0-10.47c0-0.392,0.176-0.667,0.488-0.77
			c0.326-0.105,0.612,0.002,0.852,0.322c0.395,0.53,0.789,1.061,1.159,1.559c0.648-0.638,1.291-1.271,1.941-1.91
			c-0.028-0.039-0.061-0.085-0.098-0.128c-0.676-0.798-1.349-1.601-2.029-2.396c-0.801-0.937-1.794-1.597-2.966-1.97
			c-0.449-0.143-0.918-0.22-1.38-0.327c-0.402,2.038-2.264,3.355-4.177,3.211C-61.02,13.43-62.665,12.458-63.153,10.382z
			 M-61.486,10.78c0.407,0.833,1.396,1.407,2.309,1.343c0.939-0.065,1.642-0.512,2.123-1.335c-0.728-0.49-1.428-0.963-2.134-1.431
			c-0.044-0.029-0.14-0.026-0.185,0.003C-60.078,9.828-60.778,10.303-61.486,10.78z"/>
	</g>
</g>
<g id="Brand">
	<g>
		
			<path fill-rule="evenodd" clip-rule="evenodd" stroke="#000000" stroke-width="0.45" stroke-linejoin="round" stroke-miterlimit="10" d="
			M-59.408,64.47c-4.867,0-9.181-3.06-10.79-7.652c-0.492-1.403-0.703-2.85-0.626-4.332c0.275-5.342,4.131-9.603,9.062-10.614
			c0.482-0.099,0.975-0.146,1.463-0.221c0.167-0.025,0.292,0.021,0.418,0.147c3.905,3.912,7.813,7.82,11.726,11.727
			c0.115,0.115,0.159,0.225,0.146,0.382c-0.205,2.366-1.021,4.493-2.529,6.336c-1.748,2.14-3.987,3.487-6.699,4.019
			c-0.71,0.139-1.441,0.178-2.164,0.262C-59.403,64.506-59.406,64.487-59.408,64.47z M-60.84,53.74
			c0.043-0.074,0.074-0.121,0.101-0.17c0.877-1.533,1.753-3.067,2.633-4.599c0.071-0.123,0.063-0.201-0.015-0.317
			c-1.042-1.552-1.67-3.255-1.872-5.116c-0.033-0.302-0.003-0.634-0.328-0.818c-0.071-0.039-0.161-0.087-0.232-0.076
			c-0.474,0.075-0.953,0.139-1.418,0.257c-5.492,1.387-8.959,6.904-7.625,12.543c1.278,5.399,6.417,8.813,11.877,7.928
			c2.694-0.437,4.884-1.761,6.57-3.899c1.195-1.517,1.898-3.245,2.127-5.165c0.04-0.339-0.209-0.624-0.553-0.646
			c-0.209-0.013-0.416-0.042-0.624-0.07c-1.94-0.261-3.694-0.982-5.265-2.15c-0.266-0.197-0.519-0.409-0.776-0.615
			c-0.008,0.006-0.015,0.011-0.021,0.016c1.322,2.315,2.645,4.631,3.975,6.958c-4.769,0-9.505,0-14.266,0
			c1.361-2.271,2.709-4.517,4.073-6.788C-61.929,51.927-61.392,52.821-60.84,53.74z M-53.931,56.852
			c-1.267-2.219-2.523-4.414-3.789-6.63c-1.267,2.22-2.522,4.415-3.789,6.63C-58.973,56.852-56.467,56.852-53.931,56.852z
			 M-50.567,52.567c-2.782-2.782-5.578-5.581-8.367-8.371c0.436,2.263,1.496,4.205,3.209,5.784
			C-54.244,51.347-52.506,52.203-50.567,52.567z M-64.872,56.862c0.746,0,1.448,0.003,2.151-0.005c0.057,0,0.135-0.061,0.167-0.115
			c0.372-0.639,0.741-1.28,1.1-1.927c0.034-0.06,0.03-0.172-0.004-0.233c-0.232-0.405-0.478-0.805-0.718-1.206
			c-0.097-0.16-0.193-0.321-0.302-0.502C-63.282,54.212-64.068,55.521-64.872,56.862z"/>
	</g>
</g>
<g id="Print">
	<g>
		<path fill-rule="evenodd" clip-rule="evenodd" stroke="#000000" stroke-width="0.45" stroke-miterlimit="10" d="M-47.521,90.204
			c0,3.167,0,6.335,0,9.501c0,0.521-0.05,0.59-0.542,0.775c-2.457,0.923-4.913,1.84-7.365,2.768c-0.261,0.099-0.49,0.099-0.75,0.002
			c-2.437-0.92-4.877-1.834-7.319-2.744c-0.134-0.049-0.284-0.077-0.426-0.077c-2.423-0.004-4.846-0.003-7.268-0.003
			c-0.536,0-0.68-0.141-0.68-0.674c0-6.358,0-12.718,0-19.077c0-0.545,0.153-0.7,0.69-0.7c2.449,0,4.897-0.003,7.346,0.004
			c0.21,0.002,0.432,0.042,0.629,0.115c2.401,0.893,4.799,1.797,7.202,2.689c0.12,0.044,0.288,0.043,0.41-0.003
			c2.402-0.892,4.804-1.782,7.197-2.701c0.633-0.244,0.888,0.104,0.885,0.626C-47.529,83.871-47.521,87.038-47.521,90.204z
			 M-70.865,99.42c2.266,0,4.515,0,6.765,0c0-6.157,0-12.295,0-18.448c-2.26,0-4.504,0-6.765,0
			C-70.865,87.123-70.865,93.262-70.865,99.42z M-55.308,102.132c0.09-0.023,0.146-0.034,0.202-0.055
			c2.132-0.799,4.262-1.603,6.396-2.395c0.196-0.072,0.203-0.191,0.203-0.357c-0.002-5.939-0.001-11.882-0.001-17.823
			c0-0.093,0-0.184,0-0.308c-0.12,0.039-0.202,0.062-0.281,0.092c-2.082,0.781-4.165,1.565-6.25,2.341
			c-0.197,0.072-0.275,0.162-0.273,0.384c0.006,5.939,0.005,11.882,0.005,17.822C-55.308,101.928-55.308,102.02-55.308,102.132z
			 M-56.31,102.144c0.005-0.112,0.013-0.188,0.013-0.266c0-5.969-0.001-11.939,0.004-17.909c0-0.171-0.044-0.259-0.213-0.321
			c-2.111-0.786-4.218-1.578-6.327-2.369c-0.075-0.027-0.153-0.048-0.249-0.077c-0.006,0.116-0.014,0.191-0.014,0.268
			c0,5.963,0.001,11.925-0.004,17.886c0,0.183,0.054,0.273,0.23,0.338c0.917,0.333,1.828,0.682,2.74,1.022
			C-58.867,101.187-57.608,101.658-56.31,102.144z"/>
		<path fill-rule="evenodd" clip-rule="evenodd" d="M-67.483,81.934c0.622,0,1.245-0.002,1.868,0.001
			c0.358,0,0.574,0.192,0.569,0.492c-0.004,0.296-0.227,0.489-0.583,0.49c-1.235,0.001-2.472,0.001-3.708,0
			c-0.356-0.001-0.577-0.193-0.582-0.49c-0.004-0.302,0.211-0.492,0.57-0.492C-68.728,81.932-68.106,81.934-67.483,81.934z"/>
		<path fill-rule="evenodd" clip-rule="evenodd" d="M-67.502,98.491c-0.622,0-1.244,0-1.867-0.001c-0.214,0-0.418-0.068-0.483-0.275
			c-0.046-0.146-0.043-0.352,0.027-0.481c0.061-0.111,0.246-0.213,0.377-0.213c1.305-0.018,2.612-0.013,3.917-0.009
			c0.28,0.001,0.478,0.206,0.484,0.469c0.007,0.28-0.202,0.502-0.51,0.506c-0.553,0.011-1.107,0.005-1.659,0.005
			C-67.312,98.491-67.408,98.491-67.502,98.491z"/>
		<path fill-rule="evenodd" clip-rule="evenodd" d="M-67.472,85.826c0.624,0,1.246-0.001,1.868,0.001
			c0.341,0.003,0.555,0.188,0.557,0.479c0.004,0.298-0.219,0.502-0.568,0.504c-1.245,0.002-2.49,0.002-3.734,0
			c-0.352-0.002-0.573-0.203-0.57-0.501c0.003-0.299,0.217-0.48,0.581-0.481C-68.716,85.826-68.093,85.826-67.472,85.826z"/>
		<path fill-rule="evenodd" clip-rule="evenodd" d="M-67.496,88.745c-0.622,0-1.245,0.002-1.867,0
			c-0.341-0.003-0.553-0.188-0.556-0.479c-0.003-0.292,0.212-0.501,0.543-0.502c1.262-0.003,2.525-0.003,3.787,0
			c0.33,0.001,0.546,0.21,0.543,0.502c-0.002,0.29-0.215,0.477-0.556,0.479C-66.233,88.747-66.865,88.745-67.496,88.745z"/>
		<path fill-rule="evenodd" clip-rule="evenodd" d="M-67.508,96.532c-0.615,0-1.228,0.001-1.841-0.001
			c-0.358-0.003-0.574-0.191-0.57-0.491c0.004-0.299,0.225-0.489,0.582-0.489c1.236-0.004,2.473-0.004,3.708,0
			c0.357,0,0.579,0.19,0.583,0.489c0.005,0.299-0.211,0.489-0.569,0.491C-66.246,96.533-66.877,96.532-67.508,96.532z"/>
		<path fill-rule="evenodd" clip-rule="evenodd" d="M-67.484,89.721c0.623,0,1.246-0.002,1.869,0.001
			c0.358,0.003,0.574,0.192,0.569,0.492c-0.004,0.295-0.227,0.488-0.581,0.489c-1.237,0.002-2.473,0.002-3.709,0
			c-0.357-0.001-0.578-0.192-0.583-0.489c-0.004-0.3,0.211-0.489,0.569-0.492C-68.729,89.719-68.106,89.721-67.484,89.721z"/>
		<path fill-rule="evenodd" clip-rule="evenodd" d="M-67.483,93.615c0.622,0,1.245-0.003,1.868,0
			c0.358,0.003,0.574,0.192,0.569,0.491c-0.004,0.296-0.228,0.489-0.583,0.49c-1.235,0.002-2.472,0.002-3.708,0
			c-0.356-0.001-0.577-0.193-0.582-0.49c-0.004-0.3,0.211-0.488,0.57-0.491C-68.728,93.612-68.106,93.615-67.483,93.615z"/>
		<path fill-rule="evenodd" clip-rule="evenodd" d="M-54.345,88.767c0-0.62-0.002-1.245,0-1.867
			c0.001-0.338,0.089-0.477,0.394-0.591c1.249-0.471,2.5-0.94,3.752-1.404c0.418-0.156,0.728,0.059,0.729,0.506
			c0.001,1.253-0.002,2.507,0.001,3.76c0.001,0.281-0.126,0.454-0.382,0.549c-1.251,0.469-2.502,0.939-3.753,1.405
			c-0.438,0.163-0.739-0.049-0.74-0.516C-54.348,89.993-54.345,89.381-54.345,88.767z M-50.452,86.077
			c-0.06,0.008-0.086,0.004-0.109,0.013c-0.888,0.332-1.776,0.659-2.66,1.001c-0.068,0.026-0.134,0.147-0.137,0.227
			c-0.013,0.51-0.005,1.021-0.005,1.529c0,0.368,0,0.736,0,1.136c0.955-0.357,1.875-0.699,2.79-1.048
			c0.054-0.022,0.115-0.109,0.116-0.168C-50.45,87.878-50.452,86.988-50.452,86.077z"/>
		<path fill-rule="evenodd" clip-rule="evenodd" d="M-53.801,98.966c-0.287,0.001-0.488-0.159-0.538-0.385
			c-0.048-0.232,0.068-0.462,0.315-0.559c0.554-0.216,1.11-0.421,1.666-0.628c0.735-0.276,1.469-0.551,2.202-0.825
			c0.243-0.092,0.446-0.032,0.595,0.174c0.136,0.189,0.132,0.398-0.02,0.573c-0.074,0.087-0.188,0.153-0.297,0.194
			c-1.232,0.467-2.466,0.93-3.698,1.392C-53.664,98.935-53.756,98.953-53.801,98.966z"/>
		<path fill-rule="evenodd" clip-rule="evenodd" d="M-53.801,95.071c-0.283,0.003-0.486-0.156-0.536-0.381
			c-0.052-0.231,0.064-0.462,0.311-0.561c0.554-0.216,1.11-0.42,1.668-0.629c0.732-0.275,1.468-0.55,2.201-0.824
			c0.242-0.09,0.446-0.034,0.596,0.172c0.143,0.197,0.128,0.412-0.032,0.594c-0.064,0.075-0.162,0.13-0.256,0.166
			c-1.258,0.476-2.516,0.943-3.774,1.413C-53.695,95.05-53.771,95.063-53.801,95.071z"/>
		<path fill-rule="evenodd" clip-rule="evenodd" d="M-49.472,99.018c-0.014,0.175-0.121,0.332-0.325,0.41
			c-1.289,0.486-2.577,0.972-3.869,1.452c-0.286,0.106-0.557-0.027-0.653-0.294c-0.091-0.253,0.031-0.521,0.31-0.624
			c1.28-0.486,2.562-0.97,3.845-1.443C-49.804,98.386-49.468,98.617-49.472,99.018z"/>
		<path fill-rule="evenodd" clip-rule="evenodd" d="M-53.816,97.027c-0.254,0.005-0.472-0.169-0.521-0.389
			c-0.055-0.24,0.073-0.474,0.332-0.573c0.651-0.249,1.306-0.489,1.959-0.733c0.604-0.228,1.209-0.457,1.815-0.679
			c0.357-0.133,0.617-0.04,0.729,0.254c0.105,0.28-0.042,0.535-0.396,0.669c-1.225,0.459-2.451,0.917-3.676,1.374
			C-53.663,96.984-53.755,97.008-53.816,97.027z"/>
		<path fill-rule="evenodd" clip-rule="evenodd" d="M-49.999,90.688c0.271,0.006,0.479,0.177,0.521,0.399
			c0.045,0.231-0.076,0.457-0.326,0.555c-0.562,0.218-1.128,0.424-1.692,0.635c-0.691,0.26-1.386,0.521-2.078,0.779
			c-0.361,0.134-0.62,0.047-0.736-0.239c-0.114-0.282,0.029-0.542,0.38-0.673c1.224-0.461,2.449-0.921,3.675-1.379
			C-50.16,90.729-50.059,90.706-49.999,90.688z"/>
		<path fill-rule="evenodd" clip-rule="evenodd" d="M-49.471,83.424c-0.009,0.244-0.185,0.383-0.431,0.475
			c-1.121,0.415-2.241,0.836-3.362,1.256c-0.12,0.046-0.239,0.095-0.361,0.137c-0.316,0.11-0.577,0.008-0.686-0.266
			c-0.106-0.269,0.022-0.528,0.336-0.65c0.522-0.2,1.047-0.396,1.57-0.593c0.733-0.274,1.465-0.551,2.201-0.822
			C-49.817,82.817-49.479,83.019-49.471,83.424z"/>
		<path fill-rule="evenodd" clip-rule="evenodd" d="M-62.133,89.206c0-1.894,0-3.787,0.001-5.68c0-0.531,0.292-0.732,0.793-0.546
			c1.22,0.456,2.438,0.912,3.655,1.371c0.339,0.127,0.426,0.258,0.426,0.622c0.001,3.813,0.001,7.626,0,11.44
			c0,0.51-0.296,0.713-0.781,0.533c-1.22-0.455-2.438-0.91-3.658-1.368c-0.351-0.131-0.436-0.257-0.436-0.642
			C-62.133,93.028-62.133,91.116-62.133,89.206z M-58.238,95.821c0-0.154,0-0.256,0-0.36c0-3.208,0-6.417,0-9.625
			c0-0.643,0-0.645-0.607-0.872c-0.755-0.283-1.515-0.566-2.306-0.861c0,0.134,0,0.234,0,0.334c0,3.123-0.001,6.243,0,9.366
			c0,0.311-0.088,0.69,0.058,0.91c0.138,0.203,0.53,0.241,0.812,0.347C-59.615,95.312-58.945,95.559-58.238,95.821z"/>
		<path fill-rule="evenodd" clip-rule="evenodd" d="M-57.748,98.985c-0.112-0.034-0.206-0.057-0.292-0.089
			c-1.226-0.459-2.452-0.92-3.676-1.382c-0.35-0.132-0.495-0.39-0.382-0.671c0.112-0.278,0.38-0.379,0.712-0.255
			c1.25,0.466,2.499,0.937,3.749,1.406c0.211,0.076,0.384,0.215,0.365,0.444c-0.011,0.152-0.111,0.312-0.21,0.439
			C-57.532,98.947-57.664,98.954-57.748,98.985z"/>
		<path fill-rule="evenodd" clip-rule="evenodd" d="M-61.628,98.465c0.099,0.031,0.199,0.058,0.295,0.092
			c1.212,0.454,2.424,0.908,3.635,1.363c0.064,0.022,0.131,0.049,0.189,0.082c0.219,0.13,0.306,0.379,0.214,0.603
			c-0.1,0.239-0.34,0.371-0.591,0.285c-0.514-0.178-1.02-0.376-1.528-0.566c-0.785-0.292-1.57-0.582-2.351-0.881
			c-0.325-0.125-0.472-0.417-0.314-0.673c0.089-0.144,0.264-0.235,0.4-0.349C-61.661,98.437-61.645,98.451-61.628,98.465z"/>
	</g>
</g>
<g id="Illustration">
	<g>
		<g>
			<path fill-rule="evenodd" clip-rule="evenodd" d="M-70.324,141.02c-0.27,0-0.511-0.119-0.662-0.328
				c-0.156-0.217-0.194-0.497-0.104-0.77l4.447-13.328c0.149-0.446,0.414-0.634,0.915-0.647c1.313-0.035,2.494-0.234,3.609-0.608
				c0.376-0.127,0.739-0.294,1.1-0.461l0.095-0.044c0.138-0.063,0.269-0.146,0.406-0.232l0.278-0.171l-0.291-0.418
				c-0.2-0.287-0.226-0.585-0.075-0.887l0.124-0.25c0.647-1.301,1.295-2.603,1.954-3.899c0.152-0.301,0.417-0.474,0.725-0.474
				c0.243,0,0.485,0.109,0.684,0.309l8.174,8.184c0.26,0.262,0.38,0.552,0.337,0.818c-0.044,0.269-0.252,0.509-0.587,0.676
				l-1.203,0.601c-0.875,0.435-1.751,0.869-2.617,1.319c-0.227,0.118-0.427,0.175-0.612,0.175c-0.227,0-0.438-0.086-0.644-0.265
				c-0.037-0.029-0.073-0.054-0.11-0.078l-0.085-0.028l-0.173,0.03c-0.072,0.15-0.147,0.301-0.224,0.452
				c-0.165,0.329-0.332,0.662-0.466,1.007c-0.434,1.124-0.666,2.381-0.733,3.957c-0.021,0.502-0.197,0.736-0.669,0.895
				l-12.987,4.328c-0.203,0.068-0.396,0.133-0.578,0.139H-70.324z M-67.088,138.214l0.512-0.134c0,0,5.938-1.979,8.616-2.868
				c0.195-0.062,0.277-0.168,0.293-0.374c0.125-1.559,0.432-2.89,0.938-4.068c0.168-0.392,0.371-0.77,0.57-1.141
				c0.092-0.172,0.303-0.577,0.303-0.577l-3.332-3.331l-0.295,0.183c-0.146,0.092-0.298,0.188-0.454,0.275
				c-1.349,0.75-2.938,1.192-5.002,1.391c-0.21,0.019-0.318,0.104-0.384,0.305l-2.819,8.474c-0.02,0.06-0.035,0.122-0.047,0.175
				l-0.08,0.342l0.234-0.19l3.824-3.826l-0.175-0.168c-0.076-0.071-0.158-0.149-0.236-0.231c-0.339-0.359-0.338-0.859,0.002-1.189
				c0.157-0.153,0.36-0.237,0.572-0.237c0.221,0,0.434,0.09,0.601,0.255c0.693,0.684,1.381,1.371,2.064,2.065
				c0.342,0.346,0.347,0.856,0.012,1.188c-0.16,0.158-0.364,0.245-0.575,0.245c-0.221,0-0.439-0.095-0.614-0.266
				c-0.079-0.076-0.146-0.165-0.208-0.247l-0.163-0.204L-67.088,138.214z M-58.503,122.636c-0.44,0.883-0.433,0.929,0.262,1.625
				c0,0,2.971,2.972,3.878,3.873c0.186,0.184,0.399,0.357,0.636,0.517c0.06,0.041,0.148,0.065,0.244,0.065
				c0.046,0,0.113-0.006,0.174-0.034c0.584-0.282,1.162-0.573,1.741-0.865l0.435-0.22l0.212-0.128l-0.056-0.109
				c-2.165-2.164-6.592-6.592-6.592-6.592L-58.503,122.636z"/>
			<path fill="#FFFFFF" d="M-57.803,118.602c0.216,0,0.434,0.1,0.613,0.28l1.595,1.599l2.67,2.676l2.232,2.232l1.676,1.677
				c0.237,0.237,0.347,0.497,0.309,0.731c-0.038,0.236-0.227,0.45-0.532,0.603c-0.4,0.201-0.802,0.4-1.203,0.6
				c-0.875,0.435-1.751,0.87-2.619,1.32c-0.211,0.11-0.396,0.164-0.565,0.164c-0.201,0-0.391-0.079-0.583-0.244
				c-0.037-0.03-0.077-0.058-0.131-0.091c-0.016-0.009-0.032-0.016-0.086-0.033l-0.059-0.02l-0.168-0.057l-0.076,0.16
				c-0.071,0.15-0.146,0.3-0.222,0.45c-0.164,0.327-0.334,0.665-0.471,1.016c-0.437,1.135-0.672,2.401-0.74,3.988
				c-0.02,0.463-0.165,0.658-0.6,0.805l-4.261,1.421c-2.909,0.97-5.817,1.939-8.744,2.913c-0.179,0.061-0.364,0.122-0.556,0.128
				c-0.238,0-0.449-0.104-0.581-0.287c-0.137-0.189-0.17-0.438-0.089-0.679c1.48-4.442,2.963-8.887,4.447-13.328
				c0.136-0.41,0.359-0.567,0.822-0.579c1.323-0.036,2.513-0.237,3.639-0.614c0.383-0.129,0.752-0.3,1.11-0.465l0.094-0.044
				c0.143-0.065,0.277-0.149,0.418-0.239c0.06-0.038,0.121-0.076,0.184-0.114l0.184-0.11l-0.122-0.176l-0.123-0.176l-0.108-0.154
				c-0.18-0.258-0.203-0.515-0.067-0.785l0.124-0.249c0.647-1.301,1.294-2.603,1.953-3.899
				C-58.304,118.755-58.072,118.602-57.803,118.602 M-53.483,128.815c0.057,0,0.14-0.008,0.218-0.045
				c0.584-0.281,1.162-0.573,1.742-0.865l0.437-0.22c0.04-0.021,0.078-0.045,0.143-0.085l0.214-0.137l-0.181-0.181
				c-2.16-2.158-4.317-4.312-6.489-6.488l-0.196-0.196l-0.124,0.249l-0.623,1.247l-0.25,0.5c-0.456,0.915-0.44,1.012,0.283,1.737
				l1.163,1.163c0.904,0.904,1.808,1.809,2.715,2.71c0.19,0.188,0.409,0.365,0.647,0.526
				C-53.709,128.785-53.599,128.815-53.483,128.815 M-68.483,137.264l0.519-0.519l3.752-3.755l0.143-0.144l-0.146-0.142
				l-0.103-0.099c-0.075-0.069-0.156-0.146-0.232-0.228c-0.3-0.317-0.3-0.759,0-1.049c0.138-0.135,0.316-0.209,0.501-0.209
				c0.194,0,0.382,0.08,0.53,0.227c0.693,0.683,1.38,1.37,2.064,2.064c0.301,0.305,0.307,0.755,0.012,1.047
				c-0.143,0.141-0.317,0.216-0.504,0.216c-0.194,0-0.388-0.085-0.545-0.238c-0.075-0.072-0.138-0.157-0.198-0.235
				c-0.033-0.043-0.064-0.085-0.096-0.122l-0.14-0.17l-0.156,0.155l-1.935,1.935l-1.884,1.885l-0.486,0.508l0.706-0.18
				c0.043-0.011,0.088-0.022,0.138-0.038l0.581-0.193c2.677-0.893,5.354-1.784,8.031-2.673c0.235-0.076,0.344-0.215,0.362-0.462
				c0.124-1.547,0.429-2.868,0.931-4.036c0.166-0.387,0.369-0.767,0.566-1.134c0.092-0.172,0.184-0.343,0.271-0.514l0.066-0.129
				l-0.103-0.104l-2.144-2.144l-1.081-1.081l-0.111-0.111l-0.134,0.082l-0.229,0.143c-0.146,0.092-0.295,0.186-0.449,0.272
				c-1.337,0.743-2.915,1.182-4.962,1.379c-0.251,0.022-0.392,0.134-0.471,0.372c-0.67,2.02-1.342,4.037-2.014,6.056l-0.806,2.419
				c-0.021,0.062-0.036,0.128-0.049,0.183l-0.013,0.055L-68.483,137.264 M-57.803,118.402c-0.328,0-0.638,0.179-0.814,0.528
				c-0.701,1.38-1.389,2.765-2.078,4.149c-0.17,0.342-0.136,0.676,0.083,0.988c0.072,0.104,0.146,0.208,0.23,0.33
				c-0.207,0.124-0.386,0.254-0.583,0.344c-0.39,0.18-0.779,0.364-1.185,0.501c-1.16,0.389-2.358,0.57-3.58,0.604
				c-0.548,0.015-0.845,0.229-1.007,0.716c-1.483,4.441-2.966,8.886-4.447,13.328c-0.208,0.626,0.214,1.229,0.86,1.229
				c0.01,0,0.021,0,0.031,0c0.203-0.006,0.409-0.077,0.606-0.144c4.33-1.439,8.66-2.886,12.988-4.328
				c0.515-0.173,0.713-0.441,0.736-0.985c0.058-1.343,0.241-2.664,0.727-3.925c0.195-0.5,0.459-0.975,0.687-1.452
				c0.084,0.028,0.1,0.032,0.114,0.04c0.034,0.021,0.067,0.044,0.099,0.069c0.231,0.199,0.465,0.289,0.709,0.289
				c0.21,0,0.428-0.066,0.658-0.187c1.264-0.656,2.546-1.28,3.819-1.919c0.75-0.375,0.864-1.064,0.275-1.654
				c-1.302-1.303-2.606-2.605-3.908-3.909c-1.423-1.424-2.843-2.85-4.265-4.274C-57.274,118.513-57.544,118.402-57.803,118.402
				L-57.803,118.402z M-53.483,128.615c-0.07,0-0.144-0.017-0.188-0.048c-0.222-0.149-0.433-0.318-0.621-0.505
				c-1.296-1.287-2.585-2.581-3.877-3.872c-0.665-0.667-0.664-0.667-0.244-1.51c0.289-0.577,0.579-1.155,0.872-1.744
				c2.174,2.177,4.332,4.333,6.494,6.493c-0.037,0.022-0.082,0.053-0.131,0.078c-0.725,0.364-1.445,0.731-2.174,1.083
				C-53.388,128.607-53.435,128.615-53.483,128.615L-53.483,128.615z M-68.106,136.604c0.015-0.059,0.032-0.144,0.059-0.225
				c0.94-2.825,1.882-5.648,2.82-8.474c0.052-0.159,0.121-0.221,0.298-0.236c1.764-0.17,3.475-0.532,5.042-1.403
				c0.239-0.135,0.468-0.287,0.685-0.419c1.084,1.084,2.163,2.162,3.225,3.225c-0.275,0.538-0.596,1.084-0.843,1.659
				c-0.562,1.307-0.833,2.687-0.946,4.1c-0.013,0.168-0.07,0.237-0.225,0.287c-2.872,0.953-5.742,1.91-8.613,2.867
				c-0.052,0.016-0.104,0.028-0.153,0.041c1.259-1.258,2.513-2.515,3.819-3.819c0.093,0.112,0.188,0.257,0.309,0.374
				c0.201,0.196,0.444,0.295,0.684,0.295c0.232,0,0.461-0.092,0.645-0.274c0.371-0.367,0.373-0.941-0.011-1.329
				c-0.684-0.694-1.372-1.383-2.065-2.066c-0.193-0.19-0.433-0.284-0.671-0.284c-0.231,0-0.46,0.089-0.641,0.266
				c-0.38,0.368-0.384,0.93-0.006,1.33c0.116,0.123,0.242,0.235,0.342,0.332C-65.619,134.115-66.865,135.362-68.106,136.604
				L-68.106,136.604z"/>
		</g>
	</g>
</g>
<g id="Web_Dev">
	<g>
		<path fill-rule="evenodd" clip-rule="evenodd" stroke="#000000" stroke-width="0.3" stroke-miterlimit="10" d="M-30.445,6.887
			c0.028-0.254,0.038-0.506,0.09-0.751c0.152-0.733,0.564-1.069,1.315-1.1c0.104-0.004,0.208-0.002,0.311-0.002
			c5.714-0.001,11.428,0.008,17.142-0.008c0.966-0.003,1.722,0.785,1.72,1.713c-0.015,5.701-0.017,11.401,0.002,17.103
			c0.003,1.033-0.833,1.806-1.727,1.739c-0.043-0.002-0.087,0-0.13,0c-0.021,0.21-0.022,0.404-0.062,0.591
			c-0.156,0.738-0.824,1.276-1.581,1.277c-5.765,0-11.531,0.001-17.296,0c-0.9-0.001-1.628-0.731-1.628-1.636
			c-0.001-5.778-0.001-11.557,0.002-17.336c0-0.187,0.016-0.377,0.056-0.559c0.128-0.577,0.518-0.899,1.157-0.976
			C-30.864,6.918-30.652,6.904-30.445,6.887z M-31.358,12.513c0,0.081,0,0.145,0,0.208c0,4.325,0,8.651,0,12.977
			c0,0.551,0.271,0.818,0.827,0.818c5.675,0,11.349,0,17.022,0c0.567,0,0.832-0.266,0.832-0.832
			c0.001-4.32,0.001-8.639,0.001-12.957c0-0.069,0-0.138,0-0.214C-18.91,12.513-25.12,12.513-31.358,12.513z M-12.676,11.563
			c0-1.002,0.001-1.981-0.001-2.96c0-0.552-0.216-0.769-0.764-0.769c-5.706,0-11.412,0-17.118,0c-0.528,0-0.798,0.272-0.8,0.804
			c0,0.915,0,1.829,0,2.744c0,0.061,0,0.121,0,0.181C-25.116,11.563-18.906,11.563-12.676,11.563z M-29.502,6.901
			c0.117,0,0.199,0,0.283,0c5.266,0,10.533,0,15.8,0.001c0.109,0,0.22-0.002,0.33,0.003c0.724,0.039,1.159,0.373,1.291,1.013
			c0.042,0.208,0.053,0.425,0.053,0.637c0.003,5.28,0.002,10.56,0.002,15.84c0,0.082,0,0.164,0,0.246
			c0.535-0.01,0.946-0.235,0.944-0.894c-0.015-5.642-0.009-11.285-0.009-16.929c0-0.594-0.259-0.852-0.853-0.852
			c-5.663,0-11.325,0-16.987,0c-0.078,0-0.156-0.003-0.233,0.004c-0.311,0.03-0.487,0.178-0.559,0.479
			C-29.471,6.587-29.479,6.73-29.502,6.901z"/>
		<path fill-rule="evenodd" clip-rule="evenodd" d="M-30.413,18.096c0-1.555,0-3.096,0-4.646c5.44,0,10.872,0,16.318,0
			c0,1.543,0,3.088,0,4.646C-19.525,18.096-24.962,18.096-30.413,18.096z M-15.025,17.169c0-0.941,0-1.864,0-2.787
			c-4.825,0-9.635,0-14.453,0c0,0.933,0,1.855,0,2.787C-24.658,17.169-19.848,17.169-15.025,17.169z"/>
		<path fill-rule="evenodd" clip-rule="evenodd" d="M-30.414,25.567c0-2.177,0-4.341,0-6.513c2.951,0,5.893,0,8.849,0
			c0,2.164,0,4.332,0,6.513C-24.508,25.567-27.453,25.567-30.414,25.567z M-29.481,24.635c2.341,0,4.664,0,6.982,0
			c0-1.56,0-3.105,0-4.647c-2.335,0-4.654,0-6.982,0C-29.481,21.539-29.481,23.08-29.481,24.635z"/>
		<path fill-rule="evenodd" clip-rule="evenodd" d="M-20.606,25.567c0-2.177,0-4.341,0-6.513c2.172,0,4.334,0,6.513,0
			c0,2.165,0,4.332,0,6.513C-16.257,25.567-18.425,25.567-20.606,25.567z M-15.02,19.99c-1.561,0-3.106,0-4.647,0
			c0,1.561,0,3.105,0,4.647c1.557,0,3.098,0,4.647,0C-15.02,23.087-15.02,21.545-15.02,19.99z"/>
		<path fill-rule="evenodd" clip-rule="evenodd" d="M-26.679,8.77c0.521,0.002,0.929,0.42,0.925,0.947
			c-0.003,0.519-0.423,0.926-0.952,0.919c-0.511-0.005-0.915-0.42-0.914-0.937C-27.618,9.176-27.206,8.768-26.679,8.77z"/>
		<path fill-rule="evenodd" clip-rule="evenodd" d="M-28.556,9.702c0,0.523-0.414,0.935-0.938,0.934
			c-0.522-0.001-0.932-0.414-0.93-0.94c0.003-0.515,0.413-0.924,0.927-0.926C-28.97,8.769-28.557,9.179-28.556,9.702z"/>
	</g>
</g>
<g id="Shopify_Theme_Customization">
	<g>
		<path fill-rule="evenodd" clip-rule="evenodd" d="M-21.862,42.35c3.752,0,7.502,0,11.254,0c0.442,0,0.703,0.172,0.791,0.526
			c0.018,0.074,0.02,0.154,0.02,0.231c0.001,6.517,0.001,13.034,0.001,19.551c0,0.481-0.264,0.752-0.746,0.757
			c-0.461,0.005-0.922,0.001-1.383,0.002c-7.042,0-14.083,0-21.125-0.001c-0.112,0-0.228,0-0.338-0.017
			c-0.317-0.048-0.547-0.302-0.567-0.623c-0.005-0.07-0.002-0.143-0.002-0.213c0-6.452,0-12.905,0-19.358
			c0-0.623,0.234-0.855,0.863-0.855C-29.351,42.35-25.606,42.35-21.862,42.35z M-32.587,47.188c0,4.971,0,9.923,0,14.874
			c7.15,0,14.282,0,21.424,0c0-4.963,0-9.915,0-14.874C-18.309,47.188-25.441,47.188-32.587,47.188z M-11.159,43.709
			c-7.161,0-14.296,0-21.429,0c0,0.711,0,1.408,0,2.1c7.153,0,14.288,0,21.429,0C-11.159,45.103-11.159,44.41-11.159,43.709z"/>
		<path fill-rule="evenodd" clip-rule="evenodd" d="M-22.729,58.119c-0.384-0.003-0.65-0.34-0.554-0.729
			c0.285-1.151,0.582-2.301,0.875-3.452c0.194-0.767,0.389-1.534,0.585-2.301c0.098-0.38,0.379-0.579,0.708-0.507
			c0.355,0.077,0.54,0.388,0.445,0.762c-0.381,1.499-0.766,2.998-1.147,4.497c-0.106,0.419-0.212,0.837-0.32,1.254
			C-22.218,57.955-22.431,58.123-22.729,58.119z"/>
		<path fill-rule="evenodd" clip-rule="evenodd" d="M-17.524,54.357c-0.463-0.461-0.918-0.915-1.373-1.368
			c-0.18-0.18-0.257-0.387-0.171-0.637c0.138-0.396,0.631-0.547,0.933-0.257c0.644,0.619,1.271,1.254,1.894,1.894
			c0.214,0.219,0.205,0.545-0.015,0.771c-0.609,0.623-1.227,1.239-1.849,1.85c-0.234,0.229-0.602,0.211-0.823-0.015
			c-0.228-0.231-0.236-0.576,0-0.821c0.404-0.416,0.82-0.822,1.23-1.234C-17.644,54.485-17.592,54.428-17.524,54.357z"/>
		<path fill-rule="evenodd" clip-rule="evenodd" d="M-26.229,54.368c0.457,0.456,0.906,0.906,1.358,1.355
			c0.164,0.164,0.261,0.352,0.198,0.591c-0.114,0.438-0.628,0.62-0.953,0.31c-0.641-0.611-1.264-1.242-1.88-1.877
			c-0.233-0.24-0.207-0.567,0.041-0.818c0.594-0.6,1.188-1.195,1.789-1.788c0.258-0.256,0.613-0.253,0.851-0.009
			c0.231,0.237,0.229,0.585-0.02,0.838c-0.406,0.416-0.819,0.823-1.23,1.234C-26.123,54.254-26.169,54.304-26.229,54.368z"/>
		<path fill-rule="evenodd" clip-rule="evenodd" d="M-28.048,44.756c0.003,0.265-0.197,0.47-0.462,0.473
			c-0.271,0.003-0.47-0.192-0.473-0.46c-0.003-0.266,0.198-0.475,0.46-0.477C-28.263,44.288-28.051,44.494-28.048,44.756z"/>
		<path fill-rule="evenodd" clip-rule="evenodd" d="M-29.45,44.761c0,0.267-0.198,0.468-0.466,0.468
			c-0.266,0.001-0.47-0.202-0.47-0.466c0-0.261,0.207-0.47,0.468-0.471S-29.451,44.498-29.45,44.761z"/>
		<path fill-rule="evenodd" clip-rule="evenodd" d="M-30.853,44.768c-0.002,0.269-0.202,0.464-0.472,0.461
			c-0.264-0.003-0.469-0.211-0.465-0.473c0.004-0.26,0.217-0.468,0.477-0.464C-31.052,44.294-30.85,44.503-30.853,44.768z"/>
	</g>
</g>
<g id="Shopify_App">
	<g>
		<path fill-rule="evenodd" clip-rule="evenodd" d="M-13.885,95.548c0,0.136,0,0.235,0,0.334c0,1.501-0.025,3.003,0.009,4.503
			c0.022,0.997-0.734,1.904-1.901,1.898c-3.009-0.015-6.02-0.001-9.028-0.011c-0.226,0-0.321,0.069-0.386,0.276
			c-0.179,0.572-0.375,1.137-0.568,1.703c-0.174,0.507-0.572,0.602-0.951,0.222c-1.987-1.986-3.975-3.973-5.96-5.96
			c-0.391-0.391-0.292-0.779,0.239-0.96c1.409-0.479,2.816-0.962,4.229-1.43c0.187-0.062,0.236-0.146,0.235-0.332
			c-0.007-1.977-0.006-3.953-0.001-5.929c0.001-0.167-0.05-0.268-0.186-0.37c-1.639-1.225-1.643-3.622-0.008-4.854
			c0.143-0.108,0.197-0.215,0.194-0.392c-0.01-0.692,0.013-1.385-0.008-2.076c-0.03-1.137,0.871-1.949,1.897-1.895
			c0.421,0.022,0.845,0.004,1.329,0.004c-0.161-0.186-0.283-0.327-0.406-0.467c-0.347-0.395-0.696-0.786-1.041-1.183
			c-0.256-0.295-0.261-0.583-0.02-0.791c0.232-0.199,0.529-0.15,0.783,0.138c0.619,0.699,1.238,1.396,1.851,2.103
			c0.124,0.144,0.251,0.205,0.446,0.205c2.469-0.008,4.936-0.006,7.404-0.004c0.918,0.001,1.603,0.526,1.802,1.385
			c0.042,0.176,0.042,0.363,0.043,0.546c0.003,2.409,0.002,4.819,0.002,7.228c0,0.099,0,0.197,0,0.329c0.383,0,0.739-0.001,1.095,0
			c0.506,0.002,0.678,0.172,0.678,0.674c0.001,1.475,0.001,2.95,0,4.427c0,0.515-0.16,0.677-0.668,0.678
			C-13.137,95.548-13.494,95.548-13.885,95.548z M-26.957,91.268c0,3.033,0,6.067,0,9.102c0,0.607,0.279,0.892,0.878,0.892
			c3.434,0,6.868,0,10.302,0c0.601,0,0.887-0.287,0.887-0.887c0-6.068,0-12.137,0-18.204c0-0.592-0.296-0.883-0.895-0.883
			c-3.425-0.001-6.851-0.001-10.277,0c-0.614,0-0.895,0.282-0.895,0.903C-26.957,85.216-26.957,88.241-26.957,91.268z
			 M-26.477,103.22c0.102-0.305,0.201-0.606,0.304-0.917c-0.067-0.017-0.098-0.027-0.13-0.033c-1.103-0.17-1.666-0.823-1.666-1.938
			c-0.001-0.975,0-1.949-0.001-2.924c0-0.088-0.01-0.175-0.017-0.296c-1.172,0.398-2.307,0.783-3.434,1.165
			C-29.768,99.93-28.131,101.565-26.477,103.22z M-13.864,90.799c0,1.266,0,2.501,0,3.733c0.251,0,0.48,0,0.717,0
			c0-1.251,0-2.487,0-3.733C-13.394,90.799-13.622,90.799-13.864,90.799z M-27.994,88.187c0-0.751,0-1.495,0-2.271
			C-28.496,86.577-28.486,87.672-27.994,88.187z"/>
		<path fill-rule="evenodd" clip-rule="evenodd" d="M-26.395,90.071c0-2.276,0-4.553,0-6.829c0-0.494,0.163-0.655,0.66-0.656
			c3.21,0,6.42,0,9.63,0.001c0.477,0,0.649,0.17,0.649,0.644c0,4.545,0,9.088,0,13.632c0,0.484-0.179,0.664-0.663,0.664
			c-3.201,0.001-6.403,0.001-9.604,0c-0.503,0-0.672-0.172-0.672-0.678C-26.395,94.589-26.395,92.33-26.395,90.071z M-16.482,83.612
			c-1.334,0-2.641,0-3.978,0c0.106,0.123,0.187,0.218,0.27,0.312c0.959,1.089,1.921,2.174,2.871,3.27
			c0.101,0.116,0.174,0.288,0.187,0.44c0.019,0.205-0.116,0.365-0.314,0.435c-0.237,0.082-0.434,0.004-0.601-0.186
			c-1.21-1.378-2.426-2.751-3.634-4.129c-0.103-0.117-0.202-0.169-0.359-0.168c-1.033,0.007-2.067,0.003-3.102,0.004
			c-0.071,0-0.145,0.009-0.213,0.013c-0.083,0.524-0.077,0.516,0.36,0.749c1.104,0.593,1.699,1.527,1.67,2.775
			c-0.029,1.268-0.674,2.187-1.834,2.717c-0.171,0.078-0.23,0.161-0.229,0.349c0.009,1.567,0.005,3.134,0.006,4.701
			c0,0.08,0.009,0.159,0.015,0.26c0.102-0.032,0.179-0.057,0.256-0.083c0.59-0.199,1.18-0.402,1.771-0.599
			c0.202-0.068,0.396-0.054,0.558,0.105c0.164,0.159,0.173,0.352,0.116,0.556c-0.025,0.089-0.059,0.174-0.088,0.261
			c-0.121,0.359-0.243,0.719-0.373,1.101c2.233,0,4.429,0,6.64,0c0-0.316,0-0.619,0-0.947c-0.104,0-0.193,0-0.283,0
			c-1.05,0-2.101,0.001-3.151,0c-0.478,0-0.646-0.165-0.646-0.645c-0.001-1.493-0.001-2.985,0-4.478
			c0.001-0.486,0.173-0.654,0.667-0.655c1.043-0.001,2.084,0,3.127,0c0.095,0,0.19,0,0.294,0
			C-16.482,87.69-16.482,85.658-16.482,83.612z M-19.535,90.8c0,1.261,0,2.496,0,3.733c1.024,0,2.029,0,3.044,0
			c0-1.251,0-2.485,0-3.733C-17.512,90.8-18.516,90.8-19.535,90.8z M-25.37,88.798c0.633-0.269,1.06-1.033,1.034-1.816
			c-0.023-0.716-0.478-1.447-1.034-1.646C-25.37,86.484-25.37,87.629-25.37,88.798z M-23.973,95.753
			c-0.421,0.142-0.82,0.283-1.226,0.407c-0.192,0.06-0.223,0.164-0.151,0.348c0.159,0,0.316,0,0.475,0c0.708,0,0.708,0,0.902-0.682
			C-23.969,95.812-23.973,95.796-23.973,95.753z"/>
		<path fill-rule="evenodd" clip-rule="evenodd" d="M-20.927,97.996c0.755-0.001,1.371,0.611,1.371,1.358
			c0.001,0.748-0.617,1.362-1.37,1.362c-0.756,0-1.367-0.609-1.367-1.362S-21.685,97.997-20.927,97.996z M-20.936,98.999
			c-0.188,0.005-0.345,0.163-0.348,0.352c-0.003,0.197,0.164,0.359,0.365,0.355c0.205-0.005,0.354-0.166,0.341-0.373
			C-20.587,99.14-20.743,98.994-20.936,98.999z"/>
		<path fill-rule="evenodd" clip-rule="evenodd" d="M-23.112,93.396c-0.191,0.001-0.383-0.008-0.573,0.003
			c-0.254,0.014-0.43-0.089-0.552-0.308c-0.191-0.341-0.388-0.679-0.586-1.016c-0.121-0.206-0.122-0.406-0.002-0.612
			c0.198-0.337,0.395-0.675,0.586-1.015c0.117-0.207,0.28-0.315,0.526-0.31c0.398,0.008,0.799,0.008,1.198,0
			c0.232-0.005,0.399,0.088,0.514,0.287c0.202,0.354,0.403,0.707,0.61,1.059c0.111,0.191,0.112,0.374,0.001,0.566
			c-0.206,0.351-0.407,0.705-0.611,1.058c-0.113,0.196-0.276,0.3-0.512,0.29C-22.712,93.391-22.912,93.396-23.112,93.396z
			 M-23.083,91.118c-0.15,0.027-0.334,0.007-0.407,0.087c-0.141,0.155-0.305,0.368-0.302,0.555c0.004,0.198,0.173,0.405,0.304,0.582
			c0.044,0.061,0.195,0.054,0.297,0.053c0.152-0.002,0.361,0.029,0.446-0.054c0.153-0.151,0.312-0.376,0.318-0.573
			c0.005-0.186-0.165-0.396-0.303-0.555C-22.797,91.134-22.967,91.146-23.083,91.118z"/>
		<path fill-rule="evenodd" clip-rule="evenodd" d="M-20.935,87.387c0.538-0.003,0.977,0.422,0.983,0.953
			c0.008,0.536-0.444,0.996-0.978,0.994c-0.53-0.002-0.966-0.442-0.968-0.976C-21.897,87.816-21.475,87.391-20.935,87.387z"/>
	</g>
</g>
<g id="UI_x2F_UX_1_">
	<g>
		<path fill-rule="evenodd" clip-rule="evenodd" d="M-21.065,138.227c-3.52,0-7.039,0-10.558,0c-0.605,0-0.896-0.29-0.896-0.894
			c0-5.171,0-10.341,0-15.511c0-0.606,0.289-0.896,0.895-0.896c7.038,0,14.076,0,21.114,0c0.605,0,0.896,0.29,0.896,0.894
			c0,5.17,0,10.34,0,15.51c0,0.605-0.291,0.896-0.895,0.896C-14.027,138.227-17.546,138.227-21.065,138.227z M-31.285,122.886
			c0,4.714,0,9.413,0,14.112c6.821,0,13.627,0,20.44,0c0-4.465,0-8.921,0-13.397c-5.117,0-10.224,0-15.343,0c0-0.25,0-0.478,0-0.715
			C-27.893,122.886-29.582,122.886-31.285,122.886z M-28.789,122.097c-0.005,0.243,0.19,0.445,0.429,0.444
			c0.23,0,0.425-0.192,0.431-0.426c0.005-0.24-0.192-0.441-0.432-0.441C-28.595,121.674-28.784,121.861-28.789,122.097z
			 M-29.158,122.105c0-0.229-0.194-0.426-0.425-0.432c-0.236-0.008-0.442,0.194-0.442,0.433c0,0.23,0.192,0.428,0.423,0.435
			C-29.367,122.547-29.158,122.342-29.158,122.105z M-30.396,122.114c0.004-0.244-0.189-0.442-0.43-0.44
			c-0.232,0-0.427,0.192-0.432,0.424c-0.005,0.237,0.195,0.444,0.434,0.443C-30.592,122.54-30.399,122.349-30.396,122.114z"/>
		<path fill-rule="evenodd" clip-rule="evenodd" d="M-30.804,130.903c0-2.111,0-4.207,0-6.312c6.409,0,12.81,0,19.225,0
			c0,2.099,0,4.198,0,6.312C-17.98,130.903-24.384,130.903-30.804,130.903z M-12.3,125.321c-2.538,0.779-5.055,1.553-7.571,2.326
			c0.002,0.016,0.005,0.032,0.008,0.047c2.517,0.772,5.033,1.546,7.563,2.323C-12.3,128.439-12.3,126.897-12.3,125.321z
			 M-30.077,130.019c2.536-0.78,5.052-1.553,7.567-2.326c-0.001-0.016-0.003-0.031-0.004-0.047
			c-2.517-0.774-5.033-1.547-7.563-2.324C-30.077,126.899-30.077,128.44-30.077,130.019z M-28.126,130.172c4.725,0,9.391,0,14.099,0
			c-0.071-0.028-0.101-0.042-0.132-0.053c-2.26-0.694-4.519-1.39-6.779-2.079c-0.088-0.027-0.2-0.018-0.291,0.01
			c-2.112,0.644-4.223,1.294-6.334,1.943C-27.734,130.045-27.904,130.102-28.126,130.172z M-14.369,125.349
			c-0.002-0.007-0.004-0.014-0.007-0.021c-4.46,0-8.919,0-13.439,0c0.103,0.036,0.146,0.052,0.191,0.065
			c2.123,0.652,4.246,1.306,6.371,1.951c0.114,0.034,0.256,0.035,0.37,0.001c1.841-0.559,3.68-1.125,5.52-1.689
			C-15.031,125.555-14.7,125.451-14.369,125.349z"/>
		<path fill-rule="evenodd" clip-rule="evenodd" d="M-21.806,131.905c0,1.46,0,2.904,0,4.361c-2.997,0-5.986,0-8.991,0
			c0-1.446,0-2.896,0-4.361C-27.81,131.905-24.816,131.905-21.806,131.905z M-30.073,135.532c2.522,0,5.028,0,7.528,0
			c0-0.978,0-1.94,0-2.899c-2.518,0-5.019,0-7.528,0C-30.073,133.602-30.073,134.56-30.073,135.532z"/>
		<path fill-rule="evenodd" clip-rule="evenodd" d="M-11.816,135.073c0,0.242,0,0.469,0,0.707c-2.592,0-5.173,0-7.771,0
			c0-0.229,0-0.461,0-0.707C-17.006,135.073-14.42,135.073-11.816,135.073z"/>
		<path fill-rule="evenodd" clip-rule="evenodd" d="M-11.816,133.855c0,0.241,0,0.469,0,0.706c-2.592,0-5.173,0-7.771,0
			c0-0.229,0-0.461,0-0.706C-17.006,133.855-14.42,133.855-11.816,133.855z"/>
		<path fill-rule="evenodd" clip-rule="evenodd" d="M-11.816,132.637c0,0.241,0,0.469,0,0.706c-2.591,0-5.173,0-7.771,0
			c0-0.228,0-0.459,0-0.706C-17.006,132.637-14.42,132.637-11.816,132.637z"/>
		<path fill-rule="evenodd" clip-rule="evenodd" d="M-20.457,133.694c0.239-0.003,0.444,0.201,0.441,0.438
			c-0.003,0.229-0.2,0.427-0.429,0.432c-0.238,0.004-0.441-0.2-0.438-0.439C-20.882,133.89-20.689,133.697-20.457,133.694z"/>
		<path fill-rule="evenodd" clip-rule="evenodd" d="M-20.456,135.797c-0.239-0.002-0.425-0.187-0.427-0.424
			c-0.004-0.244,0.191-0.439,0.437-0.437c0.233,0.002,0.427,0.194,0.431,0.425C-20.013,135.601-20.213,135.798-20.456,135.797z"/>
		<path fill-rule="evenodd" clip-rule="evenodd" d="M-20.427,132.459c0.232,0.012,0.419,0.215,0.411,0.444
			c-0.01,0.241-0.216,0.427-0.461,0.415c-0.235-0.011-0.415-0.207-0.406-0.443C-20.874,132.631-20.672,132.446-20.427,132.459z"/>
	</g>
</g>
<g id="Great_Design">
	<g>
		<g>
			<defs>
				<rect id="SVGID_1_" x="-640.053" y="-3506.062" width="1280" height="7034"/>
			</defs>
			<clipPath id="SVGID_2_">
				<use xlink:href="#SVGID_1_"  overflow="visible"/>
			</clipPath>
		</g>
		<g>
			<defs>
				<rect id="SVGID_3_" x="-469.514" y="-3605.232" width="1280" height="7034"/>
			</defs>
			<clipPath id="SVGID_4_">
				<use xlink:href="#SVGID_3_"  overflow="visible"/>
			</clipPath>
			<g clip-path="url(#SVGID_4_)">
				<path fill="#FFFFFF" d="M2.378,1.888L2.38,1.933l0.011,0.087l0.004,0.042L2.391,2.085L2.389,2.116L2.375,2.139L2.357,2.154
					L2.325,2.16L2.284,2.162H2.239L2.126,2.154L2.078,2.15H2.006L1.955,2.148L1.85,2.134L1.831,2.128L1.819,2.114L1.816,2.085
					l-0.003-0.04L1.812,2.003l0.005-0.096V1.641L1.808,1.462V1.417l0.012-0.176V1.02L1.813,0.986L1.798,0.975H1.78L1.76,1
					L1.731,1.041L1.612,1.176L1.438,1.382L1.326,1.524L1.302,1.548L1.281,1.556H1.26L1.228,1.55L1.194,1.542L1.162,1.519
					l-0.141-0.17L0.916,1.209L0.888,1.176L0.74,1.011L0.703,0.975L0.687,0.98L0.68,1.011l-0.008,0.18v0.045l0.011,0.178v0.045
					l0.007,0.178v0.045L0.687,1.858v0.043l0.003,0.085L0.687,2.032L0.683,2.079L0.677,2.116l-0.01,0.018l-0.02,0.005L0.573,2.148
					L0.528,2.15L0.416,2.142L0.372,2.144L0.235,2.157H0.171L0.136,2.15L0.119,2.134l-0.006-0.02L0.107,2.085V2.021l0.006-0.087
					V1.496L0.107,1.347V1.301l0.003-0.15L0.107,1.106L0.1,0.952V0.907l0.008-0.15L0.11,0.711L0.1,0.562l0.003-0.045l0.011-0.15
					V0.321L0.103,0.216V0.171l0.005-0.038l0.012-0.02L0.136,0.1l0.023-0.006L0.196,0.09l0.049,0.007l0.062,0.015h0.046l0.087-0.01
					l0.048-0.005L0.53,0.094l0.107,0.003h0.037l0.03,0.015l0.029,0.032l0.1,0.109l0.027,0.037l0.083,0.116l0.028,0.038l0.093,0.111
					l0.028,0.039l0.088,0.11l0.029,0.031l0.025,0.015h0.027L1.29,0.734l0.025-0.028L1.4,0.593l0.028-0.039l0.092-0.111l0.026-0.038
					l0.101-0.11l0.027-0.038l0.073-0.09l0.023-0.032l0.023-0.022L1.822,0.1L1.86,0.102l0.148,0.01l0.135,0.002h0.045l0.084-0.006
					L2.32,0.111l0.035,0.005l0.02,0.005l0.016,0.014l0.007,0.023L2.395,0.192L2.383,0.321L2.38,0.366l0.007,0.15v0.045l-0.004,0.15
					v0.045l0.004,0.15v0.045l0.011,0.154v0.045l-0.011,0.15v0.045l0.008,0.149v0.046l-0.012,0.15v0.045L2.378,1.888z"/>
				<path fill="#FFFFFF" d="M5.016,2.063l0.009,0.04l-0.02,0.032L4.972,2.148L4.936,2.154H4.897L4.832,2.148L4.789,2.144H4.662
					L4.486,2.157L4.449,2.142l-0.018-0.02L4.416,2.091L4.331,1.854l-0.021-0.03L4.284,1.819L4.25,1.816L4.08,1.805H4.035L3.822,1.8
					L3.651,1.797H3.61L3.569,1.8H3.438L3.4,1.805L3.379,1.819L3.36,1.854L3.297,2.045L3.278,2.091l-0.03,0.038L3.205,2.142H3.159
					L2.995,2.134H2.95l-0.175,0.01L2.737,2.148L2.703,2.131L2.682,2.1l0.002-0.037l0.006-0.022l0.017-0.045l0.04-0.088l0.017-0.042
					l0.071-0.159l0.017-0.04l0.074-0.159l0.018-0.042l0.064-0.153L3.023,1.27l0.077-0.159L3.117,1.07L3.22,0.839l0.079-0.17
					l0.021-0.045l0.062-0.127L3.4,0.451l0.053-0.13l0.02-0.043l0.049-0.116l0.016-0.03l0.027-0.018l0.043-0.008L3.737,0.1h0.222
					l0.13,0.002l0.049,0.01l0.031,0.022l0.014,0.038l0.039,0.11L4.24,0.323l0.07,0.134l0.018,0.039L4.39,0.634l0.016,0.04
					l0.053,0.145l0.017,0.041l0.062,0.136l0.019,0.039l0.062,0.139l0.016,0.039l0.056,0.142l0.02,0.04L4.794,1.57l0.069,0.134
					l0.019,0.04l0.077,0.177L5.016,2.063z M4.07,1.264L4.059,1.227L3.995,1.034L3.981,0.992L3.925,0.825L3.909,0.789L3.883,0.768
					L3.844,0.761L3.814,0.768L3.786,0.796L3.709,0.99L3.692,1.031l-0.074,0.19L3.61,1.264l0.008,0.033l0.031,0.015l0.04,0.005h0.179
					l0.133,0.01l0.037-0.012l0.022-0.024L4.07,1.264z"/>
				<path fill="#FFFFFF" d="M7.188,2.089l0.016,0.025L7.195,2.128l-0.01,0.016L7.165,2.157H7.129L6.976,2.144H6.931L6.752,2.142
					H6.707L6.526,2.15L6.491,2.148l-0.025-0.02L6.367,2.018L6.341,1.983L6.255,1.858L6.229,1.827l-0.111-0.11L6.089,1.683
					L5.995,1.572l-0.021-0.03L5.96,1.517L5.939,1.508L5.923,1.519L5.916,1.556v0.195L5.911,1.903v0.045l0.002,0.069V2.06
					L5.911,2.103L5.908,2.131L5.894,2.142L5.859,2.148L5.772,2.154H5.686L5.554,2.142L5.509,2.144L5.367,2.157L5.345,2.148
					L5.333,2.131L5.33,2.105L5.327,2.065V2.021L5.33,1.949l0.003-0.047L5.321,1.75V1.55l0.002-0.045l0.01-0.156l0.004-0.045V1.106
					L5.33,0.952V0.907l0.007-0.156V0.706L5.33,0.354V0.309l0.008-0.153l0.003-0.035L5.35,0.107l0.029-0.006l0.042,0.004l0.088,0.008
					h0.045l0.132-0.012h0.043l0.131,0.01l0.031,0.002l0.015,0.008l0.008,0.024l0.003,0.028L5.913,0.21L5.905,0.303L5.902,0.349
					l0.009,0.149v0.045l0.002,0.152l0.007,0.03l0.023,0.005l0.03-0.02l0.087-0.123l0.153-0.184l0.087-0.121l0.03-0.035L6.43,0.135
					l0.022-0.022L6.48,0.107L6.611,0.1h0.044L6.83,0.111l0.107,0.002h0.045l0.108-0.002l0.03,0.002l0.014,0.012l0.006,0.006
					L7.137,0.139L7.115,0.165l-0.107,0.12L6.979,0.318L6.879,0.447L6.852,0.482l-0.11,0.122L6.712,0.637L6.609,0.763l-0.03,0.034
					L6.479,0.92L6.446,0.956L6.375,1.02l-0.03,0.034L6.331,1.07L6.315,1.094l0.007,0.017l0.019,0.026l0.105,0.138l0.032,0.034
					l0.124,0.125l0.028,0.035l0.11,0.135L6.77,1.638l0.116,0.131l0.028,0.034L7.035,1.93l0.029,0.034L7.188,2.089z"/>
				<path fill="#FFFFFF" d="M9.072,1.879L9.069,1.924L9.058,2.077L9.056,2.105l-0.01,0.019L9.03,2.136L8.659,2.148H8.614
					L8.463,2.136L8.419,2.139L8.271,2.15L8.226,2.154H8.031L7.883,2.142H7.837L7.594,2.157L7.498,2.15L7.465,2.144L7.443,2.131
					L7.436,2.11L7.43,2.079L7.424,2.015L7.421,1.968l0.003-0.042V1.885l0.012-0.151V1.689l0.003-0.151L7.436,1.493l-0.009-0.15
					L7.424,1.297L7.43,1.146V0.904l0.012-0.15L7.438,0.708L7.43,0.559L7.427,0.513V0.445L7.433,0.36V0.318l0.009-0.147l0.002-0.04
					l0.009-0.024l0.015-0.011L7.49,0.094l0.036-0.006L7.71,0.1l0.173-0.003h0.044l0.171,0.011h0.046l0.17-0.011h0.046l0.385,0.005
					L8.793,0.1L8.89,0.09h0.07L8.999,0.1l0.018,0.014l0.005,0.02l0.006,0.038v0.076L9.021,0.318v0.048l0.003,0.071l0.003,0.042
					L9.024,0.522L9.02,0.556l-0.011,0.02L8.994,0.587L8.96,0.593H8.938L8.893,0.595L8.626,0.589H8.579L8.437,0.595H8.39L8.243,0.589
					L8.114,0.581H8.072L8.05,0.585L8.021,0.589L8.008,0.604L8.005,0.621L7.999,0.652L7.994,0.719v0.045l0.003,0.049l0.002,0.031
					l0.006,0.019l0.011,0.015l0.032,0.009l0.091,0.006l0.09-0.006h0.27L8.815,0.87l0.088,0.005l0.031,0.006L8.95,0.895l0.01,0.018
					l0.002,0.031l0.005,0.048l0.004,0.049v0.093l0.006,0.065L8.971,1.284L8.964,1.317l-0.01,0.02l-0.02,0.015L8.905,1.358H8.85
					L8.723,1.343L8.677,1.341L8.449,1.354L8.269,1.349H8.224L8.109,1.341L8.062,1.343L8.027,1.347L8.013,1.354l-0.008,0.02
					L8.002,1.417L7.994,1.488L7.99,1.532v0.063l0.004,0.027l0.008,0.021l0.011,0.011l0.031,0.004L8.2,1.663h0.046l0.151-0.011
					l0.204,0.011h0.044l0.201-0.011H8.89l0.041,0.003l0.103,0.012L9.05,1.674l0.011,0.018l0.004,0.031L9.072,1.879z"/>
				<path fill="#FFFFFF" d="M12.815,1.888l0.004,0.045l0.01,0.087l0.004,0.042l-0.004,0.022l-0.003,0.031l-0.013,0.023l-0.018,0.015
					L12.765,2.16l-0.043,0.002h-0.045l-0.113-0.008L12.517,2.15h-0.072l-0.051-0.002l-0.105-0.014L12.27,2.128l-0.012-0.014
					l-0.003-0.029l-0.003-0.04L12.25,2.003l0.005-0.096V1.641l-0.008-0.178V1.417l0.011-0.176V1.02l-0.006-0.034l-0.016-0.011
					h-0.019L12.198,1l-0.027,0.041l-0.12,0.135l-0.173,0.206l-0.112,0.142l-0.026,0.024l-0.021,0.008h-0.021L11.666,1.55
					l-0.035-0.008l-0.029-0.023l-0.143-0.17l-0.105-0.139l-0.028-0.033l-0.146-0.165l-0.037-0.037L11.125,0.98l-0.007,0.031
					l-0.009,0.18v0.045l0.012,0.178v0.045l0.007,0.178v0.045l-0.003,0.175v0.043l0.003,0.085l-0.003,0.045l-0.004,0.047
					l-0.005,0.037l-0.011,0.018l-0.021,0.005l-0.073,0.009L10.966,2.15l-0.111-0.008l-0.044,0.002l-0.137,0.013h-0.064L10.574,2.15
					l-0.017-0.016l-0.006-0.02l-0.006-0.029V2.021l0.006-0.087V1.496l-0.006-0.149V1.301l0.003-0.15l-0.003-0.045l-0.008-0.154
					V0.907l0.008-0.15l0.003-0.045l-0.011-0.15l0.003-0.045l0.011-0.15V0.321l-0.011-0.105V0.171l0.005-0.038l0.012-0.02L10.574,0.1
					l0.024-0.006l0.036-0.004l0.048,0.007l0.062,0.015h0.046l0.088-0.01l0.048-0.005l0.043-0.003l0.107,0.003h0.036l0.031,0.015
					l0.03,0.032l0.099,0.109l0.028,0.037l0.082,0.116l0.029,0.038l0.093,0.111l0.027,0.039l0.088,0.11l0.029,0.031l0.025,0.015
					h0.027l0.026-0.015l0.025-0.028l0.085-0.113l0.028-0.039l0.09-0.111l0.029-0.038l0.099-0.11l0.027-0.038l0.074-0.09l0.024-0.032
					l0.022-0.022L12.26,0.1l0.038,0.002l0.15,0.01l0.134,0.002h0.045l0.085-0.006l0.046,0.004l0.035,0.005l0.021,0.005l0.016,0.014
					l0.008,0.023l-0.004,0.034l-0.011,0.128l-0.003,0.045l0.005,0.15v0.045l-0.002,0.15v0.045l0.002,0.15v0.045l0.013,0.154v0.045
					l-0.013,0.15v0.045l0.009,0.149v0.046l-0.011,0.15v0.045L12.815,1.888z"/>
				<path fill="#FFFFFF" d="M15.42,1.099l-0.003,0.046l-0.006,0.064l-0.006,0.042l-0.017,0.085l-0.007,0.065l-0.004,0.043
					l-0.009,0.045l-0.011,0.042l-0.03,0.06L15.31,1.633l-0.078,0.126l-0.023,0.038L15.18,1.834l-0.029,0.03l-0.046,0.048
					l-0.029,0.028l-0.038,0.027l-0.033,0.027L14.952,2.03l-0.037,0.021l-0.041,0.024l-0.04,0.016l-0.058,0.023l-0.042,0.01
					l-0.091,0.029l-0.048,0.014L14.55,2.18L14.502,2.19l-0.049,0.009l-0.047,0.003h-0.153l-0.097-0.006l-0.094-0.011l-0.039-0.01
					l-0.043-0.01l-0.152-0.052L13.782,2.1l-0.048-0.021l-0.091-0.039l-0.042-0.023L13.56,1.992l-0.038-0.028l-0.036-0.031
					l-0.034-0.038l-0.032-0.038l-0.076-0.076L13.314,1.75l-0.027-0.038l-0.023-0.038l-0.024-0.056l-0.041-0.127l-0.016-0.06
					l-0.01-0.042l-0.008-0.046l-0.009-0.042l-0.01-0.063l-0.002-0.043l-0.003-0.047V1.099l0.003-0.048L13.146,1l0.007-0.048
					l0.009-0.048l0.011-0.048l0.016-0.047l0.013-0.043l0.017-0.045l0.02-0.065l0.021-0.045l0.012-0.024l0.022-0.043l0.039-0.063
					l0.029-0.04l0.015-0.021l0.032-0.035l0.049-0.04l0.037-0.028l0.037-0.026l0.085-0.057l0.037-0.022l0.039-0.022l0.041-0.02
					l0.059-0.024l0.039-0.016l0.043-0.014l0.042-0.012l0.108-0.02l0.042-0.008l0.143-0.018l0.09-0.005l0.085,0.005l0.068,0.004
					l0.048,0.006l0.049,0.008l0.048,0.012l0.048,0.008l0.045,0.012l0.043,0.011l0.042,0.015l0.061,0.021l0.04,0.018l0.094,0.053
					l0.036,0.025l0.036,0.028l0.049,0.045l0.031,0.028l0.03,0.032l0.026,0.035l0.039,0.053l0.022,0.037l0.02,0.036l0.023,0.038
					l0.031,0.056l0.023,0.037l0.02,0.043l0.014,0.04l0.013,0.065L15.4,0.907l0.005,0.049l0.009,0.047L15.42,1.099z M14.825,1.147
					V1.099l-0.004-0.048l-0.003-0.045L14.803,0.92l-0.012-0.04l-0.032-0.062l-0.022-0.037l-0.038-0.051L14.669,0.7l-0.043-0.045
					l-0.03-0.024l-0.073-0.043l-0.04-0.018l-0.046-0.014l-0.045-0.008l-0.09-0.006l-0.044,0.002l-0.062,0.004l-0.042,0.008
					l-0.073,0.02l-0.045,0.018l-0.064,0.034L13.93,0.652l-0.045,0.039l-0.031,0.035l-0.032,0.042l-0.022,0.038l-0.008,0.017
					l-0.025,0.059l-0.014,0.043l-0.009,0.019l-0.009,0.041l-0.006,0.039l-0.003,0.04l-0.002,0.043v0.042l0.002,0.045l0.009,0.045
					l0.002,0.026l0.013,0.042l0.006,0.021l0.014,0.04l0.012,0.022l0.021,0.039l0.015,0.022l0.031,0.041l0.016,0.02l0.035,0.033
					l0.057,0.048l0.038,0.026l0.048,0.022l0.041,0.018l0.061,0.02l0.041,0.008l0.071,0.008l0.049,0.004l0.07-0.006l0.046-0.006
					l0.062-0.014l0.04-0.018l0.062-0.04l0.034-0.026l0.045-0.045l0.028-0.031l0.037-0.044l0.024-0.041l0.03-0.061L14.8,1.323
					l0.014-0.065l0.005-0.041L14.825,1.147z"/>
				<path fill="#FFFFFF" d="M17.596,2.134l-0.036,0.01h-0.198l-0.156-0.002H17.16l-0.13,0.006h-0.035L16.97,2.136l-0.022-0.022
					l-0.091-0.128l-0.024-0.034L16.74,1.83l-0.026-0.033l-0.078-0.13L16.61,1.633L16.52,1.511l-0.019-0.023l-0.019-0.009
					l-0.034-0.002l-0.091-0.006l-0.036,0.002l-0.022,0.018l-0.01,0.037l-0.005,0.156l0.003,0.044l0.012,0.16l0.003,0.045L16.304,2
					v0.045l-0.002,0.045l-0.006,0.034l-0.015,0.015L16.25,2.148h-0.044l-0.138-0.009l-0.13,0.009h-0.046l-0.13-0.009l-0.033-0.005
					l-0.018-0.012l-0.006-0.028l-0.002-0.04L15.7,2.012l0.006-0.074l0.003-0.045L15.72,1.74V1.694l-0.008-0.152l-0.003-0.046
					l-0.003-0.149V1.301l0.008-0.154V1.102L15.706,0.95V0.904l0.008-0.153V0.706l0.006-0.15V0.51l-0.003-0.153V0.311l-0.005-0.092
					l0.002-0.042l0.003-0.018l0.011-0.038L15.744,0.1l0.033-0.01l0.021-0.002l0.043-0.002L15.97,0.09l0.337,0.012l0.194-0.012h0.044
					l0.187,0.012h0.107l0.05,0.004l0.041,0.008l0.06,0.018l0.041,0.014l0.045,0.017l0.044,0.017l0.042,0.02l0.038,0.023l0.054,0.036
					l0.031,0.027l0.028,0.026l0.028,0.036l0.039,0.056l0.026,0.037l0.034,0.054l0.021,0.04l0.019,0.042l0.014,0.045l0.01,0.045
					l0.002,0.045l0.005,0.063v0.044l-0.002,0.044l-0.005,0.049l-0.01,0.047l-0.01,0.045l-0.018,0.043l-0.021,0.042l-0.024,0.042
					l-0.025,0.038L17.37,1.205l-0.026,0.032l-0.045,0.045l-0.031,0.024L17.21,1.337l-0.033,0.021l-0.038,0.019l-0.036,0.009
					L17.08,1.394l0.013,0.023l0.101,0.145l0.026,0.034l0.101,0.138l0.03,0.036l0.102,0.141l0.027,0.034l0.088,0.102l0.026,0.032
					l0.015,0.031L17.596,2.134z M16.8,1.031l0.036-0.014l0.035-0.02l0.028-0.034l0.02-0.043l0.011-0.045l0.003-0.045L16.93,0.782
					l-0.005-0.048l-0.011-0.042l-0.021-0.042l-0.026-0.035l-0.031-0.026l-0.039-0.017l-0.062-0.014l-0.045-0.005l-0.142-0.004
					h-0.045l-0.146,0.009l-0.033,0.003l-0.021,0.008l-0.017,0.018l-0.003,0.032l0.003,0.064l0.005,0.046l0.007,0.047l0.003,0.048
					L16.296,0.98l0.003,0.031l0.005,0.018l0.021,0.008l0.033,0.006l0.148,0.011h0.044l0.188-0.011L16.8,1.031z"/>
				<path fill="#FFFFFF" d="M19.503,1.879L19.5,1.924l-0.012,0.153l-0.003,0.028l-0.011,0.019L19.46,2.136l-0.37,0.012h-0.046
					l-0.15-0.012l-0.045,0.003L18.701,2.15l-0.045,0.004H18.46l-0.146-0.012h-0.047l-0.242,0.015L17.929,2.15l-0.035-0.006
					l-0.02-0.013L17.865,2.11l-0.007-0.031l-0.004-0.064l-0.003-0.046l0.003-0.042V1.885l0.011-0.151V1.689l0.003-0.151
					l-0.003-0.045l-0.009-0.15l-0.002-0.045l0.004-0.152V0.904l0.013-0.15l-0.003-0.045l-0.01-0.15l-0.002-0.045V0.445l0.006-0.084
					V0.318l0.009-0.147l0.003-0.04l0.007-0.024l0.016-0.011l0.022-0.003l0.037-0.006L18.14,0.1l0.174-0.003h0.044l0.171,0.011h0.046
					l0.169-0.011h0.045l0.387,0.005L19.223,0.1l0.096-0.01h0.071l0.04,0.01l0.018,0.014l0.005,0.02l0.007,0.038v0.076l-0.007,0.071
					v0.048l0.003,0.071l0.004,0.042l-0.004,0.043l-0.006,0.034l-0.012,0.02l-0.014,0.012L19.39,0.593h-0.022l-0.046,0.002
					l-0.266-0.006H19.01l-0.145,0.006H18.82l-0.147-0.006l-0.128-0.008h-0.041l-0.022,0.004l-0.03,0.004l-0.014,0.015l-0.003,0.017
					l-0.006,0.032l-0.005,0.067v0.045l0.002,0.049l0.003,0.031l0.006,0.019l0.012,0.015l0.031,0.009l0.09,0.006l0.091-0.006h0.27
					l0.317-0.017l0.087,0.005l0.031,0.006l0.018,0.014l0.009,0.018l0.003,0.031l0.005,0.048L19.4,1.041v0.093l0.006,0.065
					L19.4,1.284l-0.006,0.034l-0.01,0.02l-0.021,0.015l-0.027,0.006h-0.057l-0.127-0.015l-0.047-0.002L18.88,1.354l-0.182-0.006
					h-0.045L18.54,1.341l-0.049,0.002l-0.034,0.004l-0.014,0.008l-0.009,0.02l-0.002,0.042l-0.009,0.071L18.42,1.532v0.063
					l0.004,0.027l0.009,0.021l0.011,0.011l0.03,0.004l0.157,0.004h0.045l0.152-0.011l0.2,0.011h0.047l0.201-0.011h0.042l0.043,0.003
					l0.102,0.012l0.019,0.008l0.01,0.018l0.004,0.031L19.503,1.879z"/>
				<path fill="#FFFFFF" d="M23.246,1.888l0.003,0.045l0.011,0.087l0.003,0.042L23.26,2.085l-0.003,0.031l-0.014,0.023l-0.018,0.015
					L23.194,2.16l-0.042,0.002h-0.046l-0.112-0.008L22.945,2.15h-0.07l-0.053-0.002l-0.104-0.014l-0.021-0.006l-0.01-0.014
					l-0.003-0.029l-0.003-0.04L22.68,2.003l0.006-0.096V1.641l-0.01-0.178V1.417l0.013-0.176V1.02l-0.006-0.034l-0.018-0.011h-0.017
					L22.627,1L22.6,1.041l-0.118,0.135l-0.173,0.206l-0.114,0.142l-0.025,0.024l-0.02,0.008h-0.022L22.096,1.55l-0.035-0.008
					l-0.03-0.023l-0.142-0.17l-0.105-0.139l-0.026-0.033l-0.149-0.165l-0.036-0.037L21.555,0.98l-0.006,0.031l-0.008,0.18v0.045
					l0.011,0.178v0.045l0.005,0.178v0.045l-0.002,0.175v0.043l0.002,0.085l-0.002,0.045l-0.003,0.047l-0.007,0.037l-0.01,0.018
					l-0.021,0.005l-0.073,0.009L21.395,2.15l-0.109-0.008l-0.046,0.002l-0.135,0.013h-0.066L21.004,2.15l-0.017-0.016l-0.006-0.02
					l-0.004-0.029V2.021l0.004-0.087V1.496l-0.004-0.149V1.301l0.002-0.15l-0.002-0.045l-0.01-0.154V0.907l0.01-0.15l0.002-0.045
					l-0.012-0.15l0.003-0.045l0.011-0.15V0.321l-0.011-0.105V0.171l0.007-0.038l0.01-0.02L21.004,0.1l0.022-0.006l0.038-0.004
					l0.047,0.007l0.062,0.015h0.046l0.089-0.01l0.048-0.005l0.041-0.003l0.108,0.003h0.037l0.031,0.015l0.028,0.032l0.099,0.109
					l0.029,0.037l0.082,0.116l0.027,0.038l0.093,0.111l0.029,0.039l0.089,0.11l0.027,0.031l0.027,0.015h0.026l0.024-0.015
					l0.027-0.028l0.084-0.113l0.03-0.039l0.091-0.111l0.025-0.038l0.102-0.11l0.027-0.038l0.074-0.09l0.023-0.032l0.022-0.022
					L22.69,0.1l0.036,0.002l0.15,0.01l0.134,0.002h0.046l0.085-0.006l0.048,0.004l0.033,0.005l0.021,0.005l0.017,0.014l0.005,0.023
					l-0.002,0.034l-0.011,0.128l-0.003,0.045l0.006,0.15v0.045l-0.003,0.15v0.045l0.003,0.15v0.045l0.01,0.154v0.045l-0.01,0.15
					v0.045l0.008,0.149v0.046l-0.011,0.15v0.045L23.246,1.888z"/>
				<path fill="#FFFFFF" d="M25.85,1.099l-0.003,0.046l-0.005,0.064l-0.006,0.042l-0.018,0.085l-0.005,0.065l-0.005,0.043
					l-0.011,0.045l-0.011,0.042l-0.028,0.06l-0.02,0.041l-0.076,0.126l-0.025,0.038l-0.029,0.038l-0.027,0.03l-0.046,0.048
					l-0.032,0.028l-0.036,0.027l-0.033,0.027L25.382,2.03l-0.036,0.021l-0.044,0.024l-0.038,0.016l-0.058,0.023l-0.042,0.01
					l-0.09,0.029l-0.05,0.014L24.98,2.18l-0.05,0.011l-0.047,0.009l-0.049,0.003h-0.152l-0.097-0.006l-0.094-0.011l-0.039-0.01
					l-0.043-0.01l-0.153-0.052L24.212,2.1l-0.048-0.021l-0.091-0.039l-0.042-0.023l-0.043-0.025L23.95,1.964l-0.036-0.031
					l-0.033-0.038L23.85,1.858l-0.077-0.076L23.745,1.75l-0.028-0.038l-0.023-0.038L23.67,1.618l-0.041-0.127l-0.018-0.06
					l-0.009-0.042l-0.008-0.046l-0.009-0.042l-0.009-0.063l-0.003-0.043l-0.002-0.047V1.099l0.002-0.048L23.577,1l0.005-0.048
					l0.01-0.048l0.011-0.048l0.016-0.047l0.013-0.043l0.018-0.045l0.02-0.065l0.021-0.045l0.011-0.024l0.023-0.043l0.038-0.063
					l0.029-0.04l0.015-0.021l0.033-0.035l0.048-0.04l0.037-0.028l0.036-0.026l0.085-0.057L24.08,0.21l0.042-0.022l0.039-0.02
					l0.06-0.024l0.039-0.016l0.042-0.014l0.044-0.012l0.107-0.02l0.042-0.008l0.143-0.018l0.09-0.005l0.085,0.005l0.068,0.004
					l0.047,0.006l0.05,0.008l0.047,0.012l0.05,0.008l0.045,0.012l0.042,0.011l0.043,0.015l0.06,0.021l0.038,0.018l0.095,0.053
					l0.037,0.025l0.036,0.028l0.049,0.045l0.032,0.028l0.03,0.032l0.025,0.035l0.039,0.053l0.021,0.037l0.021,0.036l0.024,0.038
					l0.03,0.056l0.021,0.037l0.021,0.043l0.013,0.04l0.016,0.065l0.017,0.085l0.006,0.049l0.008,0.047L25.85,1.099z M25.254,1.147
					V1.099l-0.002-0.048L25.25,1.005L25.232,0.92l-0.013-0.04l-0.031-0.062l-0.021-0.037l-0.041-0.051L25.099,0.7l-0.042-0.045
					L25.024,0.63l-0.072-0.043l-0.041-0.018l-0.045-0.014L24.82,0.547l-0.09-0.006l-0.043,0.002l-0.062,0.004l-0.042,0.008
					l-0.072,0.02l-0.046,0.018l-0.065,0.034L24.36,0.652l-0.046,0.039l-0.031,0.035l-0.03,0.042l-0.024,0.038l-0.008,0.017
					l-0.024,0.059l-0.015,0.043l-0.011,0.019l-0.007,0.041l-0.006,0.039l-0.003,0.04l-0.004,0.043v0.042l0.004,0.045l0.009,0.045
					l0.003,0.026l0.011,0.042l0.006,0.021l0.015,0.04l0.011,0.022l0.022,0.039l0.014,0.022l0.031,0.041l0.019,0.02l0.033,0.033
					l0.057,0.048l0.04,0.026l0.045,0.022l0.043,0.018l0.061,0.02l0.041,0.008l0.071,0.008l0.048,0.004l0.071-0.006l0.045-0.006
					l0.062-0.014l0.041-0.018l0.062-0.04l0.035-0.026l0.044-0.045l0.028-0.031l0.038-0.044l0.024-0.041l0.028-0.061l0.019-0.043
					l0.014-0.065l0.006-0.041L25.254,1.147z"/>
				<path fill="#FFFFFF" d="M28.057,0.543l-0.003,0.045v0.42l0.009,0.164v0.045l0.006,0.374v0.048l-0.003,0.022l-0.003,0.049
					l-0.009,0.136l0.003,0.164l-0.003,0.04l-0.011,0.034l-0.022,0.031l-0.028,0.02l-0.027,0.008l-0.038,0.004l-0.145,0.006
					l-0.045,0.003L27.666,2.16h-0.045l-0.037-0.01l-0.033-0.014L27.516,2.11L27.49,2.075l-0.043-0.083l-0.025-0.038l-0.109-0.138
					l-0.029-0.035l-0.109-0.135L27.147,1.61l-0.099-0.148l-0.027-0.035l-0.108-0.136l-0.029-0.034L26.778,1.12l-0.024-0.023
					l-0.021,0.009L26.726,1.14L26.72,1.282v0.045l0.003,0.141v0.044l0.003,0.16v0.044l-0.01,0.159l0.004,0.045l0.017,0.113
					l0.003,0.045L26.73,2.116l-0.02,0.02l-0.019,0.006l-0.034,0.006L26.634,2.15l-0.048,0.004l-0.13-0.004H26.41l-0.116,0.007
					h-0.045l-0.043-0.003l-0.03-0.006l-0.023-0.014l-0.012-0.02l-0.004-0.029l-0.004-0.02V2.024l0.006-0.094l0.002-0.045
					l-0.008-0.151V1.689l0.006-0.346l0.002-0.045l0.01-0.15l0.002-0.045V0.907l-0.012-0.15V0.711l0.012-0.15L26.15,0.516
					l-0.012-0.153l-0.002-0.045V0.252l0.002-0.042l0.005-0.042l0.007-0.032l0.009-0.019l0.017-0.009l0.03-0.006l0.087-0.005
					l0.085,0.005h0.211l0.034,0.004l0.015,0.011l0.019,0.027l0.117,0.126l0.028,0.033l0.104,0.136l0.029,0.035l0.104,0.139
					l0.028,0.034l0.102,0.142l0.026,0.033l0.106,0.136l0.029,0.034l0.103,0.142l0.022,0.02l0.022,0.002l0.019-0.014V1.111
					l-0.019-0.119l-0.003-0.045l0.008-0.122V0.779l-0.012-0.172V0.562l0.012-0.174l-0.003-0.044l-0.009-0.105v-0.07l0.009-0.036
					l0.011-0.024l0.021-0.011l0.034-0.007h0.024l0.049-0.002l0.127,0.009h0.046l0.097-0.007l0.042,0.004l0.064,0.003l0.031,0.005
					l0.021,0.01l0.017,0.02l0.005,0.04l0.003,0.025l0.003,0.047L28.07,0.332l-0.005,0.045L28.057,0.543z"/>
				<path fill="#FFFFFF" d="M30.108,1.879l-0.002,0.044l-0.012,0.153l-0.004,0.028l-0.01,0.019l-0.016,0.012l-0.369,0.012H29.65
					l-0.151-0.012l-0.045,0.003L29.306,2.15l-0.045,0.004h-0.194l-0.148-0.012h-0.044l-0.245,0.015L28.532,2.15l-0.033-0.006
					l-0.02-0.013L28.471,2.11l-0.006-0.031l-0.004-0.064l-0.003-0.046l0.003-0.042V1.885l0.01-0.151V1.689l0.003-0.151l-0.003-0.045
					l-0.008-0.15l-0.002-0.045l0.004-0.152V0.904l0.012-0.15l-0.003-0.045l-0.009-0.15l-0.002-0.045V0.445l0.006-0.084V0.318
					l0.008-0.147l0.003-0.04l0.009-0.024l0.014-0.011l0.023-0.003l0.037-0.006L28.746,0.1l0.172-0.003h0.046l0.171,0.011h0.043
					l0.172-0.011h0.045l0.385,0.005L29.828,0.1l0.096-0.01h0.071l0.039,0.01l0.017,0.014l0.007,0.02l0.005,0.038v0.076l-0.005,0.071
					v0.048l0.003,0.071l0.002,0.042l-0.002,0.043l-0.007,0.034l-0.01,0.02l-0.016,0.012l-0.033,0.006h-0.022l-0.045,0.002
					L29.66,0.589h-0.045l-0.144,0.006h-0.047l-0.147-0.006l-0.126-0.008h-0.044l-0.022,0.004l-0.028,0.004l-0.013,0.015
					l-0.003,0.017l-0.006,0.032l-0.006,0.067v0.045l0.003,0.049l0.003,0.031l0.006,0.019l0.01,0.015l0.032,0.009l0.091,0.006
					l0.091-0.006h0.269L29.85,0.87l0.088,0.005l0.031,0.006l0.019,0.014l0.008,0.018l0.003,0.031l0.005,0.048l0.004,0.049v0.093
					l0.006,0.065l-0.006,0.085L30,1.317l-0.01,0.02l-0.021,0.015L29.94,1.358h-0.055l-0.129-0.015l-0.045-0.002l-0.228,0.014
					l-0.181-0.006h-0.045l-0.114-0.008l-0.048,0.002l-0.033,0.004l-0.016,0.008l-0.007,0.02l-0.004,0.042l-0.008,0.071l-0.003,0.044
					v0.063l0.003,0.027l0.008,0.021l0.011,0.011l0.032,0.004l0.155,0.004h0.047l0.152-0.011l0.201,0.011h0.044l0.203-0.011h0.041
					l0.043,0.003l0.102,0.012l0.018,0.008l0.011,0.018L30.1,1.724L30.108,1.879z"/>
				<path fill="#FFFFFF" d="M32.486,0.131l-0.018,0.024l-0.204,0.301l-0.028,0.036l-0.097,0.13L32.114,0.66l-0.079,0.139
					l-0.025,0.04l-0.088,0.13l-0.028,0.041l-0.091,0.13l-0.029,0.037l-0.094,0.13l-0.01,0.023v0.229l0.01,0.154l-0.003,0.045
					l-0.01,0.153v0.044l0.01,0.121l0.003,0.039l-0.008,0.022l-0.011,0.012l-0.025,0.006h-0.187l-0.331-0.012l-0.013-0.008
					L31.1,2.105V1.757l-0.003-0.045l-0.01-0.154l-0.003-0.045l0.011-0.152l-0.007-0.026l-0.02-0.02l-0.076-0.136l-0.024-0.04
					l-0.092-0.128l-0.025-0.04L30.77,0.837l-0.022-0.041l-0.199-0.3l-0.023-0.039l-0.086-0.134l-0.022-0.039l-0.081-0.137
					l-0.008-0.026l0.002-0.014l0.017-0.011h0.38L30.771,0.1l0.164,0.008l0.032,0.004l0.011,0.008l0.083,0.142l0.022,0.037
					l0.084,0.127l0.023,0.037l0.072,0.131l0.025,0.04l0.078,0.122l0.019,0.025l0.019,0.005l0.019-0.02l0.072-0.134l0.025-0.038
					l0.087-0.125l0.025-0.037l0.071-0.133l0.022-0.041l0.078-0.13L31.827,0.1l0.024-0.006l0.031,0.003l0.141,0.009h0.046
					l0.164-0.009h0.046l0.16,0.011l0.036,0.006l0.014,0.006L32.486,0.131z"/>
			</g>
			<g clip-path="url(#SVGID_4_)">
				<path fill="#FFFFFF" d="M2.479,4.359C2.453,4.386,2.429,4.416,2.401,4.45C2.376,4.484,2.354,4.526,2.335,4.571
					C2.313,4.617,2.304,4.664,2.304,4.715c0,0.071,0.01,0.138,0.03,0.198C2.352,4.974,2.374,5.037,2.4,5.103
					c0.016,0.045,0.031,0.086,0.042,0.124c0.01,0.038,0.017,0.071,0.019,0.104c0.04-0.035,0.092-0.075,0.148-0.121
					c0.06-0.047,0.115-0.099,0.169-0.154C2.83,5,2.875,4.941,2.912,4.877c0.037-0.063,0.056-0.126,0.056-0.19
					c0-0.044-0.005-0.079-0.016-0.107C2.944,4.554,2.933,4.529,2.92,4.508C2.909,4.486,2.896,4.467,2.887,4.449
					c-0.009-0.02-0.014-0.042-0.014-0.065c0-0.031,0.014-0.055,0.039-0.069c0.025-0.016,0.057-0.022,0.093-0.022
					c0.093,0,0.139,0.069,0.139,0.207c0,0.062-0.012,0.123-0.034,0.184C3.084,4.742,3.058,4.798,3.021,4.851
					C2.984,4.905,2.944,4.954,2.896,5.002C2.852,5.051,2.805,5.094,2.76,5.134L2.617,5.259c-0.047,0.039-0.085,0.07-0.115,0.09
					C2.473,5.371,2.443,5.396,2.413,5.424c-0.028,0.03-0.055,0.057-0.076,0.085C2.314,5.534,2.299,5.558,2.286,5.58L2.25,5.56
					c0.022-0.03,0.034-0.071,0.034-0.128c0-0.031-0.004-0.06-0.012-0.083C2.265,5.325,2.258,5.3,2.248,5.274l-0.06-0.165
					C2.177,5.071,2.167,5.041,2.159,5.018C2.152,4.996,2.146,4.974,2.139,4.953C2.113,4.98,2.085,5.005,2.056,5.034
					C2.023,5.062,1.991,5.092,1.955,5.129L1.812,5.253c-0.045,0.04-0.084,0.07-0.115,0.09C1.669,5.365,1.639,5.389,1.61,5.418
					C1.551,5.477,1.509,5.53,1.483,5.58L1.446,5.56C1.468,5.53,1.48,5.487,1.48,5.426c0-0.031-0.006-0.059-0.013-0.083
					C1.461,5.319,1.452,5.294,1.442,5.268L1.384,5.103C1.365,5.061,1.351,5.016,1.336,4.97C1.323,4.925,1.315,4.881,1.315,4.84
					c0-0.087,0.03-0.174,0.092-0.263c0.061-0.087,0.141-0.173,0.24-0.258l0.059-0.045l0.025,0.027
					C1.72,4.313,1.703,4.331,1.677,4.356C1.65,4.382,1.625,4.414,1.6,4.447c-0.024,0.035-0.049,0.075-0.068,0.12
					C1.513,4.611,1.502,4.658,1.502,4.709c0,0.071,0.01,0.138,0.026,0.198c0.019,0.061,0.039,0.124,0.067,0.19
					c0.017,0.045,0.031,0.086,0.041,0.123c0.011,0.038,0.016,0.071,0.018,0.104C1.695,5.29,1.746,5.25,1.805,5.203
					c0.06-0.047,0.114-0.099,0.168-0.154C2.024,4.994,2.07,4.937,2.106,4.873c0.039-0.064,0.057-0.127,0.057-0.19
					c0-0.044-0.006-0.08-0.014-0.107C2.138,4.548,2.127,4.523,2.115,4.502c-0.013-0.021-0.022-0.041-0.031-0.06
					c-0.011-0.02-0.016-0.041-0.016-0.065c0-0.03,0.014-0.052,0.038-0.065c0.025-0.014,0.058-0.02,0.093-0.02
					c0.04,0.004,0.071,0.022,0.095,0.052C2.317,4.377,2.33,4.408,2.33,4.441C2.355,4.41,2.388,4.378,2.425,4.345
					C2.462,4.312,2.49,4.287,2.51,4.273l0.027,0.027C2.525,4.315,2.506,4.333,2.479,4.359z"/>
				<path fill="#FFFFFF" d="M3.434,4.37l0.013-0.04h0.45L3.561,5.29c-0.008,0.03-0.018,0.058-0.026,0.087
					C3.523,5.406,3.52,5.434,3.52,5.46c0,0.021,0.006,0.042,0.02,0.058S3.573,5.542,3.6,5.542c0.029,0,0.059-0.01,0.089-0.032
					c0.028-0.02,0.056-0.043,0.081-0.071c0.024-0.027,0.045-0.056,0.062-0.084c0.018-0.028,0.03-0.05,0.037-0.068l0.034,0.015
					C3.895,5.317,3.885,5.339,3.867,5.371C3.852,5.402,3.828,5.434,3.8,5.464c-0.028,0.032-0.063,0.058-0.104,0.08
					C3.652,5.568,3.604,5.58,3.547,5.58c-0.061,0-0.112-0.014-0.148-0.038C3.361,5.516,3.344,5.473,3.344,5.412
					c0-0.032,0.006-0.067,0.017-0.106C3.371,5.267,3.385,5.231,3.395,5.2l0.292-0.83H3.434z M3.901,3.566
					c0.025-0.025,0.057-0.039,0.094-0.039c0.038,0,0.069,0.014,0.096,0.039c0.025,0.026,0.037,0.057,0.037,0.095
					c0,0.039-0.012,0.07-0.037,0.096C4.064,3.781,4.033,3.795,3.995,3.795c-0.037,0-0.068-0.014-0.094-0.039
					C3.875,3.73,3.863,3.699,3.863,3.661C3.863,3.623,3.875,3.592,3.901,3.566z"/>
				<path fill="#FFFFFF" d="M4.785,4.052L4.685,4.331h0.309L4.981,4.37H4.673L4.35,5.27C4.341,5.298,4.332,5.328,4.32,5.359
					C4.312,5.388,4.307,5.418,4.307,5.45c0,0.027,0.008,0.051,0.023,0.067c0.012,0.018,0.036,0.026,0.067,0.026
					c0.034,0,0.067-0.01,0.097-0.032c0.03-0.02,0.059-0.043,0.083-0.071c0.023-0.027,0.045-0.056,0.061-0.084
					c0.018-0.028,0.029-0.05,0.038-0.068L4.71,5.302C4.702,5.317,4.688,5.339,4.673,5.371c-0.018,0.032-0.04,0.063-0.068,0.094
					c-0.027,0.032-0.063,0.058-0.106,0.08C4.457,5.568,4.405,5.58,4.347,5.58c-0.071,0-0.126-0.018-0.161-0.053
					C4.149,5.491,4.131,5.45,4.131,5.4c0-0.038,0.009-0.081,0.021-0.128c0.015-0.049,0.03-0.093,0.044-0.132l0.278-0.77H4.219
					l0.012-0.04h0.256l0.102-0.278H4.785z"/>
				<path fill="#FFFFFF" d="M5.43,3.431l0.012-0.04h0.447L5.415,4.676h0.006c0.027-0.038,0.062-0.079,0.099-0.12
					c0.038-0.043,0.079-0.083,0.124-0.119C5.69,4.402,5.737,4.372,5.789,4.348c0.048-0.023,0.1-0.035,0.15-0.035
					c0.078,0,0.142,0.021,0.188,0.064c0.046,0.042,0.069,0.094,0.069,0.157c0,0.032-0.006,0.063-0.016,0.095
					C6.171,4.66,6.16,4.698,6.144,4.741L5.96,5.265C5.947,5.296,5.938,5.329,5.927,5.36C5.919,5.39,5.914,5.422,5.914,5.452
					c0,0.023,0.005,0.043,0.013,0.063c0.012,0.019,0.031,0.028,0.061,0.028c0.033,0,0.066-0.009,0.093-0.028
					c0.029-0.02,0.056-0.042,0.08-0.069c0.022-0.027,0.043-0.054,0.061-0.083C6.237,5.333,6.25,5.308,6.26,5.287l0.032,0.015
					C6.28,5.321,6.268,5.345,6.251,5.376s-0.04,0.061-0.066,0.093c-0.028,0.03-0.062,0.055-0.101,0.077
					C6.044,5.568,5.996,5.58,5.943,5.58c-0.062,0-0.112-0.014-0.153-0.04c-0.042-0.027-0.063-0.07-0.063-0.13
					c0-0.025,0.003-0.049,0.01-0.076c0.006-0.027,0.016-0.055,0.024-0.085l0.237-0.677c0.016-0.045,0.022-0.085,0.022-0.114
					c0-0.024-0.007-0.047-0.023-0.071C5.981,4.363,5.952,4.353,5.911,4.353c-0.042,0-0.091,0.016-0.145,0.047
					C5.711,4.429,5.657,4.473,5.602,4.526C5.548,4.58,5.496,4.645,5.447,4.716C5.401,4.789,5.359,4.868,5.33,4.953L5.118,5.544
					H4.923l0.765-2.114H5.43z"/>
			</g>
			<g clip-path="url(#SVGID_4_)">
				<path fill="#FFFFFF" d="M9.631,4.384l0.002,0.047l-0.01,0.186v0.266L9.617,5.001v0.167L9.613,5.2L9.597,5.229L9.575,5.265
					L9.549,5.302L9.501,5.349L9.467,5.38L9.449,5.398L9.412,5.424L9.394,5.435L9.355,5.458L9.3,5.486L9.258,5.503l-0.04,0.014
					l-0.065,0.02L9.11,5.548L9.064,5.556l-0.043,0.01L8.957,5.574L8.918,5.58L8.874,5.588L8.762,5.602L8.719,5.604L8.632,5.6
					L8.566,5.594L8.521,5.588L8.476,5.58L8.434,5.568L8.333,5.54L8.291,5.528L8.249,5.515l-0.058-0.02l-0.036-0.02L8.098,5.444
					L8.065,5.418L8.027,5.392L7.994,5.364L7.961,5.339L7.927,5.311L7.883,5.265L7.854,5.23L7.823,5.188l-0.025-0.04L7.727,5.021
					l-0.02-0.045l-0.02-0.042L7.673,4.888L7.659,4.84L7.65,4.794L7.642,4.747L7.636,4.701L7.625,4.639L7.62,4.593L7.616,4.55V4.508
					l0.009-0.127l0.006-0.022l0.008-0.049L7.65,4.262l0.015-0.045l0.016-0.048l0.014-0.044L7.707,4.08l0.02-0.045l0.021-0.048
					l0.02-0.04l0.037-0.05l0.025-0.034L7.86,3.825l0.031-0.034L7.925,3.76l0.074-0.062l0.037-0.029L8.07,3.644l0.034-0.022
					l0.094-0.055L8.24,3.541l0.048-0.02l0.048-0.014l0.046-0.011L8.485,3.48l0.084-0.012L8.611,3.46l0.042-0.006l0.065-0.006
					l0.045-0.002l0.063,0.005l0.042,0.003l0.065,0.008l0.04,0.01l0.062,0.01l0.043,0.012l0.062,0.02l0.043,0.014l0.103,0.051
					l0.043,0.026L9.366,3.63l0.013,0.008l0.031,0.02L9.44,3.68l0.017,0.015l0.029,0.021l0.017,0.016l0.018,0.02v0.019l-0.008,0.02
					L9.495,3.817L9.471,3.853L9.44,3.885L9.363,3.963L9.311,4.009L9.277,4.038L9.245,4.06L9.223,4.078L9.206,4.089L9.184,4.092
					l-0.031-0.02L9.115,4.046L9.079,4.025l-0.04-0.024l-0.045-0.02L8.948,3.963L8.9,3.953L8.853,3.944L8.719,3.936H8.7L8.653,3.939
					L8.579,3.944L8.535,3.956l-0.086,0.04L8.413,4.021L8.375,4.048L8.346,4.08L8.317,4.118L8.291,4.154L8.269,4.194L8.252,4.236
					L8.237,4.281L8.226,4.324L8.208,4.41L8.2,4.454L8.198,4.502V4.55l0.004,0.069l0.009,0.045l0.015,0.065L8.24,4.774l0.028,0.067
					l0.02,0.041l0.035,0.051l0.028,0.035L8.4,5.016l0.039,0.028l0.055,0.031l0.044,0.018l0.085,0.02l0.048,0.006L8.719,5.12h0.045
					L8.81,5.114l0.043-0.008l0.152-0.037L9.05,5.053l0.042-0.02l0.029-0.021L9.13,4.996V4.964l0.003-0.025V4.896L9.127,4.812V4.763
					L9.115,4.747l-0.03-0.006H9.017L8.971,4.743L8.905,4.752L8.86,4.755H8.796L8.751,4.752L8.653,4.734L8.637,4.729L8.626,4.715
					L8.62,4.682L8.616,4.658L8.614,4.613l0.002-0.07L8.611,4.457L8.606,4.416v-0.06l0.008-0.032l0.015-0.015l0.033-0.004l0.071-0.01
					L8.78,4.293h0.132l0.183-0.008l0.229,0.014h0.045l0.115-0.014l0.046-0.004l0.023,0.004l0.041,0.008l0.02,0.012L9.62,4.321
					l0.008,0.042L9.631,4.384z"/>
				<path fill="#FFFFFF" d="M11.861,5.534l-0.037,0.01h-0.198l-0.155-0.002h-0.047l-0.127,0.006H11.26l-0.024-0.012l-0.023-0.021
					l-0.091-0.128l-0.025-0.033l-0.09-0.123l-0.026-0.034L10.9,5.067l-0.025-0.034l-0.091-0.123l-0.021-0.022l-0.016-0.009
					l-0.033-0.003l-0.091-0.005l-0.037,0.002l-0.022,0.018l-0.009,0.036l-0.007,0.157l0.003,0.045l0.013,0.158l0.001,0.046
					L10.568,5.4v0.045l-0.003,0.045l-0.004,0.033L10.546,5.54l-0.03,0.009h-0.045L10.334,5.54l-0.132,0.009h-0.044l-0.13-0.009
					L9.994,5.534L9.977,5.522L9.972,5.495L9.969,5.455L9.965,5.412l0.007-0.073l0.003-0.045L9.985,5.14V5.094L9.977,4.942
					L9.975,4.896L9.972,4.747V4.701l0.008-0.153V4.502L9.972,4.351V4.305l0.008-0.154V4.105l0.006-0.15V3.91L9.981,3.756V3.712
					L9.977,3.618l0.003-0.042l0.002-0.017l0.01-0.038L10.008,3.5l0.034-0.008l0.023-0.004l0.041-0.003l0.129,0.007l0.336,0.01
					l0.192-0.01h0.047l0.188,0.01h0.107l0.047,0.004l0.043,0.008l0.06,0.017l0.042,0.015l0.043,0.017l0.046,0.017l0.041,0.02
					l0.037,0.023l0.055,0.036l0.031,0.025l0.029,0.029l0.027,0.035l0.04,0.057l0.025,0.037l0.033,0.052l0.02,0.041l0.021,0.042
					l0.015,0.045l0.008,0.045l0.003,0.045l0.006,0.063V4.22l-0.003,0.045l-0.006,0.047L11.76,4.362l-0.012,0.043l-0.017,0.043
					l-0.021,0.042l-0.026,0.042l-0.023,0.038l-0.026,0.034l-0.026,0.032l-0.044,0.045l-0.032,0.024l-0.056,0.031l-0.035,0.021
					l-0.037,0.02l-0.036,0.008l-0.022,0.009l0.012,0.022l0.102,0.145l0.025,0.034l0.102,0.138l0.027,0.035l0.103,0.142l0.029,0.033
					l0.088,0.102l0.026,0.031l0.013,0.032L11.861,5.534z M11.064,4.431l0.038-0.014l0.033-0.02l0.028-0.034l0.02-0.043l0.012-0.045
					l0.003-0.045l-0.003-0.047L11.19,4.134l-0.012-0.042l-0.021-0.043l-0.026-0.034l-0.029-0.025l-0.04-0.017L11,3.958l-0.046-0.006
					L10.812,3.95h-0.046l-0.143,0.009l-0.036,0.003l-0.02,0.009l-0.017,0.016l-0.003,0.033l0.003,0.064l0.006,0.045l0.007,0.048
					l0.001,0.047l-0.004,0.157l0.003,0.031l0.004,0.018l0.02,0.008l0.036,0.006l0.146,0.011h0.046l0.187-0.011L11.064,4.431z"/>
				<path fill="#FFFFFF" d="M13.768,5.279l-0.002,0.045l-0.011,0.153l-0.003,0.029l-0.013,0.019l-0.014,0.012l-0.37,0.012H13.31
					l-0.151-0.012L13.113,5.54l-0.146,0.012l-0.046,0.003h-0.195l-0.146-0.012h-0.046l-0.245,0.014l-0.096-0.005l-0.034-0.007
					L12.14,5.53l-0.01-0.02l-0.005-0.032L12.12,5.414L12.117,5.37l0.003-0.042V5.285l0.01-0.151V5.089l0.004-0.151L12.13,4.894
					l-0.008-0.151L12.12,4.698l0.005-0.152V4.305l0.012-0.151l-0.003-0.044l-0.009-0.151l-0.003-0.045V3.845l0.006-0.085V3.717
					l0.009-0.147l0.003-0.04l0.008-0.022l0.014-0.011l0.022-0.003l0.037-0.006L12.405,3.5l0.174-0.003h0.045l0.17,0.011h0.045
					l0.17-0.011h0.045l0.386,0.005L13.488,3.5l0.095-0.008h0.072L13.694,3.5l0.017,0.014l0.006,0.02l0.007,0.037v0.077l-0.007,0.07
					v0.049l0.003,0.07l0.004,0.042L13.72,3.922l-0.007,0.033l-0.011,0.02l-0.013,0.011l-0.034,0.007h-0.023l-0.046,0.002
					L13.32,3.989h-0.044L13.13,3.995h-0.044l-0.148-0.006l-0.127-0.008h-0.044l-0.021,0.003l-0.028,0.005l-0.015,0.015l-0.003,0.017
					l-0.005,0.031L12.689,4.12v0.046l0.003,0.048l0.002,0.029l0.005,0.022l0.013,0.013l0.03,0.009l0.091,0.006l0.09-0.006h0.27
					l0.318-0.018l0.088,0.006l0.03,0.006l0.018,0.014l0.009,0.018l0.003,0.03l0.006,0.048l0.002,0.049v0.093l0.006,0.065
					l-0.006,0.085l-0.005,0.034l-0.012,0.019l-0.021,0.015l-0.027,0.006h-0.057l-0.128-0.015l-0.046-0.002l-0.228,0.014
					l-0.181-0.006h-0.045l-0.113-0.008l-0.048,0.002l-0.034,0.004L12.71,4.755l-0.011,0.02l-0.002,0.042l-0.008,0.071l-0.003,0.045
					v0.062l0.003,0.029l0.008,0.02l0.013,0.011l0.029,0.003l0.157,0.006h0.044l0.153-0.011l0.201,0.011h0.046l0.201-0.011h0.041
					l0.043,0.002l0.103,0.012l0.017,0.008l0.012,0.018l0.002,0.031L13.768,5.279z"/>
				<path fill="#FFFFFF" d="M16.324,5.463l0.009,0.04l-0.02,0.031l-0.032,0.014l-0.037,0.006h-0.038L16.14,5.548l-0.043-0.004H15.97
					l-0.176,0.012l-0.037-0.014l-0.017-0.02l-0.013-0.031l-0.089-0.238l-0.02-0.029L15.594,5.22L15.56,5.217l-0.171-0.012h-0.046
					L15.131,5.2L14.96,5.197h-0.041L14.877,5.2h-0.131L14.71,5.205L14.688,5.22l-0.019,0.034l-0.064,0.192l-0.018,0.045l-0.03,0.037
					l-0.042,0.014h-0.047l-0.164-0.008h-0.046l-0.176,0.01l-0.036,0.004L14.012,5.53l-0.022-0.029l0.003-0.038l0.004-0.023
					l0.02-0.045l0.038-0.088l0.018-0.042l0.071-0.159l0.018-0.039l0.072-0.159l0.018-0.042l0.064-0.153l0.018-0.042l0.076-0.159
					l0.018-0.04l0.102-0.232l0.08-0.17l0.019-0.044l0.062-0.128l0.021-0.045l0.053-0.13l0.018-0.043l0.05-0.115l0.014-0.032
					l0.03-0.017l0.041-0.008L15.046,3.5h0.222l0.13,0.002l0.049,0.01l0.03,0.021l0.015,0.037l0.039,0.11l0.018,0.042l0.071,0.134
					l0.017,0.04l0.062,0.138l0.017,0.04l0.052,0.146l0.018,0.04l0.062,0.136l0.017,0.04l0.063,0.138l0.017,0.04l0.056,0.142
					l0.018,0.04l0.087,0.176l0.069,0.133l0.02,0.041l0.076,0.178L16.324,5.463z M15.378,4.664l-0.012-0.038l-0.062-0.191
					l-0.015-0.043l-0.058-0.167l-0.014-0.036L15.19,4.168L15.153,4.16l-0.031,0.008l-0.027,0.028l-0.076,0.192l-0.018,0.042
					l-0.074,0.19l-0.008,0.042l0.008,0.034l0.031,0.015l0.039,0.006h0.18l0.133,0.008l0.037-0.011l0.022-0.023L15.378,4.664z"/>
				<path fill="#FFFFFF" d="M18.299,3.723l-0.003,0.043l0.003,0.085l-0.003,0.045l-0.003,0.021l-0.006,0.035l-0.008,0.02
					l-0.018,0.014l-0.034,0.007h-0.045l-0.086-0.009l-0.044-0.003l-0.132,0.008h-0.045l-0.07-0.005h-0.043l-0.019,0.002
					l-0.029,0.009l-0.011,0.017l-0.003,0.037l-0.012,0.168v0.045l0.012,0.169l-0.004,0.045l-0.011,0.17l-0.003,0.045l0.006,0.167
					V5.12l-0.006,0.167l0.003,0.043l0.015,0.127l0.003,0.045l-0.01,0.033l-0.014,0.015l-0.035,0.005l-0.055-0.002l-0.071-0.01
					l-0.049-0.002l-0.127,0.009h-0.045l-0.127-0.009L17.138,5.54L17.119,5.53l-0.004-0.029V5.452l0.007-0.119l0.003-0.046V5.075
					l0.003-0.17V4.859l0.003-0.167V4.646l-0.012-0.17l-0.002-0.045V4.216l-0.005-0.168v-0.04l-0.01-0.022l-0.027-0.005H17.03
					l-0.09,0.005h-0.05l-0.077-0.005l-0.048-0.003l-0.049,0.003l-0.064,0.003h-0.041l-0.024-0.003l-0.031-0.006L16.54,3.963
					l-0.013-0.017l-0.005-0.029v-0.02L16.52,3.853l0.006-0.085V3.726l-0.01-0.107l0.004-0.045l0.008-0.037l0.013-0.02l0.016-0.009
					l0.029-0.006h0.064l0.104,0.01H16.8L16.965,3.5h0.044l0.168,0.014h0.045l0.21-0.014l0.164,0.002h0.046L17.854,3.5h0.209
					l0.094-0.006l0.048,0.003L18.228,3.5l0.034,0.006l0.021,0.011l0.014,0.02l0.006,0.034v0.021l0.004,0.041L18.299,3.723z"/>
				<path fill="#FFFFFF" d="M21.671,4.576l-0.003,0.048l-0.003,0.067l-0.009,0.045l-0.02,0.065l-0.014,0.046l-0.018,0.042
					l-0.018,0.045l-0.017,0.047l-0.017,0.043l-0.032,0.062L21.5,5.126l-0.04,0.045l-0.027,0.031l-0.048,0.045l-0.063,0.062
					l-0.037,0.03L21.23,5.383l-0.036,0.023l-0.058,0.031l-0.036,0.017l-0.062,0.022l-0.041,0.014l-0.046,0.012l-0.045,0.008
					l-0.175,0.025L20.69,5.54l-0.062,0.005h-0.045l-0.091-0.002l-0.075-0.006h-0.045l-0.09,0.006l-0.07,0.002l-0.049,0.004
					L20.12,5.544h-0.197l-0.044-0.002l-0.12-0.012l-0.022-0.01l-0.016-0.015l-0.005-0.031l-0.004-0.047l0.004-0.021l0.005-0.085
					v-0.04l0.003-0.065V5.174l0.004-0.045V5.083l-0.004-0.15V4.888l-0.005-0.151l0.002-0.042l0.003-0.063l0.007-0.041l0.002-0.048
					V4.497l-0.005-0.073l-0.004-0.048V4.351l-0.003-0.05l0.012-0.15V4.105l-0.002-0.15V3.91l-0.01-0.15V3.65l0.003-0.045
					l0.009-0.042l0.007-0.032l0.01-0.017l0.031-0.008L19.829,3.5l0.042-0.006l0.046-0.002l0.249,0.002h0.046l0.136,0.008
					l0.022,0.004h0.051L20.54,3.5l0.043-0.003h0.045l0.07,0.005l0.092,0.006l0.045,0.006l0.073,0.012l0.046,0.008l0.043,0.012
					l0.101,0.036l0.044,0.02l0.042,0.022l0.039,0.023l0.094,0.065l0.037,0.031l0.034,0.028l0.062,0.061l0.027,0.027l0.025,0.032
					l0.02,0.038l0.032,0.061l0.017,0.043l0.014,0.045l0.017,0.045l0.015,0.044l0.013,0.046l0.01,0.061l0.01,0.045l0.008,0.049
					l0.007,0.045l0.002,0.067l0.003,0.045L21.671,4.576z M21.024,4.82l0.019-0.042l0.019-0.048l0.012-0.042l0.01-0.062l0.004-0.04
					L21.09,4.52V4.429l-0.003-0.045l-0.009-0.065l-0.011-0.043L21.062,4.26l-0.023-0.043l-0.041-0.06l-0.016-0.014l-0.027-0.032
					L20.922,4.08l-0.033-0.026l-0.063-0.035l-0.039-0.018l-0.04-0.008l-0.045-0.009l-0.07-0.003l-0.048-0.003h-0.072l-0.062-0.003
					l-0.041,0.003l-0.063,0.008l-0.03,0.009L20.3,4.009l-0.009,0.035l-0.004,0.026l-0.002,0.042l0.006,0.085l0.003,0.045L20.3,4.305
					l0.006,0.045l0.002,0.045v0.045l-0.002,0.062v0.136l-0.003,0.048L20.3,4.732l-0.006,0.062v0.04l-0.003,0.065l0.003,0.043
					l0.009,0.067l0.011,0.032l0.018,0.014l0.034,0.003l0.263-0.017l0.065-0.004l0.046-0.008l0.047-0.014l0.045-0.017l0.043-0.02
					l0.037-0.026l0.052-0.045l0.026-0.034L21.024,4.82z"/>
				<path fill="#FFFFFF" d="M23.597,5.279l-0.002,0.045l-0.013,0.153L23.58,5.506l-0.011,0.019l-0.014,0.012l-0.372,0.012h-0.046
					l-0.149-0.012L22.943,5.54l-0.147,0.012l-0.047,0.003h-0.194l-0.147-0.012h-0.045l-0.244,0.014l-0.097-0.005l-0.034-0.007
					L21.967,5.53l-0.008-0.02l-0.005-0.032l-0.006-0.065L21.945,5.37l0.003-0.042V5.285l0.011-0.151V5.089l0.003-0.151l-0.003-0.044
					l-0.008-0.151l-0.003-0.045l0.006-0.152V4.305l0.011-0.151l-0.003-0.044l-0.008-0.151l-0.003-0.045V3.845l0.005-0.085V3.717
					l0.009-0.147l0.002-0.04l0.01-0.022l0.013-0.011l0.025-0.003l0.036-0.006L22.235,3.5l0.172-0.003h0.045l0.171,0.011h0.045
					l0.17-0.011h0.046l0.386,0.005L23.316,3.5l0.096-0.008h0.071L23.524,3.5l0.016,0.014l0.007,0.02l0.005,0.037v0.077l-0.005,0.07
					v0.049l0.002,0.07l0.003,0.042l-0.003,0.043l-0.006,0.033l-0.01,0.02l-0.016,0.011l-0.034,0.007h-0.021l-0.046,0.002
					l-0.267-0.006h-0.046L22.96,3.995h-0.047l-0.146-0.006l-0.127-0.008h-0.044l-0.021,0.003l-0.029,0.005l-0.014,0.015
					l-0.003,0.017l-0.007,0.031L22.519,4.12v0.046l0.002,0.048l0.002,0.029l0.007,0.022l0.011,0.013l0.031,0.009l0.092,0.006
					l0.091-0.006h0.268L23.34,4.27l0.089,0.006l0.029,0.006l0.018,0.014l0.008,0.018l0.003,0.03l0.007,0.048l0.002,0.049v0.093
					L23.5,4.599l-0.005,0.085l-0.007,0.034l-0.011,0.019l-0.02,0.015L23.43,4.758h-0.057l-0.127-0.015L23.2,4.741l-0.226,0.014
					l-0.183-0.006h-0.046l-0.113-0.008l-0.047,0.002l-0.034,0.004l-0.015,0.008l-0.008,0.02l-0.004,0.042l-0.007,0.071l-0.003,0.045
					v0.062l0.003,0.029l0.007,0.02l0.012,0.011l0.032,0.003l0.154,0.006h0.047l0.152-0.011l0.201,0.011h0.045l0.201-0.011h0.042
					l0.043,0.002l0.104,0.012l0.016,0.008l0.012,0.018l0.003,0.031L23.597,5.279z"/>
				<path fill="#FFFFFF" d="M25.641,4.911l-0.003,0.048l-0.007,0.048l-0.008,0.045l-0.015,0.062l-0.014,0.04l-0.025,0.057
					l-0.019,0.037l-0.035,0.05l-0.028,0.035l-0.033,0.034l-0.035,0.032l-0.057,0.036L25.326,5.46l-0.044,0.021l-0.038,0.021
					l-0.065,0.021l-0.086,0.03l-0.044,0.008l-0.071,0.012L24.935,5.58l-0.062,0.005l-0.04,0.003L24.769,5.59L24.631,5.6H24.57
					l-0.041-0.003L24.465,5.59l-0.043-0.005l-0.049-0.009l-0.042-0.014l-0.062-0.02l-0.04-0.02l-0.041-0.02l-0.041-0.021L24.11,5.46
					l-0.092-0.062L23.984,5.37l-0.049-0.04L23.9,5.302L23.868,5.27l-0.021-0.025l-0.003-0.021L23.857,5.2l0.011-0.015l0.03-0.031
					l0.078-0.074l0.026-0.032l0.048-0.073l0.025-0.032l0.028-0.031l0.03-0.018l0.032,0.006l0.031,0.023l0.092,0.063l0.041,0.021
					l0.039,0.02l0.065,0.031l0.044,0.014l0.044,0.015l0.047,0.009L24.634,5.1l0.046,0.003l0.179-0.011l0.045-0.006l0.022-0.006
					l0.043-0.017l0.036-0.023l0.029-0.029l0.015-0.021l0.017-0.042l-0.004-0.048l-0.005-0.022l-0.022-0.04l-0.016-0.018
					l-0.035-0.027l-0.022-0.009l-0.043-0.017l-0.049-0.011L24.82,4.749l-0.269-0.026l-0.085-0.017l-0.045-0.011L24.36,4.672
					l-0.043-0.014l-0.042-0.02l-0.098-0.047l-0.036-0.026L24.1,4.54l-0.038-0.026l-0.047-0.04l-0.026-0.038l-0.026-0.042
					l-0.016-0.043l-0.02-0.06L23.918,4.25l-0.009-0.062l-0.005-0.091l0.003-0.045l0.005-0.068l0.009-0.042l0.01-0.037l0.016-0.042
					L23.974,3.8l0.021-0.04l0.022-0.035l0.027-0.03l0.046-0.042l0.037-0.029l0.037-0.025l0.04-0.02l0.053-0.031l0.085-0.034
					L24.385,3.5l0.064-0.012l0.046-0.008l0.085-0.012l0.063-0.012l0.044-0.005l0.043-0.003h0.045l0.086,0.008l0.042,0.006
					l0.021,0.006l0.045,0.006l0.097,0.018l0.047,0.01l0.047,0.015l0.047,0.014l0.046,0.017l0.043,0.02l0.043,0.018l0.053,0.031
					l0.04,0.021l0.036,0.026l0.025,0.026v0.027l-0.017,0.032l-0.031,0.057l-0.021,0.033l-0.109,0.142l-0.031,0.041L25.25,4.046
					l-0.023,0.008l-0.021-0.002l-0.027-0.015l-0.044-0.026l-0.042-0.017l-0.019-0.009l-0.043-0.014l-0.023-0.005l-0.047-0.012
					l-0.066-0.014L24.85,3.939l-0.074-0.006h-0.073l-0.05,0.003l-0.046,0.008L24.56,3.958l-0.017,0.009l-0.032,0.026l-0.016,0.016
					l-0.019,0.04L24.47,4.094l0.01,0.038l0.021,0.037l0.031,0.028l0.035,0.018l0.019,0.008l0.042,0.008L24.7,4.24l0.096,0.004
					l0.048,0.01l0.097,0.022l0.091,0.03l0.064,0.014l0.044,0.012l0.078,0.028l0.057,0.025l0.039,0.02l0.04,0.022l0.037,0.023
					l0.082,0.067l0.03,0.034l0.03,0.035l0.033,0.052l0.022,0.035l0.02,0.043l0.013,0.042l0.01,0.062l0.007,0.042L25.641,4.911z"/>
				<path fill="#FFFFFF" d="M26.504,5.1v0.045l-0.012,0.153v0.045L26.49,5.501V5.53l-0.009,0.018l-0.022,0.006L26.42,5.556
					l-0.145-0.002H26.1l-0.142-0.012L25.94,5.536l-0.008-0.008V5.501l-0.006-0.073V5.383l-0.003-0.042V5.298l-0.009-0.153
					L25.918,5.1l0.009-0.152l0.002-0.046l-0.008-0.155V4.701l-0.003-0.153V4.305l-0.003-0.157V4.103l0.003-0.153V3.707L25.912,3.55
					l0.009-0.031l0.018-0.012l0.027-0.002h0.023l0.043-0.004L26.1,3.506h0.044L26.275,3.5h0.175l0.031,0.006l0.007,0.016
					l0.002,0.032l0.006,0.074l0.003,0.045V3.95l0.003,0.153v0.045l-0.003,0.157v0.045l0.003,0.152v0.045l-0.006,0.153v0.248
					L26.504,5.1z"/>
				<path fill="#FFFFFF" d="M28.822,4.384l0.002,0.047l-0.012,0.186v0.266l-0.004,0.119v0.167L28.806,5.2l-0.018,0.029l-0.022,0.037
					L28.74,5.302l-0.048,0.047L28.658,5.38L28.64,5.398l-0.036,0.025l-0.019,0.011l-0.038,0.023l-0.056,0.028l-0.044,0.017
					l-0.039,0.014l-0.065,0.02l-0.041,0.012l-0.047,0.008l-0.042,0.01l-0.065,0.008l-0.04,0.006l-0.042,0.008l-0.113,0.014
					l-0.043,0.003L27.822,5.6l-0.066-0.006l-0.044-0.006L27.666,5.58l-0.043-0.012L27.525,5.54l-0.044-0.011l-0.042-0.014
					l-0.057-0.02l-0.037-0.02L27.29,5.444l-0.034-0.026l-0.037-0.026l-0.035-0.028L27.15,5.339l-0.032-0.028l-0.045-0.045
					L27.046,5.23l-0.032-0.042l-0.025-0.04l-0.07-0.127l-0.02-0.045l-0.02-0.042l-0.015-0.045L26.851,4.84l-0.009-0.045
					l-0.009-0.047l-0.006-0.046l-0.012-0.062l-0.005-0.045L26.808,4.55V4.508l0.008-0.127l0.006-0.022l0.009-0.049l0.012-0.047
					l0.014-0.045l0.014-0.048l0.015-0.044l0.015-0.043l0.02-0.045l0.021-0.048l0.019-0.04l0.036-0.05l0.025-0.034l0.032-0.038
					l0.03-0.034l0.034-0.031l0.073-0.062l0.038-0.029l0.033-0.025l0.033-0.022l0.094-0.055l0.044-0.026l0.048-0.02l0.049-0.014
					l0.044-0.011l0.105-0.017l0.081-0.012l0.044-0.008l0.042-0.006l0.064-0.006l0.046-0.002l0.062,0.005l0.042,0.003l0.065,0.008
					l0.038,0.01l0.063,0.01l0.044,0.012l0.062,0.02l0.044,0.014l0.101,0.051l0.041,0.026l0.038,0.025l0.015,0.008l0.03,0.02
					l0.032,0.022l0.015,0.015l0.03,0.021l0.018,0.016l0.017,0.02v0.019l-0.01,0.02l-0.017,0.026L28.66,3.853l-0.027,0.032
					l-0.079,0.079l-0.052,0.045l-0.033,0.029L28.437,4.06l-0.022,0.018l-0.017,0.011l-0.021,0.003l-0.033-0.02l-0.036-0.026
					l-0.036-0.021l-0.041-0.024l-0.045-0.02l-0.047-0.018l-0.046-0.011l-0.049-0.009l-0.134-0.008h-0.019l-0.046,0.003l-0.074,0.005
					l-0.046,0.012l-0.084,0.04l-0.036,0.026l-0.038,0.027L27.535,4.08l-0.027,0.038l-0.026,0.036l-0.022,0.041l-0.017,0.042
					l-0.015,0.045l-0.01,0.042l-0.02,0.086l-0.008,0.044l-0.003,0.048V4.55l0.007,0.069l0.007,0.045l0.017,0.065l0.014,0.045
					l0.027,0.067l0.021,0.041l0.034,0.051l0.027,0.035l0.051,0.047l0.037,0.028l0.056,0.031l0.043,0.018l0.085,0.02l0.049,0.006
					l0.048,0.002h0.046l0.046-0.006l0.042-0.008l0.153-0.037l0.045-0.016l0.043-0.02l0.027-0.021l0.009-0.017V4.964l0.003-0.025
					V4.896l-0.005-0.084V4.763l-0.012-0.016l-0.031-0.006h-0.067l-0.047,0.002l-0.064,0.009l-0.046,0.003h-0.063L27.94,4.752
					l-0.096-0.018l-0.017-0.005l-0.013-0.014l-0.004-0.033l-0.003-0.024l-0.003-0.045l0.003-0.07l-0.006-0.086l-0.006-0.042v-0.06
					l0.009-0.032l0.014-0.015l0.033-0.004l0.071-0.01l0.048-0.002h0.131l0.185-0.008l0.226,0.014h0.047l0.115-0.014l0.045-0.004
					l0.023,0.004l0.043,0.008l0.02,0.012l0.005,0.016l0.009,0.042L28.822,4.384z"/>
				<path fill="#FFFFFF" d="M31.084,3.944L31.08,3.989v0.42l0.008,0.164v0.045l0.007,0.373v0.049l-0.004,0.023l-0.003,0.048
					L31.08,5.248l0.004,0.164l-0.004,0.04l-0.012,0.034l-0.022,0.031l-0.028,0.02l-0.025,0.008l-0.039,0.004l-0.146,0.006
					l-0.045,0.002l-0.07,0.004h-0.045l-0.038-0.009l-0.032-0.015l-0.034-0.025l-0.026-0.036l-0.043-0.083L30.45,5.355l-0.112-0.138
					l-0.029-0.034l-0.109-0.136l-0.024-0.038l-0.101-0.148l-0.026-0.032l-0.11-0.137L29.91,4.658L29.806,4.52l-0.026-0.023
					l-0.02,0.01L29.751,4.54l-0.006,0.142v0.044l0.003,0.142v0.045l0.003,0.158v0.046l-0.008,0.158l0.002,0.045l0.019,0.113
					l0.002,0.044l-0.009,0.038l-0.02,0.02l-0.02,0.006l-0.035,0.006L29.66,5.551l-0.047,0.003l-0.132-0.003h-0.043l-0.117,0.005
					h-0.047l-0.041-0.002L29.2,5.548l-0.022-0.014l-0.011-0.02l-0.005-0.029l-0.003-0.021V5.424l0.005-0.094l0.003-0.045
					l-0.008-0.151V5.089l0.005-0.346l0.003-0.045l0.01-0.15l0.001-0.045V4.307l-0.011-0.15V4.111l0.011-0.15l-0.001-0.045
					l-0.013-0.153l-0.002-0.046V3.653l0.002-0.042l0.007-0.043l0.006-0.031l0.008-0.02L29.2,3.508l0.033-0.006l0.086-0.005
					l0.083,0.005h0.213l0.035,0.004l0.013,0.011l0.017,0.024l0.121,0.128l0.027,0.034l0.105,0.137l0.026,0.033l0.105,0.138
					l0.029,0.035l0.103,0.142l0.023,0.034l0.108,0.136l0.029,0.033l0.102,0.142l0.023,0.02l0.021,0.003l0.02-0.014V4.511l-0.02-0.12
					l-0.003-0.045l0.008-0.122V4.179l-0.011-0.172V3.961l0.011-0.173l-0.002-0.045l-0.009-0.104V3.567l0.009-0.037l0.013-0.022
					l0.019-0.011l0.033-0.005h0.026l0.049-0.004l0.127,0.009h0.045l0.096-0.005l0.043,0.002l0.066,0.003l0.03,0.005l0.02,0.01
					l0.017,0.019l0.006,0.04L31.1,3.596l0.003,0.048l-0.006,0.089l-0.006,0.045L31.084,3.944z"/>
			</g>
		</g>
	</g>
</g>
</svg>
