<?xml version="1.0" encoding="utf-8"?>
<!-- Generator: Adobe Illustrator 16.0.0, SVG Export Plug-In . SVG Version: 6.00 Build 0)  -->
<!DOCTYPE svg PUBLIC "-//W3C//DTD SVG 1.1//EN" "http://www.w3.org/Graphics/SVG/1.1/DTD/svg11.dtd">
<svg version="1.1" id="Layer_1" xmlns="http://www.w3.org/2000/svg" xmlns:xlink="http://www.w3.org/1999/xlink" x="0px" y="0px"
	 width="150px" height="150px" viewBox="0 0 150 150" enable-background="new 0 0 150 150" xml:space="preserve">
<g id="XMLID_296_">
	<g id="XMLID_289_">
		<path fill="#F9A50D" d="M115.917,55.156c0,0.982-0.794,1.774-1.771,1.774c-0.982,0-1.777-0.792-1.777-1.774
			c0-0.977,0.795-1.771,1.777-1.771C115.123,53.384,115.917,54.179,115.917,55.156z"/>
	</g>
	<g id="XMLID_282_">
		<circle fill="#F9A50D" cx="99.506" cy="16.057" r="2.663"/>
	</g>
	<g id="XMLID_281_">
		<path fill="#F9A50D" d="M131.277,26.613c0,2.362-1.915,4.277-4.277,4.277s-4.277-1.916-4.277-4.277c0-2.365,1.915-4.28,4.277-4.28
			S131.277,24.248,131.277,26.613z"/>
	</g>
	<g id="XMLID_272_">
		<g id="XMLID_278_">
			<path fill="#FFFFFF" d="M96.986,130.448H42.968c-3.101,0-5.614-2.515-5.614-5.616V32.226c0-3.099,2.514-5.613,5.614-5.613h54.019
				c3.099,0,5.613,2.514,5.613,5.613v92.606C102.6,127.934,100.085,130.448,96.986,130.448z"/>
		</g>
		<g id="XMLID_279_">
			<path fill="#1D2129" d="M39.473,39.072h-4.238v-6.623c0-4.386,3.568-7.956,7.954-7.956h5.561v4.239h-5.561
				c-2.049,0-3.716,1.668-3.716,3.717V39.072z"/>
		</g>
		<g id="XMLID_290_">
			<path fill="#1D2129" d="M96.766,132.567H43.188c-4.386,0-7.954-3.569-7.954-7.956V76.673h4.238v47.938
				c0,2.049,1.667,3.717,3.716,3.717h53.577c2.047,0,3.714-1.668,3.714-3.717v-21.578h4.239v21.578
				C104.719,128.998,101.15,132.567,96.766,132.567z"/>
		</g>
		<g id="XMLID_277_">
			<path fill="#1D2129" d="M104.719,63.567h-4.239V32.449c0-2.049-1.667-3.717-3.714-3.717H69.781v-4.239h26.984
				c4.385,0,7.953,3.57,7.953,7.956V63.567z"/>
		</g>
		<g id="XMLID_276_">
			<rect x="54.131" y="24.493" fill="#1D2129" width="9.229" height="4.239"/>
		</g>
		<g id="XMLID_275_">
			<rect x="60.319" y="32.314" fill="#1D2129" width="19.313" height="4.239"/>
		</g>
		<g id="XMLID_274_">
			<path fill="#1D2129" d="M69.977,127.208c-2.896,0-5.251-2.355-5.251-5.252c0-2.896,2.355-5.251,5.251-5.251
				s5.251,2.355,5.251,5.251C75.228,124.853,72.872,127.208,69.977,127.208z M69.977,120.943c-0.559,0-1.013,0.454-1.013,1.013
				c0,0.56,0.454,1.013,1.013,1.013c0.558,0,1.012-0.453,1.012-1.013C70.988,121.397,70.534,120.943,69.977,120.943z"/>
		</g>
		<g id="XMLID_273_">
			<rect x="43.877" y="41.595" fill="#A1A1A1" width="52.198" height="73.557"/>
		</g>
	</g>
	<g id="XMLID_280_">
		<path fill="#F9A50D" d="M69.476,45.836v22.028c0,1.214-0.983,2.199-2.197,2.199h-1.199v4.471v8.473
			c0,0.461-0.577,0.67-0.874,0.317L54.1,70.063H23.04c-1.213,0-2.197-0.985-2.197-2.199V45.836c0-1.214,0.984-2.197,2.197-2.197
			h44.238C68.492,43.64,69.476,44.622,69.476,45.836z"/>
	</g>
	<g id="XMLID_270_">
		<path fill="#1D2129" d="M65.579,85.621c-0.77,0-1.498-0.341-1.996-0.934L53.109,72.183H23.04c-2.38,0-4.317-1.938-4.317-4.319
			V45.836c0-2.38,1.938-4.316,4.317-4.316h44.238c2.38,0,4.317,1.936,4.317,4.316v22.028c0,2.065-1.457,3.797-3.397,4.219v10.923
			C68.198,84.448,67.024,85.621,65.579,85.621z M23.04,45.759l-0.078,22.105l32.127,0.08l8.87,10.592V67.944h3.319l0.078-22.108
			L23.04,45.759z"/>
	</g>
	<g id="XMLID_269_">
		<path fill="#FFFFFF" d="M74.088,72.738v22.028c0,1.214,0.983,2.196,2.198,2.196h1.2v4.471v8.473c0,0.463,0.574,0.673,0.872,0.317
			l11.104-13.261h31.061c1.211,0,2.199-0.982,2.199-2.196V72.738c0-1.214-0.988-2.2-2.199-2.2H76.286
			C75.071,70.538,74.088,71.523,74.088,72.738z"/>
	</g>
	<g id="XMLID_268_">
		<path fill="#1D2129" d="M77.983,112.521L77.983,112.521c-1.443,0-2.616-1.175-2.616-2.616V98.983
			c-1.94-0.422-3.399-2.153-3.399-4.218V72.738c0-2.382,1.938-4.319,4.318-4.319h44.237c2.382,0,4.318,1.937,4.318,4.319v22.028
			c0,2.38-1.937,4.315-4.318,4.315H90.452l-10.469,12.502C79.484,112.179,78.754,112.521,77.983,112.521z M76.286,72.658
			l-0.079,22.108l3.398,0.077v10.589l8.868-10.589h32.05l0.08-22.105L76.286,72.658z"/>
	</g>
	<g id="XMLID_291_">
		<rect x="31.694" y="48.996" fill="#1D2129" width="26.931" height="4.239"/>
	</g>
	<g id="XMLID_271_">
		<rect x="31.694" y="54.811" fill="#1D2129" width="26.931" height="4.239"/>
	</g>
	<g id="XMLID_292_">
		<rect x="31.694" y="60.625" fill="#1D2129" width="14.567" height="4.239"/>
	</g>
	<g id="XMLID_295_">
		<rect x="84.94" y="75.566" fill="#1D2129" width="26.929" height="4.239"/>
	</g>
	<g id="XMLID_294_">
		<rect x="84.94" y="81.381" fill="#1D2129" width="26.929" height="4.239"/>
	</g>
	<g id="XMLID_293_">
		<rect x="84.94" y="87.195" fill="#1D2129" width="14.565" height="4.239"/>
	</g>
</g>
</svg>
