<?xml version="1.0" encoding="utf-8"?>
<!-- Generator: Adobe Illustrator 16.0.0, SVG Export Plug-In . SVG Version: 6.00 Build 0)  -->
<!DOCTYPE svg PUBLIC "-//W3C//DTD SVG 1.1//EN" "http://www.w3.org/Graphics/SVG/1.1/DTD/svg11.dtd">
<svg version="1.1" id="Layer_1" xmlns="http://www.w3.org/2000/svg" xmlns:xlink="http://www.w3.org/1999/xlink" x="0px" y="0px"
	 width="150px" height="150px" viewBox="0 0 150 150" enable-background="new 0 0 150 150" xml:space="preserve">
<g id="XMLID_225_">
	<g id="XMLID_585_">
		<circle fill="#F9A50D" cx="121.223" cy="38.664" r="1.428"/>
	</g>
	<g id="XMLID_5_">
		<circle fill="#F9A50D" cx="108.177" cy="17.675" r="2.294"/>
	</g>
	<g id="XMLID_436_">
		<path fill="#F9A50D" d="M75.829,129.807h-3.913c-1.562,0-2.839-1.278-2.839-2.839v-9.008c0-1.562,1.277-2.838,2.839-2.838h3.913
			c1.562,0,2.839,1.275,2.839,2.838v9.008C78.668,128.528,77.391,129.807,75.829,129.807z"/>
	</g>
	<g id="XMLID_435_">
		<path fill="#1D2129" d="M75.829,131.937h-3.913c-2.739,0-4.968-2.229-4.968-4.969v-9.008c0-2.738,2.229-4.968,4.968-4.968h3.913
			c2.74,0,4.968,2.229,4.968,4.968v9.008C80.797,129.708,78.568,131.937,75.829,131.937z M71.916,117.25
			c-0.385,0-0.71,0.324-0.71,0.71v9.008c0,0.387,0.325,0.71,0.71,0.71h3.913c0.384,0,0.71-0.323,0.71-0.71v-9.008
			c0-0.386-0.326-0.71-0.71-0.71H71.916z"/>
	</g>
	<g id="XMLID_434_">
		<path fill="#FFFFFF" d="M106.148,55.468c0-17.696-14.346-32.045-32.044-32.045c-17.697,0-32.043,14.349-32.043,32.045
			c0,11.873,6.475,22.214,16.071,27.752v31.594l4.54,8.609h22.013l5.391-8.609V83.22C99.674,77.682,106.148,67.341,106.148,55.468z"
			/>
	</g>
	<g id="XMLID_433_">
		<polygon fill="#A1A1A1" points="58.132,92.258 58.132,116.749 62.672,123.423 84.686,123.423 90.076,116.749 90.076,92.258 		"/>
	</g>
	<g id="XMLID_432_">
		<polygon fill="#F9A50D" points="90.076,114.813 84.686,123.423 62.672,123.423 58.132,114.813 		"/>
	</g>
	<g id="XMLID_4_">
		<path fill="#1D2129" d="M85.867,125.552H61.39l-5.388-10.211V84.423c-9.943-6.229-16.071-17.211-16.071-28.955
			c0-8.052,2.853-15.866,8.034-22.013l3.254,2.743c-4.532,5.379-7.029,12.221-7.029,19.27c0,10.641,5.75,20.568,15.007,25.908
			l1.065,0.613v32.299l3.695,7.005h19.55l4.439-7.092V81.989l1.064-0.613c9.258-5.34,15.006-15.268,15.006-25.908
			c0-16.497-13.418-29.914-29.914-29.914c-3.889,0-7.668,0.734-11.233,2.181l-1.603-3.948c4.078-1.652,8.396-2.491,12.836-2.491
			c18.843,0,34.173,15.329,34.173,34.173c0,11.744-6.127,22.726-16.072,28.955v31.004L85.867,125.552z"/>
	</g>
	<g id="XMLID_430_">
		<path fill="#1D2129" d="M54.292,33.052l-3.025-3c2.044-2.062,3.1-2.666,5.199-3.869l0.603-0.344l2.126,3.688l-0.61,0.352
			C56.599,31.015,55.929,31.397,54.292,33.052z"/>
	</g>
	<g id="XMLID_429_">
		<rect x="53.315" y="90.888" fill="#1D2129" width="41.58" height="4.258"/>
	</g>
	<g id="XMLID_3_">
		<rect x="53.315" y="98.154" fill="#1D2129" width="41.58" height="4.258"/>
	</g>
	<g id="XMLID_2_">
		<rect x="53.315" y="105.419" fill="#1D2129" width="41.58" height="4.258"/>
	</g>
	<g id="XMLID_426_">
		<rect x="53.315" y="112.685" fill="#1D2129" width="41.58" height="4.259"/>
	</g>
	<g id="XMLID_297_">
		<g id="XMLID_304_">
			<path fill="#FFFFFF" d="M79.006,87.198h-9.836c-0.74,0-1.34-0.303-1.34-0.672V44.419c0-0.098,0.041-0.193,0.123-0.279
				l4.918-8.523c0.48-0.518,1.955-0.518,2.435,0l4.919,8.523c0.082,0.086,0.121,0.182,0.121,0.279v42.107
				C80.346,86.896,79.748,87.198,79.006,87.198z"/>
		</g>
		<g id="XMLID_303_">
			<rect x="67.83" y="51.746" fill="#F9A50D" width="12.516" height="39.524"/>
		</g>
		<g id="XMLID_302_">
			<path fill="#1D2129" d="M82.477,91.271h-4.258V47.399l-4.13-8.949l-4.131,8.949v43.871H65.7V46.462l5.729-12.414
				c0.476-1.035,1.519-1.702,2.66-1.702c1.14,0,2.182,0.667,2.661,1.704l5.727,12.412V91.271z"/>
		</g>
		<g id="XMLID_298_">
			<rect x="67.396" y="49.618" fill="#1D2129" width="12.95" height="4.258"/>
		</g>
	</g>
	<g id="XMLID_565_">
		<circle fill="#F9A50D" cx="45.208" cy="93.018" r="1.94"/>
	</g>
	<g id="XMLID_588_">
		<circle fill="#F9A50D" cx="39.091" cy="113.938" r="2.36"/>
	</g>
	<g id="XMLID_584_">
		<circle fill="#F9A50D" cx="131.239" cy="20.942" r="3.989"/>
	</g>
	<g id="XMLID_583_">
		<circle fill="#F9A50D" cx="17.904" cy="101.692" r="3.133"/>
	</g>
	<g id="XMLID_597_">
		
			<rect x="107.59" y="28.617" transform="matrix(0.5016 0.8651 -0.8651 0.5016 83.6166 -78.2462)" fill="#1D2129" width="4.256" height="9.661"/>
	</g>
	<g id="XMLID_596_">
		
			<rect x="112.91" y="42.897" transform="matrix(0.1757 0.9844 -0.9844 0.1757 141.8076 -73.9069)" fill="#1D2129" width="4.257" height="9.662"/>
	</g>
	<g id="XMLID_595_">
		
			<rect x="110.333" y="60.837" transform="matrix(0.9853 0.1711 -0.1711 0.9853 12.4678 -18.7708)" fill="#1D2129" width="9.66" height="4.26"/>
	</g>
	<g id="XMLID_594_">
		
			<rect x="105.243" y="75.204" transform="matrix(0.8675 0.4974 -0.4974 0.8675 53.0416 -44.5027)" fill="#1D2129" width="9.66" height="4.256"/>
	</g>
	<g id="XMLID_310_">
		
			<rect x="34.259" y="31.317" transform="matrix(0.8653 0.5013 -0.5013 0.8653 22.0324 -15.0891)" fill="#1D2129" width="9.661" height="4.261"/>
	</g>
	<g id="XMLID_309_">
		
			<rect x="28.94" y="45.601" transform="matrix(0.9844 0.1759 -0.1759 0.9844 8.9218 -5.1959)" fill="#1D2129" width="9.66" height="4.256"/>
	</g>
	<g id="XMLID_308_">
		
			<rect x="31.516" y="58.136" transform="matrix(0.1715 0.9852 -0.9852 0.1715 89.9119 19.0224)" fill="#1D2129" width="4.26" height="9.661"/>
	</g>
	<g id="XMLID_307_">
		
			<rect x="36.606" y="72.502" transform="matrix(0.4975 0.8675 -0.8675 0.4975 86.5475 5.2591)" fill="#1D2129" width="4.258" height="9.662"/>
	</g>
</g>
</svg>
