<?xml version="1.0" encoding="utf-8"?>
<!-- Generator: Adobe Illustrator 16.0.0, SVG Export Plug-In . SVG Version: 6.00 Build 0)  -->
<!DOCTYPE svg PUBLIC "-//W3C//DTD SVG 1.1//EN" "http://www.w3.org/Graphics/SVG/1.1/DTD/svg11.dtd">
<svg version="1.1" id="Layer_1" xmlns="http://www.w3.org/2000/svg" xmlns:xlink="http://www.w3.org/1999/xlink" x="0px" y="0px"
	 width="150px" height="150px" viewBox="0 0 150 150" enable-background="new 0 0 150 150" xml:space="preserve">
<g id="XMLID_562_">
	<g id="XMLID_554_">
		<circle fill="#F9A50D" cx="103.672" cy="54.364" r="1.903"/>
	</g>
	<g id="XMLID_558_">
		<circle fill="#F9A50D" cx="48.541" cy="65.213" r="1.903"/>
	</g>
	<g id="XMLID_560_">
		<circle fill="#F9A50D" cx="31.541" cy="46.392" r="2.961"/>
	</g>
	<g id="XMLID_561_">
		<circle fill="#F9A50D" cx="48.541" cy="29.057" r="4.743"/>
	</g>
	<g id="XMLID_556_">
		<circle fill="#F9A50D" cx="117.534" cy="43.725" r="3.062"/>
	</g>
	<g id="XMLID_557_">
		<circle fill="#F9A50D" cx="105" cy="29.057" r="4.389"/>
	</g>
	<g id="XMLID_553_">
		<g id="XMLID_502_">
			<path fill="#A1A1A1" d="M48.539,97.15h15.749V62.853l-5.812,7.861c-1.671,2.261-3.638,4.274-5.655,6.233
				c-2.704,2.621-4.281,6.259-4.281,10.112V97.15z"/>
		</g>
		<g id="XMLID_479_">
			<path fill="#A1A1A1" d="M103.674,97.15H87.925V62.853l5.812,7.861c1.671,2.261,3.638,4.274,5.655,6.233
				c2.704,2.621,4.281,6.259,4.281,10.112V97.15z"/>
		</g>
		<g id="XMLID_501_">
			<path fill="#1D2129" d="M105.497,98.974H86.102V57.318l9.103,12.311c1.632,2.211,3.588,4.193,5.459,6.01
				c3.072,2.978,4.834,7.14,4.834,11.421V98.974z M89.748,95.327h12.103V87.06c0-3.298-1.358-6.509-3.729-8.805
				c-1.979-1.923-4.062-4.036-5.85-6.456l-2.524-3.411V95.327z"/>
		</g>
		<g id="XMLID_549_">
			<path fill="#1D2129" d="M66.111,98.974H46.716V87.06c0-4.281,1.762-8.443,4.834-11.421c1.871-1.816,3.827-3.799,5.461-6.01
				l9.101-12.311V98.974z M50.362,95.327h12.103V68.388l-2.521,3.411c-1.79,2.42-3.87,4.533-5.853,6.456
				c-2.37,2.296-3.729,5.507-3.729,8.805V95.327z"/>
		</g>
		<g id="XMLID_498_">
			<path fill="#FFFFFF" d="M89.271,97.15H63.346V43.424c0-6.271,2.903-12.186,7.865-16.018l2.315-1.788
				c1.639-1.268,3.925-1.268,5.565,0l2.524,1.949c4.829,3.73,7.654,9.488,7.654,15.59V97.15z"/>
		</g>
		<g id="XMLID_715_" opacity="0.31">
			<path fill="#A1A1A1" d="M76.907,27.406l2.249-1.738l-0.064-0.05c-1.641-1.268-3.927-1.268-5.565,0l-2.315,1.788
				c-4.962,3.832-7.865,9.746-7.865,16.018V97.15h5.695V43.424C69.041,37.152,71.947,31.238,76.907,27.406z"/>
		</g>
		<g id="XMLID_1_">
			<path fill="#1D2129" d="M91.095,98.974H61.521v-55.55c0-6.786,3.205-13.313,8.576-17.461l2.315-1.788
				c2.289-1.773,5.496-1.769,7.795,0l2.521,1.949l-2.228,2.887l-2.523-1.949c-0.99-0.762-2.36-0.757-3.336-0.002l-2.317,1.79
				c-4.48,3.46-7.156,8.908-7.156,14.574v51.903h22.278v-52.17c0-2.706-0.629-5.423-1.816-7.854l3.276-1.6
				c1.433,2.925,2.188,6.194,2.188,9.454V98.974z"/>
		</g>
		<g id="XMLID_491_">
			<path fill="#1D2129" d="M84.083,32.718c-0.323-0.451-0.667-0.886-1.033-1.306l2.74-2.403c0.446,0.506,0.862,1.035,1.256,1.581
				L84.083,32.718z"/>
		</g>
		<g id="XMLID_518_">
			<circle fill="#A1A1A1" cx="76.308" cy="49.806" r="4.558"/>
		</g>
		<g id="XMLID_507_">
			<circle fill="#A1A1A1" cx="76.308" cy="65.659" r="4.558"/>
		</g>
		<g id="XMLID_505_">
			<path fill="#A1A1A1" d="M80.865,81.516c0,2.517-2.039,4.556-4.556,4.556c-2.52,0-4.56-2.039-4.56-4.556
				c0-2.52,2.04-4.56,4.56-4.56C78.826,76.956,80.865,78.996,80.865,81.516z"/>
		</g>
		<g id="XMLID_492_">
			<path fill="#1D2129" d="M76.31,56.188c-3.519,0-6.382-2.863-6.382-6.382s2.863-6.38,6.382-6.38s6.38,2.861,6.38,6.38
				S79.828,56.188,76.31,56.188z M76.31,47.073c-1.508,0-2.735,1.225-2.735,2.732s1.228,2.735,2.735,2.735s2.732-1.228,2.732-2.735
				S77.817,47.073,76.31,47.073z"/>
		</g>
		<g id="XMLID_493_">
			<path fill="#1D2129" d="M76.31,72.041c-3.519,0-6.382-2.863-6.382-6.382s2.863-6.38,6.382-6.38s6.38,2.861,6.38,6.38
				S79.828,72.041,76.31,72.041z M76.31,62.927c-1.508,0-2.735,1.225-2.735,2.732s1.228,2.735,2.735,2.735s2.732-1.228,2.732-2.735
				S77.817,62.927,76.31,62.927z"/>
		</g>
		<g id="XMLID_504_">
			<path fill="#1D2129" d="M76.31,87.895c-3.519,0-6.382-2.86-6.382-6.379c0-3.52,2.863-6.383,6.382-6.383s6.38,2.863,6.38,6.383
				C82.689,85.034,79.828,87.895,76.31,87.895z M76.31,78.78c-1.508,0-2.735,1.228-2.735,2.735c0,1.507,1.228,2.732,2.735,2.732
				s2.732-1.226,2.732-2.732C79.042,80.008,77.817,78.78,76.31,78.78z"/>
		</g>
		<g id="XMLID_552_">
			<circle fill="#FFFFFF" cx="124.887" cy="98.224" r="4.197"/>
		</g>
		<g id="XMLID_551_">
			<circle fill="#FFFFFF" cx="112.496" cy="83.719" r="2.876"/>
		</g>
		<g id="XMLID_550_">
			<circle fill="#FFFFFF" cx="24.706" cy="102.013" r="3.79"/>
		</g>
		<g id="XMLID_548_">
			<circle fill="#FFFFFF" cx="36.214" cy="84.784" r="4.746"/>
		</g>
		<g id="XMLID_546_">
			<path fill="#FFFFFF" d="M126.667,125.896c0-3.191-1.562-6-3.939-7.771c1.186-1.576,1.912-3.517,1.912-5.642
				c0-5.219-4.231-9.449-9.45-9.449s-9.45,4.23-9.45,9.449c0,0.176,0.043,0.343,0.053,0.516c-2.156,0.247-3.989,1.484-5.046,3.267
				c-1.427-1.054-3.175-1.697-5.083-1.697c-2.553,0-4.818,1.133-6.393,2.899c-1.187-1.017-2.706-1.652-4.39-1.652
				c-0.354,0-0.693,0.052-1.03,0.104c0.055-0.328,0.1-0.66,0.1-1.005c0-3.291-2.667-5.957-5.957-5.957
				c-3.291,0-5.958,2.666-5.958,5.957c0,0.29,0.045,0.567,0.086,0.848c-0.861-0.352-1.8-0.553-2.785-0.553
				c-2.832,0-5.264,1.611-6.504,3.95c-0.836-0.769-1.941-1.249-3.167-1.249c-1.472,0-2.771,0.691-3.63,1.755
				c-0.572-3.167-3.329-5.575-6.662-5.575c-0.343,0-0.67,0.053-0.998,0.101c0.33-0.981,0.551-2.017,0.551-3.111
				c0-5.403-4.38-9.784-9.784-9.784s-9.785,4.381-9.785,9.784c0,2.059,0.642,3.966,1.729,5.542
				c-4.021,1.188-6.976,4.867-6.976,9.274"/>
		</g>
		<g id="XMLID_555_">
			<path fill="#1D2129" d="M124.886,104.245c-3.319,0-6.019-2.702-6.019-6.021s2.699-6.02,6.019-6.02s6.021,2.7,6.021,6.02
				S128.205,104.245,124.886,104.245z M124.886,95.852c-1.308,0-2.372,1.063-2.372,2.372c0,1.308,1.064,2.374,2.372,2.374
				c1.309,0,2.375-1.066,2.375-2.374C127.261,96.915,126.194,95.852,124.886,95.852z"/>
		</g>
		<g id="XMLID_545_">
			<path fill="#1D2129" d="M112.494,88.417c-2.59,0-4.698-2.108-4.698-4.698c0-2.593,2.108-4.701,4.698-4.701
				c2.593,0,4.701,2.108,4.701,4.701C117.195,86.309,115.087,88.417,112.494,88.417z M112.494,82.664
				c-0.579,0-1.052,0.473-1.052,1.055c0,0.579,0.473,1.052,1.052,1.052c0.582,0,1.055-0.473,1.055-1.052
				C113.549,83.137,113.076,82.664,112.494,82.664z"/>
		</g>
		<g id="XMLID_525_">
			<path fill="#1D2129" d="M24.705,107.626c-3.095,0-5.612-2.517-5.612-5.613c0-3.096,2.518-5.612,5.612-5.612
				c3.096,0,5.613,2.517,5.613,5.612C30.318,105.109,27.801,107.626,24.705,107.626z M24.705,100.047
				c-1.083,0-1.966,0.881-1.966,1.966s0.883,1.966,1.966,1.966c1.084,0,1.967-0.881,1.967-1.966S25.789,100.047,24.705,100.047z"/>
		</g>
		<g id="XMLID_544_">
			<path fill="#1D2129" d="M36.214,91.354c-3.622,0-6.569-2.946-6.569-6.57c0-3.623,2.947-6.569,6.569-6.569s6.57,2.946,6.57,6.569
				C42.784,88.408,39.836,91.354,36.214,91.354z M36.214,81.861c-1.612,0-2.923,1.312-2.923,2.923c0,1.612,1.311,2.923,2.923,2.923
				s2.923-1.311,2.923-2.923C39.137,83.173,37.826,81.861,36.214,81.861z"/>
		</g>
		<g id="XMLID_559_">
			<path fill="#1D2129" d="M128.49,125.896h-3.646c0-2.49-1.169-4.791-3.206-6.309l-1.467-1.095l1.099-1.463
				c1.012-1.346,1.546-2.918,1.546-4.547c0-4.204-3.421-7.626-7.626-7.626s-7.627,3.422-7.627,7.626l0.05,0.416l0.093,1.717
				l-1.707,0.194c-1.548,0.178-2.89,1.047-3.683,2.384l-1.03,1.738l-1.622-1.199c-2.789-2.065-6.74-1.624-9.031,0.947l-1.188,1.335
				l-1.358-1.164c-0.648-0.553-1.729-1.213-3.205-1.213c-0.259,0-0.506,0.045-0.75,0.083l-2.493,0.387l0.413-2.488
				c0.04-0.23,0.076-0.463,0.076-0.705c0-2.279-1.854-4.134-4.134-4.134c-2.28,0-4.134,1.854-4.134,4.134
				c0,0.171,0.03,0.337,0.055,0.501l0.46,3.158l-2.941-1.123c-2.641-1.076-5.675,0.085-6.987,2.564l-1.109,2.087l-1.738-1.601
				c-1.182-1.088-3.131-0.95-4.146,0.311l-2.502,3.099l-0.71-3.92c-0.466-2.583-3.001-4.373-5.523-4.008l-2.938,0.43l0.867-2.804
				c0.307-0.912,0.456-1.738,0.456-2.529c0-4.39-3.571-7.961-7.961-7.961c-4.391,0-7.961,3.571-7.961,7.961
				c0,1.615,0.486,3.173,1.405,4.507l1.43,2.073l-2.414,0.712c-3.391,1-5.669,4.024-5.669,7.524h-3.646
				c0-4.376,2.422-8.244,6.21-10.193c-0.634-1.45-0.963-3.018-0.963-4.623c0-6.4,5.207-11.607,11.608-11.607
				S50.75,104.68,50.75,111.08c0,0.426-0.026,0.853-0.081,1.285c2.662,0.403,4.953,2.034,6.228,4.348
				c1.67-0.796,3.726-0.824,5.43-0.048c1.943-2.315,4.975-3.562,8.025-3.222c0.689-3.591,3.854-6.309,7.642-6.309
				c3.993,0,7.291,3.022,7.73,6.899c1.178,0.121,2.324,0.491,3.367,1.085c3.099-2.55,7.621-3.077,11.197-1.271
				c1.002-1.077,2.26-1.873,3.668-2.317c0.484-5.771,5.338-10.321,11.233-10.321c6.216,0,11.273,5.058,11.273,11.273
				c0,1.859-0.463,3.661-1.352,5.295C127.277,119.932,128.49,122.812,128.49,125.896z"/>
		</g>
	</g>
</g>
</svg>
