<?xml version="1.0" encoding="utf-8"?>
<!-- Generator: Adobe Illustrator 16.0.0, SVG Export Plug-In . SVG Version: 6.00 Build 0)  -->
<!DOCTYPE svg PUBLIC "-//W3C//DTD SVG 1.1//EN" "http://www.w3.org/Graphics/SVG/1.1/DTD/svg11.dtd">
<svg version="1.1" id="Layer_1" xmlns="http://www.w3.org/2000/svg" xmlns:xlink="http://www.w3.org/1999/xlink" x="0px" y="0px"
	 width="132.844px" height="44.343px" viewBox="0 0 132.844 44.343" enable-background="new 0 0 132.844 44.343"
	 xml:space="preserve">
<g>
	<path fill="#663399" d="M21.613,8.918c1.52,0.075,2.995,0.188,4.425,0.335c1.431,0.149,2.819,0.298,4.168,0.447
		s2.645,0.283,3.89,0.402c1.243,0.119,2.439,0.179,3.587,0.179c0.327,0,0.641-0.071,0.938-0.212c0.297-0.142,0.559-0.332,0.782-0.57
		C39.626,9.26,39.806,9,39.941,8.717c0.134-0.282,0.201-0.573,0.201-0.872c0-0.477-0.146-0.908-0.437-1.296
		c-0.29-0.388-0.793-0.655-1.509-0.805c-3.084-0.551-6.046-0.931-8.884-1.14c-2.839-0.208-5.554-0.313-8.147-0.313
		c-1.907,0-3.755,0.045-5.543,0.134c-1.788,0.09-3.464,0.253-5.029,0.492C9.03,5.156,7.595,5.487,6.292,5.912
		S3.87,6.876,2.939,7.532s-1.654,1.449-2.168,2.38S0,11.935,0,13.187c0.03,0.536,0.179,1.013,0.447,1.43
		C0.67,14.974,1.028,15.302,1.52,15.6c0.492,0.299,1.185,0.446,2.079,0.446s1.583-0.146,2.067-0.436
		C6.15,15.32,6.504,15,6.728,14.65c0.224-0.351,0.354-0.674,0.391-0.973c0.037-0.298,0.056-0.462,0.056-0.491
		c0-0.566,0.146-1.059,0.436-1.477c0.291-0.417,0.685-0.773,1.185-1.072c0.499-0.299,1.08-0.544,1.743-0.737s1.378-0.354,2.146-0.48
		c0.767-0.126,1.557-0.227,2.369-0.302s1.613-0.142,2.403-0.201c-0.909,2.831-1.755,5.401-2.537,7.711
		c-0.782,2.311-1.509,4.422-2.179,6.336c-0.67,1.915-1.282,3.67-1.833,5.265c-0.552,1.595-1.043,3.104-1.475,4.525
		C9,34.177,8.624,35.545,8.303,36.856c-0.32,1.311-0.578,2.645-0.771,4c-0.089,0.344-0.134,0.656-0.134,0.938
		c0,0.895,0.276,1.542,0.827,1.944c0.551,0.402,1.251,0.604,2.101,0.604c0.283,0,0.588-0.086,0.916-0.257
		c0.328-0.172,0.645-0.414,0.95-0.727c0.305-0.313,0.581-0.683,0.827-1.106c0.246-0.425,0.428-0.891,0.548-1.396
		c0.283-1.104,0.644-2.421,1.084-3.956c0.439-1.534,0.913-3.207,1.419-5.019c0.506-1.811,1.031-3.71,1.576-5.698
		c0.543-1.989,1.065-3.985,1.564-5.99c0.499-2.004,0.957-3.967,1.375-5.889C21.002,12.382,21.345,10.587,21.613,8.918z"/>
	<path fill="#663399" d="M131.657,26.697c-1.021-0.25-2.125,0.771-2.125,0.771c-0.306,0.341-1.691,1.457-2.197,1.862
		c-0.34,0.243-0.685,0.473-1.03,0.688c-0.597,0.373-1.253,0.708-1.968,1.006c-0.715,0.299-1.407,0.446-2.078,0.446
		c-0.237,0-0.467-0.045-0.682-0.134c-0.218-0.09-0.41-0.242-0.582-0.459c-0.172-0.216-0.31-0.503-0.414-0.859
		c-0.104-0.357-0.156-0.806-0.156-1.342c0-0.312,0.037-0.703,0.113-1.174c0.073-0.469,0.155-0.953,0.244-1.452
		c0.09-0.499,0.172-0.976,0.245-1.431c0.074-0.454,0.113-0.809,0.113-1.062c0-0.328-0.061-0.622-0.18-0.884
		c-0.119-0.261-0.279-0.479-0.48-0.658c-0.201-0.18-0.436-0.316-0.703-0.414c-0.27-0.098-0.545-0.146-0.827-0.146
		c-0.82,0-1.543,0.221-2.168,0.66s-1.185,0.979-1.677,1.62c-0.492,0.641-0.924,1.33-1.297,2.066c-0.373,0.737-0.707,1.404-1.006,2
		h-0.246c-0.029-0.76-0.045-1.529-0.045-2.312s0-1.449,0-2.001c0-0.462-0.01-0.827-0.033-1.095c-0.021-0.27-0.086-0.474-0.188-0.615
		c-0.104-0.142-0.267-0.23-0.479-0.269c-0.218-0.036-0.519-0.057-0.906-0.057c-0.342,0-0.629,0.021-0.859,0.057
		c-0.232,0.037-0.426,0.111-0.582,0.225c-0.156,0.111-0.293,0.265-0.412,0.458c-0.121,0.192-0.24,0.454-0.357,0.782
		c-0.194,0.49-0.389,1.116-0.582,1.877c-0.192,0.76-0.387,1.595-0.582,2.504c-0.192,0.908-0.375,1.866-0.547,2.872
		c-0.103,0.601-0.181,1.18-0.267,1.767l-0.079-0.169c-0.596,0.596-1.178,1.114-1.744,1.554c-0.565,0.44-1.127,0.838-1.688,1.195
		c-0.559,0.357-1.113,0.686-1.664,0.983c-0.551,0.299-1.096,0.604-1.631,0.917c0.445-0.687,0.807-1.35,1.084-1.989
		c0.275-0.641,0.49-1.285,0.646-1.935c0.157-0.647,0.266-1.312,0.323-1.988c0.062-0.679,0.091-1.397,0.091-2.157
		c0-0.908-0.128-1.78-0.38-2.614c-0.254-0.835-0.618-1.571-1.096-2.213c-0.478-0.641-1.06-1.155-1.744-1.542
		c-0.687-0.388-1.467-0.582-2.347-0.582c-0.686,0-1.375,0.317-2.067,0.95c-0.692,0.634-1.457,1.472-2.291,2.515l-0.356-0.246
		c1.043-1.266,2.09-2.614,3.141-4.045s2-2.895,2.85-4.393c0.85-1.497,1.539-2.998,2.068-4.503c0.527-1.505,0.793-2.965,0.793-4.38
		c0-1.014-0.061-1.968-0.18-2.861s-0.365-1.672-0.736-2.335c-0.373-0.663-0.902-1.188-1.588-1.576C97.436,0.194,96.525,0,95.395,0
		c-1.015,0-1.955,0.41-2.828,1.229c-0.871,0.819-1.676,1.908-2.414,3.263c-0.736,1.356-1.406,2.902-2.01,4.638
		c-0.604,1.736-1.148,3.524-1.634,5.364c-0.483,1.841-0.903,3.658-1.262,5.454c-0.356,1.795-0.656,3.423-0.896,4.883
		c-0.356,2.19-0.641,4.177-0.85,5.957s-0.373,3.326-0.492,4.638c-0.025,0.289-0.048,0.567-0.068,0.847
		c-0.279,0.211-0.56,0.417-0.848,0.585c-0.357,0.208-0.707,0.38-1.051,0.514c-0.342,0.134-0.67,0.201-0.982,0.201
		c-0.299,0-0.553-0.253-0.76-0.76c-0.209-0.507-0.314-1.162-0.314-1.968c0-1.027,0.054-2.001,0.156-2.917
		c0.105-0.915,0.226-1.82,0.359-2.716c0.133-0.894,0.252-1.803,0.357-2.727c0.104-0.924,0.156-1.899,0.156-2.928
		c0-0.672-0.242-1.188-0.728-1.555c-0.485-0.365-1.076-0.548-1.777-0.548c-0.625,0-1.153,0.205-1.586,0.615
		c-0.434,0.41-0.864,0.913-1.297,1.509c-0.446,0.611-0.928,1.318-1.44,2.123c-0.515,0.805-1,1.572-1.455,2.302
		c-0.453,0.73-0.838,1.354-1.149,1.866c-0.313,0.515-0.483,0.794-0.515,0.839l-0.246-0.269c0-0.029,0.008-0.09,0.021-0.18
		c0.016-0.09,0.061-0.306,0.135-0.647c0.104-0.491,0.217-0.972,0.336-1.441c0.119-0.469,0.233-0.949,0.347-1.44
		c0.11-0.492,0.204-0.998,0.278-1.521c0.074-0.521,0.111-1.071,0.111-1.652c0-0.672-0.224-1.188-0.67-1.555
		c-0.447-0.364-0.982-0.548-1.609-0.548c-0.67,0-1.248,0.201-1.731,0.604c-0.484,0.402-0.942,0.908-1.375,1.521
		c-0.446,0.611-0.916,1.314-1.407,2.112c-0.492,0.797-0.95,1.561-1.375,2.29c-0.425,0.729-0.782,1.355-1.073,1.878
		c-0.29,0.521-0.45,0.805-0.48,0.85l-0.245-0.269c0.148-0.938,0.29-1.849,0.424-2.728c0.06-0.372,0.115-0.756,0.168-1.15
		c0.052-0.396,0.101-0.778,0.146-1.151c0.045-0.372,0.078-0.722,0.101-1.05s0.033-0.618,0.033-0.872
		c0-0.462-0.015-0.827-0.045-1.095c-0.029-0.27-0.122-0.474-0.279-0.615c-0.156-0.142-0.395-0.23-0.715-0.268
		c-0.32-0.038-0.764-0.058-1.33-0.058c-0.372,0-0.678,0.026-0.916,0.079c-0.238,0.052-0.443,0.156-0.615,0.312
		c-0.171,0.155-0.323,0.376-0.458,0.658c-0.134,0.283-0.275,0.663-0.425,1.141c-0.148,0.463-0.312,1.059-0.491,1.788
		c-0.179,0.729-0.354,1.534-0.525,2.414c-0.172,0.88-0.335,1.8-0.491,2.761c-0.157,0.961-0.295,1.902-0.414,2.827
		c-0.016,0.121-0.027,0.233-0.042,0.354c-0.297,0.247-0.601,0.495-0.941,0.753c-0.835,0.634-1.721,1.218-2.659,1.754
		c-0.939,0.537-1.904,0.983-2.895,1.343c-0.991,0.356-1.934,0.535-2.827,0.535c-0.283,0-0.548-0.028-0.794-0.09
		c-0.246-0.059-0.48-0.163-0.704-0.312s-0.443-0.357-0.659-0.626c-0.216-0.269-0.436-0.604-0.659-1.006
		c1.296-0.357,2.499-0.856,3.609-1.497c1.11-0.642,2.067-1.371,2.872-2.19c0.805-0.819,1.434-1.69,1.889-2.615
		c0.454-0.924,0.682-1.848,0.682-2.771c0-0.851-0.149-1.616-0.447-2.302c-0.298-0.687-0.712-1.271-1.24-1.756
		c-0.529-0.483-1.151-0.859-1.866-1.129c-0.715-0.268-1.49-0.401-2.324-0.401c-1.028,0-1.964,0.183-2.806,0.548
		c-0.842,0.365-1.602,0.856-2.279,1.476c-0.679,0.618-1.271,1.333-1.777,2.146c-0.506,0.812-0.927,1.665-1.263,2.559
		c-0.335,0.896-0.585,1.809-0.748,2.738c-0.164,0.932-0.246,1.813-0.246,2.647c0,0.194,0.012,0.386,0.021,0.576
		c-0.158,0.125-0.299,0.246-0.468,0.374c-0.835,0.634-1.721,1.219-2.659,1.754c-0.939,0.537-1.904,0.983-2.895,1.343
		c-0.991,0.356-1.934,0.535-2.827,0.535c-0.283,0-0.548-0.028-0.794-0.09c-0.246-0.059-0.48-0.163-0.704-0.312
		c-0.224-0.148-0.443-0.357-0.659-0.626s-0.436-0.604-0.659-1.006c1.296-0.357,2.499-0.856,3.609-1.497
		c1.11-0.642,2.067-1.371,2.872-2.19c0.805-0.819,1.434-1.69,1.889-2.615c0.454-0.924,0.682-1.848,0.682-2.771
		c0-0.851-0.149-1.616-0.447-2.302c-0.298-0.687-0.712-1.271-1.24-1.755c-0.529-0.484-1.151-0.86-1.866-1.13
		c-0.715-0.268-1.49-0.401-2.324-0.401c-1.028,0-1.964,0.183-2.806,0.548s-1.602,0.856-2.279,1.476
		c-0.678,0.618-1.271,1.333-1.777,2.146c-0.507,0.812-0.928,1.665-1.263,2.559c-0.335,0.896-0.585,1.809-0.749,2.738
		c-0.164,0.932-0.246,1.814-0.246,2.648c0,1.236,0.175,2.418,0.525,3.543s0.875,2.114,1.576,2.973
		c0.7,0.855,1.576,1.538,2.626,2.045c1.05,0.507,2.276,0.76,3.676,0.76c0.895,0,1.777-0.101,2.648-0.302
		c0.872-0.201,1.714-0.47,2.526-0.805s1.587-0.72,2.324-1.151c0.737-0.432,1.427-0.871,2.067-1.318
		c0.273-0.192,0.542-0.396,0.809-0.602c0.261,0.49,0.564,0.948,0.912,1.373c0.7,0.855,1.576,1.538,2.626,2.045
		c1.051,0.507,2.276,0.76,3.677,0.76c0.895,0,1.777-0.101,2.648-0.302c0.872-0.201,1.714-0.47,2.526-0.805s1.587-0.72,2.324-1.151
		c0.672-0.394,1.3-0.795,1.892-1.201c0.014,0.171,0.01,0.353,0.03,0.521c0.067,0.56,0.201,1.059,0.402,1.498
		c0.201,0.438,0.488,0.79,0.86,1.05c0.372,0.262,0.864,0.392,1.476,0.392c0.477,0,0.912-0.107,1.308-0.324
		c0.395-0.216,0.741-0.629,1.039-1.239c1.028-2.071,1.866-3.796,2.515-5.174c0.647-1.38,1.181-2.5,1.598-3.364
		s0.741-1.521,0.973-1.967c0.23-0.447,0.436-0.782,0.614-1.007h0.335c-0.238,1.371-0.439,2.652-0.604,3.846
		c-0.074,0.507-0.148,1.017-0.223,1.529c-0.075,0.516-0.143,1.004-0.201,1.466c-0.061,0.462-0.104,0.871-0.135,1.229
		c-0.029,0.358-0.044,0.634-0.044,0.827c0,0.462,0.025,0.938,0.078,1.431c0.052,0.491,0.156,0.942,0.312,1.354
		c0.156,0.409,0.376,0.745,0.659,1.005c0.283,0.262,0.663,0.392,1.141,0.392c0.625,0,1.178-0.107,1.653-0.323
		c0.476-0.217,0.909-0.638,1.297-1.264l4.537-11.556h0.336c-0.119,1.073-0.213,2.135-0.278,3.186
		c-0.068,1.052-0.103,2.045-0.103,2.983c0,0.999,0.049,1.923,0.146,2.771c0.097,0.851,0.256,1.588,0.48,2.214
		c0.223,0.626,0.518,1.113,0.883,1.464c0.363,0.351,0.814,0.524,1.352,0.524c1.088,0,2.062-0.146,2.929-0.436
		c0.862-0.291,1.657-0.663,2.381-1.118c0.519-0.325,1.011-0.688,1.491-1.067c0.638,0.329,1.289,0.643,1.962,0.924
		c1.014,0.432,2.144,0.822,3.387,1.173c1.244,0.351,2.498,0.524,3.767,0.524h0.559c0.566-0.224,1.096-0.454,1.586-0.691
		c0.434-0.209,0.869-0.439,1.309-0.693c0.439-0.253,0.785-0.507,1.039-0.76c1.043-0.238,2.029-0.507,2.961-0.806
		c0.933-0.298,1.826-0.65,2.683-1.062c0.856-0.41,1.69-0.891,2.504-1.441c0.079-0.054,0.157-0.118,0.237-0.175
		c-0.016,0.338-0.024,0.662-0.024,0.957c0,0.596,0.033,1.173,0.101,1.731c0.065,0.56,0.2,1.059,0.401,1.498
		c0.201,0.438,0.488,0.79,0.86,1.05c0.371,0.262,0.863,0.392,1.476,0.392c0.269,0,0.515-0.048,0.736-0.146
		c0.225-0.098,0.434-0.265,0.627-0.503c0.192-0.238,0.383-0.547,0.569-0.929c0.187-0.38,0.383-0.859,0.592-1.44l4-11.152h0.357
		c0.119,0.938,0.277,1.866,0.471,2.782c0.194,0.916,0.492,1.743,0.894,2.48s0.947,1.333,1.633,1.787
		c0.687,0.455,1.587,0.684,2.705,0.684c0.625,0,1.24-0.094,1.845-0.28c0.604-0.186,1.184-0.417,1.741-0.692
		c0.558-0.274,1.084-0.569,1.576-0.883c0.467-0.297,0.882-0.562,1.253-0.808c0.002-0.001,0.003-0.001,0.005-0.002
		c3.417-1.875,4.755-4.177,4.755-4.177C133.302,27.135,131.657,26.697,131.657,26.697z M25.011,31.224
		c0.03-0.462,0.093-0.938,0.19-1.432c0.097-0.491,0.238-0.979,0.425-1.464c0.186-0.482,0.432-0.916,0.737-1.296
		c0.305-0.38,0.685-0.689,1.14-0.928c0.454-0.238,1.002-0.357,1.643-0.357c0.357,0,0.659,0.216,0.905,0.647
		c0.246,0.433,0.369,0.983,0.369,1.653c0,0.479-0.187,0.97-0.559,1.477c-0.373,0.507-0.831,0.976-1.375,1.408
		c-0.544,0.432-1.133,0.785-1.766,1.062c-0.634,0.275-1.218,0.413-1.754,0.413C24.967,32.081,24.981,31.686,25.011,31.224z
		 M42.601,31.224c0.03-0.462,0.093-0.938,0.19-1.432c0.097-0.491,0.238-0.979,0.425-1.464c0.186-0.482,0.432-0.916,0.737-1.296
		c0.305-0.38,0.685-0.689,1.14-0.928c0.454-0.238,1.002-0.357,1.643-0.357c0.357,0,0.659,0.216,0.905,0.647
		c0.246,0.433,0.369,0.983,0.369,1.653c0,0.479-0.187,0.97-0.559,1.477c-0.373,0.507-0.831,0.976-1.375,1.408
		c-0.544,0.432-1.133,0.785-1.766,1.062c-0.634,0.275-1.218,0.413-1.755,0.413C42.556,32.081,42.571,31.686,42.601,31.224z
		 M89.538,20.976c0.147-0.797,0.323-1.677,0.524-2.638s0.424-1.979,0.67-3.051c0.246-1.073,0.511-2.127,0.793-3.163
		c0.283-1.035,0.574-2.025,0.873-2.973c0.297-0.946,0.604-1.78,0.916-2.503c0.312-0.724,0.629-1.296,0.949-1.722
		c0.32-0.425,0.629-0.637,0.928-0.637c0.254,0,0.455,0.083,0.604,0.246c0.147,0.164,0.265,0.351,0.347,0.56s0.135,0.409,0.155,0.604
		c0.022,0.194,0.035,0.321,0.035,0.38c-0.076,1.06-0.242,2.098-0.504,3.118c-0.261,1.021-0.588,2.026-0.981,3.017
		c-0.396,0.991-0.837,1.959-1.32,2.906c-0.484,0.947-0.979,1.87-1.486,2.771c-0.506,0.9-1.008,1.77-1.508,2.604
		c-0.5,0.835-0.949,1.64-1.352,2.414C89.27,22.418,89.389,21.773,89.538,20.976z M96.938,31.213
		c-0.076,0.679-0.188,1.363-0.336,2.057c-0.148,0.692-0.345,1.359-0.582,2.001c-0.238,0.641-0.521,1.21-0.849,1.709
		c-0.328,0.5-0.7,0.897-1.119,1.195c-0.416,0.299-0.879,0.447-1.385,0.447c-0.433,0-0.888-0.037-1.362-0.112
		c-0.478-0.073-0.933-0.155-1.363-0.244c-0.492-0.104-0.984-0.231-1.478-0.382c0.045-0.521,0.099-1.079,0.158-1.676
		c0.06-0.521,0.133-1.121,0.224-1.8c0.09-0.678,0.2-1.419,0.336-2.224c0.164-0.998,0.416-1.852,0.76-2.56
		c0.342-0.708,0.735-1.289,1.184-1.744c0.447-0.454,0.932-0.789,1.453-1.005s1.043-0.324,1.564-0.324
		c0.582,0,1.062,0.078,1.44,0.234c0.381,0.156,0.678,0.361,0.896,0.614c0.215,0.254,0.364,0.548,0.446,0.883
		c0.082,0.336,0.123,0.689,0.123,1.062C97.048,29.913,97.011,30.535,96.938,31.213z"/>
</g>
</svg>
